;TYPE=PLATED
;Layer: PTH_Through
;EasyEDA Pro v2.2.45.4, 2026-05-28 03:39:25
;Gerber Generator version 0.3
M48
METRIC,LZ,0000.00000
;Hole size 1 = 0.30500 METRIC
T01C0.30500
;Hole size 2 = 0.60000 METRIC
T02C0.60000
;Hole size 3 = 0.90002 METRIC
T03C0.90002
;Hole size 4 = 0.91440 METRIC
T04C0.91440
;Hole size 5 = 1.00000 METRIC
T05C1.00000
;Hole size 6 = 1.20000 METRIC
T06C1.20000
;Hole size 7 = 3.20000 METRIC
T07C3.20000
%
G05
G90
T01
X10.149Y-22.593
X9.894Y-26.8476
X13.056Y-26.8476
X11.169Y-29.733
X8.976Y-18.81901
X7.14Y-15.045
X4.029Y-35.394
X49.572Y-15.3
X45.86584Y-37.689
X45.79801Y-39.72901
X60.69Y-9.435
X38.86201Y-4.64099
X37.128Y-40.392
X36.21Y-39.78
X13.056Y-37.179
X10.506Y-34.629
X45.798Y-47.226
X45.798Y-41.973
X63.189Y-7.701
X39.576Y-8.007
X12.393Y-11.22
X15.3Y-9.435
X17.646Y-10.557
T02
X7.19681Y-24.93959
X2.75792Y-20.55819
T03
X8.8488Y-53.1936
X10.8488Y-53.1936
X8.0458Y-9.8476
X10.0458Y-9.8476
T04
X43.3398Y-61.3516
X43.3398Y-58.8116
X43.3398Y-56.2716
X43.3398Y-53.7316
X43.3398Y-51.1916
X43.3398Y-48.6516
X43.3398Y-46.1116
X43.3398Y-43.5716
X43.3398Y-41.0316
X43.3398Y-38.4916
X43.3398Y-35.9516
X43.3398Y-8.0116
X43.3398Y-10.5516
X43.3398Y-13.0916
X43.3398Y-15.6316
X43.3398Y-18.1716
X43.3398Y-20.7116
X43.3398Y-23.2516
X43.3398Y-25.7916
X43.3398Y-28.3316
X43.3398Y-30.8716
X43.3398Y-33.4116
X20.2258Y-33.4116
X20.2258Y-30.8716
X20.2258Y-28.3316
X20.2258Y-25.7916
X20.2258Y-23.2516
X20.2258Y-20.7116
X20.2258Y-18.1716
X20.2258Y-15.6316
X20.2258Y-13.0916
X20.2258Y-10.5516
X20.2258Y-8.0116
X20.2258Y-35.9516
X20.2258Y-38.4916
X20.2258Y-41.0316
X20.2258Y-43.5716
X20.2258Y-46.1116
X20.2258Y-48.6516
X20.2258Y-51.1916
X20.2258Y-53.7316
X20.2258Y-56.2716
X20.2258Y-58.8116
X20.2258Y-61.3516
T05
X64.00997Y-56.87571G85X64.00997Y-56.82572
X64.00997Y-59.3757G85X64.00997Y-59.32571
X64.00997Y-46.87571G85X64.00997Y-46.82572
X64.00997Y-49.3757G85X64.00997Y-49.32571
X64.00997Y-36.8757G85X64.00997Y-36.82572
X64.00997Y-39.3757G85X64.00997Y-39.32571
X64.00997Y-26.8757G85X64.00997Y-26.82572
X64.00997Y-29.3757G85X64.00997Y-29.32571
X54.00997Y-56.87571G85X54.00997Y-56.82572
X54.00997Y-59.3757G85X54.00997Y-59.32571
X54.00997Y-46.87571G85X54.00997Y-46.82572
X54.00997Y-49.3757G85X54.00997Y-49.32571
X54.00997Y-36.8757G85X54.00997Y-36.82572
X54.00997Y-39.3757G85X54.00997Y-39.32571
X54.00997Y-26.8757G85X54.00997Y-26.82572
X54.00997Y-29.3757G85X54.00997Y-29.32571
X74.01Y-46.87593G85X74.01Y-46.82595
X74.01Y-49.37593G85X74.01Y-49.32594
X74.01Y-56.87593G85X74.01Y-56.82594
X74.01Y-59.37593G85X74.01Y-59.32594
X82.05577Y-13.1076
X79.51577Y-13.1076
X76.97578Y-13.1076
X74.43578Y-13.1076
X71.89579Y-13.1076
X69.35579Y-13.1076
X66.8158Y-13.1076
X64.2758Y-13.1076
X61.73581Y-13.1076
X59.19582Y-13.1076
X56.65582Y-13.1076
X54.11583Y-13.1076
X51.57583Y-13.1076
X49.03584Y-13.1076
T06
X74.0158Y-35.95665G85X74.0758Y-35.95665
X74.0158Y-33.45652G85X74.0758Y-33.45652
X74.0158Y-30.95666G85X74.0758Y-30.95666
T07
X4.0Y-66.0
X81.0Y-66.0
X4.0Y-4.0
X81.0Y-4.0
M30