;TYPE=PLATED
;Layer: PTH_Through_Via
;EasyEDA Pro v2.2.45.4, 2026-05-28 03:39:25
;Gerber Generator version 0.3
M48
METRIC,LZ,0000.00000
;Hole size 1 = 0.30500 METRIC
T01C0.30500
;Hole size 2 = 0.60000 METRIC
T02C0.60000
%
G05
G90
T01
X10.149Y-22.593
X9.894Y-26.8476
X13.056Y-26.8476
X11.169Y-29.733
X8.976Y-18.81901
X7.14Y-15.045
X4.029Y-35.394
X49.572Y-15.3
X45.86584Y-37.689
X45.79801Y-39.72901
X60.69Y-9.435
X38.86201Y-4.64099
X37.128Y-40.392
X36.21Y-39.78
X13.056Y-37.179
X10.506Y-34.629
X45.798Y-47.226
X45.798Y-41.973
X63.189Y-7.701
X39.576Y-8.007
X12.393Y-11.22
X15.3Y-9.435
X17.646Y-10.557
T02
X7.19681Y-24.93959
X2.75792Y-20.55819
M30