G04 Layer: BottomLayer*
G04 EasyEDA Pro v2.2.45.4, 2026-05-28 03:39:25*
G04 Gerber Generator version 0.3*
G04 Scale: 100 percent, Rotated: No, Reflected: No*
G04 Dimensions in millimeters*
G04 Leading zeros omitted, absolute positions, 4 integers and 5 decimals*
G04 Generated by one-click*
%FSLAX45Y45*%
%MOMM*%
%ADD10C,0.2*%
%ADD11C,0.254*%
%ADD12R,1.524X1.524*%
%ADD13R,1.5X1.5*%
%ADD14C,1.5*%
%ADD15R,2.79999X2.2*%
%ADD16O,2.79999X1.9*%
%ADD17C,1.508*%
%ADD18C,1.524*%
%ADD19C,5.0015*%
%ADD20C,5.0*%
%ADD21C,1.0*%
%ADD22C,0.61*%
%ADD23C,0.6*%
%ADD24C,0.7*%
G75*


G04 Copper Start*
G36*
G01X45854Y-189800D02*
G01X47877Y-164091D01*
G01X53898Y-139014D01*
G01X63767Y-115189D01*
G01X77241Y-93200D01*
G01X93990Y-73590D01*
G01X113600Y-56841D01*
G01X135588Y-43367D01*
G01X159414Y-33498D01*
G01X184491Y-27477D01*
G01X210200Y-25454D01*
G01X8310200Y-25454D01*
G01X8335909Y-27477D01*
G01X8360986Y-33498D01*
G01X8384811Y-43367D01*
G01X8406800Y-56841D01*
G01X8426410Y-73590D01*
G01X8443159Y-93200D01*
G01X8456633Y-115189D01*
G01X8466502Y-139014D01*
G01X8472523Y-164091D01*
G01X8474546Y-189800D01*
G01X8474546Y-6789800D01*
G01X8472523Y-6815509D01*
G01X8466502Y-6840586D01*
G01X8456633Y-6864412D01*
G01X8443159Y-6886400D01*
G01X8426410Y-6906010D01*
G01X8406800Y-6922759D01*
G01X8384811Y-6936233D01*
G01X8360986Y-6946102D01*
G01X8335909Y-6952123D01*
G01X8310200Y-6954146D01*
G01X210200Y-6954146D01*
G01X184491Y-6952123D01*
G01X159414Y-6946102D01*
G01X135588Y-6936233D01*
G01X113600Y-6922759D01*
G01X93990Y-6906010D01*
G01X77241Y-6886400D01*
G01X63767Y-6864412D01*
G01X53898Y-6840586D01*
G01X47877Y-6815509D01*
G01X45854Y-6789800D01*
G01X45854Y-6600000D01*
G01X114346Y-6600000D01*
G01X116277Y-6633162D01*
G01X122046Y-6665876D01*
G01X131573Y-6697699D01*
G01X144730Y-6728201D01*
G01X161340Y-6756969D01*
G01X181176Y-6783615D01*
G01X203972Y-6807777D01*
G01X229419Y-6829130D01*
G01X257173Y-6847384D01*
G01X286858Y-6862292D01*
G01X318073Y-6873654D01*
G01X350397Y-6881314D01*
G01X383391Y-6885171D01*
G01X416609Y-6885171D01*
G01X449603Y-6881314D01*
G01X481926Y-6873654D01*
G01X513142Y-6862292D01*
G01X542827Y-6847384D01*
G01X570581Y-6829130D01*
G01X596028Y-6807777D01*
G01X618824Y-6783615D01*
G01X638660Y-6756969D01*
G01X655270Y-6728201D01*
G01X668427Y-6697699D01*
G01X677954Y-6665876D01*
G01X683722Y-6633162D01*
G01X685654Y-6600000D01*
G01X683722Y-6566838D01*
G01X677954Y-6534124D01*
G01X668427Y-6502301D01*
G01X655270Y-6471799D01*
G01X638660Y-6443031D01*
G01X618824Y-6416385D01*
G01X596028Y-6392223D01*
G01X570581Y-6370870D01*
G01X542827Y-6352616D01*
G01X513142Y-6337708D01*
G01X481926Y-6326346D01*
G01X449603Y-6318686D01*
G01X416609Y-6314829D01*
G01X383391Y-6314829D01*
G01X350397Y-6318686D01*
G01X318073Y-6326346D01*
G01X286858Y-6337708D01*
G01X257173Y-6352616D01*
G01X229419Y-6370870D01*
G01X203972Y-6392223D01*
G01X181176Y-6416385D01*
G01X161340Y-6443031D01*
G01X144730Y-6471799D01*
G01X131573Y-6502301D01*
G01X122046Y-6534124D01*
G01X116277Y-6566838D01*
G01X114346Y-6600000D01*
G01X114346Y-6600000D01*
G01X45854Y-6600000D01*
G01X45854Y-2016386D01*
G01X114938Y-2016386D01*
G01X114938Y-2450092D01*
G01X116200Y-2462901D01*
G01X119936Y-2475217D01*
G01X126003Y-2486567D01*
G01X134168Y-2496516D01*
G01X245446Y-2607795D01*
G01X245446Y-3835200D01*
G01X246708Y-3848009D01*
G01X250444Y-3860325D01*
G01X256511Y-3871675D01*
G01X264676Y-3881624D01*
G01X823127Y-4440076D01*
G01X823127Y-4440076D01*
G01X823127Y-5208706D01*
G01X809880Y-5208706D01*
G01X798863Y-5210451D01*
G01X788923Y-5215515D01*
G01X781036Y-5223403D01*
G01X775971Y-5233342D01*
G01X774226Y-5244360D01*
G01X774226Y-5394360D01*
G01X775971Y-5405377D01*
G01X781036Y-5415317D01*
G01X788923Y-5423204D01*
G01X798863Y-5428269D01*
G01X809880Y-5430014D01*
G01X959880Y-5430014D01*
G01X970898Y-5428269D01*
G01X980837Y-5423204D01*
G01X988725Y-5415317D01*
G01X993789Y-5405377D01*
G01X995534Y-5394360D01*
G01X995534Y-5384641D01*
G01X1008611Y-5399530D01*
G01X1024134Y-5411849D01*
G01X1041605Y-5421201D01*
G01X1060464Y-5427287D01*
G01X1080106Y-5429911D01*
G01X1099901Y-5428989D01*
G01X1119215Y-5424552D01*
G01X1137427Y-5416741D01*
G01X1153954Y-5405806D01*
G01X1168266Y-5392099D01*
G01X1179903Y-5376060D01*
G01X1188493Y-5358201D01*
G01X1193759Y-5339097D01*
G01X1195534Y-5319360D01*
G01X1193759Y-5299623D01*
G01X1188493Y-5280519D01*
G01X1179903Y-5262660D01*
G01X1168266Y-5246620D01*
G01X1153954Y-5232914D01*
G01X1137427Y-5221979D01*
G01X1119215Y-5214168D01*
G01X1099901Y-5209730D01*
G01X1080106Y-5208809D01*
G01X1060464Y-5211433D01*
G01X1041605Y-5217519D01*
G01X1024134Y-5226871D01*
G01X1008611Y-5239189D01*
G01X995534Y-5254079D01*
G01X995534Y-5244360D01*
G01X993789Y-5233342D01*
G01X988725Y-5223403D01*
G01X980837Y-5215515D01*
G01X970898Y-5210451D01*
G01X959880Y-5208706D01*
G01X954435Y-5208706D01*
G01X954435Y-4448983D01*
G01X1464346Y-4958895D01*
G01X1464346Y-6028200D01*
G01X1465608Y-6041008D01*
G01X1469344Y-6053325D01*
G01X1475411Y-6064675D01*
G01X1483576Y-6074624D01*
G01X1789576Y-6380624D01*
G01X1799525Y-6388789D01*
G01X1810875Y-6394856D01*
G01X1823191Y-6398592D01*
G01X1836000Y-6399854D01*
G01X3542805Y-6399854D01*
G01X3865276Y-6722324D01*
G01X3875225Y-6730489D01*
G01X3886575Y-6736556D01*
G01X3898892Y-6740292D01*
G01X3911700Y-6741554D01*
G01X7293000Y-6741554D01*
G01X7305809Y-6740292D01*
G01X7318125Y-6736556D01*
G01X7329476Y-6730489D01*
G01X7339424Y-6722324D01*
G01X7461749Y-6600000D01*
G01X7814346Y-6600000D01*
G01X7816278Y-6633162D01*
G01X7822046Y-6665876D01*
G01X7831573Y-6697699D01*
G01X7844730Y-6728201D01*
G01X7861340Y-6756969D01*
G01X7881176Y-6783615D01*
G01X7903972Y-6807777D01*
G01X7929419Y-6829130D01*
G01X7957173Y-6847384D01*
G01X7986858Y-6862292D01*
G01X8018074Y-6873654D01*
G01X8050397Y-6881314D01*
G01X8083391Y-6885171D01*
G01X8116609Y-6885171D01*
G01X8149603Y-6881314D01*
G01X8181927Y-6873654D01*
G01X8213142Y-6862292D01*
G01X8242827Y-6847384D01*
G01X8270581Y-6829130D01*
G01X8296028Y-6807777D01*
G01X8318824Y-6783615D01*
G01X8338660Y-6756969D01*
G01X8355270Y-6728201D01*
G01X8368427Y-6697699D01*
G01X8377954Y-6665876D01*
G01X8383723Y-6633162D01*
G01X8385654Y-6600000D01*
G01X8383723Y-6566838D01*
G01X8377954Y-6534124D01*
G01X8368427Y-6502301D01*
G01X8355270Y-6471799D01*
G01X8338660Y-6443031D01*
G01X8318824Y-6416385D01*
G01X8296028Y-6392223D01*
G01X8270581Y-6370870D01*
G01X8242827Y-6352616D01*
G01X8213142Y-6337708D01*
G01X8181927Y-6326346D01*
G01X8149603Y-6318686D01*
G01X8116609Y-6314829D01*
G01X8083391Y-6314829D01*
G01X8050397Y-6318686D01*
G01X8018074Y-6326346D01*
G01X7986858Y-6337708D01*
G01X7957173Y-6352616D01*
G01X7929419Y-6370870D01*
G01X7903972Y-6392223D01*
G01X7881176Y-6416385D01*
G01X7861340Y-6443031D01*
G01X7844730Y-6471799D01*
G01X7831573Y-6502301D01*
G01X7822046Y-6534124D01*
G01X7816278Y-6566838D01*
G01X7814346Y-6600000D01*
G01X7814346Y-6600000D01*
G01X7461749Y-6600000D01*
G01X7823924Y-6237824D01*
G01X7832089Y-6227875D01*
G01X7838156Y-6216525D01*
G01X7841892Y-6204208D01*
G01X7843154Y-6191400D01*
G01X7843154Y-3655665D01*
G01X7841892Y-3642856D01*
G01X7838156Y-3630540D01*
G01X7832089Y-3619189D01*
G01X7823924Y-3609240D01*
G01X7763925Y-3549240D01*
G01X7753976Y-3541075D01*
G01X7742625Y-3535008D01*
G01X7730309Y-3531272D01*
G01X7717500Y-3530011D01*
G01X7580234Y-3530011D01*
G01X7580234Y-3485665D01*
G01X7578489Y-3474647D01*
G01X7573424Y-3464708D01*
G01X7565537Y-3456820D01*
G01X7555597Y-3451756D01*
G01X7544580Y-3450011D01*
G01X7528191Y-3450011D01*
G01X7544649Y-3435276D01*
G01X7558388Y-3417979D01*
G01X7569018Y-3398615D01*
G01X7576233Y-3377736D01*
G01X7579828Y-3355941D01*
G01X7579700Y-3333851D01*
G01X7575852Y-3312099D01*
G01X7568395Y-3291306D01*
G01X7557541Y-3272067D01*
G01X7543601Y-3254931D01*
G01X7526974Y-3240388D01*
G01X7508134Y-3228854D01*
G01X7487620Y-3220659D01*
G01X7507917Y-3212572D01*
G01X7526583Y-3201216D01*
G01X7543095Y-3186909D01*
G01X7556992Y-3170050D01*
G01X7567886Y-3151110D01*
G01X7575471Y-3130620D01*
G01X7579536Y-3109153D01*
G01X7579966Y-3087309D01*
G01X7576751Y-3065698D01*
G01X7569979Y-3044925D01*
G01X7559840Y-3025572D01*
G01X7546618Y-3008178D01*
G01X7530682Y-2993231D01*
G01X7512478Y-2981148D01*
G01X7492515Y-2972268D01*
G01X7471352Y-2966839D01*
G01X7449580Y-2965012D01*
G01X7359580Y-2965012D01*
G01X7337808Y-2966839D01*
G01X7316645Y-2972268D01*
G01X7296682Y-2981148D01*
G01X7278478Y-2993231D01*
G01X7262542Y-3008178D01*
G01X7249320Y-3025572D01*
G01X7239182Y-3044925D01*
G01X7232410Y-3065698D01*
G01X7229194Y-3087309D01*
G01X7229624Y-3109153D01*
G01X7233689Y-3130620D01*
G01X7241274Y-3151110D01*
G01X7252168Y-3170050D01*
G01X7266065Y-3186909D01*
G01X7282577Y-3201216D01*
G01X7301243Y-3212572D01*
G01X7321540Y-3220659D01*
G01X7301026Y-3228854D01*
G01X7282187Y-3240388D01*
G01X7265559Y-3254931D01*
G01X7251619Y-3272067D01*
G01X7240766Y-3291306D01*
G01X7233308Y-3312099D01*
G01X7229460Y-3333851D01*
G01X7229332Y-3355941D01*
G01X7232927Y-3377736D01*
G01X7240142Y-3398615D01*
G01X7250772Y-3417979D01*
G01X7264512Y-3435276D01*
G01X7280969Y-3450011D01*
G01X7264580Y-3450011D01*
G01X7253563Y-3451756D01*
G01X7243623Y-3456820D01*
G01X7235736Y-3464708D01*
G01X7230671Y-3474647D01*
G01X7228926Y-3485665D01*
G01X7228926Y-3705664D01*
G01X7230671Y-3716682D01*
G01X7235736Y-3726621D01*
G01X7243623Y-3734509D01*
G01X7253563Y-3739573D01*
G01X7264580Y-3741318D01*
G01X7544580Y-3741318D01*
G01X7555597Y-3739573D01*
G01X7565537Y-3734509D01*
G01X7573424Y-3726621D01*
G01X7578489Y-3716682D01*
G01X7580234Y-3705664D01*
G01X7580234Y-3661319D01*
G01X7690305Y-3661319D01*
G01X7711846Y-3682859D01*
G01X7711846Y-6164205D01*
G01X7265805Y-6610246D01*
G01X3938895Y-6610246D01*
G01X3616424Y-6287776D01*
G01X3606475Y-6279611D01*
G01X3595125Y-6273544D01*
G01X3582808Y-6269808D01*
G01X3570000Y-6268546D01*
G01X1863195Y-6268546D01*
G01X1729809Y-6135160D01*
G01X1910726Y-6135160D01*
G01X1912630Y-6155713D01*
G01X1918279Y-6175566D01*
G01X1927480Y-6194043D01*
G01X1939919Y-6210515D01*
G01X1955173Y-6224421D01*
G01X1972722Y-6235288D01*
G01X1991970Y-6242744D01*
G01X2012259Y-6246537D01*
G01X2032900Y-6246537D01*
G01X2053190Y-6242744D01*
G01X2072438Y-6235288D01*
G01X2089987Y-6224421D01*
G01X2105241Y-6210515D01*
G01X2117680Y-6194043D01*
G01X2126881Y-6175566D01*
G01X2132529Y-6155713D01*
G01X2134434Y-6135160D01*
G01X2134434Y-6135160D01*
G01X2132529Y-6114607D01*
G01X2126881Y-6094754D01*
G01X2117680Y-6076276D01*
G01X2105241Y-6059804D01*
G01X2089987Y-6045899D01*
G01X2072438Y-6035032D01*
G01X2053190Y-6027576D01*
G01X2032900Y-6023783D01*
G01X2012259Y-6023783D01*
G01X1991970Y-6027576D01*
G01X1972722Y-6035032D01*
G01X1955173Y-6045899D01*
G01X1939919Y-6059804D01*
G01X1927480Y-6076276D01*
G01X1918279Y-6094754D01*
G01X1912630Y-6114607D01*
G01X1910726Y-6135160D01*
G01X1729809Y-6135160D01*
G01X1595654Y-6001005D01*
G01X1595654Y-5881160D01*
G01X1910726Y-5881160D01*
G01X1912630Y-5901713D01*
G01X1918279Y-5921566D01*
G01X1927480Y-5940043D01*
G01X1939919Y-5956515D01*
G01X1955173Y-5970421D01*
G01X1972722Y-5981288D01*
G01X1991970Y-5988744D01*
G01X2012259Y-5992537D01*
G01X2032900Y-5992537D01*
G01X2053190Y-5988744D01*
G01X2072438Y-5981288D01*
G01X2089987Y-5970421D01*
G01X2105241Y-5956515D01*
G01X2117680Y-5940043D01*
G01X2126881Y-5921566D01*
G01X2132529Y-5901713D01*
G01X2134434Y-5881160D01*
G01X2134434Y-5881160D01*
G01X2132529Y-5860607D01*
G01X2126881Y-5840754D01*
G01X2117680Y-5822276D01*
G01X2105241Y-5805804D01*
G01X2089987Y-5791899D01*
G01X2072438Y-5781032D01*
G01X2053190Y-5773576D01*
G01X2032900Y-5769783D01*
G01X2012259Y-5769783D01*
G01X1991970Y-5773576D01*
G01X1972722Y-5781032D01*
G01X1955173Y-5791899D01*
G01X1939919Y-5805804D01*
G01X1927480Y-5822276D01*
G01X1918279Y-5840754D01*
G01X1912630Y-5860607D01*
G01X1910726Y-5881160D01*
G01X1595654Y-5881160D01*
G01X1595654Y-5627160D01*
G01X1910726Y-5627160D01*
G01X1912630Y-5647713D01*
G01X1918279Y-5667566D01*
G01X1927480Y-5686043D01*
G01X1939919Y-5702515D01*
G01X1955173Y-5716421D01*
G01X1972722Y-5727288D01*
G01X1991970Y-5734744D01*
G01X2012259Y-5738537D01*
G01X2032900Y-5738537D01*
G01X2053190Y-5734744D01*
G01X2072438Y-5727288D01*
G01X2089987Y-5716421D01*
G01X2105241Y-5702515D01*
G01X2117680Y-5686043D01*
G01X2126881Y-5667566D01*
G01X2132529Y-5647713D01*
G01X2134434Y-5627160D01*
G01X2134434Y-5627160D01*
G01X2132529Y-5606607D01*
G01X2126881Y-5586754D01*
G01X2117680Y-5568276D01*
G01X2105241Y-5551804D01*
G01X2089987Y-5537899D01*
G01X2072438Y-5527032D01*
G01X2053190Y-5519576D01*
G01X2032900Y-5515783D01*
G01X2012259Y-5515783D01*
G01X1991970Y-5519576D01*
G01X1972722Y-5527032D01*
G01X1955173Y-5537899D01*
G01X1939919Y-5551804D01*
G01X1927480Y-5568276D01*
G01X1918279Y-5586754D01*
G01X1912630Y-5606607D01*
G01X1910726Y-5627160D01*
G01X1595654Y-5627160D01*
G01X1595654Y-5373160D01*
G01X1910726Y-5373160D01*
G01X1912630Y-5393713D01*
G01X1918279Y-5413566D01*
G01X1927480Y-5432043D01*
G01X1939919Y-5448515D01*
G01X1955173Y-5462421D01*
G01X1972722Y-5473288D01*
G01X1991970Y-5480744D01*
G01X2012259Y-5484537D01*
G01X2032900Y-5484537D01*
G01X2053190Y-5480744D01*
G01X2072438Y-5473288D01*
G01X2089987Y-5462421D01*
G01X2105241Y-5448515D01*
G01X2117680Y-5432043D01*
G01X2126881Y-5413566D01*
G01X2132529Y-5393713D01*
G01X2134434Y-5373160D01*
G01X2134434Y-5373160D01*
G01X2132529Y-5352607D01*
G01X2126881Y-5332754D01*
G01X2117680Y-5314276D01*
G01X2105241Y-5297804D01*
G01X2089987Y-5283899D01*
G01X2072438Y-5273032D01*
G01X2053190Y-5265576D01*
G01X2032900Y-5261783D01*
G01X2012259Y-5261783D01*
G01X1991970Y-5265576D01*
G01X1972722Y-5273032D01*
G01X1955173Y-5283899D01*
G01X1939919Y-5297804D01*
G01X1927480Y-5314276D01*
G01X1918279Y-5332754D01*
G01X1912630Y-5352607D01*
G01X1910726Y-5373160D01*
G01X1595654Y-5373160D01*
G01X1595654Y-5119160D01*
G01X1910726Y-5119160D01*
G01X1912630Y-5139713D01*
G01X1918279Y-5159566D01*
G01X1927480Y-5178043D01*
G01X1939919Y-5194515D01*
G01X1955173Y-5208421D01*
G01X1972722Y-5219288D01*
G01X1991970Y-5226744D01*
G01X2012259Y-5230537D01*
G01X2032900Y-5230537D01*
G01X2053190Y-5226744D01*
G01X2072438Y-5219288D01*
G01X2089987Y-5208421D01*
G01X2105241Y-5194515D01*
G01X2117680Y-5178043D01*
G01X2126881Y-5159566D01*
G01X2132529Y-5139713D01*
G01X2134434Y-5119160D01*
G01X2134434Y-5119160D01*
G01X2132529Y-5098607D01*
G01X2126881Y-5078754D01*
G01X2117680Y-5060276D01*
G01X2105241Y-5043804D01*
G01X2089987Y-5029899D01*
G01X2072438Y-5019032D01*
G01X2053190Y-5011576D01*
G01X2032900Y-5007783D01*
G01X2012259Y-5007783D01*
G01X1991970Y-5011576D01*
G01X1972722Y-5019032D01*
G01X1955173Y-5029899D01*
G01X1939919Y-5043804D01*
G01X1927480Y-5060276D01*
G01X1918279Y-5078754D01*
G01X1912630Y-5098607D01*
G01X1910726Y-5119160D01*
G01X1595654Y-5119160D01*
G01X1595654Y-4931700D01*
G01X1594392Y-4918892D01*
G01X1590656Y-4906575D01*
G01X1584589Y-4895225D01*
G01X1576424Y-4885276D01*
G01X1556309Y-4865160D01*
G01X1910726Y-4865160D01*
G01X1912630Y-4885713D01*
G01X1918279Y-4905566D01*
G01X1927480Y-4924043D01*
G01X1939919Y-4940515D01*
G01X1955173Y-4954421D01*
G01X1972722Y-4965288D01*
G01X1991970Y-4972744D01*
G01X2012259Y-4976537D01*
G01X2032900Y-4976537D01*
G01X2053190Y-4972744D01*
G01X2072438Y-4965288D01*
G01X2089987Y-4954421D01*
G01X2105241Y-4940515D01*
G01X2117680Y-4924043D01*
G01X2126881Y-4905566D01*
G01X2132529Y-4885713D01*
G01X2134434Y-4865160D01*
G01X2134434Y-4865160D01*
G01X2132529Y-4844607D01*
G01X2126881Y-4824754D01*
G01X2117680Y-4806276D01*
G01X2105241Y-4789804D01*
G01X2089987Y-4775899D01*
G01X2072438Y-4765032D01*
G01X2053190Y-4757576D01*
G01X2032900Y-4753783D01*
G01X2012259Y-4753783D01*
G01X1991970Y-4757576D01*
G01X1972722Y-4765032D01*
G01X1955173Y-4775899D01*
G01X1939919Y-4789804D01*
G01X1927480Y-4806276D01*
G01X1918279Y-4824754D01*
G01X1912630Y-4844607D01*
G01X1910726Y-4865160D01*
G01X1556309Y-4865160D01*
G01X1302309Y-4611160D01*
G01X1910726Y-4611160D01*
G01X1912525Y-4631140D01*
G01X1917864Y-4650478D01*
G01X1926572Y-4668551D01*
G01X1938367Y-4684778D01*
G01X1952872Y-4698636D01*
G01X1969619Y-4709681D01*
G01X1988069Y-4717557D01*
G01X2007630Y-4722010D01*
G01X2027671Y-4722898D01*
G01X2047549Y-4720191D01*
G01X2066624Y-4713978D01*
G01X2084281Y-4704456D01*
G01X2099954Y-4691934D01*
G01X2113139Y-4676814D01*
G01X2207365Y-4676814D01*
G01X4033576Y-6503024D01*
G01X4043525Y-6511189D01*
G01X4054875Y-6517256D01*
G01X4067192Y-6520992D01*
G01X4080000Y-6522254D01*
G01X7155300Y-6522254D01*
G01X7168109Y-6520992D01*
G01X7180425Y-6517256D01*
G01X7191776Y-6511189D01*
G01X7201724Y-6503024D01*
G01X7604624Y-6100124D01*
G01X7612789Y-6090175D01*
G01X7618856Y-6078825D01*
G01X7622592Y-6066508D01*
G01X7623854Y-6053700D01*
G01X7623854Y-4995106D01*
G01X7622592Y-4982298D01*
G01X7618856Y-4969981D01*
G01X7612789Y-4958631D01*
G01X7604624Y-4948682D01*
G01X7544624Y-4888682D01*
G01X7535197Y-4880869D01*
G01X7524482Y-4874942D01*
G01X7512854Y-4871109D01*
G01X7512854Y-4858906D01*
G01X7511109Y-4847889D01*
G01X7506045Y-4837949D01*
G01X7498157Y-4830062D01*
G01X7488218Y-4824997D01*
G01X7477200Y-4823252D01*
G01X7324800Y-4823252D01*
G01X7313782Y-4824997D01*
G01X7303843Y-4830062D01*
G01X7295955Y-4837949D01*
G01X7290891Y-4847889D01*
G01X7289146Y-4858906D01*
G01X7289146Y-5011306D01*
G01X7290891Y-5022324D01*
G01X7295955Y-5032263D01*
G01X7303843Y-5040151D01*
G01X7313782Y-5045215D01*
G01X7324800Y-5046960D01*
G01X7477200Y-5046960D01*
G01X7485067Y-5046081D01*
G01X7492546Y-5043489D01*
G01X7492546Y-5576711D01*
G01X7485067Y-5574119D01*
G01X7477200Y-5573240D01*
G01X7324800Y-5573240D01*
G01X7313782Y-5574985D01*
G01X7303843Y-5580049D01*
G01X7295955Y-5587937D01*
G01X7290891Y-5597876D01*
G01X7289146Y-5608894D01*
G01X7289146Y-5761294D01*
G01X7290891Y-5772311D01*
G01X7295955Y-5782251D01*
G01X7303843Y-5790138D01*
G01X7313782Y-5795203D01*
G01X7324800Y-5796948D01*
G01X7477200Y-5796948D01*
G01X7485067Y-5796069D01*
G01X7492546Y-5793476D01*
G01X7492546Y-5826724D01*
G01X7485067Y-5824131D01*
G01X7477200Y-5823252D01*
G01X7324800Y-5823252D01*
G01X7313782Y-5824997D01*
G01X7303843Y-5830061D01*
G01X7295955Y-5837949D01*
G01X7290891Y-5847888D01*
G01X7289146Y-5858906D01*
G01X7289146Y-6011306D01*
G01X7290891Y-6022324D01*
G01X7295955Y-6032263D01*
G01X7303843Y-6040151D01*
G01X7313782Y-6045215D01*
G01X7324800Y-6046960D01*
G01X7472091Y-6046960D01*
G01X7128105Y-6390946D01*
G01X4107195Y-6390946D01*
G01X3851409Y-6135160D01*
G01X4222126Y-6135160D01*
G01X4224030Y-6155713D01*
G01X4229679Y-6175566D01*
G01X4238880Y-6194043D01*
G01X4251319Y-6210515D01*
G01X4266573Y-6224421D01*
G01X4284122Y-6235288D01*
G01X4303370Y-6242744D01*
G01X4323659Y-6246537D01*
G01X4344300Y-6246537D01*
G01X4364590Y-6242744D01*
G01X4383838Y-6235288D01*
G01X4401387Y-6224421D01*
G01X4416641Y-6210515D01*
G01X4429080Y-6194043D01*
G01X4438281Y-6175566D01*
G01X4443929Y-6155713D01*
G01X4445834Y-6135160D01*
G01X4445834Y-6135160D01*
G01X4443929Y-6114607D01*
G01X4438281Y-6094754D01*
G01X4429080Y-6076276D01*
G01X4416641Y-6059804D01*
G01X4401387Y-6045899D01*
G01X4383838Y-6035032D01*
G01X4364590Y-6027576D01*
G01X4344300Y-6023783D01*
G01X4323659Y-6023783D01*
G01X4303370Y-6027576D01*
G01X4284122Y-6035032D01*
G01X4266573Y-6045899D01*
G01X4251319Y-6059804D01*
G01X4238880Y-6076276D01*
G01X4229679Y-6094754D01*
G01X4224030Y-6114607D01*
G01X4222126Y-6135160D01*
G01X3851409Y-6135160D01*
G01X3727532Y-6011283D01*
G01X5289143Y-6011283D01*
G01X5290888Y-6022301D01*
G01X5295953Y-6032240D01*
G01X5303840Y-6040128D01*
G01X5313780Y-6045192D01*
G01X5324797Y-6046937D01*
G01X5477197Y-6046937D01*
G01X5488215Y-6045192D01*
G01X5498154Y-6040128D01*
G01X5506042Y-6032240D01*
G01X5511106Y-6022301D01*
G01X5512851Y-6011283D01*
G01X5512851Y-5858883D01*
G01X5511106Y-5847866D01*
G01X5506042Y-5837926D01*
G01X5498154Y-5830039D01*
G01X5488215Y-5824974D01*
G01X5477197Y-5823229D01*
G01X5324797Y-5823229D01*
G01X5313780Y-5824974D01*
G01X5303840Y-5830039D01*
G01X5295953Y-5837926D01*
G01X5290888Y-5847866D01*
G01X5289143Y-5858883D01*
G01X5289143Y-6011283D01*
G01X5289143Y-6011283D01*
G01X3727532Y-6011283D01*
G01X3597409Y-5881160D01*
G01X4222126Y-5881160D01*
G01X4224030Y-5901713D01*
G01X4229679Y-5921566D01*
G01X4238880Y-5940043D01*
G01X4251319Y-5956515D01*
G01X4266573Y-5970421D01*
G01X4284122Y-5981288D01*
G01X4303370Y-5988744D01*
G01X4323659Y-5992537D01*
G01X4344300Y-5992537D01*
G01X4364590Y-5988744D01*
G01X4383838Y-5981288D01*
G01X4401387Y-5970421D01*
G01X4416641Y-5956515D01*
G01X4429080Y-5940043D01*
G01X4438281Y-5921566D01*
G01X4443929Y-5901713D01*
G01X4445834Y-5881160D01*
G01X4445834Y-5881160D01*
G01X4443929Y-5860607D01*
G01X4438281Y-5840754D01*
G01X4429080Y-5822276D01*
G01X4416641Y-5805804D01*
G01X4401387Y-5791899D01*
G01X4383838Y-5781032D01*
G01X4364590Y-5773576D01*
G01X4344300Y-5769783D01*
G01X4323659Y-5769783D01*
G01X4303370Y-5773576D01*
G01X4284122Y-5781032D01*
G01X4266573Y-5791899D01*
G01X4251319Y-5805804D01*
G01X4238880Y-5822276D01*
G01X4229679Y-5840754D01*
G01X4224030Y-5860607D01*
G01X4222126Y-5881160D01*
G01X3597409Y-5881160D01*
G01X3343409Y-5627160D01*
G01X4222126Y-5627160D01*
G01X4224030Y-5647713D01*
G01X4229679Y-5667566D01*
G01X4238880Y-5686043D01*
G01X4251319Y-5702515D01*
G01X4266573Y-5716421D01*
G01X4284122Y-5727288D01*
G01X4303370Y-5734744D01*
G01X4323659Y-5738537D01*
G01X4344300Y-5738537D01*
G01X4364590Y-5734744D01*
G01X4383838Y-5727288D01*
G01X4401387Y-5716421D01*
G01X4416641Y-5702515D01*
G01X4429080Y-5686043D01*
G01X4438281Y-5667566D01*
G01X4443929Y-5647713D01*
G01X4445834Y-5627160D01*
G01X4445834Y-5627160D01*
G01X4443929Y-5606607D01*
G01X4438281Y-5586754D01*
G01X4429080Y-5568276D01*
G01X4416641Y-5551804D01*
G01X4401387Y-5537899D01*
G01X4383838Y-5527032D01*
G01X4364590Y-5519576D01*
G01X4344300Y-5515783D01*
G01X4323659Y-5515783D01*
G01X4303370Y-5519576D01*
G01X4284122Y-5527032D01*
G01X4266573Y-5537899D01*
G01X4251319Y-5551804D01*
G01X4238880Y-5568276D01*
G01X4229679Y-5586754D01*
G01X4224030Y-5606607D01*
G01X4222126Y-5627160D01*
G01X3343409Y-5627160D01*
G01X2280984Y-4564736D01*
G01X2271035Y-4556571D01*
G01X2259685Y-4550504D01*
G01X2247368Y-4546768D01*
G01X2234560Y-4545506D01*
G01X2113139Y-4545506D01*
G01X2113139Y-4545506D01*
G01X2099954Y-4530386D01*
G01X2084281Y-4517863D01*
G01X2066624Y-4508342D01*
G01X2047549Y-4502129D01*
G01X2027671Y-4499422D01*
G01X2007630Y-4500310D01*
G01X1988069Y-4504763D01*
G01X1969619Y-4512639D01*
G01X1952872Y-4523684D01*
G01X1938367Y-4537542D01*
G01X1926572Y-4553769D01*
G01X1917864Y-4571842D01*
G01X1912525Y-4591180D01*
G01X1910726Y-4611160D01*
G01X1302309Y-4611160D01*
G01X1048309Y-4357160D01*
G01X1910726Y-4357160D01*
G01X1912630Y-4377713D01*
G01X1918279Y-4397566D01*
G01X1927480Y-4416043D01*
G01X1939919Y-4432515D01*
G01X1955173Y-4446421D01*
G01X1972722Y-4457288D01*
G01X1991970Y-4464744D01*
G01X2012259Y-4468537D01*
G01X2032900Y-4468537D01*
G01X2053190Y-4464744D01*
G01X2072438Y-4457288D01*
G01X2089987Y-4446421D01*
G01X2105241Y-4432515D01*
G01X2117680Y-4416043D01*
G01X2126881Y-4397566D01*
G01X2132529Y-4377713D01*
G01X2134434Y-4357160D01*
G01X2134434Y-4357160D01*
G01X2132529Y-4336607D01*
G01X2126881Y-4316754D01*
G01X2117680Y-4298276D01*
G01X2105241Y-4281804D01*
G01X2089987Y-4267899D01*
G01X2072438Y-4257032D01*
G01X2053190Y-4249576D01*
G01X2032900Y-4245783D01*
G01X2012259Y-4245783D01*
G01X1991970Y-4249576D01*
G01X1972722Y-4257032D01*
G01X1955173Y-4267899D01*
G01X1939919Y-4281804D01*
G01X1927480Y-4298276D01*
G01X1918279Y-4316754D01*
G01X1912630Y-4336607D01*
G01X1910726Y-4357160D01*
G01X1048309Y-4357160D01*
G01X794309Y-4103160D01*
G01X1910726Y-4103160D01*
G01X1912630Y-4123713D01*
G01X1918279Y-4143566D01*
G01X1927480Y-4162043D01*
G01X1939919Y-4178515D01*
G01X1955173Y-4192421D01*
G01X1972722Y-4203288D01*
G01X1991970Y-4210744D01*
G01X2012259Y-4214537D01*
G01X2032900Y-4214537D01*
G01X2053190Y-4210744D01*
G01X2072438Y-4203288D01*
G01X2089987Y-4192421D01*
G01X2105241Y-4178515D01*
G01X2117680Y-4162043D01*
G01X2126881Y-4143566D01*
G01X2132529Y-4123713D01*
G01X2134434Y-4103160D01*
G01X2134434Y-4103160D01*
G01X2132529Y-4082607D01*
G01X2126881Y-4062754D01*
G01X2117680Y-4044276D01*
G01X2105241Y-4027804D01*
G01X2089987Y-4013899D01*
G01X2072438Y-4003032D01*
G01X2053190Y-3995576D01*
G01X2032900Y-3991783D01*
G01X2012259Y-3991783D01*
G01X1991970Y-3995576D01*
G01X1972722Y-4003032D01*
G01X1955173Y-4013899D01*
G01X1939919Y-4027804D01*
G01X1927480Y-4044276D01*
G01X1918279Y-4062754D01*
G01X1912630Y-4082607D01*
G01X1910726Y-4103160D01*
G01X794309Y-4103160D01*
G01X661861Y-3970712D01*
G01X3555248Y-3970712D01*
G01X3555346Y-3986119D01*
G01X3555346Y-4660180D01*
G01X3556607Y-4672988D01*
G01X3560344Y-4685305D01*
G01X3566411Y-4696655D01*
G01X3574576Y-4706604D01*
G01X4223521Y-5355550D01*
G01X4222152Y-5375564D01*
G01X4224380Y-5395501D01*
G01X4230133Y-5414719D01*
G01X4239227Y-5432601D01*
G01X4251369Y-5448570D01*
G01X4266168Y-5462114D01*
G01X4283149Y-5472797D01*
G01X4301764Y-5480274D01*
G01X4321416Y-5484306D01*
G01X4341472Y-5484763D01*
G01X4361287Y-5481630D01*
G01X4380223Y-5475007D01*
G01X4397672Y-5465109D01*
G01X4413073Y-5452253D01*
G01X4413073Y-5452253D01*
G01X4425929Y-5436852D01*
G01X4435827Y-5419403D01*
G01X4442449Y-5400467D01*
G01X4445583Y-5380652D01*
G01X4445126Y-5360596D01*
G01X4441094Y-5340944D01*
G01X4433617Y-5322329D01*
G01X4422934Y-5305348D01*
G01X4409390Y-5290549D01*
G01X4393421Y-5278407D01*
G01X4375539Y-5269313D01*
G01X4356321Y-5263560D01*
G01X4336384Y-5261332D01*
G01X4316370Y-5262701D01*
G01X3686654Y-4632985D01*
G01X3686654Y-4564682D01*
G01X4223521Y-5101550D01*
G01X4222152Y-5121564D01*
G01X4224380Y-5141501D01*
G01X4230133Y-5160719D01*
G01X4239227Y-5178601D01*
G01X4251369Y-5194570D01*
G01X4266168Y-5208114D01*
G01X4283149Y-5218797D01*
G01X4301764Y-5226274D01*
G01X4321416Y-5230306D01*
G01X4341472Y-5230763D01*
G01X4361287Y-5227630D01*
G01X4380223Y-5221007D01*
G01X4397672Y-5211109D01*
G01X4413073Y-5198253D01*
G01X4425929Y-5182852D01*
G01X4435827Y-5165403D01*
G01X4442449Y-5146467D01*
G01X4445583Y-5126652D01*
G01X4445126Y-5106596D01*
G01X4441094Y-5086944D01*
G01X4433617Y-5068329D01*
G01X4422934Y-5051348D01*
G01X4409390Y-5036549D01*
G01X4393421Y-5024407D01*
G01X4375539Y-5015313D01*
G01X4356321Y-5009560D01*
G01X4336384Y-5007332D01*
G01X4316370Y-5008701D01*
G01X4172829Y-4865160D01*
G01X4222126Y-4865160D01*
G01X4224030Y-4885713D01*
G01X4229679Y-4905566D01*
G01X4238880Y-4924043D01*
G01X4251319Y-4940515D01*
G01X4266573Y-4954421D01*
G01X4284122Y-4965288D01*
G01X4303370Y-4972744D01*
G01X4323659Y-4976537D01*
G01X4344300Y-4976537D01*
G01X4364590Y-4972744D01*
G01X4383838Y-4965288D01*
G01X4401387Y-4954421D01*
G01X4416641Y-4940515D01*
G01X4429080Y-4924043D01*
G01X4438281Y-4905566D01*
G01X4443929Y-4885713D01*
G01X4445834Y-4865160D01*
G01X4445834Y-4865160D01*
G01X4443929Y-4844607D01*
G01X4438281Y-4824754D01*
G01X4429080Y-4806276D01*
G01X4416641Y-4789804D01*
G01X4401387Y-4775899D01*
G01X4383838Y-4765032D01*
G01X4364590Y-4757576D01*
G01X4344300Y-4753783D01*
G01X4323659Y-4753783D01*
G01X4303370Y-4757576D01*
G01X4284122Y-4765032D01*
G01X4266573Y-4775899D01*
G01X4251319Y-4789804D01*
G01X4238880Y-4806276D01*
G01X4229679Y-4824754D01*
G01X4224030Y-4844607D01*
G01X4222126Y-4865160D01*
G01X4172829Y-4865160D01*
G01X4032708Y-4725039D01*
G01X4513691Y-4725039D01*
G01X4516298Y-4741144D01*
G01X4522768Y-4756122D01*
G01X4532706Y-4769060D01*
G01X4545508Y-4779173D01*
G01X4560396Y-4785845D01*
G01X5347769Y-5573217D01*
G01X5324797Y-5573217D01*
G01X5324797Y-5573217D01*
G01X5313780Y-5574962D01*
G01X5303840Y-5580027D01*
G01X5295953Y-5587914D01*
G01X5290888Y-5597853D01*
G01X5289143Y-5608871D01*
G01X5289143Y-5761271D01*
G01X5290888Y-5772289D01*
G01X5295953Y-5782228D01*
G01X5303840Y-5790116D01*
G01X5313780Y-5795180D01*
G01X5324797Y-5796925D01*
G01X5477197Y-5796925D01*
G01X5488215Y-5795180D01*
G01X5498154Y-5790116D01*
G01X5506042Y-5782228D01*
G01X5511106Y-5772289D01*
G01X5512851Y-5761271D01*
G01X5512851Y-5608871D01*
G01X5512036Y-5601289D01*
G01X5509627Y-5594054D01*
G01X5967119Y-5594054D01*
G01X6289143Y-5916078D01*
G01X6289143Y-6011283D01*
G01X6290888Y-6022301D01*
G01X6295952Y-6032240D01*
G01X6303840Y-6040128D01*
G01X6313779Y-6045192D01*
G01X6324797Y-6046937D01*
G01X6477197Y-6046937D01*
G01X6488215Y-6045192D01*
G01X6498154Y-6040128D01*
G01X6506042Y-6032240D01*
G01X6511106Y-6022301D01*
G01X6512851Y-6011283D01*
G01X6512851Y-5858883D01*
G01X6511106Y-5847866D01*
G01X6506042Y-5837926D01*
G01X6498154Y-5830039D01*
G01X6488215Y-5824974D01*
G01X6477197Y-5823229D01*
G01X6381992Y-5823229D01*
G01X6355688Y-5796925D01*
G01X6477197Y-5796925D01*
G01X6488215Y-5795180D01*
G01X6498154Y-5790116D01*
G01X6506042Y-5782228D01*
G01X6511106Y-5772289D01*
G01X6512851Y-5761271D01*
G01X6512851Y-5608871D01*
G01X6511106Y-5597853D01*
G01X6506042Y-5587914D01*
G01X6498154Y-5580027D01*
G01X6488215Y-5574962D01*
G01X6477197Y-5573217D01*
G01X6324797Y-5573217D01*
G01X6313779Y-5574962D01*
G01X6303840Y-5580027D01*
G01X6295952Y-5587914D01*
G01X6290888Y-5597853D01*
G01X6289143Y-5608871D01*
G01X6289143Y-5730381D01*
G01X6040738Y-5481976D01*
G01X6030789Y-5473811D01*
G01X6019438Y-5467744D01*
G01X6007122Y-5464008D01*
G01X5994314Y-5462746D01*
G01X5422995Y-5462746D01*
G01X4971532Y-5011283D01*
G01X5289143Y-5011283D01*
G01X5290888Y-5022301D01*
G01X5295953Y-5032240D01*
G01X5303840Y-5040128D01*
G01X5313780Y-5045192D01*
G01X5324797Y-5046937D01*
G01X5477197Y-5046937D01*
G01X5488215Y-5045192D01*
G01X5498154Y-5040128D01*
G01X5506042Y-5032240D01*
G01X5511106Y-5022301D01*
G01X5512851Y-5011283D01*
G01X5512851Y-4858883D01*
G01X5511106Y-4847866D01*
G01X5506042Y-4837926D01*
G01X5498154Y-4830039D01*
G01X5488215Y-4824974D01*
G01X5477197Y-4823229D01*
G01X5324797Y-4823229D01*
G01X5313780Y-4824974D01*
G01X5303840Y-4830039D01*
G01X5295953Y-4837926D01*
G01X5290888Y-4847866D01*
G01X5289143Y-4858883D01*
G01X5289143Y-5011283D01*
G01X5289143Y-5011283D01*
G01X4971532Y-5011283D01*
G01X4636425Y-4676176D01*
G01X4626476Y-4668011D01*
G01X4615125Y-4661944D01*
G01X4602809Y-4658208D01*
G01X4590000Y-4656946D01*
G01X4587919Y-4656946D01*
G01X4571604Y-4656956D01*
G01X4555788Y-4660958D01*
G01X4541432Y-4668709D01*
G01X4529410Y-4679737D01*
G01X4520452Y-4693373D01*
G01X4515104Y-4708786D01*
G01X4513691Y-4725039D01*
G01X4032708Y-4725039D01*
G01X3778454Y-4470785D01*
G01X3778454Y-4047319D01*
G01X3778559Y-4031977D01*
G01X3775126Y-4017024D01*
G01X3768342Y-4003263D01*
G01X3758570Y-3991436D01*
G01X3746337Y-3982177D01*
G01X3732300Y-3975985D01*
G01X3717214Y-3973193D01*
G01X3701890Y-3973952D01*
G01X3687154Y-3978219D01*
G01X3685410Y-3962911D01*
G01X3680173Y-3948422D01*
G01X3671727Y-3935537D01*
G01X3660529Y-3924954D01*
G01X3647187Y-3917250D01*
G01X3632424Y-3912840D01*
G01X3617042Y-3911964D01*
G01X3601875Y-3914671D01*
G01X3587745Y-3920812D01*
G01X3575418Y-3930055D01*
G01X3565564Y-3941899D01*
G01X3558717Y-3955701D01*
G01X3555248Y-3970712D01*
G01X661861Y-3970712D01*
G01X540309Y-3849160D01*
G01X1910726Y-3849160D01*
G01X1912630Y-3869713D01*
G01X1918279Y-3889566D01*
G01X1927480Y-3908043D01*
G01X1939919Y-3924515D01*
G01X1955173Y-3938421D01*
G01X1972722Y-3949288D01*
G01X1991970Y-3956744D01*
G01X2012259Y-3960537D01*
G01X2032900Y-3960537D01*
G01X2053190Y-3956744D01*
G01X2072438Y-3949288D01*
G01X2089987Y-3938421D01*
G01X2105241Y-3924515D01*
G01X2117680Y-3908043D01*
G01X2126881Y-3889566D01*
G01X2132529Y-3869713D01*
G01X2134434Y-3849160D01*
G01X2134434Y-3849160D01*
G01X2132529Y-3828607D01*
G01X2126881Y-3808754D01*
G01X2117680Y-3790276D01*
G01X2105241Y-3773804D01*
G01X2089987Y-3759899D01*
G01X2072438Y-3749032D01*
G01X2053190Y-3741576D01*
G01X2032900Y-3737783D01*
G01X2012259Y-3737783D01*
G01X1991970Y-3741576D01*
G01X1972722Y-3749032D01*
G01X1955173Y-3759899D01*
G01X1939919Y-3773804D01*
G01X1927480Y-3790276D01*
G01X1918279Y-3808754D01*
G01X1912630Y-3828607D01*
G01X1910726Y-3849160D01*
G01X540309Y-3849160D01*
G01X468554Y-3777405D01*
G01X468554Y-3595160D01*
G01X1910726Y-3595160D01*
G01X1912630Y-3615713D01*
G01X1918279Y-3635566D01*
G01X1927480Y-3654043D01*
G01X1939919Y-3670515D01*
G01X1955173Y-3684421D01*
G01X1972722Y-3695288D01*
G01X1991970Y-3702744D01*
G01X2012259Y-3706537D01*
G01X2032900Y-3706537D01*
G01X2053190Y-3702744D01*
G01X2072438Y-3695288D01*
G01X2089987Y-3684421D01*
G01X2105241Y-3670515D01*
G01X2117680Y-3654043D01*
G01X2126881Y-3635566D01*
G01X2132529Y-3615713D01*
G01X2134434Y-3595160D01*
G01X2134434Y-3595160D01*
G01X2132529Y-3574607D01*
G01X2126881Y-3554754D01*
G01X2117680Y-3536276D01*
G01X2105241Y-3519804D01*
G01X2089987Y-3505899D01*
G01X2072438Y-3495032D01*
G01X2053190Y-3487576D01*
G01X2032900Y-3483783D01*
G01X2012259Y-3483783D01*
G01X1991970Y-3487576D01*
G01X1972722Y-3495032D01*
G01X1955173Y-3505899D01*
G01X1939919Y-3519804D01*
G01X1927480Y-3536276D01*
G01X1918279Y-3554754D01*
G01X1912630Y-3574607D01*
G01X1910726Y-3595160D01*
G01X468554Y-3595160D01*
G01X468554Y-3547519D01*
G01X468804Y-3533654D01*
G01X466158Y-3520041D01*
G01X460732Y-3507278D01*
G01X452765Y-3495927D01*
G01X442606Y-3486487D01*
G01X430703Y-3479372D01*
G01X417577Y-3474895D01*
G01X403807Y-3473252D01*
G01X389997Y-3474517D01*
G01X376754Y-3478632D01*
G01X376754Y-3341160D01*
G01X1910726Y-3341160D01*
G01X1912630Y-3361713D01*
G01X1918279Y-3381566D01*
G01X1927480Y-3400043D01*
G01X1939919Y-3416515D01*
G01X1955173Y-3430421D01*
G01X1972722Y-3441288D01*
G01X1991970Y-3448744D01*
G01X2012259Y-3452537D01*
G01X2032900Y-3452537D01*
G01X2053190Y-3448744D01*
G01X2072438Y-3441288D01*
G01X2089987Y-3430421D01*
G01X2105241Y-3416515D01*
G01X2117680Y-3400043D01*
G01X2126881Y-3381566D01*
G01X2132529Y-3361713D01*
G01X2134434Y-3341160D01*
G01X2134434Y-3341160D01*
G01X2132529Y-3320607D01*
G01X2126881Y-3300754D01*
G01X2117680Y-3282276D01*
G01X2105241Y-3265804D01*
G01X2089987Y-3251899D01*
G01X2072438Y-3241032D01*
G01X2053190Y-3233576D01*
G01X2032900Y-3229783D01*
G01X2012259Y-3229783D01*
G01X1991970Y-3233576D01*
G01X1972722Y-3241032D01*
G01X1955173Y-3251899D01*
G01X1939919Y-3265804D01*
G01X1927480Y-3282276D01*
G01X1918279Y-3300754D01*
G01X1912630Y-3320607D01*
G01X1910726Y-3341160D01*
G01X376754Y-3341160D01*
G01X376754Y-3087160D01*
G01X1910726Y-3087160D01*
G01X1912630Y-3107713D01*
G01X1918279Y-3127566D01*
G01X1927480Y-3146043D01*
G01X1939919Y-3162515D01*
G01X1955173Y-3176421D01*
G01X1972722Y-3187288D01*
G01X1991970Y-3194744D01*
G01X2012259Y-3198537D01*
G01X2032900Y-3198537D01*
G01X2053190Y-3194744D01*
G01X2072438Y-3187288D01*
G01X2089987Y-3176421D01*
G01X2105241Y-3162515D01*
G01X2117680Y-3146043D01*
G01X2126881Y-3127566D01*
G01X2132529Y-3107713D01*
G01X2134434Y-3087160D01*
G01X2134434Y-3087160D01*
G01X2132529Y-3066607D01*
G01X2126881Y-3046754D01*
G01X2117680Y-3028276D01*
G01X2105241Y-3011804D01*
G01X2089987Y-2997899D01*
G01X2072438Y-2987032D01*
G01X2053190Y-2979576D01*
G01X2032900Y-2975783D01*
G01X2012259Y-2975783D01*
G01X1991970Y-2979576D01*
G01X1972722Y-2987032D01*
G01X1955173Y-2997899D01*
G01X1939919Y-3011804D01*
G01X1927480Y-3028276D01*
G01X1918279Y-3046754D01*
G01X1912630Y-3066607D01*
G01X1910726Y-3087160D01*
G01X376754Y-3087160D01*
G01X376754Y-2833160D01*
G01X1910726Y-2833160D01*
G01X1912630Y-2853713D01*
G01X1918279Y-2873566D01*
G01X1927480Y-2892043D01*
G01X1939919Y-2908515D01*
G01X1955173Y-2922421D01*
G01X1972722Y-2933288D01*
G01X1991970Y-2940744D01*
G01X2012259Y-2944537D01*
G01X2032900Y-2944537D01*
G01X2053190Y-2940744D01*
G01X2072438Y-2933288D01*
G01X2089987Y-2922421D01*
G01X2105241Y-2908515D01*
G01X2117680Y-2892043D01*
G01X2126881Y-2873566D01*
G01X2132529Y-2853713D01*
G01X2134434Y-2833160D01*
G01X2134434Y-2833160D01*
G01X2132529Y-2812607D01*
G01X2126881Y-2792754D01*
G01X2117680Y-2774276D01*
G01X2105241Y-2757804D01*
G01X2089987Y-2743899D01*
G01X2072438Y-2733032D01*
G01X2053190Y-2725576D01*
G01X2032900Y-2721783D01*
G01X2012259Y-2721783D01*
G01X1991970Y-2725576D01*
G01X1972722Y-2733032D01*
G01X1955173Y-2743899D01*
G01X1939919Y-2757804D01*
G01X1927480Y-2774276D01*
G01X1918279Y-2792754D01*
G01X1912630Y-2812607D01*
G01X1910726Y-2833160D01*
G01X376754Y-2833160D01*
G01X376754Y-2580600D01*
G01X375887Y-2569967D01*
G01X373309Y-2559614D01*
G01X664672Y-2559614D01*
G01X680049Y-2569893D01*
G01X697275Y-2576630D01*
G01X715546Y-2579513D01*
G01X721433Y-2579160D01*
G01X1910726Y-2579160D01*
G01X1912630Y-2599713D01*
G01X1918279Y-2619566D01*
G01X1927480Y-2638043D01*
G01X1939919Y-2654515D01*
G01X1955173Y-2668421D01*
G01X1972722Y-2679288D01*
G01X1991970Y-2686744D01*
G01X2012259Y-2690537D01*
G01X2032900Y-2690537D01*
G01X2053190Y-2686744D01*
G01X2072438Y-2679288D01*
G01X2089987Y-2668421D01*
G01X2105241Y-2654515D01*
G01X2117680Y-2638043D01*
G01X2126881Y-2619566D01*
G01X2132529Y-2599713D01*
G01X2134434Y-2579160D01*
G01X2134434Y-2579160D01*
G01X2132529Y-2558607D01*
G01X2126881Y-2538754D01*
G01X2117680Y-2520276D01*
G01X2105241Y-2503804D01*
G01X2089987Y-2489899D01*
G01X2072438Y-2479032D01*
G01X2053190Y-2471576D01*
G01X2032900Y-2467783D01*
G01X2012259Y-2467783D01*
G01X1991970Y-2471576D01*
G01X1972722Y-2479032D01*
G01X1955173Y-2489899D01*
G01X1939919Y-2503804D01*
G01X1927480Y-2520276D01*
G01X1918279Y-2538754D01*
G01X1912630Y-2558607D01*
G01X1910726Y-2579160D01*
G01X721433Y-2579160D01*
G01X734009Y-2578406D01*
G01X751805Y-2573361D01*
G01X768102Y-2564613D01*
G01X1555681Y-2564613D01*
G01X1569465Y-2563255D01*
G01X1582719Y-2559235D01*
G01X1594934Y-2552706D01*
G01X1605641Y-2543919D01*
G01X1723340Y-2426220D01*
G01X1732127Y-2415513D01*
G01X1738656Y-2403298D01*
G01X1742676Y-2390044D01*
G01X1744034Y-2376260D01*
G01X1744034Y-2325160D01*
G01X1910726Y-2325160D01*
G01X1912630Y-2345713D01*
G01X1918279Y-2365566D01*
G01X1927480Y-2384043D01*
G01X1939919Y-2400515D01*
G01X1955173Y-2414421D01*
G01X1972722Y-2425288D01*
G01X1991970Y-2432744D01*
G01X2012259Y-2436537D01*
G01X2032900Y-2436537D01*
G01X2053190Y-2432744D01*
G01X2072438Y-2425288D01*
G01X2089987Y-2414421D01*
G01X2105241Y-2400515D01*
G01X2117680Y-2384043D01*
G01X2126881Y-2365566D01*
G01X2132529Y-2345713D01*
G01X2134434Y-2325160D01*
G01X2134434Y-2325160D01*
G01X2132529Y-2304607D01*
G01X2126881Y-2284754D01*
G01X2117680Y-2266276D01*
G01X2105241Y-2249804D01*
G01X2089987Y-2235899D01*
G01X2072438Y-2225032D01*
G01X2053190Y-2217576D01*
G01X2032900Y-2213783D01*
G01X2012259Y-2213783D01*
G01X1991970Y-2217576D01*
G01X1972722Y-2225032D01*
G01X1955173Y-2235899D01*
G01X1939919Y-2249804D01*
G01X1927480Y-2266276D01*
G01X1918279Y-2284754D01*
G01X1912630Y-2304607D01*
G01X1910726Y-2325160D01*
G01X1744034Y-2325160D01*
G01X1744034Y-2071160D01*
G01X1910726Y-2071160D01*
G01X1912630Y-2091713D01*
G01X1918279Y-2111566D01*
G01X1927480Y-2130043D01*
G01X1939919Y-2146515D01*
G01X1955173Y-2160421D01*
G01X1972722Y-2171288D01*
G01X1991970Y-2178744D01*
G01X2012259Y-2182537D01*
G01X2032900Y-2182537D01*
G01X2053190Y-2178744D01*
G01X2072438Y-2171288D01*
G01X2089987Y-2160421D01*
G01X2105241Y-2146515D01*
G01X2117680Y-2130043D01*
G01X2126881Y-2111566D01*
G01X2132529Y-2091713D01*
G01X2134434Y-2071160D01*
G01X2134434Y-2071160D01*
G01X2132529Y-2050607D01*
G01X2126881Y-2030754D01*
G01X2117680Y-2012276D01*
G01X2105241Y-1995804D01*
G01X2089987Y-1981899D01*
G01X2072438Y-1971032D01*
G01X2053190Y-1963576D01*
G01X2032900Y-1959783D01*
G01X2012259Y-1959783D01*
G01X1991970Y-1963576D01*
G01X1972722Y-1971032D01*
G01X1955173Y-1981899D01*
G01X1939919Y-1995804D01*
G01X1927480Y-2012276D01*
G01X1918279Y-2030754D01*
G01X1912630Y-2050607D01*
G01X1910726Y-2071160D01*
G01X1744034Y-2071160D01*
G01X1744034Y-1817160D01*
G01X1910726Y-1817160D01*
G01X1912630Y-1837713D01*
G01X1918279Y-1857566D01*
G01X1927480Y-1876043D01*
G01X1939919Y-1892515D01*
G01X1955173Y-1906421D01*
G01X1972722Y-1917288D01*
G01X1991970Y-1924744D01*
G01X2012259Y-1928537D01*
G01X2032900Y-1928537D01*
G01X2053190Y-1924744D01*
G01X2072438Y-1917288D01*
G01X2089987Y-1906421D01*
G01X2105241Y-1892515D01*
G01X2117680Y-1876043D01*
G01X2126881Y-1857566D01*
G01X2132529Y-1837713D01*
G01X2134434Y-1817160D01*
G01X2134434Y-1817160D01*
G01X2132529Y-1796607D01*
G01X2126881Y-1776754D01*
G01X2117680Y-1758276D01*
G01X2105241Y-1741804D01*
G01X2089987Y-1727899D01*
G01X2072438Y-1717032D01*
G01X2053190Y-1709576D01*
G01X2032900Y-1705783D01*
G01X2012259Y-1705783D01*
G01X1991970Y-1709576D01*
G01X1972722Y-1717032D01*
G01X1955173Y-1727899D01*
G01X1939919Y-1741804D01*
G01X1927480Y-1758276D01*
G01X1918279Y-1776754D01*
G01X1912630Y-1796607D01*
G01X1910726Y-1817160D01*
G01X1744034Y-1817160D01*
G01X1744034Y-1563160D01*
G01X1910726Y-1563160D01*
G01X1912630Y-1583713D01*
G01X1918279Y-1603566D01*
G01X1927480Y-1622043D01*
G01X1939919Y-1638515D01*
G01X1955173Y-1652421D01*
G01X1972722Y-1663288D01*
G01X1991970Y-1670744D01*
G01X2012259Y-1674537D01*
G01X2032900Y-1674537D01*
G01X2053190Y-1670744D01*
G01X2072438Y-1663288D01*
G01X2089987Y-1652421D01*
G01X2105241Y-1638515D01*
G01X2117680Y-1622043D01*
G01X2126881Y-1603566D01*
G01X2132529Y-1583713D01*
G01X2134434Y-1563160D01*
G01X2134434Y-1563160D01*
G01X2132529Y-1542607D01*
G01X2126881Y-1522754D01*
G01X2117680Y-1504276D01*
G01X2105241Y-1487804D01*
G01X2089987Y-1473899D01*
G01X2072438Y-1463032D01*
G01X2053190Y-1455576D01*
G01X2032900Y-1451783D01*
G01X2012259Y-1451783D01*
G01X1991970Y-1455576D01*
G01X1972722Y-1463032D01*
G01X1955173Y-1473899D01*
G01X1939919Y-1487804D01*
G01X1927480Y-1504276D01*
G01X1918279Y-1522754D01*
G01X1912630Y-1542607D01*
G01X1910726Y-1563160D01*
G01X1744034Y-1563160D01*
G01X1744034Y-1309160D01*
G01X1910726Y-1309160D01*
G01X1912630Y-1329713D01*
G01X1918279Y-1349566D01*
G01X1927480Y-1368043D01*
G01X1939919Y-1384515D01*
G01X1955173Y-1398421D01*
G01X1972722Y-1409288D01*
G01X1991970Y-1416744D01*
G01X2012259Y-1420537D01*
G01X2032900Y-1420537D01*
G01X2053190Y-1416744D01*
G01X2072438Y-1409288D01*
G01X2089987Y-1398421D01*
G01X2105241Y-1384515D01*
G01X2117680Y-1368043D01*
G01X2126881Y-1349566D01*
G01X2132529Y-1329713D01*
G01X2134434Y-1309160D01*
G01X2134434Y-1309160D01*
G01X2132529Y-1288607D01*
G01X2126881Y-1268754D01*
G01X2117680Y-1250276D01*
G01X2105241Y-1233804D01*
G01X2089987Y-1219899D01*
G01X2072438Y-1209032D01*
G01X2053190Y-1201576D01*
G01X2032900Y-1197783D01*
G01X2012259Y-1197783D01*
G01X1991970Y-1201576D01*
G01X1972722Y-1209032D01*
G01X1955173Y-1219899D01*
G01X1939919Y-1233804D01*
G01X1927480Y-1250276D01*
G01X1918279Y-1268754D01*
G01X1912630Y-1288607D01*
G01X1910726Y-1309160D01*
G01X1744034Y-1309160D01*
G01X1744034Y-1055160D01*
G01X1910726Y-1055160D01*
G01X1912630Y-1075713D01*
G01X1918279Y-1095566D01*
G01X1927480Y-1114043D01*
G01X1939919Y-1130515D01*
G01X1955173Y-1144421D01*
G01X1972722Y-1155288D01*
G01X1991970Y-1162744D01*
G01X2012259Y-1166537D01*
G01X2032900Y-1166537D01*
G01X2053190Y-1162744D01*
G01X2072438Y-1155288D01*
G01X2089987Y-1144421D01*
G01X2105241Y-1130515D01*
G01X2117680Y-1114043D01*
G01X2126881Y-1095566D01*
G01X2132529Y-1075713D01*
G01X2134434Y-1055160D01*
G01X2134434Y-1055160D01*
G01X2132529Y-1034607D01*
G01X2126881Y-1014754D01*
G01X2117680Y-996276D01*
G01X2105241Y-979804D01*
G01X2089987Y-965899D01*
G01X2072438Y-955032D01*
G01X2053190Y-947576D01*
G01X2032900Y-943783D01*
G01X2012259Y-943783D01*
G01X1991970Y-947576D01*
G01X1972722Y-955032D01*
G01X1955173Y-965899D01*
G01X1939919Y-979804D01*
G01X1927480Y-996276D01*
G01X1918279Y-1014754D01*
G01X1912630Y-1034607D01*
G01X1910726Y-1055160D01*
G01X1744034Y-1055160D01*
G01X1744034Y-801160D01*
G01X1910726Y-801160D01*
G01X1912630Y-821713D01*
G01X1918279Y-841566D01*
G01X1927480Y-860043D01*
G01X1939919Y-876515D01*
G01X1955173Y-890421D01*
G01X1972722Y-901288D01*
G01X1991970Y-908744D01*
G01X2012259Y-912537D01*
G01X2032900Y-912537D01*
G01X2053190Y-908744D01*
G01X2072438Y-901288D01*
G01X2089987Y-890421D01*
G01X2105241Y-876515D01*
G01X2117680Y-860043D01*
G01X2126881Y-841566D01*
G01X2132529Y-821713D01*
G01X2134434Y-801160D01*
G01X2134434Y-801160D01*
G01X2132529Y-780607D01*
G01X2126881Y-760754D01*
G01X2117680Y-742276D01*
G01X2105241Y-725804D01*
G01X2089987Y-711899D01*
G01X2072438Y-701032D01*
G01X2053190Y-693576D01*
G01X2032900Y-689783D01*
G01X2012259Y-689783D01*
G01X1991970Y-693576D01*
G01X1972722Y-701032D01*
G01X1955173Y-711899D01*
G01X1939919Y-725804D01*
G01X1927480Y-742276D01*
G01X1918279Y-760754D01*
G01X1912630Y-780607D01*
G01X1910726Y-801160D01*
G01X1744034Y-801160D01*
G01X1744034Y-697426D01*
G01X1825046Y-616414D01*
G01X3805994Y-616414D01*
G01X4224055Y-1034475D01*
G01X4222126Y-1055477D01*
G01X4224174Y-1076467D01*
G01X4230125Y-1096699D01*
G01X4239769Y-1115455D01*
G01X4252761Y-1132068D01*
G01X4268641Y-1145946D01*
G01X4286844Y-1156597D01*
G01X4306722Y-1163642D01*
G01X4327570Y-1166830D01*
G01X4348645Y-1166048D01*
G01X4369199Y-1161325D01*
G01X4388501Y-1152826D01*
G01X4405865Y-1140856D01*
G01X4420673Y-1125840D01*
G01X4432399Y-1108310D01*
G01X4440626Y-1088892D01*
G01X4445063Y-1068274D01*
G01X4445550Y-1047189D01*
G01X4442070Y-1026388D01*
G01X4434748Y-1006610D01*
G01X4423844Y-988558D01*
G01X4409745Y-972874D01*
G01X4392952Y-960115D01*
G01X4374063Y-950735D01*
G01X4353750Y-945067D01*
G01X4332733Y-943313D01*
G01X4295668Y-906248D01*
G01X4314632Y-911328D01*
G01X4334193Y-913014D01*
G01X4353746Y-911254D01*
G01X4372691Y-906102D01*
G01X4390443Y-897717D01*
G01X4406456Y-886357D01*
G01X4420236Y-872372D01*
G01X4431358Y-856194D01*
G01X4439481Y-838320D01*
G01X4444353Y-819301D01*
G01X4589198Y-964146D01*
G01X4576814Y-967871D01*
G01X4565402Y-973951D01*
G01X4555402Y-982149D01*
G01X4512976Y-1024576D01*
G01X4505539Y-1033458D01*
G01X4499779Y-1043509D01*
G01X4495875Y-1054416D01*
G01X4351590Y-1198701D01*
G01X4331576Y-1197332D01*
G01X4311639Y-1199560D01*
G01X4292420Y-1205313D01*
G01X4274539Y-1214407D01*
G01X4258569Y-1226549D01*
G01X4245026Y-1241348D01*
G01X4234343Y-1258329D01*
G01X4226866Y-1276944D01*
G01X4222834Y-1296596D01*
G01X4222377Y-1316652D01*
G01X4225510Y-1336467D01*
G01X4232133Y-1355403D01*
G01X4242031Y-1372852D01*
G01X4254887Y-1388253D01*
G01X4270287Y-1401109D01*
G01X4287737Y-1411007D01*
G01X4306673Y-1417630D01*
G01X4326488Y-1420763D01*
G01X4346544Y-1420306D01*
G01X4366196Y-1416274D01*
G01X4384811Y-1408797D01*
G01X4401792Y-1398114D01*
G01X4416591Y-1384570D01*
G01X4428733Y-1368601D01*
G01X4437827Y-1350719D01*
G01X4443580Y-1331501D01*
G01X4445808Y-1311564D01*
G01X4444439Y-1291550D01*
G01X4605824Y-1130164D01*
G01X4613261Y-1121282D01*
G01X4619021Y-1111231D01*
G01X4622925Y-1100324D01*
G01X4629021Y-1094228D01*
G01X4722656Y-1094228D01*
G01X4711824Y-1098137D01*
G01X4701841Y-1103878D01*
G01X4693016Y-1111276D01*
G01X4351590Y-1452701D01*
G01X4331576Y-1451332D01*
G01X4311639Y-1453560D01*
G01X4292420Y-1459313D01*
G01X4274539Y-1468407D01*
G01X4258569Y-1480549D01*
G01X4245026Y-1495348D01*
G01X4234343Y-1512329D01*
G01X4226866Y-1530944D01*
G01X4222834Y-1550596D01*
G01X4222377Y-1570652D01*
G01X4225510Y-1590467D01*
G01X4232133Y-1609403D01*
G01X4242031Y-1626852D01*
G01X4254887Y-1642253D01*
G01X4270287Y-1655109D01*
G01X4287737Y-1665007D01*
G01X4306673Y-1671630D01*
G01X4326488Y-1674763D01*
G01X4346544Y-1674306D01*
G01X4366196Y-1670274D01*
G01X4384811Y-1662797D01*
G01X4401792Y-1652114D01*
G01X4416591Y-1638570D01*
G01X4428733Y-1622601D01*
G01X4437827Y-1604719D01*
G01X4443580Y-1585501D01*
G01X4445808Y-1565564D01*
G01X4444439Y-1545550D01*
G01X4766635Y-1223354D01*
G01X4835077Y-1223354D01*
G01X4820795Y-1236739D01*
G01X4809086Y-1252424D01*
G01X4800312Y-1269921D01*
G01X4794746Y-1288686D01*
G01X4792561Y-1308137D01*
G01X4793825Y-1327670D01*
G01X4446676Y-1674819D01*
G01X4438511Y-1684768D01*
G01X4432444Y-1696119D01*
G01X4428708Y-1708435D01*
G01X4427446Y-1721243D01*
G01X4427446Y-1755716D01*
G01X4414715Y-1739744D01*
G01X4399291Y-1726354D01*
G01X4381690Y-1715991D01*
G01X4362498Y-1709002D01*
G01X4342355Y-1705620D01*
G01X4321932Y-1705957D01*
G01X4301912Y-1710001D01*
G01X4282960Y-1717619D01*
G01X4265710Y-1728557D01*
G01X4250737Y-1742448D01*
G01X4238539Y-1758831D01*
G01X4229523Y-1777159D01*
G01X4223991Y-1796820D01*
G01X4222126Y-1817160D01*
G01X4223991Y-1837500D01*
G01X4229523Y-1857161D01*
G01X4238539Y-1875489D01*
G01X4250737Y-1891872D01*
G01X4265710Y-1905763D01*
G01X4282960Y-1916700D01*
G01X4301912Y-1924318D01*
G01X4321932Y-1928363D01*
G01X4342355Y-1928700D01*
G01X4362498Y-1925317D01*
G01X4381690Y-1918329D01*
G01X4399291Y-1907966D01*
G01X4414715Y-1894576D01*
G01X4427446Y-1878604D01*
G01X4427446Y-2009716D01*
G01X4414715Y-1993744D01*
G01X4399291Y-1980354D01*
G01X4381690Y-1969991D01*
G01X4362498Y-1963002D01*
G01X4342355Y-1959620D01*
G01X4321932Y-1959957D01*
G01X4301912Y-1964001D01*
G01X4282960Y-1971619D01*
G01X4265710Y-1982557D01*
G01X4250737Y-1996448D01*
G01X4238539Y-2012831D01*
G01X4229523Y-2031159D01*
G01X4223991Y-2050820D01*
G01X4222126Y-2071160D01*
G01X4223991Y-2091500D01*
G01X4229523Y-2111161D01*
G01X4238539Y-2129489D01*
G01X4250737Y-2145872D01*
G01X4265710Y-2159763D01*
G01X4282960Y-2170700D01*
G01X4301912Y-2178318D01*
G01X4321932Y-2182363D01*
G01X4342355Y-2182700D01*
G01X4362498Y-2179317D01*
G01X4381690Y-2172329D01*
G01X4399291Y-2161966D01*
G01X4414715Y-2148576D01*
G01X4427446Y-2132604D01*
G01X4427446Y-2263716D01*
G01X4414715Y-2247744D01*
G01X4399291Y-2234354D01*
G01X4381690Y-2223991D01*
G01X4362498Y-2217002D01*
G01X4342355Y-2213620D01*
G01X4321932Y-2213957D01*
G01X4301912Y-2218001D01*
G01X4282960Y-2225619D01*
G01X4265710Y-2236557D01*
G01X4250737Y-2250448D01*
G01X4238539Y-2266831D01*
G01X4229523Y-2285159D01*
G01X4223991Y-2304820D01*
G01X4222126Y-2325160D01*
G01X4223991Y-2345500D01*
G01X4229523Y-2365161D01*
G01X4238539Y-2383489D01*
G01X4250737Y-2399872D01*
G01X4265710Y-2413763D01*
G01X4282960Y-2424700D01*
G01X4301912Y-2432318D01*
G01X4321932Y-2436363D01*
G01X4342355Y-2436700D01*
G01X4362498Y-2433317D01*
G01X4381690Y-2426329D01*
G01X4399291Y-2415966D01*
G01X4414715Y-2402576D01*
G01X4427446Y-2386604D01*
G01X4427446Y-2517716D01*
G01X4414715Y-2501744D01*
G01X4399291Y-2488354D01*
G01X4381690Y-2477991D01*
G01X4362498Y-2471002D01*
G01X4342355Y-2467620D01*
G01X4321932Y-2467957D01*
G01X4301912Y-2472001D01*
G01X4282960Y-2479619D01*
G01X4265710Y-2490557D01*
G01X4250737Y-2504448D01*
G01X4238539Y-2520831D01*
G01X4229523Y-2539159D01*
G01X4223991Y-2558820D01*
G01X4222126Y-2579160D01*
G01X4223991Y-2599500D01*
G01X4229523Y-2619161D01*
G01X4238539Y-2637489D01*
G01X4250737Y-2653872D01*
G01X4265710Y-2667763D01*
G01X4282960Y-2678700D01*
G01X4301912Y-2686318D01*
G01X4321932Y-2690363D01*
G01X4342355Y-2690700D01*
G01X4362498Y-2687317D01*
G01X4381690Y-2680329D01*
G01X4399291Y-2669966D01*
G01X4414715Y-2656576D01*
G01X4427446Y-2640604D01*
G01X4427446Y-2771716D01*
G01X4414715Y-2755744D01*
G01X4399291Y-2742354D01*
G01X4381690Y-2731991D01*
G01X4362498Y-2725002D01*
G01X4342355Y-2721620D01*
G01X4321932Y-2721957D01*
G01X4301912Y-2726001D01*
G01X4282960Y-2733619D01*
G01X4265710Y-2744557D01*
G01X4250737Y-2758448D01*
G01X4238539Y-2774831D01*
G01X4229523Y-2793159D01*
G01X4223991Y-2812820D01*
G01X4222126Y-2833160D01*
G01X4223991Y-2853500D01*
G01X4229523Y-2873161D01*
G01X4238539Y-2891489D01*
G01X4250737Y-2907872D01*
G01X4265710Y-2921763D01*
G01X4282960Y-2932700D01*
G01X4301912Y-2940318D01*
G01X4321932Y-2944363D01*
G01X4342355Y-2944700D01*
G01X4362498Y-2941317D01*
G01X4381690Y-2934329D01*
G01X4399291Y-2923966D01*
G01X4414715Y-2910576D01*
G01X4427446Y-2894604D01*
G01X4427446Y-3025716D01*
G01X4414715Y-3009744D01*
G01X4399291Y-2996354D01*
G01X4381690Y-2985991D01*
G01X4362498Y-2979002D01*
G01X4342355Y-2975620D01*
G01X4321932Y-2975957D01*
G01X4301912Y-2980001D01*
G01X4282960Y-2987619D01*
G01X4265710Y-2998557D01*
G01X4250737Y-3012448D01*
G01X4238539Y-3028831D01*
G01X4229523Y-3047159D01*
G01X4223991Y-3066820D01*
G01X4222126Y-3087160D01*
G01X4223991Y-3107500D01*
G01X4229523Y-3127161D01*
G01X4238539Y-3145489D01*
G01X4250737Y-3161872D01*
G01X4265710Y-3175763D01*
G01X4282960Y-3186700D01*
G01X4301912Y-3194318D01*
G01X4321932Y-3198363D01*
G01X4342355Y-3198700D01*
G01X4362498Y-3195317D01*
G01X4381690Y-3188329D01*
G01X4399291Y-3177966D01*
G01X4414715Y-3164576D01*
G01X4427446Y-3148604D01*
G01X4427446Y-3279716D01*
G01X4414715Y-3263744D01*
G01X4399291Y-3250354D01*
G01X4381690Y-3239991D01*
G01X4362498Y-3233002D01*
G01X4342355Y-3229620D01*
G01X4321932Y-3229957D01*
G01X4301912Y-3234001D01*
G01X4282960Y-3241619D01*
G01X4265710Y-3252557D01*
G01X4250737Y-3266448D01*
G01X4238539Y-3282831D01*
G01X4229523Y-3301159D01*
G01X4223991Y-3320820D01*
G01X4222126Y-3341160D01*
G01X4223991Y-3361500D01*
G01X4229523Y-3381161D01*
G01X4238539Y-3399489D01*
G01X4250737Y-3415872D01*
G01X4265710Y-3429763D01*
G01X4282960Y-3440700D01*
G01X4301912Y-3448318D01*
G01X4321932Y-3452363D01*
G01X4342355Y-3452700D01*
G01X4362498Y-3449317D01*
G01X4381690Y-3442329D01*
G01X4399291Y-3431966D01*
G01X4414715Y-3418576D01*
G01X4427446Y-3402604D01*
G01X4427446Y-3533716D01*
G01X4414715Y-3517744D01*
G01X4399291Y-3504354D01*
G01X4381690Y-3493991D01*
G01X4362498Y-3487002D01*
G01X4342355Y-3483620D01*
G01X4321932Y-3483957D01*
G01X4301912Y-3488001D01*
G01X4282960Y-3495619D01*
G01X4265710Y-3506557D01*
G01X4250737Y-3520448D01*
G01X4238539Y-3536831D01*
G01X4229523Y-3555159D01*
G01X4223991Y-3574820D01*
G01X4222126Y-3595160D01*
G01X4223991Y-3615500D01*
G01X4229523Y-3635161D01*
G01X4238539Y-3653489D01*
G01X4250737Y-3669872D01*
G01X4265710Y-3683763D01*
G01X4282960Y-3694700D01*
G01X4301912Y-3702318D01*
G01X4321932Y-3706363D01*
G01X4342355Y-3706700D01*
G01X4362498Y-3703317D01*
G01X4381690Y-3696329D01*
G01X4399291Y-3685966D01*
G01X4414715Y-3672576D01*
G01X4427446Y-3656604D01*
G01X4427446Y-3787716D01*
G01X4414715Y-3771744D01*
G01X4399291Y-3758354D01*
G01X4381690Y-3747991D01*
G01X4362498Y-3741002D01*
G01X4342355Y-3737620D01*
G01X4321932Y-3737957D01*
G01X4301912Y-3742001D01*
G01X4282960Y-3749619D01*
G01X4265710Y-3760557D01*
G01X4250737Y-3774448D01*
G01X4238539Y-3790831D01*
G01X4229523Y-3809159D01*
G01X4223991Y-3828820D01*
G01X4222126Y-3849160D01*
G01X4223991Y-3869500D01*
G01X4229523Y-3889161D01*
G01X4238539Y-3907489D01*
G01X4250737Y-3923872D01*
G01X4265710Y-3937763D01*
G01X4282960Y-3948700D01*
G01X4301912Y-3956318D01*
G01X4321932Y-3960363D01*
G01X4342355Y-3960700D01*
G01X4362498Y-3957317D01*
G01X4381690Y-3950329D01*
G01X4399291Y-3939966D01*
G01X4414715Y-3926576D01*
G01X4427446Y-3910604D01*
G01X4427446Y-4041716D01*
G01X4414715Y-4025744D01*
G01X4399291Y-4012354D01*
G01X4381690Y-4001991D01*
G01X4362498Y-3995002D01*
G01X4342355Y-3991620D01*
G01X4321932Y-3991957D01*
G01X4301912Y-3996001D01*
G01X4282960Y-4003619D01*
G01X4265710Y-4014557D01*
G01X4250737Y-4028448D01*
G01X4238539Y-4044831D01*
G01X4229523Y-4063159D01*
G01X4223991Y-4082820D01*
G01X4222126Y-4103160D01*
G01X4223991Y-4123500D01*
G01X4229523Y-4143161D01*
G01X4238539Y-4161489D01*
G01X4250737Y-4177872D01*
G01X4265710Y-4191763D01*
G01X4282960Y-4202700D01*
G01X4301912Y-4210318D01*
G01X4321932Y-4214363D01*
G01X4342355Y-4214700D01*
G01X4362498Y-4211317D01*
G01X4381690Y-4204329D01*
G01X4399291Y-4193966D01*
G01X4414715Y-4180576D01*
G01X4427446Y-4164604D01*
G01X4427446Y-4295716D01*
G01X4414715Y-4279744D01*
G01X4399291Y-4266354D01*
G01X4381690Y-4255991D01*
G01X4362498Y-4249002D01*
G01X4342355Y-4245620D01*
G01X4321932Y-4245957D01*
G01X4301912Y-4250001D01*
G01X4282960Y-4257619D01*
G01X4265710Y-4268557D01*
G01X4250737Y-4282448D01*
G01X4238539Y-4298831D01*
G01X4229523Y-4317159D01*
G01X4223991Y-4336820D01*
G01X4222126Y-4357160D01*
G01X4223991Y-4377500D01*
G01X4229523Y-4397161D01*
G01X4238539Y-4415489D01*
G01X4250737Y-4431872D01*
G01X4265710Y-4445763D01*
G01X4282960Y-4456700D01*
G01X4301912Y-4464318D01*
G01X4321932Y-4468363D01*
G01X4342355Y-4468700D01*
G01X4362498Y-4465317D01*
G01X4381690Y-4458329D01*
G01X4399291Y-4447966D01*
G01X4414715Y-4434576D01*
G01X4427446Y-4418604D01*
G01X4427446Y-4424845D01*
G01X4351590Y-4500701D01*
G01X4331576Y-4499332D01*
G01X4311639Y-4501560D01*
G01X4292420Y-4507313D01*
G01X4274539Y-4516407D01*
G01X4258569Y-4528549D01*
G01X4245026Y-4543348D01*
G01X4234343Y-4560329D01*
G01X4226866Y-4578944D01*
G01X4222834Y-4598596D01*
G01X4222377Y-4618652D01*
G01X4225510Y-4638467D01*
G01X4232133Y-4657403D01*
G01X4242031Y-4674852D01*
G01X4254887Y-4690253D01*
G01X4270287Y-4703109D01*
G01X4287737Y-4713007D01*
G01X4306673Y-4719630D01*
G01X4326488Y-4722763D01*
G01X4346544Y-4722306D01*
G01X4366196Y-4718274D01*
G01X4384811Y-4710797D01*
G01X4401792Y-4700114D01*
G01X4416591Y-4686570D01*
G01X4428733Y-4670601D01*
G01X4437827Y-4652719D01*
G01X4443580Y-4633501D01*
G01X4445808Y-4613564D01*
G01X4444439Y-4593550D01*
G01X4539524Y-4498464D01*
G01X4547689Y-4488515D01*
G01X4553756Y-4477165D01*
G01X4557492Y-4464848D01*
G01X4558754Y-4452040D01*
G01X4558754Y-4269102D01*
G01X4864876Y-4575224D01*
G01X4874825Y-4583389D01*
G01X4886175Y-4589456D01*
G01X4898492Y-4593192D01*
G01X4911300Y-4594454D01*
G01X5292188Y-4594454D01*
G01X5289913Y-4601503D01*
G01X5289143Y-4608871D01*
G01X5289143Y-4761271D01*
G01X5290888Y-4772289D01*
G01X5295953Y-4782228D01*
G01X5303840Y-4790116D01*
G01X5313780Y-4795180D01*
G01X5324797Y-4796925D01*
G01X5477197Y-4796925D01*
G01X5488215Y-4795180D01*
G01X5498154Y-4790116D01*
G01X5506042Y-4782228D01*
G01X5511106Y-4772289D01*
G01X5512851Y-4761271D01*
G01X5512851Y-4608871D01*
G01X5512082Y-4601503D01*
G01X5509806Y-4594454D01*
G01X5967519Y-4594454D01*
G01X6289143Y-4916078D01*
G01X6289143Y-5011283D01*
G01X6290888Y-5022301D01*
G01X6295952Y-5032240D01*
G01X6303840Y-5040128D01*
G01X6313779Y-5045192D01*
G01X6324797Y-5046937D01*
G01X6477197Y-5046937D01*
G01X6488215Y-5045192D01*
G01X6498154Y-5040128D01*
G01X6506042Y-5032240D01*
G01X6511106Y-5022301D01*
G01X6512851Y-5011283D01*
G01X6512851Y-4858883D01*
G01X6511106Y-4847866D01*
G01X6506042Y-4837926D01*
G01X6498154Y-4830039D01*
G01X6488215Y-4824974D01*
G01X6477197Y-4823229D01*
G01X6381992Y-4823229D01*
G01X6355688Y-4796925D01*
G01X6477197Y-4796925D01*
G01X6488215Y-4795180D01*
G01X6498154Y-4790116D01*
G01X6506042Y-4782228D01*
G01X6511106Y-4772289D01*
G01X6512847Y-4761294D01*
G01X7289146Y-4761294D01*
G01X7290891Y-4772312D01*
G01X7295955Y-4782251D01*
G01X7303843Y-4790139D01*
G01X7313782Y-4795203D01*
G01X7324800Y-4796948D01*
G01X7477200Y-4796948D01*
G01X7488218Y-4795203D01*
G01X7498157Y-4790139D01*
G01X7506045Y-4782251D01*
G01X7511109Y-4772312D01*
G01X7512854Y-4761294D01*
G01X7512854Y-4608894D01*
G01X7511109Y-4597876D01*
G01X7506045Y-4587937D01*
G01X7498157Y-4580049D01*
G01X7488218Y-4574985D01*
G01X7477200Y-4573240D01*
G01X7324800Y-4573240D01*
G01X7313782Y-4574985D01*
G01X7303843Y-4580049D01*
G01X7295955Y-4587937D01*
G01X7290891Y-4597876D01*
G01X7289146Y-4608894D01*
G01X7289146Y-4761294D01*
G01X7289146Y-4761294D01*
G01X6512847Y-4761294D01*
G01X6512851Y-4761271D01*
G01X6512851Y-4608871D01*
G01X6511106Y-4597853D01*
G01X6506042Y-4587914D01*
G01X6498154Y-4580026D01*
G01X6488215Y-4574962D01*
G01X6477197Y-4573217D01*
G01X6324797Y-4573217D01*
G01X6313779Y-4574962D01*
G01X6303840Y-4580026D01*
G01X6295952Y-4587914D01*
G01X6290888Y-4597853D01*
G01X6289143Y-4608871D01*
G01X6289143Y-4730381D01*
G01X6041138Y-4482376D01*
G01X6031189Y-4474211D01*
G01X6019838Y-4468144D01*
G01X6007522Y-4464408D01*
G01X5994714Y-4463146D01*
G01X4938495Y-4463146D01*
G01X4631966Y-4156617D01*
G01X4620465Y-4145120D01*
G01X4606506Y-4136776D01*
G01X4590935Y-4132090D01*
G01X4574690Y-4131344D01*
G01X4558754Y-4134583D01*
G01X4558754Y-4044703D01*
G01X4645575Y-4131524D01*
G01X4655524Y-4139689D01*
G01X4666875Y-4145756D01*
G01X4679191Y-4149492D01*
G01X4691999Y-4150753D01*
G01X5977200Y-4150754D01*
G01X5990008Y-4149493D01*
G01X6002324Y-4145757D01*
G01X6013675Y-4139690D01*
G01X6023624Y-4131525D01*
G01X6147195Y-4007954D01*
G01X6289143Y-4007954D01*
G01X6289143Y-4011283D01*
G01X6290888Y-4022301D01*
G01X6295952Y-4032240D01*
G01X6303840Y-4040128D01*
G01X6313779Y-4045192D01*
G01X6324797Y-4046937D01*
G01X6477197Y-4046937D01*
G01X6488215Y-4045192D01*
G01X6498154Y-4040128D01*
G01X6506042Y-4032240D01*
G01X6511106Y-4022301D01*
G01X6512851Y-4011283D01*
G01X6512851Y-3858883D01*
G01X6511106Y-3847866D01*
G01X6506042Y-3837926D01*
G01X6498154Y-3830039D01*
G01X6488215Y-3824974D01*
G01X6477197Y-3823229D01*
G01X6324797Y-3823229D01*
G01X6313779Y-3824974D01*
G01X6303840Y-3830039D01*
G01X6295952Y-3837926D01*
G01X6290888Y-3847866D01*
G01X6289143Y-3858883D01*
G01X6289143Y-3876646D01*
G01X6120000Y-3876646D01*
G01X6107192Y-3877908D01*
G01X6094875Y-3881644D01*
G01X6083525Y-3887711D01*
G01X6073576Y-3895876D01*
G01X5950005Y-4019446D01*
G01X5511904Y-4019446D01*
G01X5512851Y-4011283D01*
G01X5512851Y-3858883D01*
G01X5511106Y-3847866D01*
G01X5506042Y-3837926D01*
G01X5498154Y-3830039D01*
G01X5488215Y-3824974D01*
G01X5477197Y-3823229D01*
G01X5324797Y-3823229D01*
G01X5313780Y-3824974D01*
G01X5303840Y-3830039D01*
G01X5295953Y-3837926D01*
G01X5290888Y-3847866D01*
G01X5289143Y-3858883D01*
G01X5289143Y-4011283D01*
G01X5290090Y-4019446D01*
G01X4719194Y-4019446D01*
G01X4631965Y-3932216D01*
G01X4620464Y-3920720D01*
G01X4606506Y-3912377D01*
G01X4590934Y-3907690D01*
G01X4574690Y-3906945D01*
G01X4558754Y-3910184D01*
G01X4558754Y-3828916D01*
G01X4572766Y-3833595D01*
G01X4587467Y-3835048D01*
G01X4602124Y-3833203D01*
G01X4616006Y-3828151D01*
G01X4628420Y-3820145D01*
G01X4638749Y-3809583D01*
G01X4687061Y-3761271D01*
G01X5289143Y-3761271D01*
G01X5290888Y-3772289D01*
G01X5295953Y-3782228D01*
G01X5303840Y-3790116D01*
G01X5313780Y-3795180D01*
G01X5324797Y-3796925D01*
G01X5477197Y-3796925D01*
G01X5488215Y-3795180D01*
G01X5498154Y-3790116D01*
G01X5506042Y-3782228D01*
G01X5511106Y-3772289D01*
G01X5512851Y-3761271D01*
G01X6289143Y-3761271D01*
G01X6290888Y-3772289D01*
G01X6295952Y-3782228D01*
G01X6303840Y-3790116D01*
G01X6313779Y-3795180D01*
G01X6324797Y-3796925D01*
G01X6477197Y-3796925D01*
G01X6488215Y-3795180D01*
G01X6498154Y-3790116D01*
G01X6506042Y-3782228D01*
G01X6511106Y-3772289D01*
G01X6512851Y-3761271D01*
G01X6512851Y-3608871D01*
G01X6511106Y-3597853D01*
G01X6506042Y-3587914D01*
G01X6498154Y-3580026D01*
G01X6488215Y-3574962D01*
G01X6477197Y-3573217D01*
G01X6324797Y-3573217D01*
G01X6313779Y-3574962D01*
G01X6303840Y-3580026D01*
G01X6295952Y-3587914D01*
G01X6290888Y-3597853D01*
G01X6289143Y-3608871D01*
G01X6289143Y-3761271D01*
G01X6289143Y-3761271D01*
G01X5512851Y-3761271D01*
G01X5512851Y-3608871D01*
G01X5511106Y-3597853D01*
G01X5506042Y-3587914D01*
G01X5498154Y-3580026D01*
G01X5488215Y-3574962D01*
G01X5477197Y-3573217D01*
G01X5324797Y-3573217D01*
G01X5313780Y-3574962D01*
G01X5303840Y-3580026D01*
G01X5295953Y-3587914D01*
G01X5290888Y-3597853D01*
G01X5289143Y-3608871D01*
G01X5289143Y-3761271D01*
G01X5289143Y-3761271D01*
G01X4687061Y-3761271D01*
G01X4884078Y-3564254D01*
G01X5763000Y-3564254D01*
G01X5775808Y-3562992D01*
G01X5788125Y-3559256D01*
G01X5799475Y-3553189D01*
G01X5809424Y-3545024D01*
G01X6310502Y-3043946D01*
G01X6317495Y-3046181D01*
G01X6324797Y-3046937D01*
G01X6477197Y-3046937D01*
G01X6488215Y-3045192D01*
G01X6498154Y-3040128D01*
G01X6506042Y-3032240D01*
G01X6511106Y-3022301D01*
G01X6512851Y-3011283D01*
G01X6512851Y-2858883D01*
G01X6511106Y-2847866D01*
G01X6506042Y-2837926D01*
G01X6498154Y-2830039D01*
G01X6488215Y-2824974D01*
G01X6477197Y-2823229D01*
G01X6324797Y-2823229D01*
G01X6313779Y-2824974D01*
G01X6303840Y-2830039D01*
G01X6295952Y-2837926D01*
G01X6290888Y-2847866D01*
G01X6289143Y-2858883D01*
G01X6289143Y-2881105D01*
G01X6280092Y-2888659D01*
G01X5735805Y-3432946D01*
G01X4856884Y-3432946D01*
G01X4844075Y-3434208D01*
G01X4831759Y-3437944D01*
G01X4820408Y-3444011D01*
G01X4810459Y-3452176D01*
G01X4558754Y-3703881D01*
G01X4558754Y-3011283D01*
G01X5289143Y-3011283D01*
G01X5290888Y-3022301D01*
G01X5295953Y-3032240D01*
G01X5303840Y-3040128D01*
G01X5313780Y-3045192D01*
G01X5324797Y-3046937D01*
G01X5477197Y-3046937D01*
G01X5488215Y-3045192D01*
G01X5498154Y-3040128D01*
G01X5506042Y-3032240D01*
G01X5511106Y-3022301D01*
G01X5512851Y-3011283D01*
G01X5512851Y-2858883D01*
G01X5511106Y-2847866D01*
G01X5506042Y-2837926D01*
G01X5498154Y-2830039D01*
G01X5488215Y-2824974D01*
G01X5477197Y-2823229D01*
G01X5324797Y-2823229D01*
G01X5313780Y-2824974D01*
G01X5303840Y-2830039D01*
G01X5295953Y-2837926D01*
G01X5290888Y-2847866D01*
G01X5289143Y-2858883D01*
G01X5289143Y-3011283D01*
G01X5289143Y-3011283D01*
G01X4558754Y-3011283D01*
G01X4558754Y-2761271D01*
G01X5289143Y-2761271D01*
G01X5290888Y-2772289D01*
G01X5295953Y-2782228D01*
G01X5303840Y-2790116D01*
G01X5313780Y-2795180D01*
G01X5324797Y-2796925D01*
G01X5477197Y-2796925D01*
G01X5488215Y-2795180D01*
G01X5498154Y-2790116D01*
G01X5506042Y-2782228D01*
G01X5511106Y-2772289D01*
G01X5512851Y-2761271D01*
G01X6289143Y-2761271D01*
G01X6290888Y-2772289D01*
G01X6295952Y-2782228D01*
G01X6303840Y-2790116D01*
G01X6313779Y-2795180D01*
G01X6324797Y-2796925D01*
G01X6477197Y-2796925D01*
G01X6488215Y-2795180D01*
G01X6498154Y-2790116D01*
G01X6506042Y-2782228D01*
G01X6511106Y-2772289D01*
G01X6512851Y-2761271D01*
G01X6512851Y-2608871D01*
G01X6511106Y-2597853D01*
G01X6506042Y-2587914D01*
G01X6498154Y-2580026D01*
G01X6488215Y-2574962D01*
G01X6477197Y-2573217D01*
G01X6324797Y-2573217D01*
G01X6313779Y-2574962D01*
G01X6303840Y-2580026D01*
G01X6295952Y-2587914D01*
G01X6290888Y-2597853D01*
G01X6289143Y-2608871D01*
G01X6289143Y-2761271D01*
G01X6289143Y-2761271D01*
G01X5512851Y-2761271D01*
G01X5512851Y-2608871D01*
G01X5511106Y-2597853D01*
G01X5506042Y-2587914D01*
G01X5498154Y-2580026D01*
G01X5488215Y-2574962D01*
G01X5477197Y-2573217D01*
G01X5324797Y-2573217D01*
G01X5313780Y-2574962D01*
G01X5303840Y-2580026D01*
G01X5295953Y-2587914D01*
G01X5290888Y-2597853D01*
G01X5289143Y-2608871D01*
G01X5289143Y-2761271D01*
G01X5289143Y-2761271D01*
G01X4558754Y-2761271D01*
G01X4558754Y-1748438D01*
G01X4886674Y-1420519D01*
G01X4907467Y-1421746D01*
G01X4928123Y-1419069D01*
G01X4947916Y-1412581D01*
G01X4966150Y-1402512D01*
G01X4982182Y-1389215D01*
G01X4995450Y-1373158D01*
G01X5005486Y-1354906D01*
G01X5011937Y-1335101D01*
G01X5014576Y-1314440D01*
G01X5013311Y-1293650D01*
G01X5008186Y-1273461D01*
G01X4999381Y-1254584D01*
G01X4987207Y-1237684D01*
G01X4972090Y-1223354D01*
G01X4996305Y-1223354D01*
G01X5051349Y-1278398D01*
G01X5047278Y-1297885D01*
G01X5046752Y-1317787D01*
G01X5049787Y-1337462D01*
G01X5056287Y-1356280D01*
G01X5066042Y-1373634D01*
G01X5078739Y-1388968D01*
G01X5093969Y-1401789D01*
G01X5111244Y-1411684D01*
G01X5130008Y-1418336D01*
G01X5149659Y-1421531D01*
G01X5169564Y-1421166D01*
G01X5189083Y-1417253D01*
G01X5207591Y-1409917D01*
G01X5224492Y-1399395D01*
G01X5239242Y-1386025D01*
G01X5251368Y-1370236D01*
G01X5260480Y-1352535D01*
G01X5266285Y-1333492D01*
G01X5268597Y-1313718D01*
G01X5267342Y-1293850D01*
G01X5337838Y-1223354D01*
G01X5343076Y-1223354D01*
G01X5327763Y-1237909D01*
G01X5315484Y-1255100D01*
G01X5306682Y-1274306D01*
G01X5301677Y-1294831D01*
G01X5300649Y-1315933D01*
G01X5303636Y-1336847D01*
G01X5310530Y-1356817D01*
G01X5321080Y-1375121D01*
G01X5334906Y-1391095D01*
G01X5351507Y-1404162D01*
G01X5370282Y-1413848D01*
G01X5390552Y-1419804D01*
G01X5411583Y-1421814D01*
G01X5432613Y-1419804D01*
G01X5452883Y-1413848D01*
G01X5471658Y-1404162D01*
G01X5488259Y-1391095D01*
G01X5502085Y-1375121D01*
G01X5512635Y-1356817D01*
G01X5519529Y-1336847D01*
G01X5522516Y-1315933D01*
G01X5521488Y-1294831D01*
G01X5516483Y-1274306D01*
G01X5507681Y-1255100D01*
G01X5495402Y-1237909D01*
G01X5480089Y-1223354D01*
G01X5597075Y-1223354D01*
G01X5581763Y-1237909D01*
G01X5569483Y-1255100D01*
G01X5560682Y-1274306D01*
G01X5555676Y-1294831D01*
G01X5554649Y-1315933D01*
G01X5557636Y-1336847D01*
G01X5564529Y-1356817D01*
G01X5575080Y-1375121D01*
G01X5588906Y-1391095D01*
G01X5605507Y-1404162D01*
G01X5624282Y-1413848D01*
G01X5644551Y-1419804D01*
G01X5665582Y-1421814D01*
G01X5686613Y-1419804D01*
G01X5706882Y-1413848D01*
G01X5725657Y-1404162D01*
G01X5742258Y-1391095D01*
G01X5756084Y-1375121D01*
G01X5766635Y-1356817D01*
G01X5773528Y-1336847D01*
G01X5776515Y-1315933D01*
G01X5775488Y-1294831D01*
G01X5770482Y-1274306D01*
G01X5761681Y-1255100D01*
G01X5749401Y-1237909D01*
G01X5734089Y-1223354D01*
G01X5851075Y-1223354D01*
G01X5836793Y-1236739D01*
G01X5825084Y-1252424D01*
G01X5816310Y-1269921D01*
G01X5810744Y-1288686D01*
G01X5808559Y-1308137D01*
G01X5809823Y-1327670D01*
G01X5673147Y-1464346D01*
G01X4965319Y-1464346D01*
G01X4949350Y-1464313D01*
G01X4933839Y-1468108D01*
G01X4919689Y-1475509D01*
G01X4907724Y-1486085D01*
G01X4898643Y-1499220D01*
G01X4892973Y-1514148D01*
G01X4891046Y-1530000D01*
G01X4892973Y-1545852D01*
G01X4898643Y-1560780D01*
G01X4907724Y-1573915D01*
G01X4919689Y-1584491D01*
G01X4933839Y-1591892D01*
G01X4949350Y-1595687D01*
G01X4965319Y-1595654D01*
G01X5700341Y-1595654D01*
G01X5713150Y-1594392D01*
G01X5725466Y-1590656D01*
G01X5736817Y-1584589D01*
G01X5746766Y-1576424D01*
G01X5902671Y-1420519D01*
G01X5919582Y-1421814D01*
G01X5936492Y-1420519D01*
G01X6071997Y-1556024D01*
G01X6081946Y-1564189D01*
G01X6093297Y-1570256D01*
G01X6105613Y-1573992D01*
G01X6118422Y-1575254D01*
G01X6482740Y-1575254D01*
G01X6495548Y-1573992D01*
G01X6507865Y-1570256D01*
G01X6519215Y-1564189D01*
G01X6529164Y-1556024D01*
G01X6664670Y-1420519D01*
G01X6684506Y-1421775D01*
G01X6704249Y-1419475D01*
G01X6723266Y-1413693D01*
G01X6740947Y-1404614D01*
G01X6756727Y-1392528D01*
G01X6770099Y-1377822D01*
G01X6780636Y-1360969D01*
G01X6787999Y-1342507D01*
G01X6791954Y-1323028D01*
G01X6792213Y-1310760D01*
G01X6824526Y-1310760D01*
G01X6826417Y-1331166D01*
G01X6832025Y-1350877D01*
G01X6841160Y-1369222D01*
G01X6853510Y-1385576D01*
G01X6868655Y-1399383D01*
G01X6886079Y-1410171D01*
G01X6905188Y-1417574D01*
G01X6925333Y-1421340D01*
G01X6945826Y-1421340D01*
G01X6965971Y-1417574D01*
G01X6985080Y-1410171D01*
G01X7002504Y-1399383D01*
G01X7017649Y-1385576D01*
G01X7029999Y-1369222D01*
G01X7039134Y-1350877D01*
G01X7044742Y-1331166D01*
G01X7046633Y-1310760D01*
G01X7046633Y-1310760D01*
G01X7078525Y-1310760D01*
G01X7080416Y-1331166D01*
G01X7086024Y-1350877D01*
G01X7095159Y-1369222D01*
G01X7107509Y-1385576D01*
G01X7122654Y-1399383D01*
G01X7140078Y-1410171D01*
G01X7159188Y-1417574D01*
G01X7179332Y-1421340D01*
G01X7199826Y-1421340D01*
G01X7219970Y-1417574D01*
G01X7239080Y-1410171D01*
G01X7256504Y-1399383D01*
G01X7271649Y-1385576D01*
G01X7283999Y-1369222D01*
G01X7293134Y-1350877D01*
G01X7298742Y-1331166D01*
G01X7300633Y-1310760D01*
G01X7332525Y-1310760D01*
G01X7334416Y-1331166D01*
G01X7340024Y-1350877D01*
G01X7349159Y-1369222D01*
G01X7361509Y-1385576D01*
G01X7376654Y-1399383D01*
G01X7394078Y-1410171D01*
G01X7413187Y-1417574D01*
G01X7433332Y-1421340D01*
G01X7453825Y-1421340D01*
G01X7473970Y-1417574D01*
G01X7493079Y-1410171D01*
G01X7510503Y-1399383D01*
G01X7525648Y-1385576D01*
G01X7537998Y-1369222D01*
G01X7547133Y-1350877D01*
G01X7552741Y-1331166D01*
G01X7554632Y-1310760D01*
G01X7554632Y-1310760D01*
G01X7552741Y-1290354D01*
G01X7547133Y-1270643D01*
G01X7537998Y-1252298D01*
G01X7525648Y-1235943D01*
G01X7510503Y-1222137D01*
G01X7493079Y-1211349D01*
G01X7473970Y-1203945D01*
G01X7453825Y-1200180D01*
G01X7433332Y-1200180D01*
G01X7413187Y-1203945D01*
G01X7394078Y-1211349D01*
G01X7376654Y-1222137D01*
G01X7361509Y-1235943D01*
G01X7349159Y-1252298D01*
G01X7340024Y-1270643D01*
G01X7334416Y-1290354D01*
G01X7332525Y-1310760D01*
G01X7300633Y-1310760D01*
G01X7300633Y-1310760D01*
G01X7300633Y-1310760D01*
G01X7298742Y-1290354D01*
G01X7293134Y-1270643D01*
G01X7283999Y-1252298D01*
G01X7271649Y-1235943D01*
G01X7256504Y-1222137D01*
G01X7239080Y-1211349D01*
G01X7219970Y-1203945D01*
G01X7199826Y-1200180D01*
G01X7179332Y-1200180D01*
G01X7159188Y-1203945D01*
G01X7140078Y-1211349D01*
G01X7122654Y-1222137D01*
G01X7107509Y-1235943D01*
G01X7095159Y-1252298D01*
G01X7086024Y-1270643D01*
G01X7080416Y-1290354D01*
G01X7078525Y-1310760D01*
G01X7046633Y-1310760D01*
G01X7044742Y-1290354D01*
G01X7039134Y-1270643D01*
G01X7029999Y-1252298D01*
G01X7017649Y-1235943D01*
G01X7002504Y-1222137D01*
G01X6985080Y-1211349D01*
G01X6965971Y-1203945D01*
G01X6945826Y-1200180D01*
G01X6925333Y-1200180D01*
G01X6905188Y-1203945D01*
G01X6886079Y-1211349D01*
G01X6868655Y-1222137D01*
G01X6853510Y-1235943D01*
G01X6841160Y-1252298D01*
G01X6832025Y-1270643D01*
G01X6826417Y-1290354D01*
G01X6824526Y-1310760D01*
G01X6792213Y-1310760D01*
G01X6792373Y-1303156D01*
G01X6789243Y-1283528D01*
G01X6782664Y-1264772D01*
G01X6772847Y-1247489D01*
G01X6760107Y-1232233D01*
G01X6744851Y-1219492D01*
G01X6727568Y-1209676D01*
G01X6708812Y-1203097D01*
G01X6689184Y-1199967D01*
G01X6669312Y-1200386D01*
G01X6649833Y-1204340D01*
G01X6631371Y-1211704D01*
G01X6614518Y-1222241D01*
G01X6599812Y-1235613D01*
G01X6587726Y-1251393D01*
G01X6578647Y-1269074D01*
G01X6572864Y-1288091D01*
G01X6570565Y-1307834D01*
G01X6571821Y-1327670D01*
G01X6455545Y-1443946D01*
G01X6145616Y-1443946D01*
G01X6029340Y-1327670D01*
G01X6030604Y-1308137D01*
G01X6028419Y-1288686D01*
G01X6022853Y-1269921D01*
G01X6014079Y-1252424D01*
G01X6002370Y-1236739D01*
G01X5988088Y-1223354D01*
G01X5993326Y-1223354D01*
G01X6063822Y-1293850D01*
G01X6062566Y-1313686D01*
G01X6064865Y-1333429D01*
G01X6070648Y-1352446D01*
G01X6079727Y-1370127D01*
G01X6091813Y-1385906D01*
G01X6106519Y-1399279D01*
G01X6123372Y-1409816D01*
G01X6141834Y-1417179D01*
G01X6161313Y-1421134D01*
G01X6181185Y-1421553D01*
G01X6200813Y-1418423D01*
G01X6219569Y-1411844D01*
G01X6236852Y-1402027D01*
G01X6252108Y-1389287D01*
G01X6264848Y-1374031D01*
G01X6274665Y-1356748D01*
G01X6281244Y-1337992D01*
G01X6284374Y-1318364D01*
G01X6284214Y-1310760D01*
G01X6316527Y-1310760D01*
G01X6318418Y-1331166D01*
G01X6324026Y-1350877D01*
G01X6333161Y-1369222D01*
G01X6345511Y-1385576D01*
G01X6360656Y-1399383D01*
G01X6378080Y-1410171D01*
G01X6397189Y-1417574D01*
G01X6417334Y-1421340D01*
G01X6437827Y-1421340D01*
G01X6457972Y-1417574D01*
G01X6477081Y-1410171D01*
G01X6494505Y-1399383D01*
G01X6509650Y-1385576D01*
G01X6522000Y-1369222D01*
G01X6531135Y-1350877D01*
G01X6536743Y-1331166D01*
G01X6538634Y-1310760D01*
G01X6538634Y-1310760D01*
G01X6536743Y-1290354D01*
G01X6531135Y-1270643D01*
G01X6522000Y-1252298D01*
G01X6509650Y-1235943D01*
G01X6494505Y-1222137D01*
G01X6477081Y-1211349D01*
G01X6457972Y-1203945D01*
G01X6437827Y-1200180D01*
G01X6417334Y-1200180D01*
G01X6397189Y-1203945D01*
G01X6378080Y-1211349D01*
G01X6360656Y-1222137D01*
G01X6345511Y-1235943D01*
G01X6333161Y-1252298D01*
G01X6324026Y-1270643D01*
G01X6318418Y-1290354D01*
G01X6316527Y-1310760D01*
G01X6284214Y-1310760D01*
G01X6283955Y-1298492D01*
G01X6280000Y-1279013D01*
G01X6272637Y-1260551D01*
G01X6262100Y-1243698D01*
G01X6248728Y-1228992D01*
G01X6232948Y-1216906D01*
G01X6215267Y-1207827D01*
G01X6196250Y-1202044D01*
G01X6176507Y-1199745D01*
G01X6156671Y-1201001D01*
G01X6066945Y-1111276D01*
G01X6058120Y-1103878D01*
G01X6048137Y-1098137D01*
G01X6037305Y-1094228D01*
G01X7388197Y-1094228D01*
G01X7587819Y-1293850D01*
G01X7586563Y-1313686D01*
G01X7588862Y-1333429D01*
G01X7594645Y-1352446D01*
G01X7603724Y-1370127D01*
G01X7615810Y-1385906D01*
G01X7630516Y-1399279D01*
G01X7647369Y-1409816D01*
G01X7665831Y-1417179D01*
G01X7685310Y-1421134D01*
G01X7705182Y-1421553D01*
G01X7724810Y-1418423D01*
G01X7743566Y-1411844D01*
G01X7760849Y-1402027D01*
G01X7776105Y-1389287D01*
G01X7788845Y-1374031D01*
G01X7798662Y-1356748D01*
G01X7805241Y-1337992D01*
G01X7808371Y-1318364D01*
G01X7808211Y-1310760D01*
G01X7840524Y-1310760D01*
G01X7842415Y-1331166D01*
G01X7848023Y-1350877D01*
G01X7857158Y-1369222D01*
G01X7869508Y-1385576D01*
G01X7884653Y-1399383D01*
G01X7902076Y-1410171D01*
G01X7921186Y-1417574D01*
G01X7941331Y-1421340D01*
G01X7961824Y-1421340D01*
G01X7981969Y-1417574D01*
G01X8001078Y-1410171D01*
G01X8018502Y-1399383D01*
G01X8033647Y-1385576D01*
G01X8045997Y-1369222D01*
G01X8055132Y-1350877D01*
G01X8060740Y-1331166D01*
G01X8062631Y-1310760D01*
G01X8062631Y-1310760D01*
G01X8062631Y-1310760D01*
G01X8094523Y-1310760D01*
G01X8096414Y-1331166D01*
G01X8102022Y-1350877D01*
G01X8111157Y-1369222D01*
G01X8123507Y-1385576D01*
G01X8138652Y-1399383D01*
G01X8156076Y-1410171D01*
G01X8175186Y-1417574D01*
G01X8195330Y-1421340D01*
G01X8215824Y-1421340D01*
G01X8235968Y-1417574D01*
G01X8255078Y-1410171D01*
G01X8272502Y-1399383D01*
G01X8287647Y-1385576D01*
G01X8299997Y-1369222D01*
G01X8309132Y-1350877D01*
G01X8314740Y-1331166D01*
G01X8316631Y-1310760D01*
G01X8316631Y-1310760D01*
G01X8314740Y-1290354D01*
G01X8309132Y-1270643D01*
G01X8299997Y-1252298D01*
G01X8287647Y-1235943D01*
G01X8272502Y-1222137D01*
G01X8255078Y-1211349D01*
G01X8235968Y-1203945D01*
G01X8215824Y-1200180D01*
G01X8195330Y-1200180D01*
G01X8175186Y-1203945D01*
G01X8156076Y-1211349D01*
G01X8138652Y-1222137D01*
G01X8123507Y-1235943D01*
G01X8111157Y-1252298D01*
G01X8102022Y-1270643D01*
G01X8096414Y-1290354D01*
G01X8094523Y-1310760D01*
G01X8062631Y-1310760D01*
G01X8060740Y-1290354D01*
G01X8055132Y-1270643D01*
G01X8045997Y-1252298D01*
G01X8033647Y-1235943D01*
G01X8018502Y-1222137D01*
G01X8001078Y-1211349D01*
G01X7981969Y-1203945D01*
G01X7961824Y-1200180D01*
G01X7941331Y-1200180D01*
G01X7921186Y-1203945D01*
G01X7902076Y-1211349D01*
G01X7884653Y-1222137D01*
G01X7869508Y-1235943D01*
G01X7857158Y-1252298D01*
G01X7848023Y-1270643D01*
G01X7842415Y-1290354D01*
G01X7840524Y-1310760D01*
G01X7808211Y-1310760D01*
G01X7807952Y-1298492D01*
G01X7803997Y-1279013D01*
G01X7796634Y-1260551D01*
G01X7786097Y-1243698D01*
G01X7772725Y-1228992D01*
G01X7756945Y-1216906D01*
G01X7739264Y-1207827D01*
G01X7720247Y-1202044D01*
G01X7700504Y-1199745D01*
G01X7680668Y-1201001D01*
G01X7461816Y-982149D01*
G01X7451867Y-973985D01*
G01X7440516Y-967917D01*
G01X7428200Y-964181D01*
G01X7415392Y-962920D01*
G01X6132240Y-962920D01*
G01X6134832Y-950022D01*
G01X6134821Y-936867D01*
G01X6132207Y-923974D01*
G01X6127094Y-911853D01*
G01X6119683Y-900984D01*
G01X6110268Y-891796D01*
G01X6099221Y-884652D01*
G01X6086979Y-879836D01*
G01X6074026Y-877537D01*
G01X6060875Y-877847D01*
G01X4688595Y-877846D01*
G01X4228424Y-417675D01*
G01X4218475Y-409510D01*
G01X4207124Y-403443D01*
G01X4195775Y-400000D01*
G01X7814346Y-400000D01*
G01X7816278Y-433162D01*
G01X7822046Y-465876D01*
G01X7831573Y-497699D01*
G01X7844730Y-528201D01*
G01X7861340Y-556969D01*
G01X7881176Y-583615D01*
G01X7903972Y-607777D01*
G01X7929419Y-629130D01*
G01X7957173Y-647384D01*
G01X7986858Y-662292D01*
G01X8018074Y-673653D01*
G01X8050397Y-681314D01*
G01X8083391Y-685171D01*
G01X8116609Y-685171D01*
G01X8149603Y-681314D01*
G01X8181927Y-673653D01*
G01X8213142Y-662292D01*
G01X8242827Y-647384D01*
G01X8270581Y-629130D01*
G01X8296028Y-607777D01*
G01X8318824Y-583615D01*
G01X8338660Y-556969D01*
G01X8355270Y-528201D01*
G01X8368427Y-497699D01*
G01X8377954Y-465876D01*
G01X8383723Y-433162D01*
G01X8385654Y-400000D01*
G01X8383723Y-366838D01*
G01X8377954Y-334124D01*
G01X8368427Y-302301D01*
G01X8355270Y-271799D01*
G01X8338660Y-243031D01*
G01X8318824Y-216385D01*
G01X8296028Y-192223D01*
G01X8270581Y-170870D01*
G01X8242827Y-152616D01*
G01X8213142Y-137708D01*
G01X8181927Y-126346D01*
G01X8149603Y-118686D01*
G01X8116609Y-114829D01*
G01X8083391Y-114829D01*
G01X8050397Y-118686D01*
G01X8018074Y-126346D01*
G01X7986858Y-137708D01*
G01X7957173Y-152616D01*
G01X7929419Y-170870D01*
G01X7903972Y-192223D01*
G01X7881176Y-216385D01*
G01X7861340Y-243031D01*
G01X7844730Y-271799D01*
G01X7831573Y-302301D01*
G01X7822046Y-334124D01*
G01X7816278Y-366838D01*
G01X7814346Y-400000D01*
G01X7814346Y-400000D01*
G01X4195775Y-400000D01*
G01X4194808Y-399707D01*
G01X4182000Y-398445D01*
G01X3894320Y-398445D01*
G01X3878966Y-398342D01*
G01X3864002Y-401781D01*
G01X3850233Y-408577D01*
G01X3838403Y-418364D01*
G01X3829147Y-430615D01*
G01X3822964Y-444670D01*
G01X3820189Y-459771D01*
G01X3820969Y-475106D01*
G01X1795780Y-475106D01*
G01X1781996Y-476463D01*
G01X1768742Y-480484D01*
G01X1756527Y-487013D01*
G01X1745820Y-495800D01*
G01X1623420Y-618200D01*
G01X1614633Y-628907D01*
G01X1608104Y-641122D01*
G01X1604084Y-654376D01*
G01X1602726Y-668160D01*
G01X1602726Y-2346994D01*
G01X1526415Y-2423305D01*
G01X768102Y-2423305D01*
G01X751804Y-2414557D01*
G01X734008Y-2409512D01*
G01X715544Y-2408405D01*
G01X697273Y-2411288D01*
G01X680047Y-2418026D01*
G01X664669Y-2428306D01*
G01X389875Y-2428306D01*
G01X336534Y-2374965D01*
G01X336534Y-2116209D01*
G01X346804Y-2103714D01*
G01X354541Y-2089511D01*
G01X359471Y-2074106D01*
G01X361417Y-2058049D01*
G01X360310Y-2041913D01*
G01X356189Y-2026273D01*
G01X893147Y-2026273D01*
G01X893147Y-2173800D01*
G01X894408Y-2186608D01*
G01X898144Y-2198924D01*
G01X904211Y-2210275D01*
G01X912376Y-2220224D01*
G01X948799Y-2256648D01*
G01X950012Y-2272180D01*
G01X954823Y-2286998D01*
G01X962967Y-2300280D01*
G01X973991Y-2311288D01*
G01X987283Y-2319414D01*
G01X1002108Y-2324205D01*
G01X1017641Y-2325397D01*
G01X1033023Y-2322923D01*
G01X1047400Y-2316921D01*
G01X1059974Y-2307722D01*
G01X1070048Y-2295838D01*
G01X1077064Y-2281928D01*
G01X1080632Y-2266763D01*
G01X1080554Y-2251183D01*
G01X1080554Y-2229902D01*
G01X1079293Y-2217093D01*
G01X1075557Y-2204777D01*
G01X1069490Y-2193427D01*
G01X1061325Y-2183477D01*
G01X1024454Y-2146606D01*
G01X1024454Y-1983900D01*
G01X1023193Y-1971092D01*
G01X1019457Y-1958776D01*
G01X1013390Y-1947425D01*
G01X1005225Y-1937476D01*
G01X981943Y-1914195D01*
G01X972234Y-1906191D01*
G01X961177Y-1900186D01*
G01X963692Y-1884774D01*
G01X962524Y-1869203D01*
G01X957738Y-1854338D01*
G01X949602Y-1841010D01*
G01X938569Y-1829960D01*
G01X925252Y-1821804D01*
G01X776972Y-1673524D01*
G01X776973Y-1524768D01*
G01X779965Y-1509503D01*
G01X779309Y-1493960D01*
G01X775042Y-1479001D01*
G01X767400Y-1465451D01*
G01X756805Y-1454061D01*
G01X743843Y-1445460D01*
G01X729231Y-1440123D01*
G01X713777Y-1438346D01*
G01X698335Y-1440227D01*
G01X683760Y-1445662D01*
G01X670856Y-1454351D01*
G01X660338Y-1465812D01*
G01X652329Y-1478360D01*
G01X647353Y-1492390D01*
G01X645665Y-1507181D01*
G01X645664Y-1700718D01*
G01X646926Y-1713526D01*
G01X650662Y-1725843D01*
G01X656729Y-1737194D01*
G01X664894Y-1747143D01*
G01X812716Y-1894965D01*
G01X236359Y-1894965D01*
G01X223551Y-1896226D01*
G01X211235Y-1899963D01*
G01X199884Y-1906030D01*
G01X189935Y-1914195D01*
G01X134168Y-1969962D01*
G01X126003Y-1979910D01*
G01X119936Y-1991261D01*
G01X116200Y-2003577D01*
G01X114938Y-2016386D01*
G01X45854Y-2016386D01*
G01X45854Y-909760D01*
G01X693926Y-909760D01*
G01X693926Y-1059760D01*
G01X695672Y-1070778D01*
G01X700736Y-1080717D01*
G01X708624Y-1088605D01*
G01X718563Y-1093669D01*
G01X729580Y-1095414D01*
G01X879580Y-1095414D01*
G01X890598Y-1093669D01*
G01X900537Y-1088605D01*
G01X908425Y-1080717D01*
G01X913489Y-1070778D01*
G01X915234Y-1059760D01*
G01X915234Y-1050041D01*
G01X928311Y-1064931D01*
G01X943834Y-1077249D01*
G01X961305Y-1086601D01*
G01X980164Y-1092687D01*
G01X999806Y-1095311D01*
G01X1019602Y-1094389D01*
G01X1038915Y-1089952D01*
G01X1057127Y-1082141D01*
G01X1073654Y-1071206D01*
G01X1087966Y-1057499D01*
G01X1099603Y-1041460D01*
G01X1108193Y-1023601D01*
G01X1113459Y-1004497D01*
G01X1115234Y-984760D01*
G01X1113459Y-965023D01*
G01X1108193Y-945919D01*
G01X1099603Y-928060D01*
G01X1087966Y-912021D01*
G01X1073654Y-898314D01*
G01X1057127Y-887379D01*
G01X1038915Y-879568D01*
G01X1019602Y-875131D01*
G01X999806Y-874209D01*
G01X980164Y-876833D01*
G01X961305Y-882919D01*
G01X943834Y-892271D01*
G01X928311Y-904589D01*
G01X915234Y-919479D01*
G01X915234Y-909760D01*
G01X915234Y-909760D01*
G01X913489Y-898742D01*
G01X908425Y-888803D01*
G01X900537Y-880916D01*
G01X890598Y-875851D01*
G01X879580Y-874106D01*
G01X729580Y-874106D01*
G01X718563Y-875851D01*
G01X708624Y-880916D01*
G01X700736Y-888803D01*
G01X695672Y-898742D01*
G01X693926Y-909760D01*
G01X45854Y-909760D01*
G01X45854Y-400000D01*
G01X114346Y-400000D01*
G01X116277Y-433162D01*
G01X122046Y-465876D01*
G01X131573Y-497699D01*
G01X144730Y-528201D01*
G01X161340Y-556969D01*
G01X181176Y-583615D01*
G01X203972Y-607777D01*
G01X229419Y-629130D01*
G01X257173Y-647384D01*
G01X286858Y-662292D01*
G01X318073Y-673653D01*
G01X350397Y-681314D01*
G01X383391Y-685171D01*
G01X416609Y-685171D01*
G01X449603Y-681314D01*
G01X481926Y-673653D01*
G01X513142Y-662292D01*
G01X542827Y-647384D01*
G01X570581Y-629130D01*
G01X596028Y-607777D01*
G01X618824Y-583615D01*
G01X638660Y-556969D01*
G01X655270Y-528201D01*
G01X668427Y-497699D01*
G01X677954Y-465876D01*
G01X683722Y-433162D01*
G01X685654Y-400000D01*
G01X683722Y-366838D01*
G01X677954Y-334124D01*
G01X668427Y-302301D01*
G01X655270Y-271799D01*
G01X638660Y-243031D01*
G01X618824Y-216385D01*
G01X596028Y-192223D01*
G01X570581Y-170870D01*
G01X542827Y-152616D01*
G01X513142Y-137708D01*
G01X481926Y-126346D01*
G01X449603Y-118686D01*
G01X416609Y-114829D01*
G01X383391Y-114829D01*
G01X350397Y-118686D01*
G01X318073Y-126346D01*
G01X286858Y-137708D01*
G01X257173Y-152616D01*
G01X229419Y-170870D01*
G01X203972Y-192223D01*
G01X181176Y-216385D01*
G01X161340Y-243031D01*
G01X144730Y-271799D01*
G01X131573Y-302301D01*
G01X122046Y-334124D01*
G01X116277Y-366838D01*
G01X114346Y-400000D01*
G01X114346Y-400000D01*
G01X45854Y-400000D01*
G01X45854Y-189800D01*
G37*
G36*
G01X4315839Y-690787D02*
G01X4296820Y-695659D01*
G01X4278946Y-703781D01*
G01X4262768Y-714904D01*
G01X4248783Y-728684D01*
G01X4237423Y-744696D01*
G01X4229038Y-762449D01*
G01X4223886Y-781393D01*
G01X4222126Y-800947D01*
G01X4223812Y-820508D01*
G01X4228892Y-839472D01*
G01X3919173Y-529753D01*
G01X4154805Y-529753D01*
G01X4315839Y-690787D01*
G37*
G54D10*
G01X45854Y-189800D02*
G02X210200Y-25454I164346J0D01*
G01X8310200Y-25454D01*
G02X8474546Y-189800I0J-164346D01*
G01X8474546Y-6789800D01*
G02X8310200Y-6954146I-164346J0D01*
G01X210200Y-6954146D01*
G02X45854Y-6789800I0J164346D01*
G01X45854Y-189800D01*
G01X114346Y-400000D02*
G03X685654Y-400000I285654J0D01*
G03X114346Y-400000I-285654J0D01*
G01X114346Y-6600000D02*
G03X685654Y-6600000I285654J0D01*
G03X114346Y-6600000I-285654J0D01*
G01X823127Y-4440076D02*
G01X823127Y-5208706D01*
G01X809880Y-5208706D01*
G03X774226Y-5244360I0J-35654D01*
G01X774226Y-5394360D01*
G03X809880Y-5430014I35654J0D01*
G01X959880Y-5430014D01*
G03X995534Y-5394360I0J35654D01*
G01X995534Y-5384641D01*
G03X1195534Y-5319360I89346J65281D01*
G03X995534Y-5254079I-110654J0D01*
G01X995534Y-5244360D01*
G03X959880Y-5208706I-35654J0D01*
G01X954435Y-5208706D01*
G01X954435Y-4448983D01*
G01X1464346Y-4958895D01*
G01X1464346Y-6028200D01*
G03X1483576Y-6074624I65654J0D01*
G01X1789576Y-6380624D01*
G03X1836000Y-6399854I46424J46424D01*
G01X3542805Y-6399854D01*
G01X3865276Y-6722324D01*
G03X3911700Y-6741554I46424J46424D01*
G01X7293000Y-6741554D01*
G03X7339424Y-6722324I0J65654D01*
G01X7823924Y-6237824D01*
G03X7843154Y-6191400I-46424J46424D01*
G01X7843154Y-3655665D01*
G03X7823924Y-3609240I-65654J0D01*
G01X7763925Y-3549240D01*
G03X7717500Y-3530011I-46424J-46424D01*
G01X7580234Y-3530011D01*
G01X7580234Y-3485665D01*
G03X7544580Y-3450011I-35654J0D01*
G01X7528191Y-3450011D01*
G03X7487620Y-3220659I-78611J104358D01*
G03X7449580Y-2965012I-38040J124993D01*
G01X7359580Y-2965012D01*
G03X7321540Y-3220659I0J-130654D01*
G03X7280969Y-3450011I38040J-124993D01*
G01X7264580Y-3450011D01*
G03X7228926Y-3485665I0J-35654D01*
G01X7228926Y-3705664D01*
G03X7264580Y-3741318I35654J0D01*
G01X7544580Y-3741318D01*
G03X7580234Y-3705664I0J35654D01*
G01X7580234Y-3661319D01*
G01X7690305Y-3661319D01*
G01X7711846Y-3682859D01*
G01X7711846Y-6164205D01*
G01X7265805Y-6610246D01*
G01X3938895Y-6610246D01*
G01X3616424Y-6287776D01*
G03X3570000Y-6268546I-46424J-46424D01*
G01X1863195Y-6268546D01*
G01X1595654Y-6001005D01*
G01X1595654Y-4931700D01*
G03X1576424Y-4885276I-65654J0D01*
G01X468554Y-3777405D01*
G01X468554Y-3547519D01*
G03X442606Y-3486487I-65654J8119D01*
G03X376754Y-3478632I-39706J-52913D01*
G01X376754Y-2580600D01*
G03X373309Y-2559614I-65654J0D01*
G01X664672Y-2559614D01*
G03X768102Y-2564613I55009J65655D01*
G01X1555681Y-2564613D01*
G03X1605641Y-2543919I0J70654D01*
G01X1723340Y-2426220D01*
G03X1744034Y-2376260I-49960J49960D01*
G01X1744034Y-697426D01*
G01X1825046Y-616414D01*
G01X3805994Y-616414D01*
G01X4224055Y-1034475D01*
G03X4405865Y-1140856I109925J-20685D01*
G03X4332733Y-943313I-71885J85696D01*
G01X4295668Y-906248D01*
G03X4444353Y-819301I38312J105088D01*
G01X4589198Y-964146D01*
G03X4555402Y-982149I12629J-64428D01*
G01X4512976Y-1024576D01*
G03X4495875Y-1054416I46424J-46424D01*
G01X4351590Y-1198701D01*
G03X4254887Y-1388253I-17610J-110459D01*
G03X4444439Y-1291550I79093J79093D01*
G01X4605824Y-1130164D01*
G03X4622925Y-1100324I-46424J46424D01*
G01X4629021Y-1094228D01*
G01X4722656Y-1094228D01*
G03X4693016Y-1111276I16784J-63472D01*
G01X4351590Y-1452701D01*
G03X4254887Y-1642253I-17610J-110459D01*
G03X4444439Y-1545550I79093J79093D01*
G01X4766635Y-1223354D01*
G01X4835077Y-1223354D01*
G03X4793825Y-1327670I68507J-87406D01*
G01X4446676Y-1674819D01*
G03X4427446Y-1721243I46424J-46424D01*
G01X4427446Y-1755716D01*
G03X4222126Y-1817160I-93466J-61444D01*
G03X4427446Y-1878604I111854J0D01*
G01X4427446Y-2009716D01*
G03X4222126Y-2071160I-93466J-61444D01*
G03X4427446Y-2132604I111854J0D01*
G01X4427446Y-2263716D01*
G03X4222126Y-2325160I-93466J-61444D01*
G03X4427446Y-2386604I111854J0D01*
G01X4427446Y-2517716D01*
G03X4222126Y-2579160I-93466J-61444D01*
G03X4427446Y-2640604I111854J0D01*
G01X4427446Y-2771716D01*
G03X4222126Y-2833160I-93466J-61444D01*
G03X4427446Y-2894604I111854J0D01*
G01X4427446Y-3025716D01*
G03X4222126Y-3087160I-93466J-61444D01*
G03X4427446Y-3148604I111854J0D01*
G01X4427446Y-3279716D01*
G03X4222126Y-3341160I-93466J-61444D01*
G03X4427446Y-3402604I111854J0D01*
G01X4427446Y-3533716D01*
G03X4222126Y-3595160I-93466J-61444D01*
G03X4427446Y-3656604I111854J0D01*
G01X4427446Y-3787716D01*
G03X4222126Y-3849160I-93466J-61444D01*
G03X4427446Y-3910604I111854J0D01*
G01X4427446Y-4041716D01*
G03X4222126Y-4103160I-93466J-61444D01*
G03X4427446Y-4164604I111854J0D01*
G01X4427446Y-4295716D01*
G03X4222126Y-4357160I-93466J-61444D01*
G03X4427446Y-4418604I111854J0D01*
G01X4427446Y-4424845D01*
G01X4351590Y-4500701D01*
G03X4254887Y-4690253I-17610J-110459D01*
G03X4444439Y-4593550I79093J79093D01*
G01X4539524Y-4498464D01*
G03X4558754Y-4452040I-46424J46424D01*
G01X4558754Y-4269102D01*
G01X4864876Y-4575224D01*
G03X4911300Y-4594454I46424J46424D01*
G01X5292188Y-4594454D01*
G03X5289143Y-4608871I32609J-14417D01*
G01X5289143Y-4761271D01*
G03X5324797Y-4796925I35654J0D01*
G01X5477197Y-4796925D01*
G03X5512851Y-4761271I0J35654D01*
G01X5512851Y-4608871D01*
G03X5509806Y-4594454I-35654J0D01*
G01X5967519Y-4594454D01*
G01X6289143Y-4916078D01*
G01X6289143Y-5011283D01*
G03X6324797Y-5046937I35654J0D01*
G01X6477197Y-5046937D01*
G03X6512851Y-5011283I0J35654D01*
G01X6512851Y-4858883D01*
G03X6477197Y-4823229I-35654J0D01*
G01X6381992Y-4823229D01*
G01X6355688Y-4796925D01*
G01X6477197Y-4796925D01*
G03X6512851Y-4761271I0J35654D01*
G01X6512851Y-4608871D01*
G03X6477197Y-4573217I-35654J0D01*
G01X6324797Y-4573217D01*
G03X6289143Y-4608871I0J-35654D01*
G01X6289143Y-4730381D01*
G01X6041138Y-4482376D01*
G03X5994714Y-4463146I-46424J-46424D01*
G01X4938495Y-4463146D01*
G01X4631966Y-4156617D01*
G03X4558754Y-4134583I-52165J-40683D01*
G01X4558754Y-4044703D01*
G01X4645575Y-4131524D01*
G03X4691999Y-4150753I46424J46424D01*
G01X5977200Y-4150754D01*
G03X6023624Y-4131525I0J65654D01*
G01X6147195Y-4007954D01*
G01X6289143Y-4007954D01*
G01X6289143Y-4011283D01*
G03X6324797Y-4046937I35654J0D01*
G01X6477197Y-4046937D01*
G03X6512851Y-4011283I0J35654D01*
G01X6512851Y-3858883D01*
G03X6477197Y-3823229I-35654J0D01*
G01X6324797Y-3823229D01*
G03X6289143Y-3858883I0J-35654D01*
G01X6289143Y-3876646D01*
G01X6120000Y-3876646D01*
G03X6073576Y-3895876I0J-65654D01*
G01X5950005Y-4019446D01*
G01X5511904Y-4019446D01*
G03X5512851Y-4011283I-34707J8163D01*
G01X5512851Y-3858883D01*
G03X5477197Y-3823229I-35654J0D01*
G01X5324797Y-3823229D01*
G03X5289143Y-3858883I0J-35654D01*
G01X5289143Y-4011283D01*
G03X5290090Y-4019446I35654J0D01*
G01X4719194Y-4019446D01*
G01X4631965Y-3932216D01*
G03X4558754Y-3910184I-52165J-40684D01*
G01X4558754Y-3828916D01*
G03X4638749Y-3809583I27830J60016D01*
G01X4884078Y-3564254D01*
G01X5763000Y-3564254D01*
G03X5809424Y-3545024I0J65654D01*
G01X6310502Y-3043946D01*
G03X6324797Y-3046937I14295J32663D01*
G01X6477197Y-3046937D01*
G03X6512851Y-3011283I0J35654D01*
G01X6512851Y-2858883D01*
G03X6477197Y-2823229I-35654J0D01*
G01X6324797Y-2823229D01*
G03X6289143Y-2858883I0J-35654D01*
G01X6289143Y-2881105D01*
G03X6280092Y-2888659I37374J-53978D01*
G01X5735805Y-3432946D01*
G01X4856884Y-3432946D01*
G03X4810459Y-3452176I0J-65654D01*
G01X4558754Y-3703881D01*
G01X4558754Y-1748438D01*
G01X4886674Y-1420519D01*
G03X5005486Y-1354906I16910J109759D01*
G03X4972090Y-1223354I-101902J44146D01*
G01X4996305Y-1223354D01*
G01X5051349Y-1278398D01*
G03X5149659Y-1421531I106234J-32362D01*
G03X5267342Y-1293850I7924J110771D01*
G01X5337838Y-1223354D01*
G01X5343076Y-1223354D01*
G03X5411583Y-1421814I68507J-87406D01*
G03X5480089Y-1223354I0J111054D01*
G01X5597075Y-1223354D01*
G03X5665582Y-1421814I68507J-87406D01*
G03X5734089Y-1223354I0J111054D01*
G01X5851075Y-1223354D01*
G03X5809823Y-1327670I68507J-87406D01*
G01X5673147Y-1464346D01*
G01X4965319Y-1464346D01*
G03X4891046Y-1530000I-8119J-65654D01*
G03X4965319Y-1595654I66154J0D01*
G01X5700341Y-1595654D01*
G03X5746766Y-1576424I0J65654D01*
G01X5902671Y-1420519D01*
G03X5919582Y-1421814I16910J109759D01*
G03X5936492Y-1420519I0J111054D01*
G01X6071997Y-1556024D01*
G03X6118422Y-1575254I46424J46424D01*
G01X6482740Y-1575254D01*
G03X6529164Y-1556024I0J65654D01*
G01X6664670Y-1420519D01*
G03X6760107Y-1232233I16910J109759D01*
G03X6571821Y-1327670I-78527J-78527D01*
G01X6455545Y-1443946D01*
G01X6145616Y-1443946D01*
G01X6029340Y-1327670D01*
G03X5988088Y-1223354I-109759J16910D01*
G01X5993326Y-1223354D01*
G01X6063822Y-1293850D01*
G03X6252108Y-1389287I109759J-16910D01*
G03X6156671Y-1201001I-78527J78527D01*
G01X6066945Y-1111276D01*
G03X6037305Y-1094228I-46424J-46424D01*
G01X7388197Y-1094228D01*
G01X7587819Y-1293850D01*
G03X7776105Y-1389287I109759J-16910D01*
G03X7680668Y-1201001I-78527J78527D01*
G01X7461816Y-982149D01*
G03X7415392Y-962920I-46424J-46424D01*
G01X6132240Y-962920D01*
G03X6119683Y-900984I-63239J19420D01*
G03X6060875Y-877847I-50683J-42516D01*
G01X4688595Y-877846D01*
G01X4228424Y-417675D01*
G03X4182000Y-398445I-46424J-46424D01*
G01X3894320Y-398445D01*
G03X3838403Y-418364I-8119J-65654D01*
G03X3820969Y-475106I47798J-45735D01*
G01X1795780Y-475106D01*
G03X1745820Y-495800I0J-70654D01*
G01X1623420Y-618200D01*
G03X1602726Y-668160I49960J-49960D01*
G01X1602726Y-2346994D01*
G01X1526415Y-2423305D01*
G01X768102Y-2423305D01*
G03X664669Y-2428306I-48421J-70654D01*
G01X389875Y-2428306D01*
G01X336534Y-2374965D01*
G01X336534Y-2116209D01*
G03X356189Y-2026273I-60742J60391D01*
G01X893147Y-2026273D01*
G01X893147Y-2173800D01*
G03X912376Y-2220224I65654J0D01*
G01X948799Y-2256648D01*
G03X1017641Y-2325397I66101J-2652D01*
G03X1080554Y-2251183I-2741J66097D01*
G01X1080554Y-2229902D01*
G03X1061325Y-2183477I-65654J1D01*
G01X1024454Y-2146606D01*
G01X1024454Y-1983900D01*
G03X1005225Y-1937476I-65654J0D01*
G01X981943Y-1914195D01*
G03X961177Y-1900186I-46424J-46424D01*
G03X957738Y-1854338I-63577J18285D01*
G03X925252Y-1821804I-60139J-27563D01*
G01X776972Y-1673524D01*
G01X776973Y-1524768D01*
G03X743843Y-1445460I-62973J20268D01*
G03X660338Y-1465812I-29843J-59040D01*
G03X645665Y-1507181I50981J-41369D01*
G01X645664Y-1700718D01*
G03X664894Y-1747143I65654J-0D01*
G01X812716Y-1894965D01*
G01X236359Y-1894965D01*
G03X189935Y-1914195I0J-65654D01*
G01X134168Y-1969962D01*
G03X114938Y-2016386I46424J-46424D01*
G01X114938Y-2450092D01*
G03X134168Y-2496516I65654J0D01*
G01X245446Y-2607795D01*
G01X245446Y-3835200D01*
G03X264676Y-3881624I65654J0D01*
G01X823127Y-4440076D01*
G01X915234Y-909760D02*
G03X879580Y-874106I-35654J0D01*
G01X729580Y-874106D01*
G03X693926Y-909760I0J-35654D01*
G01X693926Y-1059760D01*
G03X729580Y-1095414I35654J0D01*
G01X879580Y-1095414D01*
G03X915234Y-1059760I0J35654D01*
G01X915234Y-1050041D01*
G03X1115234Y-984760I89346J65281D01*
G03X915234Y-919479I-110654J0D01*
G01X915234Y-909760D01*
G01X2134434Y-5119160D02*
G03X1910726Y-5119160I-111854J0D01*
G03X2134434Y-5119160I111854J0D01*
G01X2134434Y-5373160D02*
G03X1910726Y-5373160I-111854J0D01*
G03X2134434Y-5373160I111854J0D01*
G01X2134434Y-5627160D02*
G03X1910726Y-5627160I-111854J0D01*
G03X2134434Y-5627160I111854J0D01*
G01X2134434Y-6135160D02*
G03X1910726Y-6135160I-111854J0D01*
G03X2134434Y-6135160I111854J0D01*
G01X2134434Y-5881160D02*
G03X1910726Y-5881160I-111854J0D01*
G03X2134434Y-5881160I111854J0D01*
G01X2134434Y-3087160D02*
G03X1910726Y-3087160I-111854J0D01*
G03X2134434Y-3087160I111854J0D01*
G01X2134434Y-2833160D02*
G03X1910726Y-2833160I-111854J0D01*
G03X2134434Y-2833160I111854J0D01*
G01X2134434Y-2579160D02*
G03X1910726Y-2579160I-111854J0D01*
G03X2134434Y-2579160I111854J0D01*
G01X2134434Y-2071160D02*
G03X1910726Y-2071160I-111854J0D01*
G03X2134434Y-2071160I111854J0D01*
G01X2134434Y-2325160D02*
G03X1910726Y-2325160I-111854J0D01*
G03X2134434Y-2325160I111854J0D01*
G01X2134434Y-3341160D02*
G03X1910726Y-3341160I-111854J0D01*
G03X2134434Y-3341160I111854J0D01*
G01X2134434Y-3595160D02*
G03X1910726Y-3595160I-111854J0D01*
G03X2134434Y-3595160I111854J0D01*
G01X2134434Y-4103160D02*
G03X1910726Y-4103160I-111854J0D01*
G03X2134434Y-4103160I111854J0D01*
G01X2134434Y-3849160D02*
G03X1910726Y-3849160I-111854J0D01*
G03X2134434Y-3849160I111854J0D01*
G01X2134434Y-4357160D02*
G03X1910726Y-4357160I-111854J0D01*
G03X2134434Y-4357160I111854J0D01*
G01X2134434Y-1309160D02*
G03X1910726Y-1309160I-111854J0D01*
G03X2134434Y-1309160I111854J0D01*
G01X2134434Y-1055160D02*
G03X1910726Y-1055160I-111854J0D01*
G03X2134434Y-1055160I111854J0D01*
G01X2134434Y-801160D02*
G03X1910726Y-801160I-111854J0D01*
G03X2134434Y-801160I111854J0D01*
G01X2134434Y-4865160D02*
G03X1910726Y-4865160I-111854J0D01*
G03X2134434Y-4865160I111854J0D01*
G01X2113139Y-4545506D02*
G03X1910726Y-4611160I-90559J-65654D01*
G03X2113139Y-4676814I111854J0D01*
G01X2207365Y-4676814D01*
G01X4033576Y-6503024D01*
G03X4080000Y-6522254I46424J46424D01*
G01X7155300Y-6522254D01*
G03X7201724Y-6503024I0J65654D01*
G01X7604624Y-6100124D01*
G03X7623854Y-6053700I-46424J46424D01*
G01X7623854Y-4995106D01*
G03X7604624Y-4948682I-65654J0D01*
G01X7544624Y-4888682D01*
G03X7512854Y-4871109I-46424J-46424D01*
G01X7512854Y-4858906D01*
G03X7477200Y-4823252I-35654J0D01*
G01X7324800Y-4823252D01*
G03X7289146Y-4858906I0J-35654D01*
G01X7289146Y-5011306D01*
G03X7324800Y-5046960I35654J0D01*
G01X7477200Y-5046960D01*
G03X7492546Y-5043489I0J35654D01*
G01X7492546Y-5576711D01*
G03X7477200Y-5573240I-15346J-32182D01*
G01X7324800Y-5573240D01*
G03X7289146Y-5608894I0J-35654D01*
G01X7289146Y-5761294D01*
G03X7324800Y-5796948I35654J0D01*
G01X7477200Y-5796948D01*
G03X7492546Y-5793476I0J35654D01*
G01X7492546Y-5826724D01*
G03X7477200Y-5823252I-15346J-32182D01*
G01X7324800Y-5823252D01*
G03X7289146Y-5858906I0J-35654D01*
G01X7289146Y-6011306D01*
G03X7324800Y-6046960I35654J0D01*
G01X7472091Y-6046960D01*
G01X7128105Y-6390946D01*
G01X4107195Y-6390946D01*
G01X2280984Y-4564736D01*
G03X2234560Y-4545506I-46424J-46424D01*
G01X2113139Y-4545506D01*
G01X2134434Y-1563160D02*
G03X1910726Y-1563160I-111854J0D01*
G03X2134434Y-1563160I111854J0D01*
G01X2134434Y-1817160D02*
G03X1910726Y-1817160I-111854J0D01*
G03X2134434Y-1817160I111854J0D01*
G01X4413073Y-5452253D02*
G03X4316370Y-5262701I-79093J79093D01*
G01X3686654Y-4632985D01*
G01X3686654Y-4564682D01*
G01X4223521Y-5101550D01*
G03X4413073Y-5198253I110459J-17610D01*
G03X4316370Y-5008701I-79093J79093D01*
G01X3778454Y-4470785D01*
G01X3778454Y-4047319D01*
G03X3687154Y-3978219I-65654J8119D01*
G03X3617042Y-3911964I-66154J220D01*
G03X3555346Y-3986119I3958J-66036D01*
G01X3555346Y-4660180D01*
G03X3574576Y-4706604I65654J0D01*
G01X4223521Y-5355550D01*
G03X4413073Y-5452253I110459J-17610D01*
G01X4445834Y-4865160D02*
G03X4222126Y-4865160I-111854J0D01*
G03X4445834Y-4865160I111854J0D01*
G01X4445834Y-5881160D02*
G03X4222126Y-5881160I-111854J0D01*
G03X4445834Y-5881160I111854J0D01*
G01X4445834Y-5627160D02*
G03X4222126Y-5627160I-111854J0D01*
G03X4445834Y-5627160I111854J0D01*
G01X4445834Y-6135160D02*
G03X4222126Y-6135160I-111854J0D01*
G03X4445834Y-6135160I111854J0D01*
G01X5324797Y-5573217D02*
G03X5289143Y-5608871I0J-35654D01*
G01X5289143Y-5761271D01*
G03X5324797Y-5796925I35654J0D01*
G01X5477197Y-5796925D01*
G03X5512851Y-5761271I0J35654D01*
G01X5512851Y-5608871D01*
G03X5509627Y-5594054I-35654J0D01*
G01X5967119Y-5594054D01*
G01X6289143Y-5916078D01*
G01X6289143Y-6011283D01*
G03X6324797Y-6046937I35654J0D01*
G01X6477197Y-6046937D01*
G03X6512851Y-6011283I0J35654D01*
G01X6512851Y-5858883D01*
G03X6477197Y-5823229I-35654J0D01*
G01X6381992Y-5823229D01*
G01X6355688Y-5796925D01*
G01X6477197Y-5796925D01*
G03X6512851Y-5761271I0J35654D01*
G01X6512851Y-5608871D01*
G03X6477197Y-5573217I-35654J0D01*
G01X6324797Y-5573217D01*
G03X6289143Y-5608871I0J-35654D01*
G01X6289143Y-5730381D01*
G01X6040738Y-5481976D01*
G03X5994314Y-5462746I-46424J-46424D01*
G01X5422995Y-5462746D01*
G01X4636425Y-4676176D01*
G03X4590000Y-4656946I-46424J-46424D01*
G01X4587919Y-4656946D01*
G03X4515104Y-4708786I-8119J-65654D01*
G03X4560396Y-4785845I64696J-13814D01*
G01X5347769Y-5573217D01*
G01X5324797Y-5573217D01*
G01X5289143Y-6011283D02*
G03X5324797Y-6046937I35654J0D01*
G01X5477197Y-6046937D01*
G03X5512851Y-6011283I0J35654D01*
G01X5512851Y-5858883D01*
G03X5477197Y-5823229I-35654J0D01*
G01X5324797Y-5823229D01*
G03X5289143Y-5858883I0J-35654D01*
G01X5289143Y-6011283D01*
G01X5289143Y-2761271D02*
G03X5324797Y-2796925I35654J0D01*
G01X5477197Y-2796925D01*
G03X5512851Y-2761271I0J35654D01*
G01X5512851Y-2608871D01*
G03X5477197Y-2573217I-35654J0D01*
G01X5324797Y-2573217D01*
G03X5289143Y-2608871I0J-35654D01*
G01X5289143Y-2761271D01*
G01X5289143Y-3011283D02*
G03X5324797Y-3046937I35654J0D01*
G01X5477197Y-3046937D01*
G03X5512851Y-3011283I0J35654D01*
G01X5512851Y-2858883D01*
G03X5477197Y-2823229I-35654J0D01*
G01X5324797Y-2823229D01*
G03X5289143Y-2858883I0J-35654D01*
G01X5289143Y-3011283D01*
G01X5289143Y-5011283D02*
G03X5324797Y-5046937I35654J0D01*
G01X5477197Y-5046937D01*
G03X5512851Y-5011283I0J35654D01*
G01X5512851Y-4858883D01*
G03X5477197Y-4823229I-35654J0D01*
G01X5324797Y-4823229D01*
G03X5289143Y-4858883I0J-35654D01*
G01X5289143Y-5011283D01*
G01X5289143Y-3761271D02*
G03X5324797Y-3796925I35654J0D01*
G01X5477197Y-3796925D01*
G03X5512851Y-3761271I0J35654D01*
G01X5512851Y-3608871D01*
G03X5477197Y-3573217I-35654J0D01*
G01X5324797Y-3573217D01*
G03X5289143Y-3608871I0J-35654D01*
G01X5289143Y-3761271D01*
G01X6289143Y-2761271D02*
G03X6324797Y-2796925I35654J0D01*
G01X6477197Y-2796925D01*
G03X6512851Y-2761271I0J35654D01*
G01X6512851Y-2608871D01*
G03X6477197Y-2573217I-35654J0D01*
G01X6324797Y-2573217D01*
G03X6289143Y-2608871I0J-35654D01*
G01X6289143Y-2761271D01*
G01X6289143Y-3761271D02*
G03X6324797Y-3796925I35654J0D01*
G01X6477197Y-3796925D01*
G03X6512851Y-3761271I0J35654D01*
G01X6512851Y-3608871D01*
G03X6477197Y-3573217I-35654J0D01*
G01X6324797Y-3573217D01*
G03X6289143Y-3608871I0J-35654D01*
G01X6289143Y-3761271D01*
G01X6538634Y-1310760D02*
G03X6316527Y-1310760I-111054J0D01*
G03X6538634Y-1310760I111054J0D01*
G01X7046633Y-1310760D02*
G03X6824526Y-1310760I-111054J0D01*
G03X7046633Y-1310760I111054J0D01*
G01X7300633Y-1310760D02*
G03X7078525Y-1310760I-111054J0D01*
G03X7300633Y-1310760I111054J0D01*
G01X7289146Y-4761294D02*
G03X7324800Y-4796948I35654J0D01*
G01X7477200Y-4796948D01*
G03X7512854Y-4761294I0J35654D01*
G01X7512854Y-4608894D01*
G03X7477200Y-4573240I-35654J0D01*
G01X7324800Y-4573240D01*
G03X7289146Y-4608894I0J-35654D01*
G01X7289146Y-4761294D01*
G01X7554632Y-1310760D02*
G03X7332525Y-1310760I-111054J0D01*
G03X7554632Y-1310760I111054J0D01*
G01X7814346Y-400000D02*
G03X8385654Y-400000I285654J0D01*
G03X7814346Y-400000I-285654J0D01*
G01X7814346Y-6600000D02*
G03X8385654Y-6600000I285654J0D01*
G03X7814346Y-6600000I-285654J0D01*
G01X8062631Y-1310760D02*
G03X7840524Y-1310760I-111054J0D01*
G03X8062631Y-1310760I111054J0D01*
G01X8316631Y-1310760D02*
G03X8094523Y-1310760I-111054J0D01*
G03X8316631Y-1310760I111054J0D01*
G01X4315839Y-690787D02*
G03X4228892Y-839472I18141J-110373D01*
G01X3919173Y-529753D01*
G01X4154805Y-529753D01*
G01X4315839Y-690787D01*
G54D11*
G01X4258034Y-801160D02*
G01X4232126Y-801160D01*
G01X4333980Y-877106D02*
G01X4333980Y-903014D01*
G01X2098526Y-801160D02*
G01X2124434Y-801160D01*
G01X1946634Y-801160D02*
G01X1920726Y-801160D01*
G01X2022580Y-877106D02*
G01X2022580Y-903014D01*
G01X2022580Y-725214D02*
G01X2022580Y-699306D01*
G01X5400997Y-5761017D02*
G01X5400997Y-5786925D01*
G01X5476943Y-5685071D02*
G01X5502851Y-5685071D01*
G01X5325051Y-5685071D02*
G01X5299143Y-5685071D01*
G01X6400997Y-5609125D02*
G01X6400997Y-5583217D01*
G01X6400997Y-5761017D02*
G01X6400997Y-5786925D01*
G01X6476943Y-5685071D02*
G01X6502851Y-5685071D01*
G01X6325051Y-5685071D02*
G01X6299143Y-5685071D01*
G01X6400997Y-3609125D02*
G01X6400997Y-3583217D01*
G01X6400997Y-3761017D02*
G01X6400997Y-3786925D01*
G01X6476943Y-3685071D02*
G01X6502851Y-3685071D01*
G01X6325051Y-3685071D02*
G01X6299143Y-3685071D01*
G01X5400997Y-3609125D02*
G01X5400997Y-3583217D01*
G01X5400997Y-3761017D02*
G01X5400997Y-3786925D01*
G01X5476943Y-3685071D02*
G01X5502851Y-3685071D01*
G01X5325051Y-3685071D02*
G01X5299143Y-3685071D01*
G01X1159626Y-5319360D02*
G01X1185534Y-5319360D01*
G01X1084880Y-5244614D02*
G01X1084880Y-5218706D01*
G01X1084880Y-5394106D02*
G01X1084880Y-5420014D01*
G01X5400997Y-2609125D02*
G01X5400997Y-2583217D01*
G01X5400997Y-2761017D02*
G01X5400997Y-2786925D01*
G01X5476943Y-2685071D02*
G01X5502851Y-2685071D01*
G01X5325051Y-2685071D02*
G01X5299143Y-2685071D01*
G01X6400997Y-2609125D02*
G01X6400997Y-2583217D01*
G01X6400997Y-2761017D02*
G01X6400997Y-2786925D01*
G01X6476943Y-2685071D02*
G01X6502851Y-2685071D01*
G01X6325051Y-2685071D02*
G01X6299143Y-2685071D01*
G01X2098526Y-1055160D02*
G01X2124434Y-1055160D01*
G01X1946634Y-1055160D02*
G01X1920726Y-1055160D01*
G01X2022580Y-1131106D02*
G01X2022580Y-1157014D01*
G01X2022580Y-979214D02*
G01X2022580Y-953306D01*
G01X6400997Y-4609125D02*
G01X6400997Y-4583217D01*
G01X6400997Y-4761017D02*
G01X6400997Y-4786925D01*
G01X6476943Y-4685071D02*
G01X6502851Y-4685071D01*
G01X6325051Y-4685071D02*
G01X6299143Y-4685071D01*
G01X5400997Y-4761017D02*
G01X5400997Y-4786925D01*
G01X5476943Y-4685071D02*
G01X5502851Y-4685071D01*
G01X5325051Y-4685071D02*
G01X5299143Y-4685071D01*
G01X7401000Y-4609148D02*
G01X7401000Y-4583240D01*
G01X7401000Y-4761040D02*
G01X7401000Y-4786948D01*
G01X7476946Y-4685094D02*
G01X7502854Y-4685094D01*
G01X7325054Y-4685094D02*
G01X7299146Y-4685094D01*
G01X7401000Y-5609148D02*
G01X7401000Y-5583240D01*
G01X7401000Y-5761040D02*
G01X7401000Y-5786948D01*
G01X7325054Y-5685094D02*
G01X7299146Y-5685094D01*
G01X7404580Y-3000920D02*
G01X7404580Y-2975012D01*
G01X7264834Y-3095666D02*
G01X7238926Y-3095666D01*
G01X7544326Y-3095666D02*
G01X7570234Y-3095666D01*
G01X8026723Y-1310760D02*
G01X8052631Y-1310760D01*
G01X7876432Y-1310760D02*
G01X7850524Y-1310760D01*
G01X7951577Y-1385906D02*
G01X7951577Y-1411814D01*
G01X7951577Y-1235614D02*
G01X7951577Y-1209706D01*
G04 Copper End*

G04 Pad Start*
G54D12*
G01X6400997Y-5685071D03*
G01X6400997Y-5935083D03*
G01X6400997Y-4685071D03*
G01X6400997Y-4935083D03*
G01X6400997Y-3685071D03*
G01X6400997Y-3935083D03*
G01X6400997Y-2685071D03*
G01X6400997Y-2935083D03*
G01X5400997Y-5685071D03*
G01X5400997Y-5935083D03*
G01X5400997Y-4685071D03*
G01X5400997Y-4935083D03*
G01X5400997Y-3685071D03*
G01X5400997Y-3935083D03*
G01X5400997Y-2685071D03*
G01X5400997Y-2935083D03*
G01X7401000Y-4685094D03*
G01X7401000Y-4935106D03*
G01X7401000Y-5685094D03*
G01X7401000Y-5935106D03*
G54D13*
G01X884880Y-5319360D03*
G54D14*
G01X1084880Y-5319360D03*
G54D15*
G01X7404580Y-3595665D03*
G54D16*
G01X7404580Y-3345652D03*
G01X7404580Y-3095666D03*
G54D13*
G01X804580Y-984760D03*
G54D14*
G01X1004580Y-984760D03*
G54D17*
G01X8205577Y-1310760D03*
G01X7951577Y-1310760D03*
G01X7697578Y-1310760D03*
G01X7443578Y-1310760D03*
G01X7189579Y-1310760D03*
G01X6935579Y-1310760D03*
G01X6681580Y-1310760D03*
G01X6427580Y-1310760D03*
G01X6173581Y-1310760D03*
G01X5919582Y-1310760D03*
G01X5665582Y-1310760D03*
G01X5411583Y-1310760D03*
G01X5157583Y-1310760D03*
G01X4903584Y-1310760D03*
G54D18*
G01X4333980Y-6135160D03*
G01X4333980Y-5881160D03*
G01X4333980Y-5627160D03*
G01X4333980Y-5373160D03*
G01X4333980Y-5119160D03*
G01X4333980Y-4865160D03*
G01X4333980Y-4611160D03*
G01X4333980Y-4357160D03*
G01X4333980Y-4103160D03*
G01X4333980Y-3849160D03*
G01X4333980Y-3595160D03*
G01X4333980Y-801160D03*
G01X4333980Y-1055160D03*
G01X4333980Y-1309160D03*
G01X4333980Y-1563160D03*
G01X4333980Y-1817160D03*
G01X4333980Y-2071160D03*
G01X4333980Y-2325160D03*
G01X4333980Y-2579160D03*
G01X4333980Y-2833160D03*
G01X4333980Y-3087160D03*
G01X4333980Y-3341160D03*
G01X2022580Y-3341160D03*
G01X2022580Y-3087160D03*
G01X2022580Y-2833160D03*
G01X2022580Y-2579160D03*
G01X2022580Y-2325160D03*
G01X2022580Y-2071160D03*
G01X2022580Y-1817160D03*
G01X2022580Y-1563160D03*
G01X2022580Y-1309160D03*
G01X2022580Y-1055160D03*
G01X2022580Y-801160D03*
G01X2022580Y-3595160D03*
G01X2022580Y-3849160D03*
G01X2022580Y-4103160D03*
G01X2022580Y-4357160D03*
G01X2022580Y-4611160D03*
G01X2022580Y-4865160D03*
G01X2022580Y-5119160D03*
G01X2022580Y-5373160D03*
G01X2022580Y-5627160D03*
G01X2022580Y-5881160D03*
G01X2022580Y-6135160D03*
G54D20*
G01X400000Y-6600000D03*
G01X8100000Y-6600000D03*
G01X400000Y-400000D03*
G01X8100000Y-400000D03*
G04 Pad End*

G04 Via Start*
G54D21*
G01X719681Y-2493959D03*
G01X275792Y-2055819D03*
G54D22*
G01X1014900Y-2259300D03*
G01X989400Y-2684760D03*
G01X1305600Y-2684760D03*
G01X1116900Y-2973300D03*
G01X897600Y-1881901D03*
G01X714000Y-1504500D03*
G01X402900Y-3539400D03*
G01X4957200Y-1530000D03*
G01X4586584Y-3768900D03*
G01X4579801Y-3972901D03*
G01X6069000Y-943500D03*
G01X3886201Y-464099D03*
G01X3712800Y-4039200D03*
G01X3621000Y-3978000D03*
G01X1305600Y-3717900D03*
G01X1050600Y-3462900D03*
G01X4579800Y-4722600D03*
G01X4579800Y-4197300D03*
G01X6318900Y-770100D03*
G01X3957600Y-800700D03*
G01X1239300Y-1122000D03*
G01X1530000Y-943500D03*
G01X1764600Y-1055700D03*
G04 Via End*

G04 Track Start*
G54D23*
G01X719682Y-2493960D02*
G01X362680Y-2493960D01*
G01X270880Y-2402160D01*
G01X270880Y-2055361D01*
G01X275980Y-2050261D01*
G01X989400Y-2684760D02*
G01X1305600Y-2684760D01*
G01X1116900Y-2973300D02*
G01X1116900Y-2812260D01*
G01X989400Y-2684760D01*
G01X4333980Y-1309160D02*
G01X4559400Y-1083740D01*
G01X4559400Y-1071000D01*
G01X4601826Y-1028574D01*
G01X7415392Y-1028574D01*
G01X7697578Y-1310760D01*
G01X4333980Y-1563160D02*
G01X4739440Y-1157700D01*
G01X5023500Y-1157700D01*
G01X5157583Y-1291783D01*
G01X5157583Y-1310760D01*
G01X5310643Y-1157700D01*
G01X6020521Y-1157700D02*
G01X6173581Y-1310760D01*
G01X5310643Y-1157700D02*
G01X6020521Y-1157700D01*
G01X4957200Y-1530000D02*
G01X5700341Y-1530000D01*
G01X5919582Y-1310760D01*
G01X6118422Y-1509600D01*
G01X6482740Y-1509600D02*
G01X6681580Y-1310760D01*
G01X6118422Y-1509600D02*
G01X6482740Y-1509600D01*
G01X6326517Y-2935083D02*
G01X6400997Y-2935083D01*
G01X4903584Y-1310759D02*
G01X4493100Y-1721243D01*
G01X4493100Y-4452040D01*
G01X4333980Y-4611160D01*
G01X1305600Y-3717900D02*
G01X1050600Y-3462900D01*
G01X7401000Y-5685094D02*
G01X6401020Y-5685094D01*
G01X7401000Y-5685094D02*
G01X7401000Y-5653873D01*
G54D24*
G01X719681Y-2493959D02*
G01X1555681Y-2493959D01*
G01X1673380Y-668160D02*
G01X1795780Y-545760D01*
G01X1555681Y-2493959D02*
G01X1673380Y-2376260D01*
G01X1673380Y-668160D01*
G54D23*
G01X711319Y-1507181D02*
G01X714000Y-1504500D01*
G01X711318Y-1700718D02*
G01X711319Y-1507181D01*
G01X897600Y-1881901D02*
G01X892501Y-1881901D01*
G01X711318Y-1700718D01*
G01X1764600Y-1055700D02*
G01X2022040Y-1055700D01*
G01X2022580Y-1055160D01*
G01X888781Y-5315458D02*
G01X884880Y-5319359D01*
G01X236359Y-1960619D02*
G01X180592Y-2016386D01*
G01X935519Y-1960619D02*
G01X236359Y-1960619D01*
G01X958800Y-1983900D02*
G01X935519Y-1960619D01*
G01X958800Y-2173800D02*
G01X958800Y-1983900D01*
G01X1014900Y-2229901D02*
G01X958800Y-2173800D01*
G01X1014900Y-2259300D02*
G01X1014900Y-2229901D01*
G01X180592Y-2016386D02*
G01X180592Y-2450092D01*
G01X7543518Y-902700D02*
G01X7951577Y-1310760D01*
G01X180592Y-2450092D02*
G01X311100Y-2580600D01*
G01X311100Y-3835200D01*
G01X888781Y-4412881D01*
G01X888781Y-5315458D01*
G01X6120000Y-3942300D02*
G01X6393780Y-3942300D01*
G01X6400997Y-3935083D01*
G01X6400998Y-4685071D02*
G01X6468000Y-4685071D01*
G01X6528000Y-4745071D01*
G01X6528000Y-5558068D01*
G01X6400997Y-5685071D01*
G01X7401000Y-5653873D02*
G01X7262400Y-5515273D01*
G01X7262400Y-4745093D01*
G01X7322400Y-4685093D01*
G01X7401001Y-4685093D01*
G01X1239300Y-1122000D02*
G01X1351500Y-1122000D01*
G01X1530000Y-943500D01*
G01X3712800Y-4039200D02*
G01X3712800Y-4497980D01*
G01X4333980Y-5119160D01*
G01X3621000Y-3978000D02*
G01X3621000Y-4660180D01*
G01X4333980Y-5373160D01*
G54D24*
G01X1795780Y-545760D02*
G01X3835260Y-545760D01*
G01X4333980Y-1044480D01*
G01X4333980Y-1055160D01*
G54D23*
G01X2022580Y-801160D02*
G01X3957140Y-801160D01*
G01X3957600Y-800700D01*
G01X7558200Y-4995106D02*
G01X7498200Y-4935106D01*
G01X7401000Y-4935106D01*
G01X2022580Y-4611160D02*
G01X2234560Y-4611160D01*
G01X4080000Y-6456600D01*
G01X402900Y-3804600D02*
G01X402900Y-3539400D01*
G01X1530000Y-4931700D02*
G01X402900Y-3804600D01*
G01X1530000Y-6028200D02*
G01X1530000Y-4931700D01*
G01X1836000Y-6334200D02*
G01X1530000Y-6028200D01*
G01X3570000Y-6334200D02*
G01X1836000Y-6334200D01*
G01X3911700Y-6675900D02*
G01X3570000Y-6334200D01*
G01X7404580Y-3595665D02*
G01X7717500Y-3595665D01*
G01X7777500Y-3655665D01*
G01X4080000Y-6456600D02*
G01X7155300Y-6456600D01*
G01X7558200Y-6053700D01*
G01X7558200Y-4995106D01*
G01X7777500Y-3655665D02*
G01X7777500Y-6191400D01*
G01X7293000Y-6675900D01*
G01X3911700Y-6675900D01*
G01X6318900Y-770100D02*
G01X6533100Y-770100D01*
G01X6665700Y-902700D01*
G01X7543518Y-902700D01*
G01X6069000Y-943501D02*
G01X4661400Y-943500D01*
G01X4182000Y-464099D01*
G01X3886201Y-464099D01*
G01X4579800Y-3972900D02*
G01X4692000Y-4085100D01*
G01X5977200Y-4085100D01*
G01X6120000Y-3942300D01*
G01X4579800Y-4197300D02*
G01X4911300Y-4528800D01*
G01X5994714Y-4528800D01*
G01X6400997Y-4935083D01*
G01X4586584Y-3768900D02*
G01X4856884Y-3498600D01*
G01X5763000Y-3498600D01*
G01X6326517Y-2935083D01*
G01X5395800Y-5528400D02*
G01X5994314Y-5528400D01*
G01X6400997Y-5935083D01*
G01X4579800Y-4722600D02*
G01X4590000Y-4722600D01*
G01X5395800Y-5528400D01*
G04 Track End*

M02*

