G04 Layer: DrillDrawingLayer*
G04 EasyEDA Pro v2.2.45.4, 2026-05-28 03:39:25*
G04 Gerber Generator version 0.3*
G04 Scale: 100 percent, Rotated: No, Reflected: No*
G04 Dimensions in millimeters*
G04 Leading zeros omitted, absolute positions, 4 integers and 5 decimals*
G04 Generated by one-click*
%FSLAX45Y45*%
%MOMM*%
%AMIconRect*4,1,4,0.28,-0.28,-0.28,-0.28,-0.28,0.28,0.28,0.28,0.28,-0.28,0*4,0,4,0.233333,-0.233333,0.233333,0.233333,-0.233333,0.233333,-0.233333,-0.233333,0.233333,-0.233333,0*%
%AMIconTriangle*4,1,3,-0.339593,0.240473,0.339593,0.240473,0,-0.37884,-0.339593,0.240473,0*4,0,3,-0.265673,0.19404,0,-0.27342,0.266233,0.19404,-0.265673,0.19404,0*%
%AMIconStar6*4,1,12,0.12068,0.20888,0.298527,0.172713,0.241313,0,0.298527,-0.17206,0.12068,-0.208227,0,-0.344073,-0.120073,-0.208227,-0.298573,-0.17206,-0.240707,0,-0.298573,0.17206,-0.120073,0.20888,0,0.344073,0.12068,0.20888,0*4,0,12,-0.000467,0.273467,-0.090067,0.171733,-0.237533,0.136733,-0.193667,-0.007467,-0.237533,-0.1372,-0.090067,-0.171733,-0.000467,-0.273933,0.090067,-0.171733,0.237533,-0.1372,0.194133,0.007,0.237533,0.1372,0.090067,0.171267,-0.000467,0.273467,0*%
%AMIconStar4*4,1,8,-0.311733,0.311733,0,0.202533,0.311733,0.311733,0.202533,0,0.311733,-0.311733,0,-0.202533,-0.304407,-0.311733,-0.202533,0,-0.311733,0.311733,0*4,0,8,0.233333,-0.233333,0.1512,0,0.233333,0.233333,0,0.1512,-0.233333,0.233333,-0.1512,0,-0.233333,-0.233333,0,-0.1512,0.233333,-0.233333,0*%
%AMIconPlus*4,1,12,0.1736,-0.28,-0.1736,-0.28,-0.1736,-0.1736,-0.28,-0.1736,-0.28,0.1736,-0.1736,0.1736,-0.1736,0.28,0.1736,0.28,0.1736,0.1736,0.28,0.1736,0.28,-0.1736,0.1736,-0.1736,0.1736,-0.28,0*4,0,12,0.126933,-0.233333,0.126933,-0.126933,0.233333,-0.126933,0.233333,0.126933,0.126933,0.126933,0.126933,0.233333,-0.126933,0.233333,-0.126933,0.126933,-0.233333,0.126933,-0.233333,-0.126933,-0.126933,-0.126933,-0.126933,-0.233333,0.126933,-0.233333,0*%
%AMIconX*4,1,16,0.28,-0.28,0.076347,-0.28,0,-0.203653,-0.076347,-0.28,-0.28,-0.28,-0.28,-0.076347,-0.203653,0,-0.28,0.076347,-0.28,0.28,-0.076347,0.28,0,0.203653,0.076347,0.28,0.28,0.28,0.28,0.076347,0.203653,0,0.28,-0.076347,0.28,-0.28,0*4,0,16,0.23352,-0.23296,0.23352,-0.095853,0.137107,0.000093,0.23352,0.095853,0.23352,0.2331,0.095853,0.2331,0,0.137107,-0.095853,0.2331,-0.23352,0.2331,-0.23352,0.095853,-0.137107,0.000093,-0.23352,-0.095853,-0.23352,-0.23296,-0.095853,-0.23296,0,-0.137107,0.095853,-0.23296,0.23352,-0.23296,0*%
%AMIconDiamond*4,1,4,0,-0.364,-0.364,0,0,0.364,0.364,0,0,-0.364,0*4,0,4,0,-0.284807,0.284807,0,0,0.28504,-0.284807,0,0,-0.284807,0*%
%ADD10IconRect*%
%ADD11C,0.616X0.522667*%
%ADD12IconTriangle*%
%ADD13IconStar6*%
%ADD14IconStar4*%
%ADD15IconPlus*%
%ADD16IconX*%
%ADD17IconDiamond*%
G75*


G04 Drill Drawing Start*
G54D10*
G01X275792Y-2055819D03*
G01X719681Y-2493959D03*
G54D11*
G01X7404580Y-3595665D03*
G01X7404580Y-3345652D03*
G01X7404580Y-3095666D03*
G54D12*
G01X804580Y-984760D03*
G01X884880Y-5319360D03*
G01X1004580Y-984760D03*
G01X1084880Y-5319360D03*
G54D13*
G01X400000Y-6600000D03*
G01X400000Y-400000D03*
G01X8100000Y-6600000D03*
G01X8100000Y-400000D03*
G54D14*
G01X4903584Y-1310760D03*
G01X5157583Y-1310760D03*
G01X5411583Y-1310760D03*
G01X5665582Y-1310760D03*
G01X5919582Y-1310760D03*
G01X6173581Y-1310760D03*
G01X6427580Y-1310760D03*
G01X6681580Y-1310760D03*
G01X6935579Y-1310760D03*
G01X7189579Y-1310760D03*
G01X7443578Y-1310760D03*
G01X7697578Y-1310760D03*
G01X7951577Y-1310760D03*
G01X8205577Y-1310760D03*
G54D15*
G01X5400997Y-5935083D03*
G01X5400997Y-5685071D03*
G01X5400997Y-4935083D03*
G01X5400997Y-4685071D03*
G01X5400997Y-3935083D03*
G01X5400997Y-3685071D03*
G01X5400997Y-2935083D03*
G01X5400997Y-2685071D03*
G01X6400997Y-5935083D03*
G01X6400997Y-5685071D03*
G01X6400997Y-4935083D03*
G01X6400997Y-4685071D03*
G01X6400997Y-3935083D03*
G01X6400997Y-3685071D03*
G01X6400997Y-2935083D03*
G01X6400997Y-2685071D03*
G01X7401000Y-5935106D03*
G01X7401000Y-5685094D03*
G01X7401000Y-4935106D03*
G01X7401000Y-4685094D03*
G54D16*
G01X402900Y-3539400D03*
G01X714000Y-1504500D03*
G01X897600Y-1881901D03*
G01X989400Y-2684760D03*
G01X1014900Y-2259300D03*
G01X1050600Y-3462900D03*
G01X1116900Y-2973300D03*
G01X1239300Y-1122000D03*
G01X1305600Y-3717900D03*
G01X1305600Y-2684760D03*
G01X1530000Y-943500D03*
G01X1764600Y-1055700D03*
G01X3621000Y-3978000D03*
G01X3712800Y-4039200D03*
G01X3886201Y-464099D03*
G01X3957600Y-800700D03*
G01X4579800Y-4722600D03*
G01X4579800Y-4197300D03*
G01X4579801Y-3972901D03*
G01X4586584Y-3768900D03*
G01X4957200Y-1530000D03*
G01X6069000Y-943500D03*
G01X6318900Y-770100D03*
G54D17*
G01X2022580Y-6135160D03*
G01X2022580Y-5881160D03*
G01X2022580Y-5627160D03*
G01X2022580Y-5373160D03*
G01X2022580Y-5119160D03*
G01X2022580Y-4357160D03*
G01X2022580Y-4103160D03*
G01X2022580Y-3849160D03*
G01X2022580Y-3595160D03*
G01X2022580Y-3341160D03*
G01X2022580Y-3087160D03*
G01X2022580Y-2833160D03*
G01X2022580Y-2579160D03*
G01X2022580Y-2325160D03*
G01X2022580Y-2071160D03*
G01X2022580Y-1309160D03*
G01X2022580Y-1055160D03*
G01X2022580Y-801160D03*
G01X2022580Y-4865160D03*
G01X2022580Y-4611160D03*
G01X2022580Y-1817160D03*
G01X2022580Y-1563160D03*
G01X4333980Y-2833160D03*
G01X4333980Y-2579160D03*
G01X4333980Y-2325160D03*
G01X4333980Y-2071160D03*
G01X4333980Y-1817160D03*
G01X4333980Y-1563160D03*
G01X4333980Y-1309160D03*
G01X4333980Y-1055160D03*
G01X4333980Y-6135160D03*
G01X4333980Y-5881160D03*
G01X4333980Y-5627160D03*
G01X4333980Y-5373160D03*
G01X4333980Y-5119160D03*
G01X4333980Y-4865160D03*
G01X4333980Y-4611160D03*
G01X4333980Y-4357160D03*
G01X4333980Y-4103160D03*
G01X4333980Y-3849160D03*
G01X4333980Y-3595160D03*
G01X4333980Y-3341160D03*
G01X4333980Y-3087160D03*
G01X4333980Y-801160D03*
G04 Drill Drawing End*

M02*

