G04 Layer: TopLayer*
G04 EasyEDA Pro v2.2.45.4, 2026-05-28 03:39:25*
G04 Gerber Generator version 0.3*
G04 Scale: 100 percent, Rotated: No, Reflected: No*
G04 Dimensions in millimeters*
G04 Leading zeros omitted, absolute positions, 4 integers and 5 decimals*
G04 Generated by one-click*
%FSLAX45Y45*%
%MOMM*%
%ADD10C,0.3*%
%ADD11C,0.254*%
%ADD12R,1.35001X1.41*%
%ADD13R,1.524X1.524*%
%ADD14R,1.6X0.9*%
%ADD15R,1.5X1.5*%
%ADD16C,1.5086*%
%ADD17C,1.5*%
%ADD18R,1.1X2.49999*%
%ADD19R,3.59999X2.34*%
%ADD20R,2.79999X2.2*%
%ADD21O,2.79999X1.9*%
%ADD22C,1.508*%
%ADD23C,1.524*%
%ADD24R,0.35999X0.6*%
%ADD25R,1.2X0.6*%
%ADD26R,2.4X3.29999*%
%ADD27C,5.0*%
%ADD28C,1.0*%
%ADD29C,0.61*%
%ADD30C,0.7*%
%ADD31C,0.8*%
%ADD32C,0.6*%
G75*


G04 Copper Start*
G36*
G01X50854Y-189800D02*
G01X52816Y-164873D01*
G01X58653Y-140560D01*
G01X68222Y-117459D01*
G01X81286Y-96139D01*
G01X97525Y-77125D01*
G01X116539Y-60886D01*
G01X137858Y-47822D01*
G01X160959Y-38253D01*
G01X185273Y-32416D01*
G01X210200Y-30454D01*
G01X8310200Y-30454D01*
G01X8335127Y-32416D01*
G01X8359440Y-38253D01*
G01X8382541Y-47822D01*
G01X8403861Y-60886D01*
G01X8422875Y-77125D01*
G01X8439114Y-96139D01*
G01X8452178Y-117459D01*
G01X8461747Y-140560D01*
G01X8467584Y-164873D01*
G01X8469546Y-189800D01*
G01X8469546Y-6789800D01*
G01X8467584Y-6814727D01*
G01X8461747Y-6839041D01*
G01X8452178Y-6862142D01*
G01X8439114Y-6883461D01*
G01X8422875Y-6902475D01*
G01X8403861Y-6918714D01*
G01X8382541Y-6931778D01*
G01X8359440Y-6941347D01*
G01X8335127Y-6947184D01*
G01X8310200Y-6949146D01*
G01X210200Y-6949146D01*
G01X185273Y-6947184D01*
G01X160959Y-6941347D01*
G01X137858Y-6931778D01*
G01X116539Y-6918714D01*
G01X97525Y-6902475D01*
G01X81286Y-6883461D01*
G01X68222Y-6862142D01*
G01X58653Y-6839041D01*
G01X52816Y-6814727D01*
G01X50854Y-6789800D01*
G01X50854Y-6600000D01*
G01X109346Y-6600000D01*
G01X109346Y-6600000D01*
G01X111311Y-6633743D01*
G01X117181Y-6667029D01*
G01X126875Y-6699410D01*
G01X140262Y-6730445D01*
G01X157162Y-6759717D01*
G01X177346Y-6786829D01*
G01X200541Y-6811414D01*
G01X226433Y-6833140D01*
G01X254673Y-6851714D01*
G01X284878Y-6866883D01*
G01X316639Y-6878443D01*
G01X349528Y-6886238D01*
G01X383100Y-6890162D01*
G01X416900Y-6890162D01*
G01X450471Y-6886238D01*
G01X483360Y-6878443D01*
G01X515122Y-6866883D01*
G01X545327Y-6851714D01*
G01X573566Y-6833140D01*
G01X599459Y-6811414D01*
G01X622654Y-6786829D01*
G01X642838Y-6759717D01*
G01X659738Y-6730445D01*
G01X673125Y-6699410D01*
G01X682819Y-6667029D01*
G01X688689Y-6633743D01*
G01X690654Y-6600000D01*
G01X688689Y-6566257D01*
G01X682819Y-6532971D01*
G01X673125Y-6500590D01*
G01X659738Y-6469555D01*
G01X642838Y-6440283D01*
G01X622654Y-6413171D01*
G01X599459Y-6388586D01*
G01X573566Y-6366860D01*
G01X545327Y-6348286D01*
G01X515122Y-6333117D01*
G01X483360Y-6321557D01*
G01X450471Y-6313762D01*
G01X416900Y-6309838D01*
G01X383100Y-6309838D01*
G01X349528Y-6313762D01*
G01X316639Y-6321557D01*
G01X284878Y-6333117D01*
G01X254673Y-6348286D01*
G01X226433Y-6366860D01*
G01X200541Y-6388586D01*
G01X177346Y-6413171D01*
G01X157162Y-6440283D01*
G01X140262Y-6469555D01*
G01X126875Y-6500590D01*
G01X117181Y-6532971D01*
G01X111311Y-6566257D01*
G01X109346Y-6600000D01*
G01X50854Y-6600000D01*
G01X50854Y-6135160D01*
G01X1905726Y-6135160D01*
G01X1907716Y-6156632D01*
G01X1913617Y-6177372D01*
G01X1923229Y-6196676D01*
G01X1936224Y-6213884D01*
G01X1952160Y-6228411D01*
G01X1970494Y-6239763D01*
G01X1990601Y-6247553D01*
G01X2011798Y-6251515D01*
G01X2033362Y-6251515D01*
G01X2054559Y-6247553D01*
G01X2074666Y-6239763D01*
G01X2093000Y-6228411D01*
G01X2108936Y-6213884D01*
G01X2121931Y-6196676D01*
G01X2131543Y-6177372D01*
G01X2137444Y-6156632D01*
G01X2139434Y-6135160D01*
G01X2139434Y-6135160D01*
G01X2137444Y-6113688D01*
G01X2131543Y-6092947D01*
G01X2121931Y-6073644D01*
G01X2108936Y-6056436D01*
G01X2093000Y-6041908D01*
G01X2074666Y-6030557D01*
G01X2054559Y-6022767D01*
G01X2033362Y-6018804D01*
G01X2011798Y-6018804D01*
G01X1990601Y-6022767D01*
G01X1970494Y-6030557D01*
G01X1952160Y-6041908D01*
G01X1936224Y-6056436D01*
G01X1923229Y-6073644D01*
G01X1913617Y-6092947D01*
G01X1907716Y-6113688D01*
G01X1905726Y-6135160D01*
G01X50854Y-6135160D01*
G01X50854Y-5881160D01*
G01X1905726Y-5881160D01*
G01X1907716Y-5902632D01*
G01X1913617Y-5923372D01*
G01X1923229Y-5942676D01*
G01X1936224Y-5959884D01*
G01X1952160Y-5974411D01*
G01X1970494Y-5985763D01*
G01X1990601Y-5993553D01*
G01X2011798Y-5997515D01*
G01X2033362Y-5997515D01*
G01X2054559Y-5993553D01*
G01X2074666Y-5985763D01*
G01X2093000Y-5974411D01*
G01X2108936Y-5959884D01*
G01X2121931Y-5942676D01*
G01X2131543Y-5923372D01*
G01X2137444Y-5902632D01*
G01X2139434Y-5881160D01*
G01X2139434Y-5881160D01*
G01X2137444Y-5859688D01*
G01X2131543Y-5838947D01*
G01X2121931Y-5819644D01*
G01X2108936Y-5802436D01*
G01X2093000Y-5787908D01*
G01X2074666Y-5776557D01*
G01X2054559Y-5768767D01*
G01X2033362Y-5764804D01*
G01X2011798Y-5764804D01*
G01X1990601Y-5768767D01*
G01X1970494Y-5776557D01*
G01X1952160Y-5787908D01*
G01X1936224Y-5802436D01*
G01X1923229Y-5819644D01*
G01X1913617Y-5838947D01*
G01X1907716Y-5859688D01*
G01X1905726Y-5881160D01*
G01X50854Y-5881160D01*
G01X50854Y-5627160D01*
G01X1905726Y-5627160D01*
G01X1907716Y-5648632D01*
G01X1913617Y-5669372D01*
G01X1923229Y-5688676D01*
G01X1936224Y-5705884D01*
G01X1952160Y-5720411D01*
G01X1970494Y-5731763D01*
G01X1990601Y-5739553D01*
G01X2011798Y-5743515D01*
G01X2033362Y-5743515D01*
G01X2054559Y-5739553D01*
G01X2074666Y-5731763D01*
G01X2093000Y-5720411D01*
G01X2108936Y-5705884D01*
G01X2121931Y-5688676D01*
G01X2131543Y-5669372D01*
G01X2137444Y-5648632D01*
G01X2139434Y-5627160D01*
G01X2139434Y-5627160D01*
G01X2137444Y-5605688D01*
G01X2131543Y-5584947D01*
G01X2121931Y-5565644D01*
G01X2108936Y-5548436D01*
G01X2093000Y-5533908D01*
G01X2074666Y-5522557D01*
G01X2054559Y-5514767D01*
G01X2033362Y-5510804D01*
G01X2011798Y-5510804D01*
G01X1990601Y-5514767D01*
G01X1970494Y-5522557D01*
G01X1952160Y-5533908D01*
G01X1936224Y-5548436D01*
G01X1923229Y-5565644D01*
G01X1913617Y-5584947D01*
G01X1907716Y-5605688D01*
G01X1905726Y-5627160D01*
G01X50854Y-5627160D01*
G01X50854Y-5244360D01*
G01X769226Y-5244360D01*
G01X769226Y-5394360D01*
G01X771216Y-5406923D01*
G01X776991Y-5418256D01*
G01X785984Y-5427250D01*
G01X797318Y-5433024D01*
G01X809880Y-5435014D01*
G01X959880Y-5435014D01*
G01X971692Y-5433260D01*
G01X982485Y-5428149D01*
G01X991328Y-5420124D01*
G01X997457Y-5409875D01*
G01X1000344Y-5398287D01*
G01X1016201Y-5412414D01*
G01X1034374Y-5423403D01*
G01X1054249Y-5430884D01*
G01X1075158Y-5434604D01*
G01X1096394Y-5434439D01*
G01X1117242Y-5430394D01*
G01X1136999Y-5422604D01*
G01X1154998Y-5411334D01*
G01X1170634Y-5396962D01*
G01X1183377Y-5379974D01*
G01X1186751Y-5373160D01*
G01X1905726Y-5373160D01*
G01X1907573Y-5393853D01*
G01X1913055Y-5413891D01*
G01X1921998Y-5432643D01*
G01X1934121Y-5449514D01*
G01X1949040Y-5463971D01*
G01X1966283Y-5475559D01*
G01X1985306Y-5483910D01*
G01X2005507Y-5488760D01*
G01X2026247Y-5489956D01*
G01X2046872Y-5487461D01*
G01X2066728Y-5481353D01*
G01X2085190Y-5471825D01*
G01X2101672Y-5459179D01*
G01X2115654Y-5443814D01*
G01X2773494Y-5443814D01*
G01X3948440Y-6618760D01*
G01X3959147Y-6627546D01*
G01X3971362Y-6634076D01*
G01X3984616Y-6638096D01*
G01X3998400Y-6639454D01*
G01X7226700Y-6639454D01*
G01X7240484Y-6638096D01*
G01X7253738Y-6634076D01*
G01X7265953Y-6627546D01*
G01X7276660Y-6618760D01*
G01X7295420Y-6600000D01*
G01X7809346Y-6600000D01*
G01X7811311Y-6633743D01*
G01X7817181Y-6667029D01*
G01X7826875Y-6699410D01*
G01X7840262Y-6730445D01*
G01X7857162Y-6759717D01*
G01X7877346Y-6786829D01*
G01X7900541Y-6811414D01*
G01X7926434Y-6833140D01*
G01X7954673Y-6851714D01*
G01X7984878Y-6866883D01*
G01X8016640Y-6878443D01*
G01X8049529Y-6886238D01*
G01X8083100Y-6890162D01*
G01X8116900Y-6890162D01*
G01X8150472Y-6886238D01*
G01X8183361Y-6878443D01*
G01X8215122Y-6866883D01*
G01X8245327Y-6851714D01*
G01X8273567Y-6833140D01*
G01X8299459Y-6811414D01*
G01X8322654Y-6786829D01*
G01X8342838Y-6759717D01*
G01X8359738Y-6730445D01*
G01X8373125Y-6699410D01*
G01X8382819Y-6667029D01*
G01X8388689Y-6633743D01*
G01X8390654Y-6600000D01*
G01X8388689Y-6566257D01*
G01X8382819Y-6532971D01*
G01X8373125Y-6500590D01*
G01X8359738Y-6469555D01*
G01X8342838Y-6440283D01*
G01X8322654Y-6413171D01*
G01X8299459Y-6388586D01*
G01X8273567Y-6366860D01*
G01X8245327Y-6348286D01*
G01X8215122Y-6333117D01*
G01X8183361Y-6321557D01*
G01X8150472Y-6313762D01*
G01X8116900Y-6309838D01*
G01X8083100Y-6309838D01*
G01X8049529Y-6313762D01*
G01X8016640Y-6321557D01*
G01X7984878Y-6333117D01*
G01X7954673Y-6348286D01*
G01X7926434Y-6366860D01*
G01X7900541Y-6388586D01*
G01X7877346Y-6413171D01*
G01X7857162Y-6440283D01*
G01X7840262Y-6469555D01*
G01X7826875Y-6500590D01*
G01X7817181Y-6532971D01*
G01X7811311Y-6566257D01*
G01X7809346Y-6600000D01*
G01X7809346Y-6600000D01*
G01X7295420Y-6600000D01*
G01X7710160Y-6185260D01*
G01X7718947Y-6174553D01*
G01X7725476Y-6162338D01*
G01X7729496Y-6149084D01*
G01X7730854Y-6135300D01*
G01X7730854Y-3405652D01*
G01X7729496Y-3391868D01*
G01X7725476Y-3378614D01*
G01X7718947Y-3366399D01*
G01X7710160Y-3355692D01*
G01X7650160Y-3295693D01*
G01X7639453Y-3286906D01*
G01X7627238Y-3280377D01*
G01X7613984Y-3276356D01*
G01X7600200Y-3274999D01*
G01X7565381Y-3274999D01*
G01X7553001Y-3257868D01*
G01X7538109Y-3242869D01*
G01X7521069Y-3230364D01*
G01X7502292Y-3220659D01*
G01X7522840Y-3209836D01*
G01X7541240Y-3195667D01*
G01X7556954Y-3178568D01*
G01X7569521Y-3159038D01*
G01X7578573Y-3137651D01*
G01X7583844Y-3115034D01*
G01X7585180Y-3091849D01*
G01X7582542Y-3068776D01*
G01X7576007Y-3046491D01*
G01X7565767Y-3025647D01*
G01X7552121Y-3006855D01*
G01X7535470Y-2990666D01*
G01X7516302Y-2977555D01*
G01X7495178Y-2967905D01*
G01X7472718Y-2962000D01*
G01X7449580Y-2960012D01*
G01X7359580Y-2960012D01*
G01X7336442Y-2962000D01*
G01X7313982Y-2967905D01*
G01X7292858Y-2977555D01*
G01X7273690Y-2990666D01*
G01X7257039Y-3006855D01*
G01X7243394Y-3025647D01*
G01X7233153Y-3046491D01*
G01X7226618Y-3068776D01*
G01X7223980Y-3091849D01*
G01X7225316Y-3115034D01*
G01X7230587Y-3137651D01*
G01X7239639Y-3159038D01*
G01X7252206Y-3178568D01*
G01X7267920Y-3195667D01*
G01X7286320Y-3209836D01*
G01X7306868Y-3220659D01*
G01X7286923Y-3231097D01*
G01X7268980Y-3244690D01*
G01X7253531Y-3261062D01*
G01X7241002Y-3279765D01*
G01X7231739Y-3300281D01*
G01X7225996Y-3322047D01*
G01X7223932Y-3344463D01*
G01X7225603Y-3366912D01*
G01X7230963Y-3388775D01*
G01X7239865Y-3409451D01*
G01X7252064Y-3428370D01*
G01X7267223Y-3445011D01*
G01X7264580Y-3445011D01*
G01X7264580Y-3445011D01*
G01X7252018Y-3447001D01*
G01X7240685Y-3452775D01*
G01X7231691Y-3461769D01*
G01X7225916Y-3473102D01*
G01X7223926Y-3485665D01*
G01X7223926Y-3705664D01*
G01X7225916Y-3718227D01*
G01X7231691Y-3729560D01*
G01X7240685Y-3738554D01*
G01X7252018Y-3744329D01*
G01X7264580Y-3746318D01*
G01X7544580Y-3746318D01*
G01X7557143Y-3744329D01*
G01X7568476Y-3738554D01*
G01X7577470Y-3729560D01*
G01X7583244Y-3718227D01*
G01X7585234Y-3705664D01*
G01X7585234Y-3485665D01*
G01X7583244Y-3473102D01*
G01X7577470Y-3461769D01*
G01X7568476Y-3452775D01*
G01X7557143Y-3447001D01*
G01X7544580Y-3445011D01*
G01X7541937Y-3445011D01*
G01X7554644Y-3431463D01*
G01X7565381Y-3416306D01*
G01X7570934Y-3416306D01*
G01X7589546Y-3434918D01*
G01X7589546Y-6106034D01*
G01X7197434Y-6498146D01*
G01X4027666Y-6498146D01*
G01X2852720Y-5323200D01*
G01X2842013Y-5314413D01*
G01X2829798Y-5307884D01*
G01X2816544Y-5303864D01*
G01X2802760Y-5302506D01*
G01X2115654Y-5302506D01*
G01X2101672Y-5287141D01*
G01X2085190Y-5274495D01*
G01X2066728Y-5264967D01*
G01X2046872Y-5258859D01*
G01X2026247Y-5256364D01*
G01X2005507Y-5257560D01*
G01X1985306Y-5262410D01*
G01X1966283Y-5270761D01*
G01X1949040Y-5282349D01*
G01X1934121Y-5296806D01*
G01X1921998Y-5313677D01*
G01X1913055Y-5332429D01*
G01X1907573Y-5352467D01*
G01X1905726Y-5373160D01*
G01X1186751Y-5373160D01*
G01X1192800Y-5360941D01*
G01X1198584Y-5340507D01*
G01X1200534Y-5319360D01*
G01X1198584Y-5298213D01*
G01X1192800Y-5277778D01*
G01X1183377Y-5258746D01*
G01X1170634Y-5241758D01*
G01X1154998Y-5227386D01*
G01X1136999Y-5216116D01*
G01X1117242Y-5208326D01*
G01X1096394Y-5204281D01*
G01X1075158Y-5204115D01*
G01X1054249Y-5207836D01*
G01X1034374Y-5215317D01*
G01X1016201Y-5226306D01*
G01X1000344Y-5240433D01*
G01X997457Y-5228845D01*
G01X991328Y-5218596D01*
G01X982485Y-5210570D01*
G01X971692Y-5205460D01*
G01X959880Y-5203706D01*
G01X959880Y-5203706D01*
G01X809880Y-5203706D01*
G01X797318Y-5205696D01*
G01X785984Y-5211470D01*
G01X776991Y-5220464D01*
G01X771216Y-5231797D01*
G01X769226Y-5244360D01*
G01X50854Y-5244360D01*
G01X50854Y-5119160D01*
G01X1905726Y-5119160D01*
G01X1907716Y-5140632D01*
G01X1913617Y-5161372D01*
G01X1923229Y-5180676D01*
G01X1936224Y-5197884D01*
G01X1952160Y-5212411D01*
G01X1970494Y-5223763D01*
G01X1990601Y-5231553D01*
G01X2011798Y-5235515D01*
G01X2033362Y-5235515D01*
G01X2054559Y-5231553D01*
G01X2074666Y-5223763D01*
G01X2093000Y-5212411D01*
G01X2108936Y-5197884D01*
G01X2121931Y-5180676D01*
G01X2131543Y-5161372D01*
G01X2137444Y-5140632D01*
G01X2139434Y-5119160D01*
G01X2139434Y-5119160D01*
G01X2137444Y-5097688D01*
G01X2131543Y-5076947D01*
G01X2121931Y-5057644D01*
G01X2108936Y-5040436D01*
G01X2093000Y-5025908D01*
G01X2074666Y-5014557D01*
G01X2054559Y-5006767D01*
G01X2033362Y-5002804D01*
G01X2011798Y-5002804D01*
G01X1990601Y-5006767D01*
G01X1970494Y-5014557D01*
G01X1952160Y-5025908D01*
G01X1936224Y-5040436D01*
G01X1923229Y-5057644D01*
G01X1913617Y-5076947D01*
G01X1907716Y-5097688D01*
G01X1905726Y-5119160D01*
G01X50854Y-5119160D01*
G01X50854Y-4865160D01*
G01X1905726Y-4865160D01*
G01X1907573Y-4885853D01*
G01X1913055Y-4905891D01*
G01X1921998Y-4924643D01*
G01X1934121Y-4941514D01*
G01X1949040Y-4955971D01*
G01X1966283Y-4967559D01*
G01X1985306Y-4975910D01*
G01X2005507Y-4980760D01*
G01X2026247Y-4981956D01*
G01X2046872Y-4979461D01*
G01X2066728Y-4973353D01*
G01X2085190Y-4963825D01*
G01X2101672Y-4951179D01*
G01X2115654Y-4935814D01*
G01X2647994Y-4935814D01*
G01X4106540Y-6394360D01*
G01X4117247Y-6403147D01*
G01X4129462Y-6409676D01*
G01X4142716Y-6413696D01*
G01X4156500Y-6415054D01*
G01X6991706Y-6415054D01*
G01X7005490Y-6413696D01*
G01X7018744Y-6409676D01*
G01X7030959Y-6403147D01*
G01X7041666Y-6394360D01*
G01X7384066Y-6051960D01*
G01X7477200Y-6051960D01*
G01X7489763Y-6049970D01*
G01X7501096Y-6044196D01*
G01X7510090Y-6035202D01*
G01X7515864Y-6023869D01*
G01X7517854Y-6011306D01*
G01X7517854Y-5858906D01*
G01X7515864Y-5846343D01*
G01X7510090Y-5835010D01*
G01X7501096Y-5826016D01*
G01X7489763Y-5820242D01*
G01X7477200Y-5818252D01*
G01X7324800Y-5818252D01*
G01X7312237Y-5820242D01*
G01X7300904Y-5826016D01*
G01X7291910Y-5835010D01*
G01X7286136Y-5846343D01*
G01X7284146Y-5858906D01*
G01X7284146Y-5952040D01*
G01X6962440Y-6273746D01*
G01X4185766Y-6273746D01*
G01X4047180Y-6135160D01*
G01X4217126Y-6135160D01*
G01X4219116Y-6156632D01*
G01X4225017Y-6177372D01*
G01X4234629Y-6196676D01*
G01X4247624Y-6213884D01*
G01X4263560Y-6228411D01*
G01X4281894Y-6239763D01*
G01X4302001Y-6247553D01*
G01X4323198Y-6251515D01*
G01X4344762Y-6251515D01*
G01X4365959Y-6247553D01*
G01X4386066Y-6239763D01*
G01X4404400Y-6228411D01*
G01X4420336Y-6213884D01*
G01X4433331Y-6196676D01*
G01X4442943Y-6177372D01*
G01X4448844Y-6156632D01*
G01X4450834Y-6135160D01*
G01X4450834Y-6135160D01*
G01X4448844Y-6113688D01*
G01X4442943Y-6092947D01*
G01X4433331Y-6073644D01*
G01X4420336Y-6056436D01*
G01X4404400Y-6041908D01*
G01X4386066Y-6030557D01*
G01X4365959Y-6022767D01*
G01X4344762Y-6018804D01*
G01X4323198Y-6018804D01*
G01X4302001Y-6022767D01*
G01X4281894Y-6030557D01*
G01X4263560Y-6041908D01*
G01X4247624Y-6056436D01*
G01X4234629Y-6073644D01*
G01X4225017Y-6092947D01*
G01X4219116Y-6113688D01*
G01X4217126Y-6135160D01*
G01X4047180Y-6135160D01*
G01X3793180Y-5881160D01*
G01X4217126Y-5881160D01*
G01X4219116Y-5902632D01*
G01X4225017Y-5923372D01*
G01X4234629Y-5942676D01*
G01X4247624Y-5959884D01*
G01X4263560Y-5974411D01*
G01X4281894Y-5985763D01*
G01X4302001Y-5993553D01*
G01X4323198Y-5997515D01*
G01X4344762Y-5997515D01*
G01X4365959Y-5993553D01*
G01X4386066Y-5985763D01*
G01X4404400Y-5974411D01*
G01X4420336Y-5959884D01*
G01X4433331Y-5942676D01*
G01X4442943Y-5923372D01*
G01X4448844Y-5902632D01*
G01X4450834Y-5881160D01*
G01X4450834Y-5881160D01*
G01X4448844Y-5859688D01*
G01X4442943Y-5838947D01*
G01X4433331Y-5819644D01*
G01X4420336Y-5802436D01*
G01X4404400Y-5787908D01*
G01X4386066Y-5776557D01*
G01X4365959Y-5768767D01*
G01X4344762Y-5764804D01*
G01X4323198Y-5764804D01*
G01X4302001Y-5768767D01*
G01X4281894Y-5776557D01*
G01X4263560Y-5787908D01*
G01X4247624Y-5802436D01*
G01X4234629Y-5819644D01*
G01X4225017Y-5838947D01*
G01X4219116Y-5859688D01*
G01X4217126Y-5881160D01*
G01X3793180Y-5881160D01*
G01X3539180Y-5627160D01*
G01X4217126Y-5627160D01*
G01X4219116Y-5648632D01*
G01X4225017Y-5669372D01*
G01X4234629Y-5688676D01*
G01X4247624Y-5705884D01*
G01X4263560Y-5720411D01*
G01X4281894Y-5731763D01*
G01X4302001Y-5739553D01*
G01X4323198Y-5743515D01*
G01X4344762Y-5743515D01*
G01X4365959Y-5739553D01*
G01X4386066Y-5731763D01*
G01X4404400Y-5720411D01*
G01X4420336Y-5705884D01*
G01X4433331Y-5688676D01*
G01X4442943Y-5669372D01*
G01X4448844Y-5648632D01*
G01X4450834Y-5627160D01*
G01X4450834Y-5627160D01*
G01X4448844Y-5605688D01*
G01X4442943Y-5584947D01*
G01X4433331Y-5565644D01*
G01X4420336Y-5548436D01*
G01X4404400Y-5533908D01*
G01X4386066Y-5522557D01*
G01X4365959Y-5514767D01*
G01X4344762Y-5510804D01*
G01X4323198Y-5510804D01*
G01X4302001Y-5514767D01*
G01X4281894Y-5522557D01*
G01X4263560Y-5533908D01*
G01X4247624Y-5548436D01*
G01X4234629Y-5565644D01*
G01X4225017Y-5584947D01*
G01X4219116Y-5605688D01*
G01X4217126Y-5627160D01*
G01X3539180Y-5627160D01*
G01X3285180Y-5373160D01*
G01X4217126Y-5373160D01*
G01X4219116Y-5394632D01*
G01X4225017Y-5415372D01*
G01X4234629Y-5434676D01*
G01X4247624Y-5451884D01*
G01X4263560Y-5466411D01*
G01X4281894Y-5477763D01*
G01X4302001Y-5485553D01*
G01X4323198Y-5489515D01*
G01X4344762Y-5489515D01*
G01X4365959Y-5485553D01*
G01X4386066Y-5477763D01*
G01X4404400Y-5466411D01*
G01X4420336Y-5451884D01*
G01X4433331Y-5434676D01*
G01X4442943Y-5415372D01*
G01X4448844Y-5394632D01*
G01X4450834Y-5373160D01*
G01X4450834Y-5373160D01*
G01X4448844Y-5351688D01*
G01X4442943Y-5330947D01*
G01X4433331Y-5311644D01*
G01X4420336Y-5294436D01*
G01X4404400Y-5279908D01*
G01X4386066Y-5268557D01*
G01X4365959Y-5260767D01*
G01X4344762Y-5256804D01*
G01X4323198Y-5256804D01*
G01X4302001Y-5260767D01*
G01X4281894Y-5268557D01*
G01X4263560Y-5279908D01*
G01X4247624Y-5294436D01*
G01X4234629Y-5311644D01*
G01X4225017Y-5330947D01*
G01X4219116Y-5351688D01*
G01X4217126Y-5373160D01*
G01X3285180Y-5373160D01*
G01X3031180Y-5119160D01*
G01X4217126Y-5119160D01*
G01X4219116Y-5140632D01*
G01X4225017Y-5161372D01*
G01X4234629Y-5180676D01*
G01X4247624Y-5197884D01*
G01X4263560Y-5212411D01*
G01X4281894Y-5223763D01*
G01X4302001Y-5231553D01*
G01X4323198Y-5235515D01*
G01X4344762Y-5235515D01*
G01X4365959Y-5231553D01*
G01X4386066Y-5223763D01*
G01X4404400Y-5212411D01*
G01X4420336Y-5197884D01*
G01X4433331Y-5180676D01*
G01X4442943Y-5161372D01*
G01X4448844Y-5140632D01*
G01X4450834Y-5119160D01*
G01X4450834Y-5119160D01*
G01X4448844Y-5097688D01*
G01X4442943Y-5076947D01*
G01X4433331Y-5057644D01*
G01X4420336Y-5040436D01*
G01X4404400Y-5025908D01*
G01X4386066Y-5014557D01*
G01X4365959Y-5006767D01*
G01X4344762Y-5002804D01*
G01X4323198Y-5002804D01*
G01X4302001Y-5006767D01*
G01X4281894Y-5014557D01*
G01X4263560Y-5025908D01*
G01X4247624Y-5040436D01*
G01X4234629Y-5057644D01*
G01X4225017Y-5076947D01*
G01X4219116Y-5097688D01*
G01X4217126Y-5119160D01*
G01X3031180Y-5119160D01*
G01X2727220Y-4815200D01*
G01X2716513Y-4806413D01*
G01X2704298Y-4799884D01*
G01X2691044Y-4795864D01*
G01X2677260Y-4794506D01*
G01X2115654Y-4794506D01*
G01X2115654Y-4794506D01*
G01X2101672Y-4779141D01*
G01X2085190Y-4766495D01*
G01X2066728Y-4756967D01*
G01X2046872Y-4750859D01*
G01X2026247Y-4748364D01*
G01X2005507Y-4749560D01*
G01X1985306Y-4754410D01*
G01X1966283Y-4762761D01*
G01X1949040Y-4774349D01*
G01X1934121Y-4788806D01*
G01X1921998Y-4805677D01*
G01X1913055Y-4824429D01*
G01X1907573Y-4844467D01*
G01X1905726Y-4865160D01*
G01X50854Y-4865160D01*
G01X50854Y-4611160D01*
G01X1905726Y-4611160D01*
G01X1907716Y-4632632D01*
G01X1913617Y-4653372D01*
G01X1923229Y-4672676D01*
G01X1936224Y-4689884D01*
G01X1952160Y-4704411D01*
G01X1970494Y-4715763D01*
G01X1990601Y-4723553D01*
G01X2011798Y-4727515D01*
G01X2033362Y-4727515D01*
G01X2054559Y-4723553D01*
G01X2074666Y-4715763D01*
G01X2093000Y-4704411D01*
G01X2108936Y-4689884D01*
G01X2121931Y-4672676D01*
G01X2131543Y-4653372D01*
G01X2137444Y-4632632D01*
G01X2139434Y-4611160D01*
G01X2139434Y-4611160D01*
G01X2137444Y-4589688D01*
G01X2131543Y-4568947D01*
G01X2121931Y-4549644D01*
G01X2108936Y-4532436D01*
G01X2093000Y-4517908D01*
G01X2074666Y-4506557D01*
G01X2054559Y-4498767D01*
G01X2033362Y-4494804D01*
G01X2011798Y-4494804D01*
G01X1990601Y-4498767D01*
G01X1970494Y-4506557D01*
G01X1952160Y-4517908D01*
G01X1936224Y-4532436D01*
G01X1923229Y-4549644D01*
G01X1913617Y-4568947D01*
G01X1907716Y-4589688D01*
G01X1905726Y-4611160D01*
G01X50854Y-4611160D01*
G01X50854Y-4357160D01*
G01X1905726Y-4357160D01*
G01X1907716Y-4378632D01*
G01X1913617Y-4399372D01*
G01X1923229Y-4418676D01*
G01X1936224Y-4435884D01*
G01X1952160Y-4450411D01*
G01X1970494Y-4461763D01*
G01X1990601Y-4469553D01*
G01X2011798Y-4473515D01*
G01X2033362Y-4473515D01*
G01X2054559Y-4469553D01*
G01X2074666Y-4461763D01*
G01X2093000Y-4450411D01*
G01X2108936Y-4435884D01*
G01X2121931Y-4418676D01*
G01X2131543Y-4399372D01*
G01X2137444Y-4378632D01*
G01X2139434Y-4357160D01*
G01X2139434Y-4357160D01*
G01X2137444Y-4335688D01*
G01X2131543Y-4314947D01*
G01X2121931Y-4295644D01*
G01X2108936Y-4278436D01*
G01X2093000Y-4263908D01*
G01X2074666Y-4252557D01*
G01X2054559Y-4244767D01*
G01X2033362Y-4240804D01*
G01X2011798Y-4240804D01*
G01X1990601Y-4244767D01*
G01X1970494Y-4252557D01*
G01X1952160Y-4263908D01*
G01X1936224Y-4278436D01*
G01X1923229Y-4295644D01*
G01X1913617Y-4314947D01*
G01X1907716Y-4335688D01*
G01X1905726Y-4357160D01*
G01X50854Y-4357160D01*
G01X50854Y-4103160D01*
G01X1905726Y-4103160D01*
G01X1907716Y-4124632D01*
G01X1913617Y-4145372D01*
G01X1923229Y-4164676D01*
G01X1936224Y-4181884D01*
G01X1952160Y-4196411D01*
G01X1970494Y-4207763D01*
G01X1990601Y-4215553D01*
G01X2011798Y-4219515D01*
G01X2033362Y-4219515D01*
G01X2054559Y-4215553D01*
G01X2074666Y-4207763D01*
G01X2093000Y-4196411D01*
G01X2108936Y-4181884D01*
G01X2121931Y-4164676D01*
G01X2131543Y-4145372D01*
G01X2137444Y-4124632D01*
G01X2139434Y-4103160D01*
G01X2139434Y-4103160D01*
G01X2137444Y-4081688D01*
G01X2131543Y-4060947D01*
G01X2121931Y-4041644D01*
G01X2108936Y-4024436D01*
G01X2093000Y-4009908D01*
G01X2074666Y-3998557D01*
G01X2054559Y-3990767D01*
G01X2033362Y-3986804D01*
G01X2011798Y-3986804D01*
G01X1990601Y-3990767D01*
G01X1970494Y-3998557D01*
G01X1952160Y-4009908D01*
G01X1936224Y-4024436D01*
G01X1923229Y-4041644D01*
G01X1913617Y-4060947D01*
G01X1907716Y-4081688D01*
G01X1905726Y-4103160D01*
G01X50854Y-4103160D01*
G01X50854Y-3535182D01*
G01X331871Y-3535182D01*
G01X332565Y-3550164D01*
G01X336384Y-3564668D01*
G01X343158Y-3578049D01*
G01X352586Y-3589714D01*
G01X352586Y-3589714D01*
G01X364250Y-3599142D01*
G01X377632Y-3605916D01*
G01X392136Y-3609735D01*
G01X407118Y-3610429D01*
G01X421913Y-3607967D01*
G01X435863Y-3602458D01*
G01X448348Y-3594148D01*
G01X458815Y-3583405D01*
G01X664701Y-3377519D01*
G01X729583Y-3377519D01*
G01X742146Y-3375529D01*
G01X753479Y-3369755D01*
G01X762473Y-3360761D01*
G01X768247Y-3349428D01*
G01X770237Y-3336865D01*
G01X770237Y-3126094D01*
G01X808926Y-3087404D01*
G01X808926Y-3336865D01*
G01X810669Y-3348641D01*
G01X815749Y-3359408D01*
G01X823729Y-3368241D01*
G01X833926Y-3374384D01*
G01X833926Y-3648203D01*
G01X724580Y-3648203D01*
G01X712018Y-3650193D01*
G01X700685Y-3655967D01*
G01X691691Y-3664961D01*
G01X685916Y-3676294D01*
G01X683926Y-3688857D01*
G01X683926Y-3922857D01*
G01X685916Y-3935420D01*
G01X691691Y-3946753D01*
G01X700685Y-3955747D01*
G01X712018Y-3961521D01*
G01X724580Y-3963511D01*
G01X1084580Y-3963511D01*
G01X1097143Y-3961521D01*
G01X1108476Y-3955747D01*
G01X1117469Y-3946753D01*
G01X1123244Y-3935420D01*
G01X1125234Y-3922857D01*
G01X1125234Y-3849160D01*
G01X1905726Y-3849160D01*
G01X1907716Y-3870632D01*
G01X1913617Y-3891372D01*
G01X1923229Y-3910676D01*
G01X1936224Y-3927884D01*
G01X1952160Y-3942411D01*
G01X1970494Y-3953763D01*
G01X1990601Y-3961553D01*
G01X2011798Y-3965515D01*
G01X2033362Y-3965515D01*
G01X2054559Y-3961553D01*
G01X2074666Y-3953763D01*
G01X2093000Y-3942411D01*
G01X2108936Y-3927884D01*
G01X2121931Y-3910676D01*
G01X2131543Y-3891372D01*
G01X2137444Y-3870632D01*
G01X2139434Y-3849160D01*
G01X2139434Y-3849160D01*
G01X2137444Y-3827688D01*
G01X2131543Y-3806947D01*
G01X2121931Y-3787644D01*
G01X2108936Y-3770436D01*
G01X2093000Y-3755908D01*
G01X2074666Y-3744557D01*
G01X2054559Y-3736767D01*
G01X2033362Y-3732804D01*
G01X2011798Y-3732804D01*
G01X1990601Y-3736767D01*
G01X1970494Y-3744557D01*
G01X1952160Y-3755908D01*
G01X1936224Y-3770436D01*
G01X1923229Y-3787644D01*
G01X1913617Y-3806947D01*
G01X1907716Y-3827688D01*
G01X1905726Y-3849160D01*
G01X1125234Y-3849160D01*
G01X1125234Y-3688857D01*
G01X1125076Y-3685281D01*
G01X1215197Y-3595160D01*
G01X1905726Y-3595160D01*
G01X1907716Y-3616632D01*
G01X1913617Y-3637372D01*
G01X1923229Y-3656676D01*
G01X1936224Y-3673884D01*
G01X1952160Y-3688411D01*
G01X1970494Y-3699763D01*
G01X1990601Y-3707553D01*
G01X2011798Y-3711515D01*
G01X2033362Y-3711515D01*
G01X2054559Y-3707553D01*
G01X2074666Y-3699763D01*
G01X2093000Y-3688411D01*
G01X2108936Y-3673884D01*
G01X2121931Y-3656676D01*
G01X2131543Y-3637372D01*
G01X2137444Y-3616632D01*
G01X2139434Y-3595160D01*
G01X2139434Y-3595160D01*
G01X2137444Y-3573688D01*
G01X2131543Y-3552947D01*
G01X2121931Y-3533644D01*
G01X2108936Y-3516436D01*
G01X2093000Y-3501908D01*
G01X2074666Y-3490557D01*
G01X2054559Y-3482767D01*
G01X2033362Y-3478804D01*
G01X2011798Y-3478804D01*
G01X1990601Y-3482767D01*
G01X1970494Y-3490557D01*
G01X1952160Y-3501908D01*
G01X1936224Y-3516436D01*
G01X1923229Y-3533644D01*
G01X1913617Y-3552947D01*
G01X1907716Y-3573688D01*
G01X1905726Y-3595160D01*
G01X1215197Y-3595160D01*
G01X1354540Y-3455817D01*
G01X1363327Y-3445110D01*
G01X1369856Y-3432895D01*
G01X1373876Y-3419641D01*
G01X1375234Y-3405857D01*
G01X1375234Y-3341160D01*
G01X1905726Y-3341160D01*
G01X1907716Y-3362632D01*
G01X1913617Y-3383372D01*
G01X1923229Y-3402676D01*
G01X1936224Y-3419884D01*
G01X1952160Y-3434411D01*
G01X1970494Y-3445763D01*
G01X1990601Y-3453553D01*
G01X2011798Y-3457515D01*
G01X2033362Y-3457515D01*
G01X2054559Y-3453553D01*
G01X2074666Y-3445763D01*
G01X2093000Y-3434411D01*
G01X2108936Y-3419884D01*
G01X2121931Y-3402676D01*
G01X2131543Y-3383372D01*
G01X2137444Y-3362632D01*
G01X2139434Y-3341160D01*
G01X2139434Y-3341160D01*
G01X2137444Y-3319688D01*
G01X2131543Y-3298947D01*
G01X2121931Y-3279644D01*
G01X2108936Y-3262436D01*
G01X2093000Y-3247908D01*
G01X2074666Y-3236557D01*
G01X2054559Y-3228767D01*
G01X2033362Y-3224804D01*
G01X2011798Y-3224804D01*
G01X1990601Y-3228767D01*
G01X1970494Y-3236557D01*
G01X1952160Y-3247908D01*
G01X1936224Y-3262436D01*
G01X1923229Y-3279644D01*
G01X1913617Y-3298947D01*
G01X1907716Y-3319688D01*
G01X1905726Y-3341160D01*
G01X1375234Y-3341160D01*
G01X1375234Y-3087160D01*
G01X1905726Y-3087160D01*
G01X1907716Y-3108632D01*
G01X1913617Y-3129372D01*
G01X1923229Y-3148676D01*
G01X1936224Y-3165884D01*
G01X1952160Y-3180411D01*
G01X1970494Y-3191763D01*
G01X1990601Y-3199553D01*
G01X2011798Y-3203515D01*
G01X2033362Y-3203515D01*
G01X2054559Y-3199553D01*
G01X2074666Y-3191763D01*
G01X2093000Y-3180411D01*
G01X2108936Y-3165884D01*
G01X2121931Y-3148676D01*
G01X2131543Y-3129372D01*
G01X2137444Y-3108632D01*
G01X2139434Y-3087160D01*
G01X2139434Y-3087160D01*
G01X2137444Y-3065688D01*
G01X2131543Y-3044947D01*
G01X2121931Y-3025644D01*
G01X2108936Y-3008436D01*
G01X2093000Y-2993908D01*
G01X2074666Y-2982557D01*
G01X2054559Y-2974767D01*
G01X2033362Y-2970804D01*
G01X2011798Y-2970804D01*
G01X1990601Y-2974767D01*
G01X1970494Y-2982557D01*
G01X1952160Y-2993908D01*
G01X1936224Y-3008436D01*
G01X1923229Y-3025644D01*
G01X1913617Y-3044947D01*
G01X1907716Y-3065688D01*
G01X1905726Y-3087160D01*
G01X1375234Y-3087160D01*
G01X1375234Y-2995791D01*
G01X1387019Y-2993070D01*
G01X1397482Y-2987001D01*
G01X1405696Y-2978123D01*
G01X1410935Y-2967221D01*
G01X1412735Y-2955260D01*
G01X1412735Y-2902024D01*
G01X1455544Y-2859215D01*
G01X1466262Y-2850420D01*
G01X1483522Y-2833160D01*
G01X1905726Y-2833160D01*
G01X1907716Y-2854632D01*
G01X1913617Y-2875372D01*
G01X1923229Y-2894676D01*
G01X1936224Y-2911884D01*
G01X1952160Y-2926411D01*
G01X1970494Y-2937763D01*
G01X1990601Y-2945553D01*
G01X2011798Y-2949515D01*
G01X2033362Y-2949515D01*
G01X2054559Y-2945553D01*
G01X2074666Y-2937763D01*
G01X2093000Y-2926411D01*
G01X2108936Y-2911884D01*
G01X2121931Y-2894676D01*
G01X2131543Y-2875372D01*
G01X2137444Y-2854632D01*
G01X2139434Y-2833160D01*
G01X2139434Y-2833160D01*
G01X2137444Y-2811688D01*
G01X2131543Y-2790947D01*
G01X2121931Y-2771644D01*
G01X2108936Y-2754436D01*
G01X2093000Y-2739908D01*
G01X2074666Y-2728557D01*
G01X2054559Y-2720767D01*
G01X2033362Y-2716804D01*
G01X2011798Y-2716804D01*
G01X1990601Y-2720767D01*
G01X1970494Y-2728557D01*
G01X1952160Y-2739908D01*
G01X1936224Y-2754436D01*
G01X1923229Y-2771644D01*
G01X1913617Y-2790947D01*
G01X1907716Y-2811688D01*
G01X1905726Y-2833160D01*
G01X1483522Y-2833160D01*
G01X1492740Y-2823943D01*
G01X1501534Y-2813224D01*
G01X1735598Y-2579160D01*
G01X1905726Y-2579160D01*
G01X1907716Y-2600632D01*
G01X1913617Y-2621372D01*
G01X1923229Y-2640676D01*
G01X1936224Y-2657884D01*
G01X1952160Y-2672411D01*
G01X1970494Y-2683763D01*
G01X1990601Y-2691553D01*
G01X2011798Y-2695515D01*
G01X2033362Y-2695515D01*
G01X2054559Y-2691553D01*
G01X2074666Y-2683763D01*
G01X2093000Y-2672411D01*
G01X2108936Y-2657884D01*
G01X2121931Y-2640676D01*
G01X2131543Y-2621372D01*
G01X2137444Y-2600632D01*
G01X2139434Y-2579160D01*
G01X2139434Y-2579160D01*
G01X2137444Y-2557688D01*
G01X2131543Y-2536947D01*
G01X2121931Y-2517644D01*
G01X2108936Y-2500436D01*
G01X2093000Y-2485908D01*
G01X2074666Y-2474557D01*
G01X2054559Y-2466767D01*
G01X2033362Y-2462804D01*
G01X2011798Y-2462804D01*
G01X1990601Y-2466767D01*
G01X1970494Y-2474557D01*
G01X1952160Y-2485908D01*
G01X1936224Y-2500436D01*
G01X1923229Y-2517644D01*
G01X1913617Y-2536947D01*
G01X1907716Y-2557688D01*
G01X1905726Y-2579160D01*
G01X1735598Y-2579160D01*
G01X1896160Y-2418599D01*
G01X1906401Y-2405623D01*
G01X1913346Y-2390624D01*
G01X1916617Y-2374421D01*
G01X1927166Y-2392622D01*
G01X1940808Y-2408636D01*
G01X1957100Y-2421944D01*
G01X1975513Y-2432116D01*
G01X1995453Y-2438822D01*
G01X2016271Y-2441843D01*
G01X2037294Y-2441084D01*
G01X2057840Y-2436567D01*
G01X2077243Y-2428440D01*
G01X2094875Y-2416966D01*
G01X2110164Y-2402516D01*
G01X2122614Y-2385559D01*
G01X2131822Y-2366645D01*
G01X2137490Y-2346386D01*
G01X2139434Y-2325440D01*
G01X2137590Y-2304484D01*
G01X2132019Y-2284198D01*
G01X2122902Y-2265240D01*
G01X2110533Y-2248224D01*
G01X2095314Y-2233701D01*
G01X2077737Y-2222143D01*
G01X2058373Y-2213923D01*
G01X2037849Y-2209308D01*
G01X2016830Y-2208448D01*
G01X1995997Y-2211370D01*
G01X1976026Y-2217980D01*
G01X1957564Y-2228063D01*
G01X1941208Y-2241294D01*
G01X1927490Y-2257242D01*
G01X1916854Y-2275392D01*
G01X1916854Y-2120928D01*
G01X1927479Y-2139062D01*
G01X1941182Y-2155000D01*
G01X1957517Y-2168225D01*
G01X1975958Y-2178310D01*
G01X1995906Y-2184929D01*
G01X2016718Y-2187867D01*
G01X2037719Y-2187029D01*
G01X2058231Y-2182443D01*
G01X2077589Y-2174256D01*
G01X2095168Y-2162734D01*
G01X2110398Y-2148250D01*
G01X2122787Y-2131272D01*
G01X2131934Y-2112348D01*
G01X2137544Y-2092093D01*
G01X2139434Y-2071160D01*
G01X2137544Y-2050227D01*
G01X2131934Y-2029971D01*
G01X2122787Y-2011048D01*
G01X2110398Y-1994070D01*
G01X2095168Y-1979585D01*
G01X2077589Y-1968064D01*
G01X2058231Y-1959877D01*
G01X2037719Y-1955291D01*
G01X2016718Y-1954453D01*
G01X1995906Y-1957391D01*
G01X1975958Y-1964010D01*
G01X1957517Y-1974095D01*
G01X1941182Y-1987320D01*
G01X1927479Y-2003257D01*
G01X1916854Y-2021392D01*
G01X1916854Y-1866928D01*
G01X1927479Y-1885062D01*
G01X1941182Y-1901000D01*
G01X1957517Y-1914225D01*
G01X1975958Y-1924310D01*
G01X1995906Y-1930929D01*
G01X2016718Y-1933867D01*
G01X2037719Y-1933029D01*
G01X2058231Y-1928443D01*
G01X2077589Y-1920256D01*
G01X2095168Y-1908734D01*
G01X2110398Y-1894250D01*
G01X2122787Y-1877272D01*
G01X2131934Y-1858348D01*
G01X2137544Y-1838093D01*
G01X2139434Y-1817160D01*
G01X2137544Y-1796227D01*
G01X2131934Y-1775971D01*
G01X2122787Y-1757048D01*
G01X2110398Y-1740070D01*
G01X2095168Y-1725585D01*
G01X2077589Y-1714064D01*
G01X2058231Y-1705877D01*
G01X2037719Y-1701291D01*
G01X2016718Y-1700453D01*
G01X1995906Y-1703391D01*
G01X1975958Y-1710010D01*
G01X1957517Y-1720095D01*
G01X1941182Y-1733320D01*
G01X1927479Y-1749257D01*
G01X1916854Y-1767392D01*
G01X1916854Y-1612928D01*
G01X1927479Y-1631062D01*
G01X1941182Y-1647000D01*
G01X1957517Y-1660225D01*
G01X1975958Y-1670310D01*
G01X1995906Y-1676929D01*
G01X2016718Y-1679867D01*
G01X2037719Y-1679029D01*
G01X2058231Y-1674443D01*
G01X2077589Y-1666256D01*
G01X2095168Y-1654734D01*
G01X2110398Y-1640250D01*
G01X2122787Y-1623272D01*
G01X2131934Y-1604348D01*
G01X2137544Y-1584093D01*
G01X2139434Y-1563160D01*
G01X2137544Y-1542227D01*
G01X2131934Y-1521971D01*
G01X2122787Y-1503048D01*
G01X2110398Y-1486070D01*
G01X2095168Y-1471585D01*
G01X2077589Y-1460064D01*
G01X2058231Y-1451877D01*
G01X2037719Y-1447291D01*
G01X2016718Y-1446453D01*
G01X1995906Y-1449391D01*
G01X1975958Y-1456010D01*
G01X1957517Y-1466095D01*
G01X1941182Y-1479320D01*
G01X1927479Y-1495257D01*
G01X1916854Y-1513392D01*
G01X1916854Y-1358928D01*
G01X1927479Y-1377062D01*
G01X1941182Y-1393000D01*
G01X1957517Y-1406225D01*
G01X1975958Y-1416310D01*
G01X1995906Y-1422929D01*
G01X2016718Y-1425867D01*
G01X2037719Y-1425029D01*
G01X2058231Y-1420443D01*
G01X2077589Y-1412256D01*
G01X2095168Y-1400734D01*
G01X2110398Y-1386250D01*
G01X2122787Y-1369272D01*
G01X2131934Y-1350348D01*
G01X2137544Y-1330093D01*
G01X2139434Y-1309160D01*
G01X2137544Y-1288227D01*
G01X2131934Y-1267971D01*
G01X2122787Y-1249048D01*
G01X2110398Y-1232070D01*
G01X2095168Y-1217585D01*
G01X2077589Y-1206064D01*
G01X2058231Y-1197877D01*
G01X2037719Y-1193291D01*
G01X2016718Y-1192453D01*
G01X1995906Y-1195391D01*
G01X1975958Y-1202010D01*
G01X1957517Y-1212095D01*
G01X1941182Y-1225320D01*
G01X1927479Y-1241257D01*
G01X1916854Y-1259392D01*
G01X1916854Y-1104928D01*
G01X1927479Y-1123062D01*
G01X1941182Y-1139000D01*
G01X1957517Y-1152225D01*
G01X1975958Y-1162310D01*
G01X1995906Y-1168929D01*
G01X2016718Y-1171867D01*
G01X2037719Y-1171029D01*
G01X2058231Y-1166443D01*
G01X2077589Y-1158256D01*
G01X2095168Y-1146734D01*
G01X2110398Y-1132250D01*
G01X2122787Y-1115272D01*
G01X2131934Y-1096348D01*
G01X2137544Y-1076093D01*
G01X2139434Y-1055160D01*
G01X2137544Y-1034227D01*
G01X2131934Y-1013971D01*
G01X2122787Y-995048D01*
G01X2110398Y-978070D01*
G01X2095168Y-963585D01*
G01X2077589Y-952064D01*
G01X2058231Y-943877D01*
G01X2037719Y-939291D01*
G01X2016718Y-938453D01*
G01X1995906Y-941391D01*
G01X1975958Y-948010D01*
G01X1957517Y-958095D01*
G01X1941182Y-971320D01*
G01X1927479Y-987257D01*
G01X1916854Y-1005392D01*
G01X1916854Y-850928D01*
G01X1927121Y-868558D01*
G01X1940298Y-884133D01*
G01X1955982Y-897179D01*
G01X1973697Y-907298D01*
G01X1992902Y-914182D01*
G01X2013011Y-917621D01*
G01X2033412Y-917511D01*
G01X2053483Y-913854D01*
G01X2072612Y-906761D01*
G01X2090215Y-896450D01*
G01X2105758Y-883235D01*
G01X2118765Y-867518D01*
G01X2128840Y-849778D01*
G01X2135676Y-830556D01*
G01X2139065Y-810438D01*
G01X2138903Y-790038D01*
G01X2135196Y-769976D01*
G01X2128056Y-750865D01*
G01X2117701Y-733287D01*
G01X2104447Y-717778D01*
G01X2088698Y-704810D01*
G01X2070933Y-694779D01*
G01X2051694Y-687991D01*
G01X2031568Y-684652D01*
G01X2201866Y-514354D01*
G01X3736027Y-514354D01*
G01X3479240Y-771140D01*
G01X3470453Y-781847D01*
G01X3463924Y-794062D01*
G01X3459904Y-807316D01*
G01X3458546Y-821100D01*
G01X3458546Y-4065479D01*
G01X3459904Y-4079263D01*
G01X3463924Y-4092517D01*
G01X3470453Y-4104733D01*
G01X3479240Y-4115439D01*
G01X4217672Y-4853872D01*
G01X4217511Y-4874641D01*
G01X4221030Y-4895111D01*
G01X4228116Y-4914635D01*
G01X4238548Y-4932596D01*
G01X4251994Y-4948426D01*
G01X4268031Y-4961625D01*
G01X4286151Y-4971777D01*
G01X4305782Y-4978561D01*
G01X4326304Y-4981762D01*
G01X4347069Y-4981279D01*
G01X4367420Y-4977127D01*
G01X4386714Y-4969438D01*
G01X4404343Y-4958455D01*
G01X4419748Y-4944524D01*
G01X4432444Y-4928085D01*
G01X4442029Y-4909659D01*
G01X4448201Y-4889827D01*
G01X4450763Y-4869215D01*
G01X4449637Y-4848476D01*
G01X4444856Y-4828263D01*
G01X4436572Y-4809217D01*
G01X4425047Y-4791937D01*
G01X4410645Y-4776971D01*
G01X4393821Y-4764791D01*
G01X4375106Y-4755782D01*
G01X4355092Y-4750229D01*
G01X4334411Y-4748307D01*
G01X4313717Y-4750076D01*
G01X4276591Y-4712951D01*
G01X4295582Y-4721525D01*
G01X4315793Y-4726590D01*
G01X4336583Y-4727985D01*
G01X4357290Y-4725665D01*
G01X4377256Y-4719705D01*
G01X4395845Y-4710294D01*
G01X4412468Y-4697730D01*
G01X4426596Y-4682414D01*
G01X4437778Y-4664833D01*
G01X4445660Y-4645545D01*
G01X4449992Y-4625164D01*
G01X4450635Y-4604337D01*
G01X4447568Y-4583728D01*
G01X4440890Y-4563990D01*
G01X4509146Y-4632246D01*
G01X4509146Y-4714179D01*
G01X4508934Y-4728996D01*
G01X4511796Y-4743536D01*
G01X4517607Y-4757168D01*
G01X4526116Y-4769301D01*
G01X4536953Y-4779407D01*
G01X4549649Y-4787050D01*
G01X4563653Y-4791898D01*
G01X4578357Y-4793740D01*
G01X4593123Y-4792496D01*
G01X4607312Y-4788220D01*
G01X4620308Y-4781098D01*
G01X4631546Y-4771439D01*
G01X4631546Y-5236286D01*
G01X4632904Y-5250070D01*
G01X4636924Y-5263324D01*
G01X4643453Y-5275539D01*
G01X4652240Y-5286246D01*
G01X5284143Y-5918149D01*
G01X5284143Y-6011283D01*
G01X5286133Y-6023846D01*
G01X5291908Y-6035179D01*
G01X5300902Y-6044173D01*
G01X5312235Y-6049948D01*
G01X5324797Y-6051937D01*
G01X5477197Y-6051937D01*
G01X5489760Y-6049948D01*
G01X5501093Y-6044173D01*
G01X5510087Y-6035179D01*
G01X5515862Y-6023846D01*
G01X5517851Y-6011283D01*
G01X6284143Y-6011283D01*
G01X6286133Y-6023846D01*
G01X6291907Y-6035179D01*
G01X6300901Y-6044173D01*
G01X6312234Y-6049948D01*
G01X6324797Y-6051937D01*
G01X6477197Y-6051937D01*
G01X6489760Y-6049948D01*
G01X6501093Y-6044173D01*
G01X6510087Y-6035179D01*
G01X6515861Y-6023846D01*
G01X6517851Y-6011283D01*
G01X6517851Y-5858883D01*
G01X6515861Y-5846321D01*
G01X6510087Y-5834988D01*
G01X6501093Y-5825994D01*
G01X6489760Y-5820219D01*
G01X6477197Y-5818229D01*
G01X6324797Y-5818229D01*
G01X6312234Y-5820219D01*
G01X6300901Y-5825994D01*
G01X6291907Y-5834988D01*
G01X6286133Y-5846321D01*
G01X6284143Y-5858883D01*
G01X6284143Y-6011283D01*
G01X6284143Y-6011283D01*
G01X5517851Y-6011283D01*
G01X5517851Y-5858883D01*
G01X5515862Y-5846321D01*
G01X5510087Y-5834988D01*
G01X5501093Y-5825994D01*
G01X5489760Y-5820219D01*
G01X5477197Y-5818229D01*
G01X5384063Y-5818229D01*
G01X5367759Y-5801925D01*
G01X5477197Y-5801925D01*
G01X5489760Y-5799935D01*
G01X5501093Y-5794161D01*
G01X5510087Y-5785167D01*
G01X5515862Y-5773834D01*
G01X5517851Y-5761271D01*
G01X6284143Y-5761271D01*
G01X6286133Y-5773834D01*
G01X6291907Y-5785167D01*
G01X6300901Y-5794161D01*
G01X6312234Y-5799935D01*
G01X6324797Y-5801925D01*
G01X6477197Y-5801925D01*
G01X6489760Y-5799935D01*
G01X6501093Y-5794161D01*
G01X6510087Y-5785167D01*
G01X6515861Y-5773834D01*
G01X6517847Y-5761294D01*
G01X7284146Y-5761294D01*
G01X7286136Y-5773857D01*
G01X7291910Y-5785190D01*
G01X7300904Y-5794184D01*
G01X7312237Y-5799958D01*
G01X7324800Y-5801948D01*
G01X7477200Y-5801948D01*
G01X7489763Y-5799958D01*
G01X7501096Y-5794184D01*
G01X7510090Y-5785190D01*
G01X7515864Y-5773857D01*
G01X7517854Y-5761294D01*
G01X7517854Y-5608894D01*
G01X7515864Y-5596331D01*
G01X7510090Y-5584998D01*
G01X7501096Y-5576004D01*
G01X7489763Y-5570230D01*
G01X7477200Y-5568240D01*
G01X7324800Y-5568240D01*
G01X7312237Y-5570230D01*
G01X7300904Y-5576004D01*
G01X7291910Y-5584998D01*
G01X7286136Y-5596331D01*
G01X7284146Y-5608894D01*
G01X7284146Y-5761294D01*
G01X7284146Y-5761294D01*
G01X6517847Y-5761294D01*
G01X6517851Y-5761271D01*
G01X6517851Y-5608871D01*
G01X6515861Y-5596308D01*
G01X6510087Y-5584975D01*
G01X6501093Y-5575981D01*
G01X6489760Y-5570207D01*
G01X6477197Y-5568217D01*
G01X6324797Y-5568217D01*
G01X6312234Y-5570207D01*
G01X6300901Y-5575981D01*
G01X6291907Y-5584975D01*
G01X6286133Y-5596308D01*
G01X6284143Y-5608871D01*
G01X6284143Y-5761271D01*
G01X6284143Y-5761271D01*
G01X5517851Y-5761271D01*
G01X5517851Y-5608871D01*
G01X5515862Y-5596308D01*
G01X5510087Y-5584975D01*
G01X5501093Y-5575981D01*
G01X5489760Y-5570207D01*
G01X5477197Y-5568217D01*
G01X5324797Y-5568217D01*
G01X5312235Y-5570207D01*
G01X5300902Y-5575981D01*
G01X5291908Y-5584975D01*
G01X5286133Y-5596308D01*
G01X5284143Y-5608871D01*
G01X5284143Y-5718310D01*
G01X4772854Y-5207020D01*
G01X4772854Y-3709380D01*
G01X4771496Y-3695596D01*
G01X4767476Y-3682342D01*
G01X4760946Y-3670127D01*
G01X4752160Y-3659420D01*
G01X4449753Y-3357014D01*
G01X4450701Y-3335579D01*
G01X4447713Y-3314332D01*
G01X4440890Y-3293990D01*
G01X4779446Y-3632546D01*
G01X4779446Y-4384186D01*
G01X4780804Y-4397970D01*
G01X4784824Y-4411224D01*
G01X4791353Y-4423439D01*
G01X4800140Y-4434146D01*
G01X5284143Y-4918149D01*
G01X5284143Y-5011283D01*
G01X5286133Y-5023846D01*
G01X5291908Y-5035179D01*
G01X5300902Y-5044173D01*
G01X5312235Y-5049948D01*
G01X5324797Y-5051937D01*
G01X5477197Y-5051937D01*
G01X5489760Y-5049948D01*
G01X5501093Y-5044173D01*
G01X5510087Y-5035179D01*
G01X5515862Y-5023846D01*
G01X5517851Y-5011283D01*
G01X6284143Y-5011283D01*
G01X6286133Y-5023846D01*
G01X6291907Y-5035179D01*
G01X6300901Y-5044173D01*
G01X6312234Y-5049948D01*
G01X6324797Y-5051937D01*
G01X6477197Y-5051937D01*
G01X6489760Y-5049948D01*
G01X6501093Y-5044173D01*
G01X6510087Y-5035179D01*
G01X6515861Y-5023846D01*
G01X6517847Y-5011306D01*
G01X7284146Y-5011306D01*
G01X7286136Y-5023869D01*
G01X7291910Y-5035202D01*
G01X7300904Y-5044196D01*
G01X7312237Y-5049970D01*
G01X7324800Y-5051960D01*
G01X7477200Y-5051960D01*
G01X7489763Y-5049970D01*
G01X7501096Y-5044196D01*
G01X7510090Y-5035202D01*
G01X7515864Y-5023869D01*
G01X7517854Y-5011306D01*
G01X7517854Y-4858906D01*
G01X7515864Y-4846343D01*
G01X7510090Y-4835010D01*
G01X7501096Y-4826016D01*
G01X7489763Y-4820242D01*
G01X7477200Y-4818252D01*
G01X7324800Y-4818252D01*
G01X7312237Y-4820242D01*
G01X7300904Y-4826016D01*
G01X7291910Y-4835010D01*
G01X7286136Y-4846343D01*
G01X7284146Y-4858906D01*
G01X7284146Y-5011306D01*
G01X7284146Y-5011306D01*
G01X6517847Y-5011306D01*
G01X6517851Y-5011283D01*
G01X6517851Y-4858883D01*
G01X6515861Y-4846321D01*
G01X6510087Y-4834988D01*
G01X6501093Y-4825994D01*
G01X6489760Y-4820219D01*
G01X6477197Y-4818229D01*
G01X6324797Y-4818229D01*
G01X6312234Y-4820219D01*
G01X6300901Y-4825994D01*
G01X6291907Y-4834988D01*
G01X6286133Y-4846321D01*
G01X6284143Y-4858883D01*
G01X6284143Y-5011283D01*
G01X6284143Y-5011283D01*
G01X5517851Y-5011283D01*
G01X5517851Y-4858883D01*
G01X5515862Y-4846321D01*
G01X5510087Y-4834988D01*
G01X5501093Y-4825994D01*
G01X5489760Y-4820219D01*
G01X5477197Y-4818229D01*
G01X5384063Y-4818229D01*
G01X5367759Y-4801925D01*
G01X5477197Y-4801925D01*
G01X5489760Y-4799935D01*
G01X5501093Y-4794161D01*
G01X5510087Y-4785167D01*
G01X5515862Y-4773834D01*
G01X5517851Y-4761271D01*
G01X6284143Y-4761271D01*
G01X6286133Y-4773834D01*
G01X6291907Y-4785167D01*
G01X6300901Y-4794161D01*
G01X6312234Y-4799935D01*
G01X6324797Y-4801925D01*
G01X6477197Y-4801925D01*
G01X6489760Y-4799935D01*
G01X6501093Y-4794161D01*
G01X6510087Y-4785167D01*
G01X6515861Y-4773834D01*
G01X6517847Y-4761294D01*
G01X7284146Y-4761294D01*
G01X7286136Y-4773857D01*
G01X7291910Y-4785190D01*
G01X7300904Y-4794184D01*
G01X7312237Y-4799958D01*
G01X7324800Y-4801948D01*
G01X7477200Y-4801948D01*
G01X7489763Y-4799958D01*
G01X7501096Y-4794184D01*
G01X7510090Y-4785190D01*
G01X7515864Y-4773857D01*
G01X7517854Y-4761294D01*
G01X7517854Y-4608894D01*
G01X7515864Y-4596331D01*
G01X7510090Y-4584998D01*
G01X7501096Y-4576004D01*
G01X7489763Y-4570230D01*
G01X7477200Y-4568240D01*
G01X7324800Y-4568240D01*
G01X7312237Y-4570230D01*
G01X7300904Y-4576004D01*
G01X7291910Y-4584998D01*
G01X7286136Y-4596331D01*
G01X7284146Y-4608894D01*
G01X7284146Y-4761294D01*
G01X7284146Y-4761294D01*
G01X6517847Y-4761294D01*
G01X6517851Y-4761271D01*
G01X6517851Y-4608871D01*
G01X6515861Y-4596308D01*
G01X6510087Y-4584975D01*
G01X6501093Y-4575981D01*
G01X6489760Y-4570207D01*
G01X6477197Y-4568217D01*
G01X6324797Y-4568217D01*
G01X6312234Y-4570207D01*
G01X6300901Y-4575981D01*
G01X6291907Y-4584975D01*
G01X6286133Y-4596308D01*
G01X6284143Y-4608871D01*
G01X6284143Y-4761271D01*
G01X6284143Y-4761271D01*
G01X5517851Y-4761271D01*
G01X5517851Y-4608871D01*
G01X5515862Y-4596308D01*
G01X5510087Y-4584975D01*
G01X5501093Y-4575981D01*
G01X5489760Y-4570207D01*
G01X5477197Y-4568217D01*
G01X5324797Y-4568217D01*
G01X5312235Y-4570207D01*
G01X5300902Y-4575981D01*
G01X5291908Y-4584975D01*
G01X5286133Y-4596308D01*
G01X5284143Y-4608871D01*
G01X5284143Y-4718310D01*
G01X4920754Y-4354920D01*
G01X4920754Y-3673889D01*
G01X4927683Y-3688721D01*
G01X4937840Y-3701560D01*
G01X5221323Y-3985043D01*
G01X5232030Y-3993830D01*
G01X5244245Y-4000359D01*
G01X5257499Y-4004380D01*
G01X5271283Y-4005737D01*
G01X5284143Y-4005737D01*
G01X5284143Y-4011283D01*
G01X5286133Y-4023846D01*
G01X5291908Y-4035179D01*
G01X5300902Y-4044173D01*
G01X5312235Y-4049948D01*
G01X5324797Y-4051937D01*
G01X5477197Y-4051937D01*
G01X5489760Y-4049948D01*
G01X5501093Y-4044173D01*
G01X5510087Y-4035179D01*
G01X5515862Y-4023846D01*
G01X5517851Y-4011283D01*
G01X6284143Y-4011283D01*
G01X6286133Y-4023846D01*
G01X6291907Y-4035179D01*
G01X6300901Y-4044173D01*
G01X6312234Y-4049948D01*
G01X6324797Y-4051937D01*
G01X6477197Y-4051937D01*
G01X6489760Y-4049948D01*
G01X6501093Y-4044173D01*
G01X6510087Y-4035179D01*
G01X6515861Y-4023846D01*
G01X6517851Y-4011283D01*
G01X6517851Y-3858883D01*
G01X6515861Y-3846321D01*
G01X6510087Y-3834988D01*
G01X6501093Y-3825994D01*
G01X6489760Y-3820219D01*
G01X6477197Y-3818229D01*
G01X6324797Y-3818229D01*
G01X6312234Y-3820219D01*
G01X6300901Y-3825994D01*
G01X6291907Y-3834988D01*
G01X6286133Y-3846321D01*
G01X6284143Y-3858883D01*
G01X6284143Y-4011283D01*
G01X6284143Y-4011283D01*
G01X5517851Y-4011283D01*
G01X5517851Y-3858883D01*
G01X5515862Y-3846321D01*
G01X5510087Y-3834988D01*
G01X5501093Y-3825994D01*
G01X5489760Y-3820219D01*
G01X5477197Y-3818229D01*
G01X5324797Y-3818229D01*
G01X5314109Y-3819659D01*
G01X5304173Y-3823849D01*
G01X5295688Y-3830504D01*
G01X5289251Y-3839156D01*
G01X5285315Y-3849195D01*
G01X5197391Y-3761271D01*
G01X5284143Y-3761271D01*
G01X5286133Y-3773834D01*
G01X5291908Y-3785167D01*
G01X5300902Y-3794161D01*
G01X5312235Y-3799935D01*
G01X5324797Y-3801925D01*
G01X5477197Y-3801925D01*
G01X5489760Y-3799935D01*
G01X5501093Y-3794161D01*
G01X5510087Y-3785167D01*
G01X5515862Y-3773834D01*
G01X5517851Y-3761271D01*
G01X6284143Y-3761271D01*
G01X6286133Y-3773834D01*
G01X6291907Y-3785167D01*
G01X6300901Y-3794161D01*
G01X6312234Y-3799935D01*
G01X6324797Y-3801925D01*
G01X6477197Y-3801925D01*
G01X6489760Y-3799935D01*
G01X6501093Y-3794161D01*
G01X6510087Y-3785167D01*
G01X6515861Y-3773834D01*
G01X6517851Y-3761271D01*
G01X6517851Y-3608871D01*
G01X6515861Y-3596308D01*
G01X6510087Y-3584975D01*
G01X6501093Y-3575981D01*
G01X6489760Y-3570207D01*
G01X6477197Y-3568217D01*
G01X6324797Y-3568217D01*
G01X6312234Y-3570207D01*
G01X6300901Y-3575981D01*
G01X6291907Y-3584975D01*
G01X6286133Y-3596308D01*
G01X6284143Y-3608871D01*
G01X6284143Y-3761271D01*
G01X6284143Y-3761271D01*
G01X5517851Y-3761271D01*
G01X5517851Y-3608871D01*
G01X5515862Y-3596308D01*
G01X5510087Y-3584975D01*
G01X5501093Y-3575981D01*
G01X5489760Y-3570207D01*
G01X5477197Y-3568217D01*
G01X5324797Y-3568217D01*
G01X5312235Y-3570207D01*
G01X5300902Y-3575981D01*
G01X5291908Y-3584975D01*
G01X5286133Y-3596308D01*
G01X5284143Y-3608871D01*
G01X5284143Y-3761271D01*
G01X5284143Y-3761271D01*
G01X5197391Y-3761271D01*
G01X5058454Y-3622334D01*
G01X5058454Y-3486980D01*
G01X5057096Y-3473196D01*
G01X5053076Y-3459942D01*
G01X5046547Y-3447727D01*
G01X5037760Y-3437020D01*
G01X4449753Y-2849014D01*
G01X4450731Y-2828262D01*
G01X4448019Y-2807665D01*
G01X4441702Y-2787873D01*
G01X4431980Y-2769514D01*
G01X4419161Y-2753165D01*
G01X4403649Y-2739346D01*
G01X4385935Y-2728491D01*
G01X4366579Y-2720945D01*
G01X4346193Y-2716946D01*
G01X4325420Y-2716620D01*
G01X4304918Y-2719977D01*
G01X4285335Y-2726912D01*
G01X4267289Y-2737206D01*
G01X4251352Y-2750532D01*
G01X4238026Y-2766469D01*
G01X4227732Y-2784515D01*
G01X4220797Y-2804098D01*
G01X4217440Y-2824600D01*
G01X4217766Y-2845373D01*
G01X4221765Y-2865759D01*
G01X4229311Y-2885115D01*
G01X4240166Y-2902829D01*
G01X4253985Y-2918341D01*
G01X4270334Y-2931160D01*
G01X4288693Y-2940882D01*
G01X4308485Y-2947199D01*
G01X4329082Y-2949911D01*
G01X4349834Y-2948933D01*
G01X4381150Y-2980249D01*
G01X4360718Y-2973406D01*
G01X4339376Y-2970431D01*
G01X4317852Y-2971424D01*
G01X4296875Y-2976353D01*
G01X4277161Y-2985050D01*
G01X4259378Y-2997219D01*
G01X4244132Y-3012446D01*
G01X4231941Y-3030213D01*
G01X4223220Y-3049917D01*
G01X4218265Y-3070887D01*
G01X4217244Y-3092410D01*
G01X4220193Y-3113755D01*
G01X4227010Y-3134196D01*
G01X4237465Y-3153037D01*
G01X4251202Y-3169638D01*
G01X4267754Y-3183435D01*
G01X4286557Y-3193958D01*
G01X4306973Y-3200850D01*
G01X4328307Y-3203876D01*
G01X4349834Y-3202933D01*
G01X4381150Y-3234249D01*
G01X4360718Y-3227406D01*
G01X4339376Y-3224431D01*
G01X4317852Y-3225424D01*
G01X4296875Y-3230353D01*
G01X4277161Y-3239050D01*
G01X4259378Y-3251219D01*
G01X4244132Y-3266446D01*
G01X4231941Y-3284213D01*
G01X4223220Y-3303917D01*
G01X4218265Y-3324887D01*
G01X4217244Y-3346410D01*
G01X4220193Y-3367755D01*
G01X4227010Y-3388196D01*
G01X4237465Y-3407037D01*
G01X4251202Y-3423638D01*
G01X4267754Y-3437435D01*
G01X4286557Y-3447958D01*
G01X4306973Y-3454850D01*
G01X4328307Y-3457876D01*
G01X4349834Y-3456933D01*
G01X4381150Y-3488249D01*
G01X4361745Y-3481653D01*
G01X4341487Y-3478547D01*
G01X4320998Y-3479029D01*
G01X4300908Y-3483084D01*
G01X4281836Y-3490586D01*
G01X4264367Y-3501304D01*
G01X4249040Y-3514910D01*
G01X4236326Y-3530985D01*
G01X4226615Y-3549033D01*
G01X4220208Y-3568501D01*
G01X4217300Y-3588788D01*
G01X4217981Y-3609272D01*
G01X4222231Y-3629321D01*
G01X4229918Y-3648320D01*
G01X4240806Y-3665683D01*
G01X4254561Y-3680877D01*
G01X4270758Y-3693434D01*
G01X4288900Y-3702968D01*
G01X4308429Y-3709186D01*
G01X4328744Y-3711897D01*
G01X4349220Y-3711016D01*
G01X4369227Y-3706571D01*
G01X4388150Y-3698699D01*
G01X4405407Y-3687643D01*
G01X4530669Y-3812905D01*
G01X4540445Y-3823067D01*
G01X4552033Y-3831102D01*
G01X4564978Y-3836694D01*
G01X4578771Y-3839624D01*
G01X4592872Y-3839776D01*
G01X4606725Y-3837144D01*
G01X4619788Y-3831832D01*
G01X4631546Y-3824048D01*
G01X4631546Y-3924061D01*
G01X4618857Y-3913424D01*
G01X4604054Y-3906008D01*
G01X4587937Y-3902214D01*
G01X4571379Y-3902247D01*
G01X4486987Y-3902247D01*
G01X4449753Y-3865014D01*
G01X4450731Y-3844262D01*
G01X4448019Y-3823665D01*
G01X4441702Y-3803873D01*
G01X4431980Y-3785514D01*
G01X4419161Y-3769165D01*
G01X4403649Y-3755346D01*
G01X4385935Y-3744491D01*
G01X4366579Y-3736945D01*
G01X4346193Y-3732946D01*
G01X4325420Y-3732620D01*
G01X4304918Y-3735977D01*
G01X4285335Y-3742912D01*
G01X4267289Y-3753206D01*
G01X4251352Y-3766532D01*
G01X4238026Y-3782469D01*
G01X4227732Y-3800515D01*
G01X4220797Y-3820098D01*
G01X4217440Y-3840600D01*
G01X4217766Y-3861373D01*
G01X4221765Y-3881759D01*
G01X4229311Y-3901115D01*
G01X4240166Y-3918829D01*
G01X4253985Y-3934341D01*
G01X4270334Y-3947160D01*
G01X4288693Y-3956882D01*
G01X4308485Y-3963199D01*
G01X4329082Y-3965911D01*
G01X4349834Y-3964933D01*
G01X4381150Y-3996249D01*
G01X4360718Y-3989406D01*
G01X4339376Y-3986431D01*
G01X4317852Y-3987424D01*
G01X4296875Y-3992353D01*
G01X4277161Y-4001050D01*
G01X4259378Y-4013219D01*
G01X4244132Y-4028446D01*
G01X4231941Y-4046213D01*
G01X4223220Y-4065917D01*
G01X4218265Y-4086887D01*
G01X4217244Y-4108410D01*
G01X4220193Y-4129755D01*
G01X4227010Y-4150196D01*
G01X4237465Y-4169037D01*
G01X4251202Y-4185638D01*
G01X4267754Y-4199435D01*
G01X4286557Y-4209958D01*
G01X4306973Y-4216850D01*
G01X4328307Y-4219876D01*
G01X4349834Y-4218933D01*
G01X4378160Y-4247260D01*
G01X4381534Y-4250420D01*
G01X4361106Y-4243498D01*
G01X4339754Y-4240449D01*
G01X4318206Y-4241376D01*
G01X4297194Y-4246247D01*
G01X4277436Y-4254897D01*
G01X4259605Y-4267031D01*
G01X4244307Y-4282236D01*
G01X4232064Y-4299993D01*
G01X4223294Y-4319698D01*
G01X4218294Y-4340679D01*
G01X4217236Y-4362221D01*
G01X4220155Y-4383592D01*
G01X4226951Y-4404061D01*
G01X4237394Y-4422933D01*
G01X4251128Y-4439564D01*
G01X4267684Y-4453388D01*
G01X4286499Y-4463933D01*
G01X4306932Y-4470840D01*
G01X4328286Y-4473875D01*
G01X4349834Y-4472933D01*
G01X4381150Y-4504249D01*
G01X4361412Y-4497572D01*
G01X4340803Y-4494505D01*
G01X4319976Y-4495148D01*
G01X4299595Y-4499479D01*
G01X4280307Y-4507362D01*
G01X4262725Y-4518544D01*
G01X4247410Y-4532672D01*
G01X4234846Y-4549294D01*
G01X4225435Y-4567884D01*
G01X4219474Y-4587850D01*
G01X4217155Y-4608557D01*
G01X4218550Y-4629347D01*
G01X4223615Y-4649558D01*
G01X4232189Y-4668549D01*
G01X3612255Y-4048615D01*
G01X3627252Y-4048879D01*
G01X3641971Y-4045993D01*
G01X3645295Y-4061695D01*
G01X3652054Y-4076252D01*
G01X3661904Y-4088924D01*
G01X3674343Y-4099066D01*
G01X3688739Y-4106162D01*
G01X3704359Y-4109851D01*
G01X3720408Y-4109946D01*
G01X3736070Y-4106441D01*
G01X3750549Y-4099515D01*
G01X3763106Y-4089521D01*
G01X3773105Y-4076966D01*
G01X3780035Y-4062489D01*
G01X3783544Y-4046828D01*
G01X3783454Y-4030778D01*
G01X3783454Y-2579160D01*
G01X4217126Y-2579160D01*
G01X4218973Y-2599853D01*
G01X4224455Y-2619891D01*
G01X4233398Y-2638643D01*
G01X4245521Y-2655514D01*
G01X4260440Y-2669971D01*
G01X4277683Y-2681559D01*
G01X4296706Y-2689910D01*
G01X4316907Y-2694760D01*
G01X4337647Y-2695956D01*
G01X4358272Y-2693461D01*
G01X4378128Y-2687353D01*
G01X4396590Y-2677825D01*
G01X4413072Y-2665179D01*
G01X4427054Y-2649814D01*
G01X4990375Y-2649814D01*
G01X5284143Y-2943583D01*
G01X5284143Y-2943583D01*
G01X5284143Y-3011283D01*
G01X5286133Y-3023846D01*
G01X5291908Y-3035179D01*
G01X5300902Y-3044173D01*
G01X5312235Y-3049948D01*
G01X5324797Y-3051937D01*
G01X5477197Y-3051937D01*
G01X5489760Y-3049948D01*
G01X5501093Y-3044173D01*
G01X5510087Y-3035179D01*
G01X5515862Y-3023846D01*
G01X5517851Y-3011283D01*
G01X6284143Y-3011283D01*
G01X6286133Y-3023846D01*
G01X6291907Y-3035179D01*
G01X6300901Y-3044173D01*
G01X6312234Y-3049948D01*
G01X6324797Y-3051937D01*
G01X6477197Y-3051937D01*
G01X6489760Y-3049948D01*
G01X6501093Y-3044173D01*
G01X6510087Y-3035179D01*
G01X6515861Y-3023846D01*
G01X6517851Y-3011283D01*
G01X6517851Y-2858883D01*
G01X6515861Y-2846321D01*
G01X6510087Y-2834987D01*
G01X6501093Y-2825994D01*
G01X6489760Y-2820219D01*
G01X6477197Y-2818229D01*
G01X6324797Y-2818229D01*
G01X6312234Y-2820219D01*
G01X6300901Y-2825994D01*
G01X6291907Y-2834987D01*
G01X6286133Y-2846321D01*
G01X6284143Y-2858883D01*
G01X6284143Y-3011283D01*
G01X6284143Y-3011283D01*
G01X5517851Y-3011283D01*
G01X5517851Y-2858883D01*
G01X5515862Y-2846321D01*
G01X5510087Y-2834987D01*
G01X5501093Y-2825994D01*
G01X5489760Y-2820219D01*
G01X5477197Y-2818229D01*
G01X5358630Y-2818229D01*
G01X5342325Y-2801925D01*
G01X5477197Y-2801925D01*
G01X5489760Y-2799935D01*
G01X5501093Y-2794161D01*
G01X5510087Y-2785167D01*
G01X5515862Y-2773834D01*
G01X5517851Y-2761271D01*
G01X6284143Y-2761271D01*
G01X6286133Y-2773834D01*
G01X6291907Y-2785167D01*
G01X6300901Y-2794161D01*
G01X6312234Y-2799935D01*
G01X6324797Y-2801925D01*
G01X6477197Y-2801925D01*
G01X6489760Y-2799935D01*
G01X6501093Y-2794161D01*
G01X6510087Y-2785167D01*
G01X6515861Y-2773834D01*
G01X6517851Y-2761271D01*
G01X6517851Y-2608871D01*
G01X6515861Y-2596308D01*
G01X6510087Y-2584975D01*
G01X6501093Y-2575981D01*
G01X6489760Y-2570207D01*
G01X6477197Y-2568217D01*
G01X6324797Y-2568217D01*
G01X6312234Y-2570207D01*
G01X6300901Y-2575981D01*
G01X6291907Y-2584975D01*
G01X6286133Y-2596308D01*
G01X6284143Y-2608871D01*
G01X6284143Y-2761271D01*
G01X6284143Y-2761271D01*
G01X5517851Y-2761271D01*
G01X5517851Y-2608871D01*
G01X5515862Y-2596308D01*
G01X5510087Y-2584975D01*
G01X5501093Y-2575981D01*
G01X5489760Y-2570207D01*
G01X5477197Y-2568217D01*
G01X5324797Y-2568217D01*
G01X5312235Y-2570207D01*
G01X5300902Y-2575981D01*
G01X5291908Y-2584975D01*
G01X5286133Y-2596308D01*
G01X5284143Y-2608871D01*
G01X5284143Y-2743743D01*
G01X5069600Y-2529200D01*
G01X5058894Y-2520413D01*
G01X5046679Y-2513884D01*
G01X5033424Y-2509864D01*
G01X5019640Y-2508506D01*
G01X4427054Y-2508506D01*
G01X4413072Y-2493141D01*
G01X4396590Y-2480495D01*
G01X4378128Y-2470967D01*
G01X4358272Y-2464859D01*
G01X4337647Y-2462364D01*
G01X4316907Y-2463560D01*
G01X4296706Y-2468410D01*
G01X4277683Y-2476761D01*
G01X4260440Y-2488349D01*
G01X4245521Y-2502806D01*
G01X4233398Y-2519677D01*
G01X4224455Y-2538429D01*
G01X4218973Y-2558467D01*
G01X4217126Y-2579160D01*
G01X3783454Y-2579160D01*
G01X3783454Y-2071160D01*
G01X4217126Y-2071160D01*
G01X4218973Y-2091853D01*
G01X4224455Y-2111891D01*
G01X4233398Y-2130643D01*
G01X4245521Y-2147514D01*
G01X4260440Y-2161971D01*
G01X4277683Y-2173559D01*
G01X4296706Y-2181910D01*
G01X4316907Y-2186760D01*
G01X4337647Y-2187956D01*
G01X4358272Y-2185461D01*
G01X4378128Y-2179353D01*
G01X4396590Y-2169825D01*
G01X4413072Y-2157179D01*
G01X4427054Y-2141814D01*
G01X4651182Y-2141814D01*
G01X4664966Y-2140456D01*
G01X4678221Y-2136436D01*
G01X4690436Y-2129907D01*
G01X4701142Y-2121120D01*
G01X5396440Y-1425822D01*
G01X5412777Y-1426808D01*
G01X5429090Y-1425486D01*
G01X5445055Y-1421882D01*
G01X5460354Y-1416068D01*
G01X4621916Y-2254506D01*
G01X4427054Y-2254506D01*
G01X4413072Y-2239141D01*
G01X4396590Y-2226495D01*
G01X4378128Y-2216967D01*
G01X4358272Y-2210859D01*
G01X4337647Y-2208364D01*
G01X4316907Y-2209560D01*
G01X4296706Y-2214410D01*
G01X4277683Y-2222761D01*
G01X4260440Y-2234349D01*
G01X4245521Y-2248806D01*
G01X4233398Y-2265677D01*
G01X4224455Y-2284429D01*
G01X4218973Y-2304467D01*
G01X4217126Y-2325160D01*
G01X4218973Y-2345853D01*
G01X4224455Y-2365891D01*
G01X4233398Y-2384643D01*
G01X4245521Y-2401514D01*
G01X4260440Y-2415971D01*
G01X4277683Y-2427559D01*
G01X4296706Y-2435910D01*
G01X4316907Y-2440760D01*
G01X4337647Y-2441956D01*
G01X4358272Y-2439461D01*
G01X4378128Y-2433353D01*
G01X4396590Y-2423825D01*
G01X4413072Y-2411179D01*
G01X4427054Y-2395814D01*
G01X4651182Y-2395814D01*
G01X4664966Y-2394456D01*
G01X4678220Y-2390436D01*
G01X4690435Y-2383907D01*
G01X4701142Y-2375120D01*
G01X5650440Y-1425822D01*
G01X5671899Y-1426642D01*
G01X5693142Y-1423494D01*
G01X5713442Y-1416486D01*
G01X5732102Y-1405858D01*
G01X5748485Y-1391973D01*
G01X5762029Y-1375308D01*
G01X5772271Y-1356433D01*
G01X5778859Y-1335993D01*
G01X5781569Y-1314690D01*
G01X5781338Y-1310760D01*
G01X5803528Y-1310760D01*
G01X5805504Y-1332085D01*
G01X5811365Y-1352683D01*
G01X5820911Y-1371854D01*
G01X5833817Y-1388945D01*
G01X5849643Y-1403373D01*
G01X5867852Y-1414647D01*
G01X5887822Y-1422383D01*
G01X5908873Y-1426319D01*
G01X5930290Y-1426319D01*
G01X5951341Y-1422383D01*
G01X5971311Y-1414647D01*
G01X5989520Y-1403373D01*
G01X6005346Y-1388945D01*
G01X6018252Y-1371854D01*
G01X6027798Y-1352683D01*
G01X6033659Y-1332085D01*
G01X6035635Y-1310760D01*
G01X6035635Y-1310760D01*
G01X6033659Y-1289435D01*
G01X6027798Y-1268836D01*
G01X6018252Y-1249665D01*
G01X6005346Y-1232575D01*
G01X5989520Y-1218147D01*
G01X5971311Y-1206873D01*
G01X5951341Y-1199136D01*
G01X5930290Y-1195201D01*
G01X5908873Y-1195201D01*
G01X5887822Y-1199136D01*
G01X5867852Y-1206873D01*
G01X5849643Y-1218147D01*
G01X5833817Y-1232575D01*
G01X5820911Y-1249665D01*
G01X5811365Y-1268836D01*
G01X5805504Y-1289435D01*
G01X5803528Y-1310760D01*
G01X5781338Y-1310760D01*
G01X5780308Y-1293252D01*
G01X5775118Y-1272414D01*
G01X5766177Y-1252888D01*
G01X5753792Y-1235345D01*
G01X5738387Y-1220383D01*
G01X5720488Y-1208516D01*
G01X5700710Y-1200150D01*
G01X5679729Y-1195572D01*
G01X5658263Y-1194937D01*
G01X5637048Y-1198268D01*
G01X5616810Y-1205452D01*
G01X5884608Y-937654D01*
G01X5998087Y-937654D01*
G01X5998316Y-951665D01*
G01X6001287Y-965359D01*
G01X6006884Y-978206D01*
G01X6014890Y-989706D01*
G01X6024995Y-999415D01*
G01X6244396Y-1218816D01*
G01X6227079Y-1207773D01*
G01X6208087Y-1199955D01*
G01X6188014Y-1195607D01*
G01X6167489Y-1194866D01*
G01X6147154Y-1197755D01*
G01X6127648Y-1204183D01*
G01X6109580Y-1213949D01*
G01X6093516Y-1226747D01*
G01X6079960Y-1242177D01*
G01X6069337Y-1259754D01*
G01X6061978Y-1278929D01*
G01X6058114Y-1299101D01*
G01X6057867Y-1319638D01*
G01X6061244Y-1339897D01*
G01X6068140Y-1359243D01*
G01X6078338Y-1377071D01*
G01X6091519Y-1392822D01*
G01X6107270Y-1406003D01*
G01X6125098Y-1416201D01*
G01X6144444Y-1423097D01*
G01X6164703Y-1426474D01*
G01X6185240Y-1426227D01*
G01X6205412Y-1422363D01*
G01X6224587Y-1415004D01*
G01X6242164Y-1404381D01*
G01X6257594Y-1390825D01*
G01X6270392Y-1374761D01*
G01X6280158Y-1356693D01*
G01X6286586Y-1337186D01*
G01X6289475Y-1316852D01*
G01X6288734Y-1296327D01*
G01X6284386Y-1276254D01*
G01X6276568Y-1257261D01*
G01X6265525Y-1239945D01*
G01X6313747Y-1288167D01*
G01X6311546Y-1308624D01*
G01X6312993Y-1329148D01*
G01X6318041Y-1349095D01*
G01X6326532Y-1367836D01*
G01X6338199Y-1384783D01*
G01X6352676Y-1399404D01*
G01X6369507Y-1411239D01*
G01X6388163Y-1419915D01*
G01X6408059Y-1425160D01*
G01X6428568Y-1426810D01*
G01X6449046Y-1424811D01*
G01X6468849Y-1419228D01*
G01X6487355Y-1410236D01*
G01X6503982Y-1398117D01*
G01X6518208Y-1383252D01*
G01X6529585Y-1366109D01*
G01X6537757Y-1347225D01*
G01X6542465Y-1327196D01*
G01X6543562Y-1306650D01*
G01X6541013Y-1286233D01*
G01X6534899Y-1266588D01*
G01X6525412Y-1248330D01*
G01X6512850Y-1232035D01*
G01X6497608Y-1218214D01*
G01X6480164Y-1207302D01*
G01X6461068Y-1199642D01*
G01X6440919Y-1195475D01*
G01X6420351Y-1194931D01*
G01X6163074Y-937654D01*
G01X6462554Y-937654D01*
G01X6730352Y-1205452D01*
G01X6710036Y-1198249D01*
G01X6688740Y-1194927D01*
G01X6667196Y-1195601D01*
G01X6646148Y-1200247D01*
G01X6626323Y-1208705D01*
G01X6608404Y-1220684D01*
G01X6593009Y-1235769D01*
G01X6580669Y-1253442D01*
G01X6571810Y-1273091D01*
G01X6566737Y-1294040D01*
G01X6565626Y-1315566D01*
G01X6568514Y-1336925D01*
G01X6575303Y-1357383D01*
G01X6585758Y-1376232D01*
G01X6599518Y-1392822D01*
G01X6616108Y-1406582D01*
G01X6634957Y-1417037D01*
G01X6655414Y-1423826D01*
G01X6676774Y-1426714D01*
G01X6698300Y-1425603D01*
G01X6719249Y-1420530D01*
G01X6738898Y-1411671D01*
G01X6756571Y-1399331D01*
G01X6771656Y-1383936D01*
G01X6783635Y-1366017D01*
G01X6792093Y-1346192D01*
G01X6796739Y-1325144D01*
G01X6797413Y-1303600D01*
G01X6794091Y-1282304D01*
G01X6786888Y-1261988D01*
G01X6820518Y-1295618D01*
G01X6819653Y-1316189D01*
G01X6822437Y-1336589D01*
G01X6828782Y-1356177D01*
G01X6838488Y-1374335D01*
G01X6851250Y-1390491D01*
G01X6866667Y-1404139D01*
G01X6884253Y-1414847D01*
G01X6903454Y-1422279D01*
G01X6923667Y-1426201D01*
G01X6944254Y-1426489D01*
G01X6964568Y-1423135D01*
G01X6983970Y-1416244D01*
G01X7001849Y-1406032D01*
G01X7017642Y-1392822D01*
G01X7030852Y-1377029D01*
G01X7041063Y-1359151D01*
G01X7047954Y-1339749D01*
G01X7051309Y-1319434D01*
G01X7051020Y-1298847D01*
G01X7047098Y-1278635D01*
G01X7039666Y-1259433D01*
G01X7028958Y-1241848D01*
G01X7015311Y-1226431D01*
G01X6999154Y-1213668D01*
G01X6980996Y-1203962D01*
G01X6961409Y-1197617D01*
G01X6941009Y-1194833D01*
G01X6920437Y-1195698D01*
G01X6541779Y-817040D01*
G01X6531073Y-808253D01*
G01X6518858Y-801724D01*
G01X6505604Y-797704D01*
G01X6491820Y-796346D01*
G01X5855342Y-796346D01*
G01X5841558Y-797704D01*
G01X5828304Y-801724D01*
G01X5816089Y-808253D01*
G01X5805383Y-817040D01*
G01X5426725Y-1195698D01*
G01X5405504Y-1194865D01*
G01X5384487Y-1197913D01*
G01X5364377Y-1204740D01*
G01X5345848Y-1215118D01*
G01X5329520Y-1228697D01*
G01X5315940Y-1245025D01*
G01X5305563Y-1263554D01*
G01X5298736Y-1283664D01*
G01X5295688Y-1304681D01*
G01X5296521Y-1325902D01*
G01X5262891Y-1359531D01*
G01X5270094Y-1339216D01*
G01X5273416Y-1317919D01*
G01X5272742Y-1296376D01*
G01X5268096Y-1275328D01*
G01X5259638Y-1255503D01*
G01X5247659Y-1237584D01*
G01X5232574Y-1222188D01*
G01X5214901Y-1209848D01*
G01X5195252Y-1200989D01*
G01X5174303Y-1195917D01*
G01X5152777Y-1194806D01*
G01X5131418Y-1197694D01*
G01X5110960Y-1204483D01*
G01X5092111Y-1214937D01*
G01X5075521Y-1228697D01*
G01X5061761Y-1245288D01*
G01X5051306Y-1264137D01*
G01X5044517Y-1284594D01*
G01X5041629Y-1305954D01*
G01X5042740Y-1327480D01*
G01X5047813Y-1348429D01*
G01X5056672Y-1368078D01*
G01X5069012Y-1385750D01*
G01X5084407Y-1400836D01*
G01X5102326Y-1412815D01*
G01X5122151Y-1421273D01*
G01X5143199Y-1425919D01*
G01X5164743Y-1426593D01*
G01X5186039Y-1423271D01*
G01X5206355Y-1416068D01*
G01X4621917Y-2000506D01*
G01X4427054Y-2000506D01*
G01X4427054Y-2000506D01*
G01X4413072Y-1985141D01*
G01X4396590Y-1972495D01*
G01X4378128Y-1962967D01*
G01X4358272Y-1956859D01*
G01X4337647Y-1954364D01*
G01X4316907Y-1955560D01*
G01X4296706Y-1960410D01*
G01X4277683Y-1968761D01*
G01X4260440Y-1980349D01*
G01X4245521Y-1994806D01*
G01X4233398Y-2011677D01*
G01X4224455Y-2030429D01*
G01X4218973Y-2050467D01*
G01X4217126Y-2071160D01*
G01X3783454Y-2071160D01*
G01X3783454Y-1817160D01*
G01X4217126Y-1817160D01*
G01X4218973Y-1837853D01*
G01X4224455Y-1857891D01*
G01X4233398Y-1876643D01*
G01X4245521Y-1893514D01*
G01X4260440Y-1907971D01*
G01X4277683Y-1919559D01*
G01X4296706Y-1927910D01*
G01X4316907Y-1932760D01*
G01X4337647Y-1933956D01*
G01X4358272Y-1931461D01*
G01X4378128Y-1925353D01*
G01X4396590Y-1915825D01*
G01X4413072Y-1903179D01*
G01X4427054Y-1887814D01*
G01X4670040Y-1887814D01*
G01X4683824Y-1886456D01*
G01X4697078Y-1882436D01*
G01X4709293Y-1875907D01*
G01X4720000Y-1867120D01*
G01X5001205Y-1585915D01*
G01X5011948Y-1575449D01*
G01X5020258Y-1562963D01*
G01X5025767Y-1549013D01*
G01X5028229Y-1534218D01*
G01X5027535Y-1519236D01*
G01X5023716Y-1504732D01*
G01X5016942Y-1491351D01*
G01X5007513Y-1479686D01*
G01X4995849Y-1470258D01*
G01X4982468Y-1463484D01*
G01X4967964Y-1459665D01*
G01X4952982Y-1458971D01*
G01X4938187Y-1461433D01*
G01X4924237Y-1466942D01*
G01X4911751Y-1475252D01*
G01X4901285Y-1485995D01*
G01X4640774Y-1746506D01*
G01X4427054Y-1746506D01*
G01X4427054Y-1746506D01*
G01X4413072Y-1731141D01*
G01X4396590Y-1718495D01*
G01X4378128Y-1708967D01*
G01X4358272Y-1702859D01*
G01X4337647Y-1700364D01*
G01X4316907Y-1701560D01*
G01X4296706Y-1706410D01*
G01X4277683Y-1714761D01*
G01X4260440Y-1726349D01*
G01X4245521Y-1740806D01*
G01X4233398Y-1757677D01*
G01X4224455Y-1776429D01*
G01X4218973Y-1796467D01*
G01X4217126Y-1817160D01*
G01X3783454Y-1817160D01*
G01X3783454Y-1563160D01*
G01X4217126Y-1563160D01*
G01X4219116Y-1584632D01*
G01X4225017Y-1605372D01*
G01X4234629Y-1624676D01*
G01X4247624Y-1641884D01*
G01X4263560Y-1656411D01*
G01X4281894Y-1667763D01*
G01X4302001Y-1675553D01*
G01X4323198Y-1679515D01*
G01X4344762Y-1679515D01*
G01X4365959Y-1675553D01*
G01X4386066Y-1667763D01*
G01X4404400Y-1656411D01*
G01X4420336Y-1641884D01*
G01X4433331Y-1624676D01*
G01X4442943Y-1605372D01*
G01X4448844Y-1584632D01*
G01X4450834Y-1563160D01*
G01X4450834Y-1563160D01*
G01X4448844Y-1541688D01*
G01X4442943Y-1520947D01*
G01X4433331Y-1501644D01*
G01X4420336Y-1484436D01*
G01X4404400Y-1469908D01*
G01X4386066Y-1458557D01*
G01X4365959Y-1450767D01*
G01X4344762Y-1446804D01*
G01X4323198Y-1446804D01*
G01X4302001Y-1450767D01*
G01X4281894Y-1458557D01*
G01X4263560Y-1469908D01*
G01X4247624Y-1484436D01*
G01X4234629Y-1501644D01*
G01X4225017Y-1520947D01*
G01X4219116Y-1541688D01*
G01X4217126Y-1563160D01*
G01X3783454Y-1563160D01*
G01X3783454Y-1309160D01*
G01X4217126Y-1309160D01*
G01X4219116Y-1330632D01*
G01X4225017Y-1351372D01*
G01X4234629Y-1370676D01*
G01X4247624Y-1387884D01*
G01X4263560Y-1402411D01*
G01X4281894Y-1413763D01*
G01X4302001Y-1421553D01*
G01X4323198Y-1425515D01*
G01X4344762Y-1425515D01*
G01X4365959Y-1421553D01*
G01X4386066Y-1413763D01*
G01X4404400Y-1402411D01*
G01X4420336Y-1387884D01*
G01X4433331Y-1370676D01*
G01X4442943Y-1351372D01*
G01X4448844Y-1330632D01*
G01X4450686Y-1310760D01*
G01X4787530Y-1310760D01*
G01X4789506Y-1332085D01*
G01X4795367Y-1352683D01*
G01X4804913Y-1371854D01*
G01X4817819Y-1388945D01*
G01X4833645Y-1403373D01*
G01X4851854Y-1414647D01*
G01X4871824Y-1422383D01*
G01X4892875Y-1426319D01*
G01X4914292Y-1426319D01*
G01X4935343Y-1422383D01*
G01X4955313Y-1414647D01*
G01X4973522Y-1403373D01*
G01X4989348Y-1388945D01*
G01X5002254Y-1371854D01*
G01X5011801Y-1352683D01*
G01X5017661Y-1332085D01*
G01X5019637Y-1310760D01*
G01X5019637Y-1310760D01*
G01X5017661Y-1289435D01*
G01X5011801Y-1268836D01*
G01X5002254Y-1249665D01*
G01X4989348Y-1232575D01*
G01X4973522Y-1218147D01*
G01X4955313Y-1206873D01*
G01X4935343Y-1199136D01*
G01X4914292Y-1195201D01*
G01X4892875Y-1195201D01*
G01X4871824Y-1199136D01*
G01X4851854Y-1206873D01*
G01X4833645Y-1218147D01*
G01X4817819Y-1232575D01*
G01X4804913Y-1249665D01*
G01X4795367Y-1268836D01*
G01X4789506Y-1289435D01*
G01X4787530Y-1310760D01*
G01X4450686Y-1310760D01*
G01X4450834Y-1309160D01*
G01X4450834Y-1309160D01*
G01X4448844Y-1287688D01*
G01X4442943Y-1266947D01*
G01X4433331Y-1247644D01*
G01X4420336Y-1230436D01*
G01X4404400Y-1215908D01*
G01X4386066Y-1204557D01*
G01X4365959Y-1196767D01*
G01X4344762Y-1192804D01*
G01X4323198Y-1192804D01*
G01X4302001Y-1196767D01*
G01X4281894Y-1204557D01*
G01X4263560Y-1215908D01*
G01X4247624Y-1230436D01*
G01X4234629Y-1247644D01*
G01X4225017Y-1266947D01*
G01X4219116Y-1287688D01*
G01X4217126Y-1309160D01*
G01X3783454Y-1309160D01*
G01X3783454Y-1055160D01*
G01X4217126Y-1055160D01*
G01X4219116Y-1076632D01*
G01X4225017Y-1097372D01*
G01X4234629Y-1116676D01*
G01X4247624Y-1133884D01*
G01X4263560Y-1148411D01*
G01X4281894Y-1159763D01*
G01X4302001Y-1167553D01*
G01X4323198Y-1171515D01*
G01X4344762Y-1171515D01*
G01X4365959Y-1167553D01*
G01X4386066Y-1159763D01*
G01X4404400Y-1148411D01*
G01X4420336Y-1133884D01*
G01X4433331Y-1116676D01*
G01X4442943Y-1097372D01*
G01X4448844Y-1076632D01*
G01X4450834Y-1055160D01*
G01X4450834Y-1055160D01*
G01X4448844Y-1033688D01*
G01X4442943Y-1012947D01*
G01X4433331Y-993644D01*
G01X4420336Y-976436D01*
G01X4404400Y-961908D01*
G01X4386066Y-950557D01*
G01X4365959Y-942767D01*
G01X4344762Y-938804D01*
G01X4323198Y-938804D01*
G01X4302001Y-942767D01*
G01X4281894Y-950557D01*
G01X4263560Y-961908D01*
G01X4247624Y-976436D01*
G01X4234629Y-993644D01*
G01X4225017Y-1012947D01*
G01X4219116Y-1033688D01*
G01X4217126Y-1055160D01*
G01X3783454Y-1055160D01*
G01X3783454Y-947266D01*
G01X3986866Y-743854D01*
G01X4232142Y-743854D01*
G01X4223774Y-762307D01*
G01X4218719Y-781928D01*
G01X4217130Y-802128D01*
G01X4219054Y-822298D01*
G01X4224433Y-841833D01*
G01X4233106Y-860145D01*
G01X4244811Y-876683D01*
G01X4259198Y-890951D01*
G01X4275833Y-902519D01*
G01X4294216Y-911040D01*
G01X4313794Y-916257D01*
G01X4333980Y-918014D01*
G01X4354165Y-916257D01*
G01X4373744Y-911040D01*
G01X4392127Y-902519D01*
G01X4408762Y-890951D01*
G01X4423149Y-876683D01*
G01X4434854Y-860145D01*
G01X4443527Y-841833D01*
G01X4448906Y-822298D01*
G01X4450830Y-802128D01*
G01X4449240Y-781928D01*
G01X4444186Y-762307D01*
G01X4435817Y-743854D01*
G01X6553353Y-743854D01*
G01X7080535Y-1271036D01*
G01X7075217Y-1291016D01*
G01X7073528Y-1311623D01*
G01X7075523Y-1332202D01*
G01X7081138Y-1352101D01*
G01X7090195Y-1370688D01*
G01X7102407Y-1387372D01*
G01X7117385Y-1401625D01*
G01X7134654Y-1412994D01*
G01X7153667Y-1421118D01*
G01X7173820Y-1425739D01*
G01X7194473Y-1426710D01*
G01X7214971Y-1424002D01*
G01X7234663Y-1417699D01*
G01X7252923Y-1408002D01*
G01X7269174Y-1395218D01*
G01X7282897Y-1379754D01*
G01X7293659Y-1362100D01*
G01X7301118Y-1342816D01*
G01X7305036Y-1322515D01*
G01X7305290Y-1301840D01*
G01X7301870Y-1281449D01*
G01X7294887Y-1261988D01*
G01X7328517Y-1295618D01*
G01X7327652Y-1316189D01*
G01X7330436Y-1336589D01*
G01X7336781Y-1356177D01*
G01X7346487Y-1374335D01*
G01X7359249Y-1390491D01*
G01X7374666Y-1404139D01*
G01X7392252Y-1414847D01*
G01X7411453Y-1422279D01*
G01X7431666Y-1426201D01*
G01X7452253Y-1426489D01*
G01X7472567Y-1423135D01*
G01X7491969Y-1416244D01*
G01X7509848Y-1406032D01*
G01X7525641Y-1392822D01*
G01X7538851Y-1377029D01*
G01X7549062Y-1359151D01*
G01X7555953Y-1339749D01*
G01X7559308Y-1319434D01*
G01X7559186Y-1310760D01*
G01X7581524Y-1310760D01*
G01X7583500Y-1332085D01*
G01X7589361Y-1352683D01*
G01X7598907Y-1371854D01*
G01X7611813Y-1388945D01*
G01X7627640Y-1403373D01*
G01X7645848Y-1414647D01*
G01X7665818Y-1422383D01*
G01X7686870Y-1426319D01*
G01X7708286Y-1426319D01*
G01X7729338Y-1422383D01*
G01X7749308Y-1414647D01*
G01X7767516Y-1403373D01*
G01X7783343Y-1388945D01*
G01X7796249Y-1371854D01*
G01X7805795Y-1352683D01*
G01X7811656Y-1332085D01*
G01X7813632Y-1310760D01*
G01X7813632Y-1310760D01*
G01X7811656Y-1289435D01*
G01X7805795Y-1268836D01*
G01X7796249Y-1249665D01*
G01X7783343Y-1232575D01*
G01X7767516Y-1218147D01*
G01X7749308Y-1206873D01*
G01X7729338Y-1199136D01*
G01X7708286Y-1195201D01*
G01X7686870Y-1195201D01*
G01X7665818Y-1199136D01*
G01X7645848Y-1206873D01*
G01X7627640Y-1218147D01*
G01X7611813Y-1232575D01*
G01X7598907Y-1249665D01*
G01X7589361Y-1268836D01*
G01X7583500Y-1289435D01*
G01X7581524Y-1310760D01*
G01X7559186Y-1310760D01*
G01X7559019Y-1298847D01*
G01X7555097Y-1278635D01*
G01X7547665Y-1259433D01*
G01X7536957Y-1241848D01*
G01X7523310Y-1226431D01*
G01X7507153Y-1213668D01*
G01X7488995Y-1203962D01*
G01X7469408Y-1197617D01*
G01X7449008Y-1194833D01*
G01X7428436Y-1195698D01*
G01X7087879Y-855141D01*
G01X7099200Y-856054D01*
G01X7651334Y-856054D01*
G01X8001069Y-1205788D01*
G01X7980752Y-1198433D01*
G01X7959424Y-1194972D01*
G01X7937824Y-1195524D01*
G01X7916701Y-1200071D01*
G01X7896787Y-1208454D01*
G01X7878772Y-1220384D01*
G01X7863280Y-1235447D01*
G01X7850850Y-1253120D01*
G01X7841910Y-1272791D01*
G01X7836773Y-1293778D01*
G01X7835615Y-1315354D01*
G01X7838476Y-1336771D01*
G01X7845258Y-1357286D01*
G01X7855725Y-1376188D01*
G01X7869515Y-1392822D01*
G01X7886149Y-1406612D01*
G01X7905052Y-1417079D01*
G01X7925567Y-1423861D01*
G01X7946983Y-1426723D01*
G01X7968559Y-1425565D01*
G01X7989547Y-1420427D01*
G01X8009218Y-1411488D01*
G01X8026891Y-1399057D01*
G01X8041953Y-1383566D01*
G01X8053883Y-1365551D01*
G01X8062267Y-1345636D01*
G01X8066813Y-1324513D01*
G01X8067366Y-1302913D01*
G01X8063904Y-1281585D01*
G01X8056549Y-1261269D01*
G01X8090560Y-1295279D01*
G01X8089635Y-1315848D01*
G01X8092358Y-1336256D01*
G01X8098646Y-1355862D01*
G01X8108299Y-1374049D01*
G01X8121014Y-1390243D01*
G01X8136390Y-1403935D01*
G01X8153944Y-1414695D01*
G01X8173123Y-1422184D01*
G01X8193324Y-1426165D01*
G01X8213911Y-1426514D01*
G01X8234235Y-1423220D01*
G01X8253657Y-1416386D01*
G01X8271566Y-1406227D01*
G01X8287397Y-1393064D01*
G01X8300654Y-1377310D01*
G01X8310918Y-1359461D01*
G01X8317866Y-1340080D01*
G01X8321280Y-1319775D01*
G01X8321052Y-1299187D01*
G01X8317190Y-1278963D01*
G01X8309815Y-1259740D01*
G01X8299158Y-1242123D01*
G01X8285557Y-1226666D01*
G01X8269437Y-1213856D01*
G01X8251308Y-1204096D01*
G01X8231740Y-1197694D01*
G01X8211348Y-1194850D01*
G01X8190774Y-1195654D01*
G01X7730560Y-735440D01*
G01X7719853Y-726653D01*
G01X7707638Y-720124D01*
G01X7694384Y-716104D01*
G01X7680600Y-714746D01*
G01X7128466Y-714746D01*
G01X6817660Y-403940D01*
G01X6812859Y-400000D01*
G01X7809346Y-400000D01*
G01X7811311Y-433743D01*
G01X7817181Y-467029D01*
G01X7826875Y-499409D01*
G01X7840262Y-530445D01*
G01X7857162Y-559717D01*
G01X7877346Y-586829D01*
G01X7900541Y-611414D01*
G01X7926434Y-633140D01*
G01X7954673Y-651714D01*
G01X7984878Y-666883D01*
G01X8016640Y-678443D01*
G01X8049529Y-686238D01*
G01X8083100Y-690162D01*
G01X8116900Y-690162D01*
G01X8150472Y-686238D01*
G01X8183361Y-678443D01*
G01X8215122Y-666883D01*
G01X8245327Y-651714D01*
G01X8273567Y-633140D01*
G01X8299459Y-611414D01*
G01X8322654Y-586829D01*
G01X8342838Y-559717D01*
G01X8359738Y-530445D01*
G01X8373125Y-499409D01*
G01X8382819Y-467029D01*
G01X8388689Y-433743D01*
G01X8390654Y-400000D01*
G01X8388689Y-366257D01*
G01X8382819Y-332971D01*
G01X8373125Y-300590D01*
G01X8359738Y-269555D01*
G01X8342838Y-240283D01*
G01X8322654Y-213171D01*
G01X8299459Y-188586D01*
G01X8273567Y-166860D01*
G01X8245327Y-148286D01*
G01X8215122Y-133117D01*
G01X8183361Y-121556D01*
G01X8150472Y-113762D01*
G01X8116900Y-109838D01*
G01X8083100Y-109838D01*
G01X8049529Y-113762D01*
G01X8016640Y-121556D01*
G01X7984878Y-133117D01*
G01X7954673Y-148286D01*
G01X7926434Y-166860D01*
G01X7900541Y-188586D01*
G01X7877346Y-213171D01*
G01X7857162Y-240283D01*
G01X7840262Y-269555D01*
G01X7826875Y-300590D01*
G01X7817181Y-332971D01*
G01X7811311Y-366257D01*
G01X7809346Y-400000D01*
G01X7809346Y-400000D01*
G01X6812859Y-400000D01*
G01X6806953Y-395153D01*
G01X6794738Y-388624D01*
G01X6781484Y-384604D01*
G01X6767700Y-383246D01*
G01X4374466Y-383246D01*
G01X4303360Y-312140D01*
G01X4292653Y-303353D01*
G01X4280438Y-296824D01*
G01X4267184Y-292804D01*
G01X4253400Y-291446D01*
G01X3852739Y-291446D01*
G01X3838955Y-292804D01*
G01X3825700Y-296824D01*
G01X3813485Y-303354D01*
G01X3802779Y-312140D01*
G01X3741873Y-373046D01*
G01X2172600Y-373046D01*
G01X2158816Y-374404D01*
G01X2145562Y-378424D01*
G01X2133347Y-384953D01*
G01X2122640Y-393740D01*
G01X1796240Y-720140D01*
G01X1787453Y-730847D01*
G01X1780924Y-743062D01*
G01X1776904Y-756316D01*
G01X1775546Y-770100D01*
G01X1775546Y-2339373D01*
G01X1412735Y-2702184D01*
G01X1412735Y-2614260D01*
G01X1411357Y-2603767D01*
G01X1407318Y-2593985D01*
G01X1400891Y-2585577D01*
G01X1392512Y-2579113D01*
G01X1409825Y-2575009D01*
G01X1425818Y-2567208D01*
G01X1439711Y-2556091D01*
G01X1628411Y-2367391D01*
G01X1638441Y-2355169D01*
G01X1645894Y-2341225D01*
G01X1650484Y-2326095D01*
G01X1652034Y-2310360D01*
G01X1652034Y-1152660D01*
G01X1650484Y-1136925D01*
G01X1645894Y-1121795D01*
G01X1638441Y-1107851D01*
G01X1628411Y-1095629D01*
G01X1439711Y-906929D01*
G01X1427489Y-896899D01*
G01X1413545Y-889445D01*
G01X1398415Y-884856D01*
G01X1382680Y-883306D01*
G01X1060104Y-883306D01*
G01X1042679Y-875562D01*
G01X1024219Y-870786D01*
G01X1005226Y-869108D01*
G01X986214Y-870574D01*
G01X967702Y-875143D01*
G01X950193Y-882692D01*
G01X934161Y-893016D01*
G01X920044Y-905833D01*
G01X917157Y-894245D01*
G01X911028Y-883996D01*
G01X902186Y-875970D01*
G01X891392Y-870860D01*
G01X879580Y-869106D01*
G01X729580Y-869106D01*
G01X717018Y-871096D01*
G01X705685Y-876870D01*
G01X696691Y-885864D01*
G01X690916Y-897197D01*
G01X688926Y-909760D01*
G01X688926Y-1059760D01*
G01X690916Y-1072323D01*
G01X696691Y-1083656D01*
G01X705685Y-1092650D01*
G01X717018Y-1098424D01*
G01X729580Y-1100414D01*
G01X734113Y-1100414D01*
G01X737300Y-1116853D01*
G01X744266Y-1132080D01*
G01X754620Y-1145240D01*
G01X833926Y-1224546D01*
G01X833926Y-1373728D01*
G01X822141Y-1376450D01*
G01X811678Y-1382519D01*
G01X803464Y-1391397D01*
G01X798225Y-1402299D01*
G01X796426Y-1414260D01*
G01X796426Y-1433846D01*
G01X722422Y-1433846D01*
G01X707425Y-1433650D01*
G01X692720Y-1436603D01*
G01X678960Y-1442572D01*
G01X666758Y-1451292D01*
G01X656654Y-1462377D01*
G01X649099Y-1475333D01*
G01X644427Y-1489585D01*
G01X642846Y-1504500D01*
G01X644427Y-1519415D01*
G01X649099Y-1533667D01*
G01X656654Y-1546623D01*
G01X666758Y-1557708D01*
G01X678960Y-1566428D01*
G01X692720Y-1572397D01*
G01X707425Y-1575349D01*
G01X722422Y-1575154D01*
G01X801626Y-1575154D01*
G01X809106Y-1584760D01*
G01X802237Y-1593313D01*
G01X797906Y-1603390D01*
G01X796426Y-1614259D01*
G01X796426Y-1755260D01*
G01X798415Y-1767823D01*
G01X804190Y-1779156D01*
G01X813184Y-1788150D01*
G01X824517Y-1793924D01*
G01X837080Y-1795914D01*
G01X972081Y-1795914D01*
G01X984643Y-1793924D01*
G01X995976Y-1788150D01*
G01X1004970Y-1779156D01*
G01X1010745Y-1767823D01*
G01X1012735Y-1755260D01*
G01X1012735Y-1614259D01*
G01X1011255Y-1603390D01*
G01X1006923Y-1593313D01*
G01X1000054Y-1584760D01*
G01X1006923Y-1576207D01*
G01X1011255Y-1566129D01*
G01X1012735Y-1555260D01*
G01X1012735Y-1414260D01*
G01X1010935Y-1402299D01*
G01X1005697Y-1391397D01*
G01X997482Y-1382519D01*
G01X987019Y-1376450D01*
G01X975234Y-1373728D01*
G01X975234Y-1195280D01*
G01X973876Y-1181496D01*
G01X969856Y-1168242D01*
G01X963327Y-1156027D01*
G01X954540Y-1145320D01*
G01X902534Y-1093314D01*
G01X911205Y-1085306D01*
G01X917210Y-1075145D01*
G01X920044Y-1063687D01*
G01X935973Y-1077867D01*
G01X954234Y-1088881D01*
G01X974207Y-1096354D01*
G01X995213Y-1100034D01*
G01X1016537Y-1099794D01*
G01X1037455Y-1095643D01*
G01X1057254Y-1087722D01*
G01X1075263Y-1076300D01*
G01X1090869Y-1061766D01*
G01X1103541Y-1044614D01*
G01X1349272Y-1044614D01*
G01X1490726Y-1186068D01*
G01X1490726Y-1452006D01*
G01X1467760Y-1429040D01*
G01X1457053Y-1420254D01*
G01X1444838Y-1413724D01*
G01X1431584Y-1409704D01*
G01X1417800Y-1408346D01*
G01X1412302Y-1408346D01*
G01X1409018Y-1397277D01*
G01X1402754Y-1387579D01*
G01X1394016Y-1380032D01*
G01X1383509Y-1375245D01*
G01X1372081Y-1373606D01*
G01X1237080Y-1373606D01*
G01X1224517Y-1375596D01*
G01X1213184Y-1381370D01*
G01X1204190Y-1390364D01*
G01X1198415Y-1401697D01*
G01X1196426Y-1414260D01*
G01X1196426Y-1555260D01*
G01X1197905Y-1566129D01*
G01X1202237Y-1576207D01*
G01X1209106Y-1584760D01*
G01X1202237Y-1593313D01*
G01X1197905Y-1603390D01*
G01X1196426Y-1614259D01*
G01X1196426Y-1755260D01*
G01X1198415Y-1767823D01*
G01X1204190Y-1779156D01*
G01X1213184Y-1788150D01*
G01X1224517Y-1793924D01*
G01X1237080Y-1795914D01*
G01X1372081Y-1795914D01*
G01X1382960Y-1794431D01*
G01X1393046Y-1790091D01*
G01X1393046Y-2036652D01*
G01X1237347Y-2036652D01*
G01X1226296Y-2038183D01*
G01X1216078Y-2042659D01*
G01X1207461Y-2049745D01*
G01X1201095Y-2058906D01*
G01X1106572Y-2058906D01*
G01X1111855Y-2050972D01*
G01X1115146Y-2042026D01*
G01X1116264Y-2032560D01*
G01X1116264Y-1972560D01*
G01X1114274Y-1959997D01*
G01X1108500Y-1948664D01*
G01X1099506Y-1939670D01*
G01X1088173Y-1933896D01*
G01X1075610Y-1931906D01*
G01X1044876Y-1931906D01*
G01X959121Y-1846151D01*
G01X949091Y-1832794D01*
G01X936224Y-1822143D01*
G01X921229Y-1814785D01*
G01X904932Y-1811126D01*
G01X888230Y-1811367D01*
G01X872045Y-1815494D01*
G01X857268Y-1823282D01*
G01X844714Y-1834299D01*
G01X835074Y-1847939D01*
G01X828879Y-1863451D01*
G01X826472Y-1879980D01*
G01X827984Y-1896615D01*
G01X831887Y-1910507D01*
G01X838532Y-1923317D01*
G01X847640Y-1934510D01*
G01X914956Y-2001826D01*
G01X914956Y-2032560D01*
G01X916142Y-2042307D01*
G01X919630Y-2051486D01*
G01X925218Y-2059560D01*
G01X932578Y-2066060D01*
G01X925218Y-2072559D01*
G01X919630Y-2080634D01*
G01X916142Y-2089813D01*
G01X914956Y-2099560D01*
G01X914956Y-2159560D01*
G01X916142Y-2169307D01*
G01X919630Y-2178486D01*
G01X925218Y-2186560D01*
G01X932578Y-2193060D01*
G01X925218Y-2199559D01*
G01X919630Y-2207634D01*
G01X916142Y-2216813D01*
G01X914956Y-2226560D01*
G01X914956Y-2286560D01*
G01X916142Y-2296307D01*
G01X919630Y-2305486D01*
G01X925218Y-2313560D01*
G01X932578Y-2320060D01*
G01X925218Y-2326559D01*
G01X919630Y-2334634D01*
G01X916142Y-2343813D01*
G01X914956Y-2353560D01*
G01X914956Y-2413560D01*
G01X916946Y-2426123D01*
G01X922720Y-2437456D01*
G01X931714Y-2446450D01*
G01X943047Y-2452224D01*
G01X955610Y-2454214D01*
G01X1075610Y-2454214D01*
G01X1088173Y-2452224D01*
G01X1099506Y-2446450D01*
G01X1108500Y-2437456D01*
G01X1114274Y-2426123D01*
G01X1116264Y-2413560D01*
G01X1116264Y-2353560D01*
G01X1114329Y-2341167D01*
G01X1108708Y-2329954D01*
G01X1123334Y-2329954D01*
G01X1125641Y-2332260D01*
G01X1136347Y-2341047D01*
G01X1148562Y-2347576D01*
G01X1161816Y-2351597D01*
G01X1175600Y-2352954D01*
G01X1205809Y-2352954D01*
G01X1214663Y-2361037D01*
G01X1225489Y-2366187D01*
G01X1237347Y-2367954D01*
G01X1397346Y-2367954D01*
G01X1399798Y-2367880D01*
G01X1349272Y-2418406D01*
G01X1193980Y-2418406D01*
G01X1178245Y-2419956D01*
G01X1163115Y-2424545D01*
G01X1149171Y-2431999D01*
G01X1136949Y-2442029D01*
G01X1078410Y-2500568D01*
G01X1068379Y-2512790D01*
G01X1060926Y-2526734D01*
G01X1056336Y-2541865D01*
G01X1054786Y-2557599D01*
G01X1054786Y-2763891D01*
G01X1014573Y-2804105D01*
G01X1011446Y-2804105D01*
G01X1007112Y-2793631D01*
G01X1000054Y-2784760D01*
G01X1006923Y-2776207D01*
G01X1011255Y-2766129D01*
G01X1012735Y-2755260D01*
G01X1012735Y-2614260D01*
G01X1010745Y-2601697D01*
G01X1004970Y-2590364D01*
G01X995976Y-2581370D01*
G01X984643Y-2575595D01*
G01X972081Y-2573606D01*
G01X837080Y-2573606D01*
G01X824517Y-2575595D01*
G01X813184Y-2581370D01*
G01X804190Y-2590364D01*
G01X798415Y-2601697D01*
G01X796426Y-2614260D01*
G01X796426Y-2755260D01*
G01X797906Y-2766129D01*
G01X802237Y-2776207D01*
G01X809106Y-2784760D01*
G01X802237Y-2793312D01*
G01X797906Y-2803390D01*
G01X796426Y-2814259D01*
G01X796426Y-2885923D01*
G01X636137Y-3046212D01*
G01X619583Y-3046212D01*
G01X616072Y-3046363D01*
G01X580234Y-3010525D01*
G01X580234Y-2849759D01*
G01X578623Y-2834230D01*
G01X573859Y-2819363D01*
G01X566145Y-2805790D01*
G01X555810Y-2794090D01*
G01X543292Y-2784760D01*
G01X556489Y-2774797D01*
G01X567206Y-2762205D01*
G01X574931Y-2747585D01*
G01X579295Y-2731637D01*
G01X726583Y-2584350D01*
G01X743918Y-2581313D01*
G01X760340Y-2574983D01*
G01X775230Y-2565600D01*
G01X788026Y-2553516D01*
G01X798246Y-2539188D01*
G01X805505Y-2523155D01*
G01X809529Y-2506021D01*
G01X810166Y-2488433D01*
G01X807393Y-2471053D01*
G01X801314Y-2454537D01*
G01X792159Y-2439506D01*
G01X780271Y-2426528D01*
G01X766100Y-2416091D01*
G01X750179Y-2408589D01*
G01X733109Y-2404305D01*
G01X715533Y-2403400D01*
G01X698112Y-2405908D01*
G01X681505Y-2411735D01*
G01X666337Y-2420661D01*
G01X653179Y-2432350D01*
G01X642528Y-2446360D01*
G01X634785Y-2462165D01*
G01X451084Y-2645866D01*
G01X441676Y-2657330D01*
G01X434685Y-2670409D01*
G01X430380Y-2684601D01*
G01X428926Y-2699359D01*
G01X428925Y-2719759D01*
G01X430536Y-2735288D01*
G01X435300Y-2750156D01*
G01X443014Y-2763729D01*
G01X453349Y-2775430D01*
G01X465867Y-2784760D01*
G01X453350Y-2794090D01*
G01X443014Y-2805790D01*
G01X435300Y-2819363D01*
G01X430537Y-2834230D01*
G01X428926Y-2849759D01*
G01X428926Y-3041862D01*
G01X430380Y-3056621D01*
G01X434685Y-3070814D01*
G01X441676Y-3083893D01*
G01X451084Y-3095358D01*
G01X578929Y-3223202D01*
G01X578929Y-3263451D01*
G01X358895Y-3483485D01*
G01X348152Y-3493951D01*
G01X339842Y-3506437D01*
G01X334333Y-3520387D01*
G01X331871Y-3535182D01*
G01X50854Y-3535182D01*
G01X50854Y-2051946D01*
G01X185221Y-2051946D01*
G01X186391Y-2070836D01*
G01X191457Y-2089071D01*
G01X200199Y-2105857D01*
G01X212236Y-2120462D01*
G01X227043Y-2132249D01*
G01X243974Y-2140706D01*
G01X262293Y-2145462D01*
G01X281199Y-2146311D01*
G01X299870Y-2143217D01*
G01X317492Y-2136313D01*
G01X333296Y-2125900D01*
G01X333296Y-2159560D01*
G01X334482Y-2169307D01*
G01X337970Y-2178486D01*
G01X343558Y-2186560D01*
G01X350918Y-2193060D01*
G01X343558Y-2199559D01*
G01X337970Y-2207634D01*
G01X334482Y-2216813D01*
G01X333296Y-2226560D01*
G01X333296Y-2286560D01*
G01X334482Y-2296307D01*
G01X337970Y-2305486D01*
G01X343558Y-2313560D01*
G01X350918Y-2320060D01*
G01X343558Y-2326559D01*
G01X337970Y-2334634D01*
G01X334482Y-2343813D01*
G01X333296Y-2353560D01*
G01X333296Y-2413560D01*
G01X335286Y-2426123D01*
G01X341060Y-2437456D01*
G01X350054Y-2446450D01*
G01X361387Y-2452224D01*
G01X373950Y-2454214D01*
G01X493950Y-2454214D01*
G01X506513Y-2452224D01*
G01X517846Y-2446450D01*
G01X526840Y-2437456D01*
G01X532614Y-2426123D01*
G01X534604Y-2413560D01*
G01X534604Y-2353560D01*
G01X533418Y-2343813D01*
G01X529930Y-2334634D01*
G01X524343Y-2326559D01*
G01X516982Y-2320060D01*
G01X524343Y-2313560D01*
G01X529930Y-2305486D01*
G01X533418Y-2296307D01*
G01X534604Y-2286560D01*
G01X534604Y-2226560D01*
G01X533418Y-2216813D01*
G01X529930Y-2207634D01*
G01X524343Y-2199559D01*
G01X516982Y-2193060D01*
G01X524343Y-2186560D01*
G01X529930Y-2178486D01*
G01X533418Y-2169307D01*
G01X534604Y-2159560D01*
G01X534604Y-2099560D01*
G01X533418Y-2089813D01*
G01X529930Y-2080634D01*
G01X524343Y-2072559D01*
G01X516982Y-2066060D01*
G01X524343Y-2059560D01*
G01X529930Y-2051486D01*
G01X533418Y-2042307D01*
G01X534604Y-2032560D01*
G01X534604Y-2028060D01*
G01X564126Y-2028060D01*
G01X564126Y-2358060D01*
G01X566116Y-2370622D01*
G01X571891Y-2381955D01*
G01X580885Y-2390949D01*
G01X592218Y-2396724D01*
G01X604780Y-2398714D01*
G01X844780Y-2398714D01*
G01X844780Y-2398714D01*
G01X857343Y-2396724D01*
G01X868676Y-2390949D01*
G01X877670Y-2381955D01*
G01X883444Y-2370622D01*
G01X885434Y-2358060D01*
G01X885434Y-2028060D01*
G01X883444Y-2015497D01*
G01X877670Y-2004164D01*
G01X868676Y-1995170D01*
G01X857343Y-1989396D01*
G01X844780Y-1987406D01*
G01X604780Y-1987406D01*
G01X592218Y-1989396D01*
G01X580885Y-1995170D01*
G01X571891Y-2004164D01*
G01X566116Y-2015497D01*
G01X564126Y-2028060D01*
G01X534604Y-2028060D01*
G01X534604Y-1972560D01*
G01X532614Y-1959997D01*
G01X526840Y-1948664D01*
G01X517846Y-1939670D01*
G01X506513Y-1933896D01*
G01X493950Y-1931906D01*
G01X460997Y-1931906D01*
G01X447703Y-1928166D01*
G01X433950Y-1926906D01*
G01X346054Y-1926906D01*
G01X346054Y-1594966D01*
G01X385606Y-1555414D01*
G01X396426Y-1555414D01*
G01X397933Y-1566228D01*
G01X402264Y-1576251D01*
G01X409106Y-1584760D01*
G01X402237Y-1593313D01*
G01X397905Y-1603390D01*
G01X396425Y-1614259D01*
G01X396425Y-1755260D01*
G01X398415Y-1767823D01*
G01X404190Y-1779156D01*
G01X413184Y-1788150D01*
G01X424517Y-1793924D01*
G01X437079Y-1795914D01*
G01X572080Y-1795914D01*
G01X584643Y-1793924D01*
G01X595976Y-1788150D01*
G01X604970Y-1779156D01*
G01X610745Y-1767823D01*
G01X612734Y-1755260D01*
G01X612734Y-1614259D01*
G01X611254Y-1603390D01*
G01X606923Y-1593313D01*
G01X600054Y-1584760D01*
G01X606923Y-1576207D01*
G01X611254Y-1566129D01*
G01X612734Y-1555260D01*
G01X612734Y-1414260D01*
G01X610745Y-1401697D01*
G01X604970Y-1390364D01*
G01X595976Y-1381370D01*
G01X584643Y-1375596D01*
G01X572080Y-1373606D01*
G01X437079Y-1373606D01*
G01X424546Y-1375586D01*
G01X413233Y-1381334D01*
G01X404244Y-1390289D01*
G01X398453Y-1401580D01*
G01X396426Y-1414106D01*
G01X356340Y-1414106D01*
G01X342556Y-1415464D01*
G01X329302Y-1419484D01*
G01X317087Y-1426013D01*
G01X306380Y-1434800D01*
G01X225440Y-1515740D01*
G01X216653Y-1526447D01*
G01X210124Y-1538662D01*
G01X206104Y-1551916D01*
G01X204746Y-1565700D01*
G01X204746Y-1999511D01*
G01X204746Y-1999511D01*
G01X194603Y-2015489D01*
G01X187999Y-2033225D01*
G01X185221Y-2051946D01*
G01X50854Y-2051946D01*
G01X50854Y-400000D01*
G01X109346Y-400000D01*
G01X109346Y-400000D01*
G01X111311Y-433743D01*
G01X117181Y-467029D01*
G01X126875Y-499409D01*
G01X140262Y-530445D01*
G01X157162Y-559717D01*
G01X177346Y-586829D01*
G01X200541Y-611414D01*
G01X226433Y-633140D01*
G01X254673Y-651714D01*
G01X284878Y-666883D01*
G01X316639Y-678443D01*
G01X349528Y-686238D01*
G01X383100Y-690162D01*
G01X416900Y-690162D01*
G01X450471Y-686238D01*
G01X483360Y-678443D01*
G01X515122Y-666883D01*
G01X545327Y-651714D01*
G01X573566Y-633140D01*
G01X599459Y-611414D01*
G01X622654Y-586829D01*
G01X642838Y-559717D01*
G01X659738Y-530445D01*
G01X673125Y-499409D01*
G01X682819Y-467029D01*
G01X688689Y-433743D01*
G01X690654Y-400000D01*
G01X688689Y-366257D01*
G01X682819Y-332971D01*
G01X673125Y-300590D01*
G01X659738Y-269555D01*
G01X642838Y-240283D01*
G01X622654Y-213171D01*
G01X599459Y-188586D01*
G01X573566Y-166860D01*
G01X545327Y-148286D01*
G01X515122Y-133117D01*
G01X483360Y-121556D01*
G01X450471Y-113762D01*
G01X416900Y-109838D01*
G01X383100Y-109838D01*
G01X349528Y-113762D01*
G01X316639Y-121556D01*
G01X284878Y-133117D01*
G01X254673Y-148286D01*
G01X226433Y-166860D01*
G01X200541Y-188586D01*
G01X177346Y-213171D01*
G01X157162Y-240283D01*
G01X140262Y-269555D01*
G01X126875Y-300590D01*
G01X117181Y-332971D01*
G01X111311Y-366257D01*
G01X109346Y-400000D01*
G01X50854Y-400000D01*
G01X50854Y-189800D01*
G37*
G36*
G01X1000234Y-3336865D02*
G01X1000234Y-3086866D01*
G01X1038923Y-3086866D01*
G01X1038923Y-3336865D01*
G01X1040913Y-3349428D01*
G01X1046687Y-3360761D01*
G01X1055681Y-3369755D01*
G01X1067014Y-3375529D01*
G01X1079577Y-3377519D01*
G01X1189577Y-3377519D01*
G01X1189577Y-3377519D01*
G01X1202140Y-3375529D01*
G01X1213473Y-3369755D01*
G01X1222467Y-3360761D01*
G01X1228241Y-3349428D01*
G01X1230231Y-3336865D01*
G01X1230231Y-3086866D01*
G01X1228241Y-3074303D01*
G01X1222467Y-3062970D01*
G01X1213473Y-3053976D01*
G01X1202140Y-3048201D01*
G01X1189577Y-3046212D01*
G01X1079577Y-3046212D01*
G01X1067014Y-3048201D01*
G01X1055681Y-3053976D01*
G01X1046687Y-3062970D01*
G01X1040913Y-3074303D01*
G01X1038923Y-3086866D01*
G01X1000234Y-3086866D01*
G01X998244Y-3074303D01*
G01X992470Y-3062970D01*
G01X983476Y-3053976D01*
G01X972143Y-3048201D01*
G01X959580Y-3046212D01*
G01X850119Y-3046212D01*
G01X900417Y-2995914D01*
G01X972081Y-2995914D01*
G01X982676Y-2994509D01*
G01X992539Y-2990391D01*
G01X1000989Y-2983844D01*
G01X1007439Y-2975322D01*
G01X1011446Y-2965413D01*
G01X1047981Y-2965413D01*
G01X1063715Y-2963864D01*
G01X1078846Y-2959274D01*
G01X1092790Y-2951821D01*
G01X1105012Y-2941790D01*
G01X1192471Y-2854330D01*
G01X1196426Y-2850081D01*
G01X1196426Y-2955260D01*
G01X1198225Y-2967221D01*
G01X1203464Y-2978123D01*
G01X1211678Y-2987001D01*
G01X1222141Y-2993070D01*
G01X1233926Y-2995791D01*
G01X1233926Y-3376591D01*
G01X975234Y-3635283D01*
G01X975234Y-3374384D01*
G01X985431Y-3368241D01*
G01X993412Y-3359408D01*
G01X998491Y-3348641D01*
G01X1000234Y-3336865D01*
G37*
G54D10*
G01X50854Y-189800D02*
G02X210200Y-30454I159346J0D01*
G01X8310200Y-30454D01*
G02X8469546Y-189800I0J-159346D01*
G01X8469546Y-6789800D01*
G02X8310200Y-6949146I-159346J0D01*
G01X210200Y-6949146D01*
G02X50854Y-6789800I0J159346D01*
G01X50854Y-189800D01*
G01X109346Y-400000D02*
G03X690654Y-400000I290654J0D01*
G03X109346Y-400000I-290654J0D01*
G01X109346Y-6600000D02*
G03X690654Y-6600000I290654J0D01*
G03X109346Y-6600000I-290654J0D01*
G01X204746Y-1999511D02*
G03X212236Y-2120462I71046J-56308D01*
G03X333296Y-2125900I63556J64643D01*
G01X333296Y-2159560D01*
G03X350918Y-2193060I40654J0D01*
G03X333296Y-2226560I23032J-33500D01*
G01X333296Y-2286560D01*
G03X350918Y-2320060I40654J0D01*
G03X333296Y-2353560I23032J-33500D01*
G01X333296Y-2413560D01*
G03X373950Y-2454214I40654J0D01*
G01X493950Y-2454214D01*
G03X534604Y-2413560I0J40654D01*
G01X534604Y-2353560D01*
G03X516982Y-2320060I-40654J0D01*
G03X534604Y-2286560I-23032J33500D01*
G01X534604Y-2226560D01*
G03X516982Y-2193060I-40654J0D01*
G03X534604Y-2159560I-23032J33500D01*
G01X534604Y-2099560D01*
G03X516982Y-2066060I-40654J0D01*
G03X534604Y-2032560I-23032J33500D01*
G01X534604Y-1972560D01*
G03X493950Y-1931906I-40654J0D01*
G01X460997Y-1931906D01*
G03X433950Y-1926906I-27047J-70654D01*
G01X346054Y-1926906D01*
G01X346054Y-1594966D01*
G01X385606Y-1555414D01*
G01X396426Y-1555414D01*
G03X409106Y-1584760I40654J154D01*
G03X396425Y-1614259I27974J-29500D01*
G01X396425Y-1755260D01*
G03X437079Y-1795914I40654J0D01*
G01X572080Y-1795914D01*
G03X612734Y-1755260I0J40654D01*
G01X612734Y-1614259D01*
G03X600054Y-1584760I-40654J0D01*
G03X612734Y-1555260I-27974J29500D01*
G01X612734Y-1414260D01*
G03X572080Y-1373606I-40654J0D01*
G01X437079Y-1373606D01*
G03X396426Y-1414106I0J-40654D01*
G01X356340Y-1414106D01*
G03X306380Y-1434800I0J-70654D01*
G01X225440Y-1515740D01*
G03X204746Y-1565700I49960J-49960D01*
G01X204746Y-1999511D01*
G01X352586Y-3589714D02*
G03X458815Y-3583405I50314J50314D01*
G01X664701Y-3377519D01*
G01X729583Y-3377519D01*
G03X770237Y-3336865I0J40654D01*
G01X770237Y-3126094D01*
G01X808926Y-3087404D01*
G01X808926Y-3336865D01*
G03X833926Y-3374384I40654J0D01*
G01X833926Y-3648203D01*
G01X724580Y-3648203D01*
G03X683926Y-3688857I0J-40654D01*
G01X683926Y-3922857D01*
G03X724580Y-3963511I40654J0D01*
G01X1084580Y-3963511D01*
G03X1125234Y-3922857I0J40654D01*
G01X1125234Y-3688857D01*
G03X1125076Y-3685281I-40654J0D01*
G01X1354540Y-3455817D01*
G03X1375234Y-3405857I-49960J49960D01*
G01X1375234Y-2995791D01*
G03X1412735Y-2955260I-3153J40531D01*
G01X1412735Y-2902024D01*
G01X1455544Y-2859215D01*
G03X1466262Y-2850420I-39242J58754D01*
G01X1492740Y-2823943D01*
G03X1501534Y-2813224I-49960J49960D01*
G01X1896160Y-2418599D01*
G03X1916617Y-2374421I-49960J49960D01*
G03X2139434Y-2325440I105963J49261D01*
G03X1916854Y-2275392I-116854J280D01*
G01X1916854Y-2120928D01*
G03X2139434Y-2071160I105726J49768D01*
G03X1916854Y-2021392I-116854J0D01*
G01X1916854Y-1866928D01*
G03X2139434Y-1817160I105726J49768D01*
G03X1916854Y-1767392I-116854J0D01*
G01X1916854Y-1612928D01*
G03X2139434Y-1563160I105726J49768D01*
G03X1916854Y-1513392I-116854J0D01*
G01X1916854Y-1358928D01*
G03X2139434Y-1309160I105726J49768D01*
G03X1916854Y-1259392I-116854J0D01*
G01X1916854Y-1104928D01*
G03X2139434Y-1055160I105726J49768D01*
G03X1916854Y-1005392I-116854J0D01*
G01X1916854Y-850928D01*
G03X2118765Y-867518I105726J49768D01*
G03X2031568Y-684652I-96185J66358D01*
G01X2201866Y-514354D01*
G01X3736027Y-514354D01*
G01X3479240Y-771140D01*
G03X3458546Y-821100I49960J-49960D01*
G01X3458546Y-4065479D01*
G03X3479240Y-4115439I70654J0D01*
G01X4217672Y-4853872D01*
G03X4419748Y-4944524I116307J-11288D01*
G03X4313717Y-4750076I-85769J79364D01*
G01X4276591Y-4712951D01*
G03X4440890Y-4563990I57389J101791D01*
G01X4509146Y-4632246D01*
G01X4509146Y-4714179D01*
G03X4549649Y-4787050I70654J-8422D01*
G03X4631546Y-4771439I30151J64450D01*
G01X4631546Y-5236286D01*
G03X4652240Y-5286246I70654J0D01*
G01X5284143Y-5918149D01*
G01X5284143Y-6011283D01*
G03X5324797Y-6051937I40654J0D01*
G01X5477197Y-6051937D01*
G03X5517851Y-6011283I0J40654D01*
G01X5517851Y-5858883D01*
G03X5477197Y-5818229I-40654J0D01*
G01X5384063Y-5818229D01*
G01X5367759Y-5801925D01*
G01X5477197Y-5801925D01*
G03X5517851Y-5761271I0J40654D01*
G01X5517851Y-5608871D01*
G03X5477197Y-5568217I-40654J0D01*
G01X5324797Y-5568217D01*
G03X5284143Y-5608871I0J-40654D01*
G01X5284143Y-5718310D01*
G01X4772854Y-5207020D01*
G01X4772854Y-3709380D01*
G03X4752160Y-3659420I-70654J0D01*
G01X4449753Y-3357014D01*
G03X4440890Y-3293990I-115774J15854D01*
G01X4779446Y-3632546D01*
G01X4779446Y-4384186D01*
G03X4800140Y-4434146I70654J0D01*
G01X5284143Y-4918149D01*
G01X5284143Y-5011283D01*
G03X5324797Y-5051937I40654J0D01*
G01X5477197Y-5051937D01*
G03X5517851Y-5011283I0J40654D01*
G01X5517851Y-4858883D01*
G03X5477197Y-4818229I-40654J0D01*
G01X5384063Y-4818229D01*
G01X5367759Y-4801925D01*
G01X5477197Y-4801925D01*
G03X5517851Y-4761271I0J40654D01*
G01X5517851Y-4608871D01*
G03X5477197Y-4568217I-40654J0D01*
G01X5324797Y-4568217D01*
G03X5284143Y-4608871I0J-40654D01*
G01X5284143Y-4718310D01*
G01X4920754Y-4354920D01*
G01X4920754Y-3673889D01*
G03X4937840Y-3701560I67046J22289D01*
G01X5221323Y-3985043D01*
G03X5271283Y-4005737I49960J49960D01*
G01X5284143Y-4005737D01*
G01X5284143Y-4011283D01*
G03X5324797Y-4051937I40654J0D01*
G01X5477197Y-4051937D01*
G03X5517851Y-4011283I0J40654D01*
G01X5517851Y-3858883D01*
G03X5477197Y-3818229I-40654J0D01*
G01X5324797Y-3818229D01*
G03X5285315Y-3849195I0J-40654D01*
G01X5058454Y-3622334D01*
G01X5058454Y-3486980D01*
G03X5037760Y-3437020I-70654J0D01*
G01X4449753Y-2849014D01*
G03X4251352Y-2750532I-115774J15854D01*
G03X4349834Y-2948933I82628J-82628D01*
G01X4381150Y-2980249D01*
G03X4218265Y-3070887I-47170J-106911D01*
G03X4349834Y-3202933I115715J-16273D01*
G01X4381150Y-3234249D01*
G03X4218265Y-3324887I-47170J-106911D01*
G03X4349834Y-3456933I115715J-16273D01*
G01X4381150Y-3488249D01*
G03X4217981Y-3609272I-47170J-106911D01*
G03X4405407Y-3687643I115999J14112D01*
G01X4530669Y-3812905D01*
G03X4578771Y-3839624I55915J44005D01*
G03X4631546Y-3824048I7812J70724D01*
G01X4631546Y-3924061D01*
G03X4571379Y-3902247I-51745J-48840D01*
G01X4486987Y-3902247D01*
G01X4449753Y-3865014D01*
G03X4251352Y-3766532I-115774J15854D01*
G03X4349834Y-3964933I82628J-82628D01*
G01X4381150Y-3996249D01*
G03X4218265Y-4086887I-47170J-106911D01*
G03X4349834Y-4218933I115715J-16273D01*
G01X4378160Y-4247260D01*
G03X4381534Y-4250420I49960J49960D01*
G03X4218294Y-4340679I-47554J-106740D01*
G03X4349834Y-4472933I115686J-16481D01*
G01X4381150Y-4504249D01*
G03X4232189Y-4668549I-47170J-106911D01*
G01X3612255Y-4048615D01*
G03X3641971Y-4045993I8745J70615D01*
G03X3720408Y-4109946I70829J6793D01*
G03X3783454Y-4030778I-7608J70746D01*
G01X3783454Y-947266D01*
G01X3986866Y-743854D01*
G01X4232142Y-743854D01*
G03X4333980Y-918014I101838J-57306D01*
G03X4435817Y-743854I0J116854D01*
G01X6553353Y-743854D01*
G01X7080535Y-1271036D01*
G03X7194473Y-1426710I109044J-39724D01*
G03X7294887Y-1261988I-4894J115951D01*
G01X7328517Y-1295618D01*
G03X7525641Y-1392822I115062J-15142D01*
G03X7428436Y-1195698I-82062J82062D01*
G01X7087879Y-855141D01*
G03X7099200Y-856054I11321J69741D01*
G01X7651334Y-856054D01*
G01X8001069Y-1205788D01*
G03X7869515Y-1392822I-49491J-104972D01*
G03X8056549Y-1261269I82062J82063D01*
G01X8090560Y-1295279D01*
G03X8287397Y-1393064I115017J-15480D01*
G03X8190774Y-1195654I-81820J82304D01*
G01X7730560Y-735440D01*
G03X7680600Y-714746I-49960J-49960D01*
G01X7128466Y-714746D01*
G01X6817660Y-403940D01*
G03X6767700Y-383246I-49960J-49960D01*
G01X4374466Y-383246D01*
G01X4303360Y-312140D01*
G03X4253400Y-291446I-49960J-49960D01*
G01X3852739Y-291446D01*
G03X3802779Y-312140I0J-70654D01*
G01X3741873Y-373046D01*
G01X2172600Y-373046D01*
G03X2122640Y-393740I0J-70654D01*
G01X1796240Y-720140D01*
G03X1775546Y-770100I49960J-49960D01*
G01X1775546Y-2339373D01*
G01X1412735Y-2702184D01*
G01X1412735Y-2614260D01*
G03X1392512Y-2579113I-40654J0D01*
G03X1439711Y-2556091I-9832J80053D01*
G01X1628411Y-2367391D01*
G03X1652034Y-2310360I-57031J57031D01*
G01X1652034Y-1152660D01*
G03X1628411Y-1095629I-80654J0D01*
G01X1439711Y-906929D01*
G03X1382680Y-883306I-57031J-57031D01*
G01X1060104Y-883306D01*
G03X920044Y-905833I-55524J-101454D01*
G03X879580Y-869106I-40464J-3927D01*
G01X729580Y-869106D01*
G03X688926Y-909760I0J-40654D01*
G01X688926Y-1059760D01*
G03X729580Y-1100414I40654J0D01*
G01X734113Y-1100414D01*
G03X754620Y-1145240I70467J5134D01*
G01X833926Y-1224546D01*
G01X833926Y-1373728D01*
G03X796426Y-1414260I3153J-40531D01*
G01X796426Y-1433846D01*
G01X722422Y-1433846D01*
G03X642846Y-1504500I-8422J-70654D01*
G03X722422Y-1575154I71154J0D01*
G01X801626Y-1575154D01*
G03X809106Y-1584760I35454J19894D01*
G03X796426Y-1614259I27974J-29500D01*
G01X796426Y-1755260D01*
G03X837080Y-1795914I40654J0D01*
G01X972081Y-1795914D01*
G03X1012735Y-1755260I0J40654D01*
G01X1012735Y-1614259D01*
G03X1000054Y-1584760I-40654J0D01*
G03X1012735Y-1555260I-27974J29500D01*
G01X1012735Y-1414260D01*
G03X975234Y-1373728I-40654J0D01*
G01X975234Y-1195280D01*
G03X954540Y-1145320I-70654J0D01*
G01X902534Y-1093314D01*
G03X920044Y-1063687I-22954J33554D01*
G03X1103541Y-1044614I84536J78927D01*
G01X1349272Y-1044614D01*
G01X1490726Y-1186068D01*
G01X1490726Y-1452006D01*
G01X1467760Y-1429040D01*
G03X1417800Y-1408346I-49960J-49960D01*
G01X1412302Y-1408346D01*
G03X1372081Y-1373606I-40222J-5914D01*
G01X1237080Y-1373606D01*
G03X1196426Y-1414260I0J-40654D01*
G01X1196426Y-1555260D01*
G03X1209106Y-1584760I40654J0D01*
G03X1196426Y-1614259I27974J-29500D01*
G01X1196426Y-1755260D01*
G03X1237080Y-1795914I40654J0D01*
G01X1372081Y-1795914D01*
G03X1393046Y-1790091I0J40654D01*
G01X1393046Y-2036652D01*
G01X1237347Y-2036652D01*
G03X1201095Y-2058906I0J-40654D01*
G01X1106572Y-2058906D01*
G03X1116264Y-2032560I-30962J26346D01*
G01X1116264Y-1972560D01*
G03X1075610Y-1931906I-40654J0D01*
G01X1044876Y-1931906D01*
G01X959121Y-1846151D01*
G03X872045Y-1815494I-61521J-35751D01*
G03X827984Y-1896615I25555J-66407D01*
G03X847640Y-1934510I69616J12065D01*
G01X914956Y-2001826D01*
G01X914956Y-2032560D01*
G03X932578Y-2066060I40654J0D01*
G03X914956Y-2099560I23032J-33500D01*
G01X914956Y-2159560D01*
G03X932578Y-2193060I40654J0D01*
G03X914956Y-2226560I23032J-33500D01*
G01X914956Y-2286560D01*
G03X932578Y-2320060I40654J0D01*
G03X914956Y-2353560I23032J-33500D01*
G01X914956Y-2413560D01*
G03X955610Y-2454214I40654J0D01*
G01X1075610Y-2454214D01*
G03X1116264Y-2413560I0J40654D01*
G01X1116264Y-2353560D01*
G03X1108708Y-2329954I-40654J0D01*
G01X1123334Y-2329954D01*
G01X1125641Y-2332260D01*
G03X1175600Y-2352954I49960J49960D01*
G01X1205809Y-2352954D01*
G03X1237347Y-2367954I31538J25654D01*
G01X1397346Y-2367954D01*
G01X1399798Y-2367880D01*
G01X1349272Y-2418406D01*
G01X1193980Y-2418406D01*
G03X1136949Y-2442029I0J-80654D01*
G01X1078410Y-2500568D01*
G03X1054786Y-2557599I57031J-57031D01*
G01X1054786Y-2763891D01*
G01X1014573Y-2804105D01*
G01X1011446Y-2804105D01*
G03X1000054Y-2784760I-39365J-10154D01*
G03X1012735Y-2755260I-27974J29500D01*
G01X1012735Y-2614260D01*
G03X972081Y-2573606I-40654J0D01*
G01X837080Y-2573606D01*
G03X796426Y-2614260I0J-40654D01*
G01X796426Y-2755260D01*
G03X809106Y-2784760I40654J0D01*
G03X796426Y-2814259I27974J-29500D01*
G01X796426Y-2885923D01*
G01X636137Y-3046212D01*
G01X619583Y-3046212D01*
G03X616072Y-3046363I0J-40654D01*
G01X580234Y-3010525D01*
G01X580234Y-2849759D01*
G03X543292Y-2784760I-75654J0D01*
G03X579295Y-2731637I-38713J64999D01*
G01X726583Y-2584350D01*
G03X792159Y-2439506I-6902J90391D01*
G03X634785Y-2462165I-72478J-54453D01*
G01X451084Y-2645866D01*
G03X428926Y-2699359I53495J-53495D01*
G01X428925Y-2719759D01*
G03X465867Y-2784760I75654J-2D01*
G03X428926Y-2849759I38713J-64999D01*
G01X428926Y-3041862D01*
G03X451084Y-3095358I75654J0D01*
G01X578929Y-3223202D01*
G01X578929Y-3263451D01*
G01X358895Y-3483485D01*
G03X352586Y-3589714I44005J-55915D01*
G01X844780Y-2398714D02*
G03X885434Y-2358060I0J40654D01*
G01X885434Y-2028060D01*
G03X844780Y-1987406I-40654J0D01*
G01X604780Y-1987406D01*
G03X564126Y-2028060I0J-40654D01*
G01X564126Y-2358060D01*
G03X604780Y-2398714I40654J0D01*
G01X844780Y-2398714D01*
G01X959880Y-5203706D02*
G01X809880Y-5203706D01*
G03X769226Y-5244360I0J-40654D01*
G01X769226Y-5394360D01*
G03X809880Y-5435014I40654J0D01*
G01X959880Y-5435014D01*
G03X1000344Y-5398287I0J40654D01*
G03X1200534Y-5319360I84536J78927D01*
G03X1000344Y-5240433I-115654J0D01*
G03X959880Y-5203706I-40464J-3927D01*
G01X2139434Y-5119160D02*
G03X1905726Y-5119160I-116854J0D01*
G03X2139434Y-5119160I116854J0D01*
G01X2139434Y-5881160D02*
G03X1905726Y-5881160I-116854J0D01*
G03X2139434Y-5881160I116854J0D01*
G01X2139434Y-5627160D02*
G03X1905726Y-5627160I-116854J0D01*
G03X2139434Y-5627160I116854J0D01*
G01X2139434Y-6135160D02*
G03X1905726Y-6135160I-116854J0D01*
G03X2139434Y-6135160I116854J0D01*
G01X7264580Y-3445011D02*
G03X7223926Y-3485665I0J-40654D01*
G01X7223926Y-3705664D01*
G03X7264580Y-3746318I40654J0D01*
G01X7544580Y-3746318D01*
G03X7585234Y-3705664I0J40654D01*
G01X7585234Y-3485665D01*
G03X7544580Y-3445011I-40654J0D01*
G01X7541937Y-3445011D01*
G03X7565381Y-3416306I-92357J99358D01*
G01X7570934Y-3416306D01*
G01X7589546Y-3434918D01*
G01X7589546Y-6106034D01*
G01X7197434Y-6498146D01*
G01X4027666Y-6498146D01*
G01X2852720Y-5323200D01*
G03X2802760Y-5302506I-49960J-49960D01*
G01X2115654Y-5302506D01*
G03X1905726Y-5373160I-93075J-70654D01*
G03X2115654Y-5443814I116854J0D01*
G01X2773494Y-5443814D01*
G01X3948440Y-6618760D01*
G03X3998400Y-6639454I49960J49960D01*
G01X7226700Y-6639454D01*
G03X7276660Y-6618760I0J70654D01*
G01X7710160Y-6185260D01*
G03X7730854Y-6135300I-49960J49960D01*
G01X7730854Y-3405652D01*
G03X7710160Y-3355692I-70654J0D01*
G01X7650160Y-3295693D01*
G03X7600200Y-3274999I-49960J-49960D01*
G01X7565381Y-3274999D01*
G03X7502292Y-3220659I-115801J-70654D01*
G03X7449580Y-2960012I-52712J124993D01*
G01X7359580Y-2960012D01*
G03X7306868Y-3220659I0J-135654D01*
G03X7267223Y-3445011I52712J-124993D01*
G01X7264580Y-3445011D01*
G01X2139434Y-2579160D02*
G03X1905726Y-2579160I-116854J0D01*
G03X2139434Y-2579160I116854J0D01*
G01X2139434Y-2833160D02*
G03X1905726Y-2833160I-116854J0D01*
G03X2139434Y-2833160I116854J0D01*
G01X2139434Y-4357160D02*
G03X1905726Y-4357160I-116854J0D01*
G03X2139434Y-4357160I116854J0D01*
G01X2139434Y-3341160D02*
G03X1905726Y-3341160I-116854J0D01*
G03X2139434Y-3341160I116854J0D01*
G01X2139434Y-3087160D02*
G03X1905726Y-3087160I-116854J0D01*
G03X2139434Y-3087160I116854J0D01*
G01X2139434Y-3595160D02*
G03X1905726Y-3595160I-116854J0D01*
G03X2139434Y-3595160I116854J0D01*
G01X2139434Y-3849160D02*
G03X1905726Y-3849160I-116854J0D01*
G03X2139434Y-3849160I116854J0D01*
G01X2139434Y-4103160D02*
G03X1905726Y-4103160I-116854J0D01*
G03X2139434Y-4103160I116854J0D01*
G01X2139434Y-4611160D02*
G03X1905726Y-4611160I-116854J0D01*
G03X2139434Y-4611160I116854J0D01*
G01X2115654Y-4794506D02*
G03X1905726Y-4865160I-93075J-70654D01*
G03X2115654Y-4935814I116854J0D01*
G01X2647994Y-4935814D01*
G01X4106540Y-6394360D01*
G03X4156500Y-6415054I49960J49960D01*
G01X6991706Y-6415054D01*
G03X7041666Y-6394360I0J70654D01*
G01X7384066Y-6051960D01*
G01X7477200Y-6051960D01*
G03X7517854Y-6011306I0J40654D01*
G01X7517854Y-5858906D01*
G03X7477200Y-5818252I-40654J0D01*
G01X7324800Y-5818252D01*
G03X7284146Y-5858906I0J-40654D01*
G01X7284146Y-5952040D01*
G01X6962440Y-6273746D01*
G01X4185766Y-6273746D01*
G01X2727220Y-4815200D01*
G03X2677260Y-4794506I-49960J-49960D01*
G01X2115654Y-4794506D01*
G01X5284143Y-2943583D02*
G01X5284143Y-3011283D01*
G03X5324797Y-3051937I40654J0D01*
G01X5477197Y-3051937D01*
G03X5517851Y-3011283I0J40654D01*
G01X5517851Y-2858883D01*
G03X5477197Y-2818229I-40654J0D01*
G01X5358630Y-2818229D01*
G01X5342325Y-2801925D01*
G01X5477197Y-2801925D01*
G03X5517851Y-2761271I0J40654D01*
G01X5517851Y-2608871D01*
G03X5477197Y-2568217I-40654J0D01*
G01X5324797Y-2568217D01*
G03X5284143Y-2608871I0J-40654D01*
G01X5284143Y-2743743D01*
G01X5069600Y-2529200D01*
G03X5019640Y-2508506I-49960J-49960D01*
G01X4427054Y-2508506D01*
G03X4217126Y-2579160I-93075J-70654D01*
G03X4427054Y-2649814I116854J0D01*
G01X4990375Y-2649814D01*
G01X5284143Y-2943583D01*
G01X4427054Y-2000506D02*
G03X4217126Y-2071160I-93075J-70654D01*
G03X4427054Y-2141814I116854J0D01*
G01X4651182Y-2141814D01*
G03X4701142Y-2121120I0J70654D01*
G01X5396440Y-1425822D01*
G03X5460354Y-1416068I15142J115062D01*
G01X4621916Y-2254506D01*
G01X4427054Y-2254506D01*
G03X4217126Y-2325160I-93075J-70654D01*
G03X4427054Y-2395814I116854J0D01*
G01X4651182Y-2395814D01*
G03X4701142Y-2375120I0J70654D01*
G01X5650440Y-1425822D01*
G03X5780308Y-1293252I15142J115062D01*
G03X5616810Y-1205452I-114726J-17508D01*
G01X5884608Y-937654D01*
G01X5998087Y-937654D01*
G03X6024995Y-999415I70913J-5846D01*
G01X6244396Y-1218816D01*
G03X6091519Y-1392822I-70815J-91944D01*
G03X6265525Y-1239945I82062J82062D01*
G01X6313747Y-1288167D01*
G03X6503982Y-1398117I113833J-22593D01*
G03X6420351Y-1194931I-76402J87357D01*
G01X6163074Y-937654D01*
G01X6462554Y-937654D01*
G01X6730352Y-1205452D01*
G03X6599518Y-1392822I-48772J-105308D01*
G03X6786888Y-1261988I82062J82062D01*
G01X6820518Y-1295618D01*
G03X7017642Y-1392822I115062J-15142D01*
G03X6920437Y-1195698I-82062J82062D01*
G01X6541779Y-817040D01*
G03X6491820Y-796346I-49960J-49960D01*
G01X5855342Y-796346D01*
G03X5805383Y-817040I0J-70654D01*
G01X5426725Y-1195698D01*
G03X5296521Y-1325902I-15142J-115062D01*
G01X5262891Y-1359531D01*
G03X5075521Y-1228697I-105308J48772D01*
G03X5206355Y-1416068I82062J-82062D01*
G01X4621917Y-2000506D01*
G01X4427054Y-2000506D01*
G01X4427054Y-1746506D02*
G03X4217126Y-1817160I-93075J-70654D01*
G03X4427054Y-1887814I116854J0D01*
G01X4670040Y-1887814D01*
G03X4720000Y-1867120I0J70654D01*
G01X5001205Y-1585915D01*
G03X5007513Y-1479686I-44005J55915D01*
G03X4901285Y-1485995I-50314J-50314D01*
G01X4640774Y-1746506D01*
G01X4427054Y-1746506D01*
G01X4450834Y-1563160D02*
G03X4217126Y-1563160I-116854J0D01*
G03X4450834Y-1563160I116854J0D01*
G01X4450834Y-1309160D02*
G03X4217126Y-1309160I-116854J0D01*
G03X4450834Y-1309160I116854J0D01*
G01X4450834Y-1055160D02*
G03X4217126Y-1055160I-116854J0D01*
G03X4450834Y-1055160I116854J0D01*
G01X4450834Y-5119160D02*
G03X4217126Y-5119160I-116854J0D01*
G03X4450834Y-5119160I116854J0D01*
G01X4450834Y-5373160D02*
G03X4217126Y-5373160I-116854J0D01*
G03X4450834Y-5373160I116854J0D01*
G01X4450834Y-6135160D02*
G03X4217126Y-6135160I-116854J0D01*
G03X4450834Y-6135160I116854J0D01*
G01X4450834Y-5881160D02*
G03X4217126Y-5881160I-116854J0D01*
G03X4450834Y-5881160I116854J0D01*
G01X4450834Y-5627160D02*
G03X4217126Y-5627160I-116854J0D01*
G03X4450834Y-5627160I116854J0D01*
G01X5019637Y-1310760D02*
G03X4787530Y-1310760I-116054J0D01*
G03X5019637Y-1310760I116054J0D01*
G01X5284143Y-3761271D02*
G03X5324797Y-3801925I40654J0D01*
G01X5477197Y-3801925D01*
G03X5517851Y-3761271I0J40654D01*
G01X5517851Y-3608871D01*
G03X5477197Y-3568217I-40654J0D01*
G01X5324797Y-3568217D01*
G03X5284143Y-3608871I0J-40654D01*
G01X5284143Y-3761271D01*
G01X6035635Y-1310760D02*
G03X5803528Y-1310760I-116054J0D01*
G03X6035635Y-1310760I116054J0D01*
G01X6284143Y-3011283D02*
G03X6324797Y-3051937I40654J0D01*
G01X6477197Y-3051937D01*
G03X6517851Y-3011283I0J40654D01*
G01X6517851Y-2858883D01*
G03X6477197Y-2818229I-40654J0D01*
G01X6324797Y-2818229D01*
G03X6284143Y-2858883I0J-40654D01*
G01X6284143Y-3011283D01*
G01X6284143Y-2761271D02*
G03X6324797Y-2801925I40654J0D01*
G01X6477197Y-2801925D01*
G03X6517851Y-2761271I0J40654D01*
G01X6517851Y-2608871D01*
G03X6477197Y-2568217I-40654J0D01*
G01X6324797Y-2568217D01*
G03X6284143Y-2608871I0J-40654D01*
G01X6284143Y-2761271D01*
G01X6284143Y-4761271D02*
G03X6324797Y-4801925I40654J0D01*
G01X6477197Y-4801925D01*
G03X6517851Y-4761271I0J40654D01*
G01X6517851Y-4608871D01*
G03X6477197Y-4568217I-40654J0D01*
G01X6324797Y-4568217D01*
G03X6284143Y-4608871I0J-40654D01*
G01X6284143Y-4761271D01*
G01X6284143Y-5011283D02*
G03X6324797Y-5051937I40654J0D01*
G01X6477197Y-5051937D01*
G03X6517851Y-5011283I0J40654D01*
G01X6517851Y-4858883D01*
G03X6477197Y-4818229I-40654J0D01*
G01X6324797Y-4818229D01*
G03X6284143Y-4858883I0J-40654D01*
G01X6284143Y-5011283D01*
G01X6284143Y-6011283D02*
G03X6324797Y-6051937I40654J0D01*
G01X6477197Y-6051937D01*
G03X6517851Y-6011283I0J40654D01*
G01X6517851Y-5858883D01*
G03X6477197Y-5818229I-40654J0D01*
G01X6324797Y-5818229D01*
G03X6284143Y-5858883I0J-40654D01*
G01X6284143Y-6011283D01*
G01X6284143Y-5761271D02*
G03X6324797Y-5801925I40654J0D01*
G01X6477197Y-5801925D01*
G03X6517851Y-5761271I0J40654D01*
G01X6517851Y-5608871D01*
G03X6477197Y-5568217I-40654J0D01*
G01X6324797Y-5568217D01*
G03X6284143Y-5608871I0J-40654D01*
G01X6284143Y-5761271D01*
G01X6284143Y-4011283D02*
G03X6324797Y-4051937I40654J0D01*
G01X6477197Y-4051937D01*
G03X6517851Y-4011283I0J40654D01*
G01X6517851Y-3858883D01*
G03X6477197Y-3818229I-40654J0D01*
G01X6324797Y-3818229D01*
G03X6284143Y-3858883I0J-40654D01*
G01X6284143Y-4011283D01*
G01X6284143Y-3761271D02*
G03X6324797Y-3801925I40654J0D01*
G01X6477197Y-3801925D01*
G03X6517851Y-3761271I0J40654D01*
G01X6517851Y-3608871D01*
G03X6477197Y-3568217I-40654J0D01*
G01X6324797Y-3568217D01*
G03X6284143Y-3608871I0J-40654D01*
G01X6284143Y-3761271D01*
G01X7284146Y-4761294D02*
G03X7324800Y-4801948I40654J0D01*
G01X7477200Y-4801948D01*
G03X7517854Y-4761294I0J40654D01*
G01X7517854Y-4608894D01*
G03X7477200Y-4568240I-40654J0D01*
G01X7324800Y-4568240D01*
G03X7284146Y-4608894I0J-40654D01*
G01X7284146Y-4761294D01*
G01X7284146Y-5011306D02*
G03X7324800Y-5051960I40654J0D01*
G01X7477200Y-5051960D01*
G03X7517854Y-5011306I0J40654D01*
G01X7517854Y-4858906D01*
G03X7477200Y-4818252I-40654J0D01*
G01X7324800Y-4818252D01*
G03X7284146Y-4858906I0J-40654D01*
G01X7284146Y-5011306D01*
G01X7284146Y-5761294D02*
G03X7324800Y-5801948I40654J0D01*
G01X7477200Y-5801948D01*
G03X7517854Y-5761294I0J40654D01*
G01X7517854Y-5608894D01*
G03X7477200Y-5568240I-40654J0D01*
G01X7324800Y-5568240D01*
G03X7284146Y-5608894I0J-40654D01*
G01X7284146Y-5761294D01*
G01X7813632Y-1310760D02*
G03X7581524Y-1310760I-116054J0D01*
G03X7813632Y-1310760I116054J0D01*
G01X7809346Y-400000D02*
G03X8390654Y-400000I290654J0D01*
G03X7809346Y-400000I-290654J0D01*
G01X7809346Y-6600000D02*
G03X8390654Y-6600000I290654J0D01*
G03X7809346Y-6600000I-290654J0D01*
G01X1000234Y-3336865D02*
G01X1000234Y-3086866D01*
G03X959580Y-3046212I-40654J0D01*
G01X850119Y-3046212D01*
G01X900417Y-2995914D01*
G01X972081Y-2995914D01*
G03X1011446Y-2965413I0J40654D01*
G01X1047981Y-2965413D01*
G03X1105012Y-2941790I0J80654D01*
G01X1192471Y-2854330D01*
G03X1196426Y-2850081I-57031J57031D01*
G01X1196426Y-2955260D01*
G03X1233926Y-2995791I40654J0D01*
G01X1233926Y-3376591D01*
G01X975234Y-3635283D01*
G01X975234Y-3374384D01*
G03X1000234Y-3336865I-15654J37519D01*
G01X1189577Y-3377519D02*
G03X1230231Y-3336865I0J40654D01*
G01X1230231Y-3086866D01*
G03X1189577Y-3046212I-40654J0D01*
G01X1079577Y-3046212D01*
G03X1038923Y-3086866I0J-40654D01*
G01X1038923Y-3336865D01*
G03X1079577Y-3377519I40654J0D01*
G01X1189577Y-3377519D01*
G54D11*
G01X504580Y-1755006D02*
G01X504580Y-1780914D01*
G01X437333Y-1684760D02*
G01X411425Y-1684760D01*
G01X571826Y-1684760D02*
G01X597734Y-1684760D01*
G01X1304580Y-1755006D02*
G01X1304580Y-1780914D01*
G01X1237334Y-1684760D02*
G01X1211426Y-1684760D01*
G01X904580Y-1755006D02*
G01X904580Y-1780914D01*
G01X837334Y-1684760D02*
G01X811426Y-1684760D01*
G01X971827Y-1684760D02*
G01X997735Y-1684760D01*
G01X724780Y-2357806D02*
G01X724780Y-2383714D01*
G01X724780Y-2028314D02*
G01X724780Y-2002406D01*
G01X605034Y-2193060D02*
G01X579126Y-2193060D01*
G01X844526Y-2193060D02*
G01X870434Y-2193060D01*
G01X1134577Y-3336611D02*
G01X1134577Y-3362519D01*
G01X1134577Y-3087120D02*
G01X1134577Y-3061212D01*
G01X1079831Y-3211865D02*
G01X1053923Y-3211865D01*
G01X1189323Y-3211865D02*
G01X1215231Y-3211865D01*
G01X904580Y-2614514D02*
G01X904580Y-2588606D01*
G01X971827Y-2684760D02*
G01X997735Y-2684760D01*
G01X837334Y-2684760D02*
G01X811426Y-2684760D01*
G01X1371827Y-2684760D02*
G01X1397735Y-2684760D01*
G01X4409926Y-801160D02*
G01X4435834Y-801160D01*
G01X4258034Y-801160D02*
G01X4232126Y-801160D01*
G01X4333980Y-877106D02*
G01X4333980Y-903014D01*
G01X2098526Y-801160D02*
G01X2124434Y-801160D01*
G01X2022580Y-877106D02*
G01X2022580Y-903014D01*
G01X5400997Y-5609125D02*
G01X5400997Y-5583217D01*
G01X5400997Y-5761017D02*
G01X5400997Y-5786925D01*
G01X5476943Y-5685071D02*
G01X5502851Y-5685071D01*
G01X5325051Y-5685071D02*
G01X5299143Y-5685071D01*
G01X6400997Y-5609125D02*
G01X6400997Y-5583217D01*
G01X6400997Y-5761017D02*
G01X6400997Y-5786925D01*
G01X6476943Y-5685071D02*
G01X6502851Y-5685071D01*
G01X6325051Y-5685071D02*
G01X6299143Y-5685071D01*
G01X6400997Y-3609125D02*
G01X6400997Y-3583217D01*
G01X6400997Y-3761017D02*
G01X6400997Y-3786925D01*
G01X6476943Y-3685071D02*
G01X6502851Y-3685071D01*
G01X6325051Y-3685071D02*
G01X6299143Y-3685071D01*
G01X5400997Y-3609125D02*
G01X5400997Y-3583217D01*
G01X5400997Y-3761017D02*
G01X5400997Y-3786925D01*
G01X5476943Y-3685071D02*
G01X5502851Y-3685071D01*
G01X5325051Y-3685071D02*
G01X5299143Y-3685071D01*
G01X1159626Y-5319360D02*
G01X1185534Y-5319360D01*
G01X1084880Y-5244614D02*
G01X1084880Y-5218706D01*
G01X1084880Y-5394106D02*
G01X1084880Y-5420014D01*
G01X5400997Y-2609125D02*
G01X5400997Y-2583217D01*
G01X5400997Y-2761017D02*
G01X5400997Y-2786925D01*
G01X5476943Y-2685071D02*
G01X5502851Y-2685071D01*
G01X5325051Y-2685071D02*
G01X5299143Y-2685071D01*
G01X6400997Y-2609125D02*
G01X6400997Y-2583217D01*
G01X6400997Y-2761017D02*
G01X6400997Y-2786925D01*
G01X6476943Y-2685071D02*
G01X6502851Y-2685071D01*
G01X6325051Y-2685071D02*
G01X6299143Y-2685071D01*
G01X2098526Y-1055160D02*
G01X2124434Y-1055160D01*
G01X2022580Y-1131106D02*
G01X2022580Y-1157014D01*
G01X2022580Y-979214D02*
G01X2022580Y-953306D01*
G01X6400997Y-4609125D02*
G01X6400997Y-4583217D01*
G01X6400997Y-4761017D02*
G01X6400997Y-4786925D01*
G01X6476943Y-4685071D02*
G01X6502851Y-4685071D01*
G01X6325051Y-4685071D02*
G01X6299143Y-4685071D01*
G01X5400997Y-4609125D02*
G01X5400997Y-4583217D01*
G01X5400997Y-4761017D02*
G01X5400997Y-4786925D01*
G01X5476943Y-4685071D02*
G01X5502851Y-4685071D01*
G01X5325051Y-4685071D02*
G01X5299143Y-4685071D01*
G01X7401000Y-4609148D02*
G01X7401000Y-4583240D01*
G01X7401000Y-4761040D02*
G01X7401000Y-4786948D01*
G01X7476946Y-4685094D02*
G01X7502854Y-4685094D01*
G01X7325054Y-4685094D02*
G01X7299146Y-4685094D01*
G01X7401000Y-5609148D02*
G01X7401000Y-5583240D01*
G01X7401000Y-5761040D02*
G01X7401000Y-5786948D01*
G01X7476946Y-5685094D02*
G01X7502854Y-5685094D01*
G01X7325054Y-5685094D02*
G01X7299146Y-5685094D01*
G01X7404580Y-3000920D02*
G01X7404580Y-2975012D01*
G01X7264834Y-3095666D02*
G01X7238926Y-3095666D01*
G01X7544326Y-3095666D02*
G01X7570234Y-3095666D01*
G01X8026723Y-1310760D02*
G01X8052631Y-1310760D01*
G01X7876432Y-1310760D02*
G01X7850524Y-1310760D01*
G01X7951577Y-1385906D02*
G01X7951577Y-1411814D01*
G01X7951577Y-1235614D02*
G01X7951577Y-1209706D01*
G04 Copper End*

G04 Pad Start*
G54D12*
G01X1304580Y-1684760D03*
G01X1304580Y-1484760D03*
G01X504580Y-1484760D03*
G01X504580Y-1684760D03*
G01X904580Y-1484760D03*
G01X904580Y-1684760D03*
G01X904580Y-2884760D03*
G01X904580Y-2684760D03*
G01X1304580Y-2684760D03*
G01X1304580Y-2884760D03*
G54D13*
G01X6400997Y-5685071D03*
G01X6400997Y-5935083D03*
G01X6400997Y-4685071D03*
G01X6400997Y-4935083D03*
G01X6400997Y-3685071D03*
G01X6400997Y-3935083D03*
G01X6400997Y-2685071D03*
G01X6400997Y-2935083D03*
G01X5400997Y-5685071D03*
G01X5400997Y-5935083D03*
G01X5400997Y-4685071D03*
G01X5400997Y-4935083D03*
G01X5400997Y-3685071D03*
G01X5400997Y-3935083D03*
G01X5400997Y-2685071D03*
G01X5400997Y-2935083D03*
G01X7401000Y-4685094D03*
G01X7401000Y-4935106D03*
G01X7401000Y-5685094D03*
G01X7401000Y-5935106D03*
G54D14*
G01X1317347Y-2282300D03*
G01X1317347Y-2122306D03*
G54D15*
G01X884880Y-5319360D03*
G54D17*
G01X1084880Y-5319360D03*
G54D18*
G01X1134577Y-3211865D03*
G01X904580Y-3211865D03*
G01X674583Y-3211865D03*
G54D19*
G01X904580Y-3805857D03*
G54D20*
G01X7404580Y-3595665D03*
G54D21*
G01X7404580Y-3345652D03*
G01X7404580Y-3095666D03*
G54D15*
G01X804580Y-984760D03*
G54D17*
G01X1004580Y-984760D03*
G54D22*
G01X8205577Y-1310760D03*
G01X7951577Y-1310760D03*
G01X7697578Y-1310760D03*
G01X7443578Y-1310760D03*
G01X7189579Y-1310760D03*
G01X6935579Y-1310760D03*
G01X6681580Y-1310760D03*
G01X6427580Y-1310760D03*
G01X6173581Y-1310760D03*
G01X5919582Y-1310760D03*
G01X5665582Y-1310760D03*
G01X5411583Y-1310760D03*
G01X5157583Y-1310760D03*
G01X4903584Y-1310760D03*
G54D23*
G01X4333980Y-6135160D03*
G01X4333980Y-5881160D03*
G01X4333980Y-5627160D03*
G01X4333980Y-5373160D03*
G01X4333980Y-5119160D03*
G01X4333980Y-4865160D03*
G01X4333980Y-4611160D03*
G01X4333980Y-4357160D03*
G01X4333980Y-4103160D03*
G01X4333980Y-3849160D03*
G01X4333980Y-3595160D03*
G01X4333980Y-801160D03*
G01X4333980Y-1055160D03*
G01X4333980Y-1309160D03*
G01X4333980Y-1563160D03*
G01X4333980Y-1817160D03*
G01X4333980Y-2071160D03*
G01X4333980Y-2325160D03*
G01X4333980Y-2579160D03*
G01X4333980Y-2833160D03*
G01X4333980Y-3087160D03*
G01X4333980Y-3341160D03*
G01X2022580Y-3341160D03*
G01X2022580Y-3087160D03*
G01X2022580Y-2833160D03*
G01X2022580Y-2579160D03*
G01X2022580Y-2325160D03*
G01X2022580Y-2071160D03*
G01X2022580Y-1817160D03*
G01X2022580Y-1563160D03*
G01X2022580Y-1309160D03*
G01X2022580Y-1055160D03*
G01X2022580Y-801160D03*
G01X2022580Y-3595160D03*
G01X2022580Y-3849160D03*
G01X2022580Y-4103160D03*
G01X2022580Y-4357160D03*
G01X2022580Y-4611160D03*
G01X2022580Y-4865160D03*
G01X2022580Y-5119160D03*
G01X2022580Y-5373160D03*
G01X2022580Y-5627160D03*
G01X2022580Y-5881160D03*
G01X2022580Y-6135160D03*
G54D24*
G01X504580Y-2849759D03*
G01X504580Y-2719761D03*
G54D25*
G01X433950Y-2002560D03*
G01X433950Y-2129560D03*
G01X433950Y-2256560D03*
G01X433950Y-2383560D03*
G01X1015610Y-2383560D03*
G01X1015610Y-2256560D03*
G01X1015610Y-2129560D03*
G01X1015610Y-2002560D03*
G54D26*
G01X724780Y-2193060D03*
G54D27*
G01X400000Y-6600000D03*
G01X8100000Y-6600000D03*
G01X400000Y-400000D03*
G01X8100000Y-400000D03*
G04 Pad End*

G04 Via Start*
G54D28*
G01X719681Y-2493959D03*
G01X275792Y-2055819D03*
G54D29*
G01X1014900Y-2259300D03*
G01X989400Y-2684760D03*
G01X1305600Y-2684760D03*
G01X1116900Y-2973300D03*
G01X897600Y-1881901D03*
G01X714000Y-1504500D03*
G01X402900Y-3539400D03*
G01X4957200Y-1530000D03*
G01X4586584Y-3768900D03*
G01X4579801Y-3972901D03*
G01X6069000Y-943500D03*
G01X3886201Y-464099D03*
G01X3712800Y-4039200D03*
G01X3621000Y-3978000D03*
G01X1305600Y-3717900D03*
G01X1050600Y-3462900D03*
G01X4579800Y-4722600D03*
G01X4579800Y-4197300D03*
G01X6318900Y-770100D03*
G01X3957600Y-800700D03*
G01X1239300Y-1122000D03*
G01X1530000Y-943500D03*
G01X1764600Y-1055700D03*
G04 Via End*

G04 Track Start*
G54D30*
G01X674583Y-3114757D02*
G01X674583Y-3211865D01*
G01X504579Y-2719761D02*
G01X504580Y-2699361D01*
G01X674583Y-3211865D02*
G01X504580Y-3041862D01*
G01X504580Y-2849759D01*
G01X709982Y-2493959D02*
G01X719681Y-2493959D01*
G01X275980Y-2050261D02*
G01X323681Y-2002560D01*
G01X433950Y-2002560D01*
G54D31*
G01X1135440Y-2557599D02*
G01X1193980Y-2499060D01*
G01X1020280Y-963960D02*
G01X1004580Y-979660D01*
G01X1004580Y-984760D01*
G01X1047981Y-2884759D02*
G01X1135440Y-2797299D01*
G01X1382680Y-2499060D02*
G01X1571380Y-2310360D01*
G01X1382680Y-963960D02*
G01X1020280Y-963960D01*
G54D30*
G01X504580Y-2699361D02*
G01X709982Y-2493959D01*
G54D31*
G01X1571380Y-2310360D02*
G01X1571380Y-1152660D01*
G01X1382680Y-963960D01*
G01X1193980Y-2499060D02*
G01X1382680Y-2499060D01*
G01X1135440Y-2797299D02*
G01X1135440Y-2557599D01*
G54D30*
G01X904580Y-2884760D02*
G01X674583Y-3114757D01*
G54D31*
G01X904581Y-2884759D02*
G01X1047981Y-2884759D01*
G54D32*
G01X1015610Y-2129560D02*
G01X1310093Y-2129560D01*
G01X1317347Y-2122306D01*
G01X504580Y-1484760D02*
G01X356340Y-1484760D01*
G01X275400Y-1565700D01*
G01X504580Y-1684760D02*
G01X904580Y-1684760D01*
G01X504580Y-1684760D02*
G01X724780Y-1904960D01*
G01X724780Y-2193060D01*
G01X904580Y-2372860D01*
G01X904580Y-2684760D01*
G01X1134577Y-3211865D02*
G01X1134577Y-2990977D01*
G01X1116900Y-2973300D01*
G01X904580Y-2684760D02*
G01X989400Y-2684760D01*
G01X1417800Y-1479000D02*
G01X1310340Y-1479000D01*
G01X1304580Y-1484760D01*
G01X1317347Y-2282300D02*
G01X1410100Y-2282300D01*
G01X1463700Y-2228700D01*
G01X1463700Y-1524900D01*
G01X1417800Y-1479000D01*
G01X904580Y-1484760D02*
G01X904580Y-1195280D01*
G01X804580Y-1095280D02*
G01X804580Y-984760D01*
G01X904580Y-1195280D02*
G01X804580Y-1095280D01*
G01X904580Y-3211865D02*
G01X904580Y-3805857D01*
G01X1304580Y-3405857D01*
G01X1304580Y-2884760D01*
G01X7951577Y-1310760D02*
G01X7951577Y-2548668D01*
G01X7404580Y-3095666D01*
G01X402900Y-3539400D02*
G01X674583Y-3267717D01*
G01X674583Y-3211865D01*
G01X4333980Y-2071160D02*
G01X4651182Y-2071160D01*
G01X5411583Y-1310760D01*
G01X4333980Y-2325160D02*
G01X4651182Y-2325160D01*
G01X5665582Y-1310760D01*
G01X4333980Y-1817160D02*
G01X4670040Y-1817160D01*
G01X4957200Y-1530000D01*
G01X4333980Y-3595160D02*
G01X4412844Y-3595160D01*
G01X4586584Y-3768900D01*
G01X1050600Y-3462900D02*
G01X1134577Y-3378923D01*
G01X1134577Y-3211865D01*
G01X1084880Y-5319360D02*
G01X1305600Y-5098640D01*
G01X1305600Y-3717900D01*
G01X5400997Y-2685071D02*
G01X6400997Y-2685071D01*
G01X6433329Y-3685071D02*
G01X6400997Y-3685071D01*
G01X5400997Y-4685071D02*
G01X6400997Y-4685071D01*
G01X5400997Y-5685071D02*
G01X6400997Y-5685071D01*
G01X4333980Y-3849160D02*
G01X4457721Y-3972901D01*
G01X4579801Y-3972901D01*
G01X5271283Y-3935083D02*
G01X5400997Y-3935083D01*
G01X4333980Y-3087160D02*
G01X4850100Y-3603280D01*
G01X4850100Y-4384186D01*
G01X5400997Y-4935083D01*
G01X4333980Y-4103160D02*
G01X4428120Y-4197300D01*
G01X4579800Y-4197300D01*
G01X2022580Y-801160D02*
G01X2022580Y-1055160D01*
G01X714000Y-1504500D02*
G01X884840Y-1504500D01*
G01X904580Y-1484760D01*
G01X1015610Y-2002560D02*
G01X897600Y-1884550D01*
G01X897600Y-1881901D01*
G01X1304580Y-1684760D02*
G01X1241060Y-1684760D01*
G01X1081200Y-1524900D01*
G01X1081200Y-1280100D01*
G01X1239300Y-1122000D01*
G01X1241060Y-1684760D02*
G01X904580Y-1684760D01*
G01X1014900Y-2259300D02*
G01X1152600Y-2259300D01*
G01X1175600Y-2282300D01*
G01X1317347Y-2282300D01*
G01X275400Y-1565700D02*
G01X275400Y-2055427D01*
G01X275792Y-2055819D01*
G01X4328881Y-4865160D02*
G01X4333980Y-4865160D01*
G01X4333980Y-2579160D02*
G01X5019640Y-2579160D01*
G01X5375564Y-2935083D01*
G01X5400997Y-2935083D01*
G01X6540671Y-2685071D02*
G01X6400997Y-2685071D01*
G01X7404580Y-3095666D02*
G01X6951266Y-3095666D01*
G01X6540671Y-2685071D01*
G01X6400997Y-2685071D02*
G01X6548400Y-2832474D01*
G01X6548400Y-3570000D01*
G01X6433329Y-3685071D01*
G01X5400997Y-4685071D02*
G01X5524807Y-4561261D01*
G01X5524807Y-3685071D01*
G01X5400997Y-3685071D02*
G01X5524807Y-3685071D01*
G01X6400997Y-3685071D01*
G01X7189579Y-1310759D02*
G01X7189579Y-1280160D01*
G01X6427580Y-1310760D02*
G01X6427580Y-1302080D01*
G01X6069000Y-943500D01*
G01X6935579Y-1310760D02*
G01X6491820Y-867000D01*
G01X5855342Y-867000D01*
G01X5411583Y-1310760D01*
G01X4333980Y-801160D02*
G01X4365040Y-770100D01*
G01X6318900Y-770100D01*
G01X7189579Y-1280160D02*
G01X6582619Y-673200D01*
G01X3957600Y-673200D01*
G01X3712800Y-918000D01*
G01X7443578Y-1310760D02*
G01X6698919Y-566100D01*
G01X3927000Y-566100D01*
G01X3712800Y-918000D02*
G01X3712800Y-4039200D01*
G01X3927000Y-566100D02*
G01X3621000Y-872100D01*
G01X3621000Y-3978000D01*
G01X3529200Y-4065479D02*
G01X4328881Y-4865160D01*
G01X3886201Y-464099D02*
G01X3529200Y-821100D01*
G01X3529200Y-4065479D01*
G01X1530000Y-943500D02*
G01X1652400Y-943500D01*
G01X1764600Y-1055700D01*
G01X3957600Y-800700D02*
G01X3958060Y-801160D01*
G01X4333980Y-801160D01*
G01X8205577Y-1310376D02*
G01X8205577Y-1310760D01*
G01X7680600Y-785400D02*
G01X8205577Y-1310376D01*
G01X3771139Y-443700D02*
G01X3852739Y-362100D01*
G01X2172600Y-443700D02*
G01X3771139Y-443700D01*
G01X1846200Y-770100D02*
G01X2172600Y-443700D01*
G01X1846200Y-2368639D02*
G01X1846200Y-770100D01*
G01X1442780Y-2772059D02*
G01X1846200Y-2368639D01*
G01X1442780Y-2773983D02*
G01X1442780Y-2772059D01*
G01X1416302Y-2800460D02*
G01X1442780Y-2773983D01*
G01X1414378Y-2800460D02*
G01X1416302Y-2800460D01*
G01X1330079Y-2884760D02*
G01X1414378Y-2800460D01*
G01X1304580Y-2884759D02*
G01X1330079Y-2884760D01*
G01X2022580Y-4865160D02*
G01X2677260Y-4865160D01*
G01X4156500Y-6344400D01*
G01X6991706Y-6344400D01*
G01X7401000Y-5935106D01*
G01X4333980Y-2833160D02*
G01X4987800Y-3486980D01*
G01X4987800Y-3651600D01*
G01X5271283Y-3935083D01*
G01X4333980Y-3341160D02*
G01X4702200Y-3709380D01*
G01X4702200Y-5236286D01*
G01X5400997Y-5935083D01*
G01X7600200Y-3345652D02*
G01X7404580Y-3345652D01*
G01X7660200Y-3405652D02*
G01X7600200Y-3345652D01*
G01X2802760Y-5373160D02*
G01X3998400Y-6568800D01*
G01X2022580Y-5373160D02*
G01X2802760Y-5373160D01*
G01X3998400Y-6568800D02*
G01X7226700Y-6568800D01*
G01X7660200Y-6135300D01*
G01X7660200Y-3405652D01*
G01X6767700Y-453900D02*
G01X7099200Y-785400D01*
G01X7680600Y-785400D01*
G01X3852739Y-362100D02*
G01X4253400Y-362100D01*
G01X4345200Y-453900D01*
G01X6767700Y-453900D01*
G01X4333980Y-4357160D02*
G01X4579800Y-4602980D01*
G01X4579800Y-4722600D01*
G04 Track End*

M02*

