G04 Layer: TopPasteMaskLayer*
G04 EasyEDA Pro v2.2.45.4, 2026-05-28 03:39:25*
G04 Gerber Generator version 0.3*
G04 Scale: 100 percent, Rotated: No, Reflected: No*
G04 Dimensions in millimeters*
G04 Leading zeros omitted, absolute positions, 4 integers and 5 decimals*
G04 Generated by one-click*
%FSLAX45Y45*%
%MOMM*%
%ADD10R,1.6X0.9*%
%ADD11R,1.1X2.49999*%
%ADD12R,3.59999X2.34*%
%ADD13R,0.35999X0.6*%
%ADD14R,1.2X0.6*%
%ADD15R,2.4014X3.29999*%
%ADD16R,2.4X3.29999*%
G75*


G04 PolygonModel Start*
G36*
G01X1240580Y-1414262D02*
G01X1368578Y-1414262D01*
G01X1373579Y-1419264D01*
G01X1373579Y-1534265D01*
G01X1368578Y-1539263D01*
G01X1327575Y-1539766D01*
G01X1327575Y-1494765D01*
G01X1282576Y-1494765D01*
G01X1282576Y-1538766D01*
G01X1240580Y-1539263D01*
G01X1235578Y-1534265D01*
G01X1235578Y-1419264D01*
G01X1240580Y-1414262D01*
G37*
G36*
G01X1368580Y-1755257D02*
G01X1240582Y-1755257D01*
G01X1235581Y-1750256D01*
G01X1235581Y-1635255D01*
G01X1240582Y-1630256D01*
G01X1281585Y-1629753D01*
G01X1281585Y-1674755D01*
G01X1326584Y-1674755D01*
G01X1326584Y-1630754D01*
G01X1368580Y-1630256D01*
G01X1373582Y-1635255D01*
G01X1373582Y-1750256D01*
G01X1368580Y-1755257D01*
G37*
G36*
G01X568580Y-1755257D02*
G01X440582Y-1755257D01*
G01X435581Y-1750256D01*
G01X435581Y-1635255D01*
G01X440582Y-1630256D01*
G01X481585Y-1629753D01*
G01X481585Y-1674755D01*
G01X526584Y-1674755D01*
G01X526584Y-1630754D01*
G01X568580Y-1630256D01*
G01X573582Y-1635255D01*
G01X573582Y-1750256D01*
G01X568580Y-1755257D01*
G37*
G36*
G01X440580Y-1414262D02*
G01X568578Y-1414262D01*
G01X573579Y-1419264D01*
G01X573579Y-1534265D01*
G01X568578Y-1539263D01*
G01X527575Y-1539766D01*
G01X527575Y-1494765D01*
G01X482576Y-1494765D01*
G01X482576Y-1538766D01*
G01X440580Y-1539263D01*
G01X435578Y-1534265D01*
G01X435578Y-1419264D01*
G01X440580Y-1414262D01*
G37*
G36*
G01X968580Y-1755257D02*
G01X840582Y-1755257D01*
G01X835581Y-1750256D01*
G01X835581Y-1635255D01*
G01X840582Y-1630256D01*
G01X881585Y-1629753D01*
G01X881585Y-1674755D01*
G01X926584Y-1674755D01*
G01X926584Y-1630754D01*
G01X968580Y-1630256D01*
G01X973582Y-1635255D01*
G01X973582Y-1750256D01*
G01X968580Y-1755257D01*
G37*
G36*
G01X840580Y-1414262D02*
G01X968578Y-1414262D01*
G01X973579Y-1419264D01*
G01X973579Y-1534265D01*
G01X968578Y-1539263D01*
G01X927575Y-1539766D01*
G01X927575Y-1494765D01*
G01X882576Y-1494765D01*
G01X882576Y-1538766D01*
G01X840580Y-1539263D01*
G01X835578Y-1534265D01*
G01X835578Y-1419264D01*
G01X840580Y-1414262D01*
G37*
G36*
G01X840580Y-2614262D02*
G01X968578Y-2614262D01*
G01X973579Y-2619263D01*
G01X973579Y-2734265D01*
G01X968578Y-2739263D01*
G01X927575Y-2739766D01*
G01X927575Y-2694765D01*
G01X882576Y-2694765D01*
G01X882576Y-2738765D01*
G01X840580Y-2739263D01*
G01X835578Y-2734265D01*
G01X835578Y-2619263D01*
G01X840580Y-2614262D01*
G37*
G36*
G01X968580Y-2955257D02*
G01X840582Y-2955257D01*
G01X835581Y-2950256D01*
G01X835581Y-2835255D01*
G01X840582Y-2830256D01*
G01X881585Y-2829753D01*
G01X881585Y-2874754D01*
G01X926584Y-2874754D01*
G01X926584Y-2830754D01*
G01X968580Y-2830256D01*
G01X973582Y-2835255D01*
G01X973582Y-2950256D01*
G01X968580Y-2955257D01*
G37*
G36*
G01X1368580Y-2955257D02*
G01X1240582Y-2955257D01*
G01X1235581Y-2950256D01*
G01X1235581Y-2835255D01*
G01X1240582Y-2830256D01*
G01X1281585Y-2829753D01*
G01X1281585Y-2874754D01*
G01X1326584Y-2874754D01*
G01X1326584Y-2830754D01*
G01X1368580Y-2830256D01*
G01X1373582Y-2835255D01*
G01X1373582Y-2950256D01*
G01X1368580Y-2955257D01*
G37*
G36*
G01X1240580Y-2614262D02*
G01X1368578Y-2614262D01*
G01X1373579Y-2619263D01*
G01X1373579Y-2734265D01*
G01X1368578Y-2739263D01*
G01X1327575Y-2739766D01*
G01X1327575Y-2694765D01*
G01X1282576Y-2694765D01*
G01X1282576Y-2738765D01*
G01X1240580Y-2739263D01*
G01X1235578Y-2734265D01*
G01X1235578Y-2619263D01*
G01X1240580Y-2614262D01*
G37*

G04 Pad Start*
G54D10*
G01X1317347Y-2282300D03*
G01X1317347Y-2122306D03*
G54D11*
G01X1134577Y-3211865D03*
G01X904580Y-3211865D03*
G01X674583Y-3211865D03*
G54D12*
G01X904580Y-3805857D03*
G54D13*
G01X504580Y-2849759D03*
G01X504580Y-2719761D03*
G54D14*
G01X433950Y-2002560D03*
G01X433950Y-2129560D03*
G01X433950Y-2256560D03*
G01X433950Y-2383560D03*
G01X1015610Y-2383560D03*
G01X1015610Y-2256560D03*
G01X1015610Y-2129560D03*
G01X1015610Y-2002560D03*
G54D16*
G01X724780Y-2193060D03*
G04 Pad End*

M02*

