G04 Layer: TopSilkscreenLayer*
G04 EasyEDA Pro v2.2.45.4, 2026-05-28 03:39:25*
G04 Gerber Generator version 0.3*
G04 Scale: 100 percent, Rotated: No, Reflected: No*
G04 Dimensions in millimeters*
G04 Leading zeros omitted, absolute positions, 4 integers and 5 decimals*
G04 Generated by one-click*
%FSLAX45Y45*%
%MOMM*%
%ADD10C,0.2032*%
%ADD11C,0.1524*%
%ADD12C,0.254*%
%ADD13C,0.2*%
%ADD14C,0.11999*%
%ADD15C,0.1535*%
%ADD16C,0.15199*%
G75*


G04 Image Start*
G36*
G01X2335998Y-6068388D02*
G01X2333334Y-6071721D01*
G01X2330519Y-6072666D01*
G01X2329554Y-6071998D01*
G01X2326085Y-6068736D01*
G01X2323588Y-6066143D01*
G01X2323839Y-6064599D01*
G01X2324101Y-6063052D01*
G01X2326410Y-6060316D01*
G01X2331625Y-6053800D01*
G01X2334540Y-6049575D01*
G01X2336077Y-6047362D01*
G01X2337636Y-6045102D01*
G01X2339547Y-6041924D01*
G01X2343057Y-6035714D01*
G01X2344609Y-6033192D01*
G01X2346265Y-6030065D01*
G01X2347763Y-6027129D01*
G01X2349204Y-6023880D01*
G01X2350705Y-6020271D01*
G01X2352175Y-6016763D01*
G01X2353783Y-6012684D01*
G01X2355513Y-6007769D01*
G01X2357034Y-6003105D01*
G01X2357733Y-6001566D01*
G01X2358330Y-5997700D01*
G01X2358919Y-5993837D01*
G01X2359762Y-5991942D01*
G01X2360601Y-5990052D01*
G01X2361421Y-5984424D01*
G01X2363039Y-5974627D01*
G01X2363834Y-5970461D01*
G01X2363834Y-5952536D01*
G01X2363842Y-5934614D01*
G01X2362823Y-5928988D01*
G01X2361208Y-5919402D01*
G01X2360606Y-5915440D01*
G01X2359750Y-5913525D01*
G01X2358896Y-5911609D01*
G01X2358292Y-5907899D01*
G01X2357685Y-5904185D01*
G01X2356788Y-5902031D01*
G01X2355345Y-5897492D01*
G01X2353997Y-5893606D01*
G01X2352343Y-5889275D01*
G01X2350783Y-5885315D01*
G01X2349445Y-5882303D01*
G01X2347962Y-5878970D01*
G01X2346333Y-5875511D01*
G01X2344426Y-5871978D01*
G01X2343298Y-5869951D01*
G01X2342094Y-5867782D01*
G01X2339867Y-5864302D01*
G01X2336161Y-5858440D01*
G01X2334611Y-5856103D01*
G01X2331817Y-5852290D01*
G01X2328449Y-5847830D01*
G01X2326694Y-5845539D01*
G01X2323829Y-5842265D01*
G01X2317963Y-5835850D01*
G01X2311294Y-5829369D01*
G01X2308249Y-5826550D01*
G01X2305531Y-5824579D01*
G01X2303499Y-5823134D01*
G01X2296867Y-5818122D01*
G01X2294233Y-5816278D01*
G01X2291988Y-5814782D01*
G01X2289765Y-5813471D01*
G01X2286267Y-5811533D01*
G01X2283118Y-5809755D01*
G01X2279600Y-5807878D01*
G01X2276270Y-5806187D01*
G01X2274972Y-5805227D01*
G01X2272935Y-5804754D01*
G01X2268675Y-5803093D01*
G01X2266453Y-5801902D01*
G01X2262966Y-5801051D01*
G01X2258587Y-5799540D01*
G01X2257692Y-5798879D01*
G01X2253001Y-5797848D01*
G01X2242082Y-5795672D01*
G01X2233679Y-5794711D01*
G01X2227568Y-5794267D01*
G01X2207568Y-5794769D01*
G01X2201830Y-5795788D01*
G01X2191546Y-5797873D01*
G01X2186999Y-5798938D01*
G01X2186087Y-5799608D01*
G01X2185178Y-5800279D01*
G01X2181084Y-5801254D01*
G01X2176984Y-5802232D01*
G01X2175772Y-5803075D01*
G01X2172031Y-5804579D01*
G01X2169509Y-5805239D01*
G01X2168356Y-5806217D01*
G01X2165297Y-5807828D01*
G01X2161967Y-5809517D01*
G01X2159059Y-5811178D01*
G01X2155374Y-5813276D01*
G01X2152757Y-5814782D01*
G01X2151073Y-5815869D01*
G01X2147947Y-5817972D01*
G01X2144594Y-5820155D01*
G01X2141272Y-5822842D01*
G01X2138678Y-5824813D01*
G01X2136280Y-5826654D01*
G01X2134426Y-5828206D01*
G01X2129428Y-5833184D01*
G01X2124172Y-5838455D01*
G01X2122991Y-5839397D01*
G01X2121297Y-5838917D01*
G01X2119605Y-5838440D01*
G01X2118777Y-5837381D01*
G01X2116560Y-5834818D01*
G01X2115171Y-5833311D01*
G01X2115171Y-5829466D01*
G01X2118183Y-5826603D01*
G01X2123647Y-5821282D01*
G01X2126793Y-5818363D01*
G01X2131040Y-5815074D01*
G01X2133631Y-5812864D01*
G01X2136712Y-5810449D01*
G01X2138879Y-5808729D01*
G01X2141223Y-5807066D01*
G01X2145910Y-5804152D01*
G01X2150725Y-5801231D01*
G01X2154515Y-5799113D01*
G01X2158544Y-5797226D01*
G01X2161810Y-5795562D01*
G01X2162803Y-5794734D01*
G01X2165640Y-5793936D01*
G01X2169339Y-5792509D01*
G01X2173695Y-5790850D01*
G01X2179239Y-5788798D01*
G01X2181277Y-5787772D01*
G01X2184398Y-5787279D01*
G01X2189397Y-5786004D01*
G01X2193772Y-5784819D01*
G01X2201277Y-5783969D01*
G01X2215580Y-5783064D01*
G01X2223997Y-5782857D01*
G01X2232244Y-5783512D01*
G01X2244643Y-5784539D01*
G01X2253123Y-5786034D01*
G01X2259351Y-5787482D01*
G01X2263982Y-5788892D01*
G01X2268602Y-5790523D01*
G01X2273146Y-5792235D01*
G01X2277360Y-5793908D01*
G01X2280283Y-5794726D01*
G01X2282257Y-5795956D01*
G01X2285711Y-5797703D01*
G01X2288706Y-5799207D01*
G01X2291965Y-5800782D01*
G01X2294708Y-5802135D01*
G01X2302998Y-5807442D01*
G01X2305709Y-5809357D01*
G01X2307492Y-5810675D01*
G01X2310220Y-5812649D01*
G01X2312937Y-5814990D01*
G01X2320860Y-5821879D01*
G01X2324042Y-5824863D01*
G01X2330901Y-5831911D01*
G01X2337291Y-5839788D01*
G01X2340138Y-5843604D01*
G01X2342742Y-5847297D01*
G01X2344891Y-5850307D01*
G01X2347189Y-5853700D01*
G01X2350121Y-5858336D01*
G01X2352907Y-5863202D01*
G01X2354406Y-5865836D01*
G01X2355673Y-5868056D01*
G01X2357314Y-5870784D01*
G01X2358078Y-5871564D01*
G01X2358863Y-5874200D01*
G01X2360296Y-5877800D01*
G01X2361594Y-5880634D01*
G01X2363186Y-5884071D01*
G01X2364136Y-5885633D01*
G01X2364820Y-5888401D01*
G01X2366069Y-5892153D01*
G01X2367527Y-5896850D01*
G01X2368411Y-5900568D01*
G01X2369214Y-5901790D01*
G01X2370014Y-5903012D01*
G01X2370695Y-5907558D01*
G01X2371947Y-5913774D01*
G01X2372981Y-5917700D01*
G01X2373659Y-5923151D01*
G01X2374441Y-5929717D01*
G01X2374830Y-5931904D01*
G01X2376260Y-5931904D01*
G01X2376260Y-5976087D01*
G01X2374827Y-5976087D01*
G01X2374614Y-5976842D01*
G01X2373857Y-5982864D01*
G01X2372986Y-5989620D01*
G01X2371858Y-5993893D01*
G01X2370715Y-5999232D01*
G01X2370275Y-6002557D01*
G01X2369216Y-6005059D01*
G01X2367720Y-6009641D01*
G01X2366232Y-6014436D01*
G01X2364786Y-6018897D01*
G01X2363529Y-6021815D01*
G01X2361876Y-6025376D01*
G01X2360194Y-6029336D01*
G01X2358848Y-6032567D01*
G01X2357550Y-6035277D01*
G01X2355752Y-6038475D01*
G01X2354380Y-6040921D01*
G01X2352894Y-6043766D01*
G01X2351184Y-6047134D01*
G01X2348495Y-6051114D01*
G01X2346618Y-6054035D01*
G01X2343233Y-6059293D01*
G01X2339595Y-6063964D01*
G01X2335998Y-6068388D01*
G37*
G36*
G01X2290712Y-6076326D02*
G01X2287019Y-6078802D01*
G01X2284248Y-6080291D01*
G01X2283085Y-6080291D01*
G01X2279742Y-6079511D01*
G01X2275155Y-6078452D01*
G01X2269490Y-6077574D01*
G01X2266270Y-6076537D01*
G01X2260900Y-6074883D01*
G01X2255155Y-6073143D01*
G01X2250926Y-6071713D01*
G01X2245556Y-6069714D01*
G01X2240268Y-6067598D01*
G01X2237355Y-6066290D01*
G01X2234284Y-6064827D01*
G01X2230636Y-6063138D01*
G01X2227512Y-6061515D01*
G01X2224441Y-6059973D01*
G01X2221134Y-6058119D01*
G01X2218157Y-6056359D01*
G01X2215460Y-6054698D01*
G01X2213110Y-6053174D01*
G01X2210763Y-6051657D01*
G01X2207997Y-6049933D01*
G01X2205356Y-6047990D01*
G01X2198414Y-6042884D01*
G01X2196461Y-6041528D01*
G01X2193007Y-6038998D01*
G01X2189979Y-6036113D01*
G01X2188777Y-6035241D01*
G01X2186037Y-6033004D01*
G01X2182740Y-6029857D01*
G01X2176619Y-6023914D01*
G01X2168376Y-6014997D01*
G01X2160760Y-6006179D01*
G01X2156519Y-6000535D01*
G01X2154850Y-5998165D01*
G01X2152389Y-5994901D01*
G01X2149610Y-5990924D01*
G01X2144284Y-5982549D01*
G01X2142023Y-5978798D01*
G01X2139252Y-5973819D01*
G01X2137413Y-5970484D01*
G01X2135912Y-5967543D01*
G01X2134431Y-5964627D01*
G01X2132945Y-5961498D01*
G01X2131421Y-5958328D01*
G01X2129956Y-5955259D01*
G01X2128307Y-5951561D01*
G01X2127393Y-5949344D01*
G01X2126131Y-5945915D01*
G01X2124073Y-5940497D01*
G01X2122778Y-5937337D01*
G01X2121462Y-5933451D01*
G01X2119753Y-5928051D01*
G01X2118315Y-5923393D01*
G01X2117025Y-5918780D01*
G01X2115386Y-5911769D01*
G01X2113720Y-5904754D01*
G01X2112953Y-5902824D01*
G01X2112559Y-5899547D01*
G01X2111061Y-5888965D01*
G01X2110611Y-5886667D01*
G01X2111937Y-5883520D01*
G01X2113875Y-5879801D01*
G01X2115379Y-5877253D01*
G01X2116654Y-5875008D01*
G01X2118152Y-5872374D01*
G01X2120208Y-5868656D01*
G01X2122935Y-5864797D01*
G01X2127451Y-5858960D01*
G01X2131429Y-5854175D01*
G01X2132021Y-5853764D01*
G01X2139428Y-5853624D01*
G01X2146837Y-5853484D01*
G01X2148282Y-5853837D01*
G01X2149730Y-5854190D01*
G01X2150388Y-5855221D01*
G01X2151043Y-5856253D01*
G01X2151432Y-5866464D01*
G01X2151823Y-5876674D01*
G01X2152387Y-5878970D01*
G01X2153685Y-5886763D01*
G01X2154814Y-5894230D01*
G01X2155940Y-5898277D01*
G01X2157213Y-5903608D01*
G01X2157731Y-5906933D01*
G01X2158483Y-5908475D01*
G01X2160189Y-5913774D01*
G01X2161848Y-5918887D01*
G01X2163161Y-5922638D01*
G01X2164795Y-5927111D01*
G01X2166242Y-5930690D01*
G01X2167573Y-5933568D01*
G01X2169252Y-5937566D01*
G01X2170588Y-5940703D01*
G01X2171823Y-5942714D01*
G01X2173626Y-5945793D01*
G01X2175191Y-5948917D01*
G01X2176466Y-5951495D01*
G01X2177954Y-5953994D01*
G01X2179844Y-5957020D01*
G01X2181091Y-5958996D01*
G01X2183631Y-5962653D01*
G01X2186793Y-5967248D01*
G01X2190083Y-5971696D01*
G01X2194540Y-5977004D01*
G01X2205338Y-5989007D01*
G01X2210749Y-5994470D01*
G01X2213989Y-5997299D01*
G01X2216486Y-5999382D01*
G01X2219077Y-6001612D01*
G01X2223118Y-6004670D01*
G01X2227370Y-6007614D01*
G01X2229412Y-6009003D01*
G01X2232059Y-6010855D01*
G01X2234396Y-6012529D01*
G01X2237383Y-6014225D01*
G01X2240334Y-6015876D01*
G01X2242859Y-6017380D01*
G01X2246456Y-6019250D01*
G01X2249976Y-6020906D01*
G01X2253494Y-6022587D01*
G01X2257352Y-6024231D01*
G01X2261467Y-6025907D01*
G01X2263202Y-6026895D01*
G01X2266641Y-6027563D01*
G01X2270080Y-6028236D01*
G01X2271784Y-6029209D01*
G01X2273489Y-6030179D01*
G01X2276229Y-6030657D01*
G01X2279249Y-6031330D01*
G01X2285028Y-6032567D01*
G01X2290525Y-6033608D01*
G01X2299415Y-6034043D01*
G01X2309361Y-6034747D01*
G01X2311908Y-6035160D01*
G01X2313026Y-6035635D01*
G01X2313692Y-6037621D01*
G01X2314025Y-6039237D01*
G01X2313997Y-6047154D01*
G01X2313727Y-6055970D01*
G01X2313486Y-6056867D01*
G01X2309750Y-6060555D01*
G01X2301745Y-6068283D01*
G01X2298134Y-6071124D01*
G01X2295460Y-6073062D01*
G01X2293118Y-6074647D01*
G01X2290712Y-6076326D01*
G37*
G36*
G01X2316633Y-6015292D02*
G01X2308670Y-6016938D01*
G01X2301682Y-6017062D01*
G01X2293674Y-6016113D01*
G01X2284982Y-6014647D01*
G01X2280555Y-6013964D01*
G01X2278874Y-6013171D01*
G01X2273341Y-6011302D01*
G01X2268124Y-6009435D01*
G01X2264256Y-6007995D01*
G01X2260222Y-6006339D01*
G01X2256509Y-6004700D01*
G01X2252988Y-6003060D01*
G01X2250710Y-6001739D01*
G01X2247830Y-6000210D01*
G01X2244126Y-5998211D01*
G01X2241397Y-5996664D01*
G01X2237309Y-5993702D01*
G01X2233862Y-5991559D01*
G01X2230921Y-5989448D01*
G01X2228790Y-5987662D01*
G01X2227385Y-5986491D01*
G01X2225254Y-5984701D01*
G01X2220723Y-5980685D01*
G01X2218038Y-5978173D01*
G01X2215254Y-5975417D01*
G01X2211365Y-5971609D01*
G01X2209976Y-5970172D01*
G01X2206923Y-5966286D01*
G01X2201913Y-5960085D01*
G01X2197393Y-5953786D01*
G01X2194632Y-5949829D01*
G01X2192442Y-5946250D01*
G01X2190578Y-5942986D01*
G01X2189239Y-5940489D01*
G01X2188277Y-5938960D01*
G01X2186118Y-5935239D01*
G01X2181932Y-5926390D01*
G01X2180337Y-5922430D01*
G01X2175744Y-5910118D01*
G01X2174444Y-5905326D01*
G01X2172989Y-5899913D01*
G01X2172262Y-5898302D01*
G01X2171505Y-5893809D01*
G01X2169849Y-5886748D01*
G01X2168952Y-5884177D01*
G01X2168711Y-5880634D01*
G01X2167921Y-5871881D01*
G01X2167058Y-5859692D01*
G01X2166738Y-5852712D01*
G01X2167055Y-5846001D01*
G01X2167934Y-5834736D01*
G01X2168505Y-5828209D01*
G01X2168518Y-5826245D01*
G01X2169222Y-5824498D01*
G01X2169928Y-5822748D01*
G01X2171345Y-5821947D01*
G01X2174243Y-5820611D01*
G01X2177573Y-5818932D01*
G01X2182163Y-5817061D01*
G01X2186423Y-5815349D01*
G01X2187942Y-5814373D01*
G01X2189608Y-5814378D01*
G01X2191277Y-5814381D01*
G01X2192757Y-5815138D01*
G01X2195647Y-5816179D01*
G01X2202943Y-5818031D01*
G01X2206461Y-5819298D01*
G01X2209303Y-5820388D01*
G01X2211383Y-5821648D01*
G01X2212473Y-5822682D01*
G01X2211599Y-5826547D01*
G01X2210723Y-5830411D01*
G01X2210349Y-5835623D01*
G01X2209600Y-5844581D01*
G01X2208993Y-5851122D01*
G01X2208762Y-5853916D01*
G01X2209178Y-5856334D01*
G01X2210172Y-5866880D01*
G01X2211026Y-5875860D01*
G01X2212966Y-5885219D01*
G01X2214159Y-5890431D01*
G01X2215170Y-5892514D01*
G01X2216621Y-5896684D01*
G01X2217903Y-5900225D01*
G01X2219410Y-5903977D01*
G01X2220921Y-5907312D01*
G01X2222569Y-5910746D01*
G01X2223852Y-5913454D01*
G01X2225198Y-5915440D01*
G01X2228107Y-5920350D01*
G01X2230964Y-5924934D01*
G01X2235358Y-5930771D01*
G01X2237502Y-5933667D01*
G01X2240888Y-5937465D01*
G01X2249234Y-5945704D01*
G01X2256722Y-5951787D01*
G01X2259788Y-5953824D01*
G01X2262750Y-5955884D01*
G01X2266077Y-5957530D01*
G01X2269252Y-5959013D01*
G01X2272775Y-5960852D01*
G01X2276674Y-5962742D01*
G01X2280563Y-5964226D01*
G01X2283118Y-5964883D01*
G01X2284416Y-5965856D01*
G01X2285711Y-5966827D01*
G01X2287746Y-5967093D01*
G01X2300060Y-5969483D01*
G01X2304032Y-5970347D01*
G01X2305389Y-5970060D01*
G01X2306747Y-5969773D01*
G01X2308556Y-5968033D01*
G01X2310362Y-5966291D01*
G01X2310946Y-5964045D01*
G01X2311535Y-5961797D01*
G01X2311353Y-5960294D01*
G01X2310476Y-5957144D01*
G01X2309783Y-5955496D01*
G01X2306948Y-5953908D01*
G01X2304108Y-5952321D01*
G01X2301208Y-5951922D01*
G01X2294972Y-5951076D01*
G01X2291637Y-5950626D01*
G01X2290570Y-5949758D01*
G01X2289503Y-5948887D01*
G01X2283118Y-5947322D01*
G01X2280527Y-5945910D01*
G01X2269757Y-5939770D01*
G01X2267792Y-5938389D01*
G01X2265526Y-5936695D01*
G01X2262846Y-5934772D01*
G01X2260479Y-5932948D01*
G01X2258988Y-5931503D01*
G01X2256704Y-5929628D01*
G01X2252381Y-5925318D01*
G01X2246328Y-5918590D01*
G01X2242013Y-5912493D01*
G01X2238599Y-5907020D01*
G01X2236824Y-5903553D01*
G01X2235541Y-5900657D01*
G01X2233717Y-5896773D01*
G01X2232252Y-5893802D01*
G01X2230901Y-5889974D01*
G01X2229217Y-5884851D01*
G01X2227764Y-5879552D01*
G01X2226321Y-5873951D01*
G01X2225605Y-5872090D01*
G01X2225206Y-5867297D01*
G01X2224571Y-5856461D01*
G01X2224330Y-5850416D01*
G01X2224957Y-5843962D01*
G01X2225587Y-5837510D01*
G01X2226311Y-5835211D01*
G01X2227601Y-5828953D01*
G01X2228168Y-5824993D01*
G01X2229054Y-5823284D01*
G01X2230685Y-5818551D01*
G01X2232193Y-5814150D01*
G01X2234157Y-5811104D01*
G01X2235079Y-5810139D01*
G01X2241035Y-5810985D01*
G01X2246997Y-5811831D01*
G01X2248162Y-5812511D01*
G01X2249331Y-5813192D01*
G01X2253240Y-5813807D01*
G01X2257649Y-5814803D01*
G01X2260580Y-5816555D01*
G01X2262950Y-5818323D01*
G01X2265678Y-5820197D01*
G01X2268825Y-5822595D01*
G01X2270956Y-5823949D01*
G01X2272193Y-5824785D01*
G01X2272935Y-5825618D01*
G01X2272935Y-5829410D01*
G01X2272381Y-5830619D01*
G01X2271302Y-5832163D01*
G01X2270784Y-5832494D01*
G01X2269001Y-5838333D01*
G01X2267217Y-5844165D01*
G01X2267083Y-5852367D01*
G01X2266943Y-5860571D01*
G01X2267327Y-5863355D01*
G01X2268460Y-5868282D01*
G01X2269778Y-5872793D01*
G01X2270347Y-5875163D01*
G01X2271246Y-5876364D01*
G01X2272844Y-5879621D01*
G01X2273919Y-5882083D01*
G01X2275608Y-5884857D01*
G01X2280982Y-5891584D01*
G01X2285024Y-5895997D01*
G01X2287009Y-5897525D01*
G01X2289310Y-5899204D01*
G01X2292252Y-5900875D01*
G01X2295787Y-5902742D01*
G01X2297393Y-5903885D01*
G01X2299143Y-5904180D01*
G01X2304228Y-5905491D01*
G01X2312188Y-5907124D01*
G01X2316821Y-5907733D01*
G01X2319412Y-5909156D01*
G01X2323303Y-5911094D01*
G01X2325348Y-5912366D01*
G01X2327756Y-5913776D01*
G01X2330707Y-5915602D01*
G01X2333113Y-5917434D01*
G01X2337321Y-5921457D01*
G01X2340855Y-5925953D01*
G01X2342191Y-5927741D01*
G01X2342930Y-5928183D01*
G01X2343903Y-5930357D01*
G01X2345940Y-5933901D01*
G01X2347001Y-5936029D01*
G01X2347850Y-5938203D01*
G01X2349109Y-5940857D01*
G01X2350131Y-5944657D01*
G01X2351462Y-5949151D01*
G01X2352231Y-5951106D01*
G01X2352605Y-5956377D01*
G01X2352981Y-5961647D01*
G01X2352592Y-5967192D01*
G01X2352206Y-5972732D01*
G01X2351604Y-5974307D01*
G01X2350164Y-5979250D01*
G01X2348363Y-5984469D01*
G01X2346819Y-5988175D01*
G01X2345439Y-5990982D01*
G01X2343880Y-5993342D01*
G01X2340838Y-5998054D01*
G01X2337301Y-6002193D01*
G01X2332744Y-6006573D01*
G01X2330629Y-6008137D01*
G01X2328617Y-6009580D01*
G01X2325566Y-6011498D01*
G01X2322635Y-6013176D01*
G01X2321637Y-6013997D01*
G01X2316633Y-6015292D01*
G37*
G36*
G01X1559566Y-6050052D02*
G01X1557996Y-6050433D01*
G01X1514115Y-6050530D01*
G01X1470968Y-6050443D01*
G01X1467504Y-6049321D01*
G01X1463208Y-6048195D01*
G01X1461118Y-6047167D01*
G01X1458009Y-6045142D01*
G01X1455441Y-6043242D01*
G01X1453401Y-6041429D01*
G01X1451712Y-6039979D01*
G01X1447399Y-6034459D01*
G01X1446051Y-6032834D01*
G01X1445385Y-6030824D01*
G01X1443912Y-6027952D01*
G01X1443112Y-6027088D01*
G01X1442469Y-6023837D01*
G01X1441123Y-6018282D01*
G01X1440417Y-6015973D01*
G01X1440417Y-5957868D01*
G01X1471156Y-5957868D01*
G01X1471156Y-6009384D01*
G01X1471524Y-6009641D01*
G01X1472845Y-6012168D01*
G01X1474133Y-6014436D01*
G01X1475563Y-6015645D01*
G01X1476660Y-6016854D01*
G01X1476660Y-6016854D01*
G01X1478555Y-6017314D01*
G01X1480450Y-6017769D01*
G01X1504224Y-6017738D01*
G01X1528001Y-6017705D01*
G01X1529299Y-6017179D01*
G01X1530592Y-6016654D01*
G01X1530701Y-5984802D01*
G01X1530811Y-5952953D01*
G01X1530399Y-5951358D01*
G01X1529993Y-5949763D01*
G01X1528692Y-5949151D01*
G01X1527387Y-5948539D01*
G01X1479487Y-5948787D01*
G01X1473655Y-5952536D01*
G01X1472406Y-5955201D01*
G01X1471156Y-5957868D01*
G01X1440417Y-5957868D01*
G01X1440417Y-5954965D01*
G01X1441146Y-5950832D01*
G01X1442643Y-5943389D01*
G01X1444565Y-5938249D01*
G01X1446427Y-5933967D01*
G01X1447120Y-5933547D01*
G01X1448354Y-5931996D01*
G01X1449552Y-5930120D01*
G01X1451446Y-5927957D01*
G01X1456660Y-5923443D01*
G01X1457910Y-5922526D01*
G01X1458372Y-5920974D01*
G01X1458840Y-5919428D01*
G01X1457994Y-5918800D01*
G01X1454204Y-5915196D01*
G01X1450910Y-5911132D01*
G01X1449302Y-5908981D01*
G01X1447394Y-5906085D01*
G01X1445337Y-5901475D01*
G01X1443887Y-5897840D01*
G01X1443140Y-5896496D01*
G01X1442502Y-5891399D01*
G01X1441870Y-5886303D01*
G01X1440803Y-5882737D01*
G01X1439310Y-5875694D01*
G01X1438880Y-5872214D01*
G01X1438167Y-5870662D01*
G01X1437450Y-5869115D01*
G01X1436536Y-5863306D01*
G01X1434854Y-5855260D01*
G01X1433541Y-5848897D01*
G01X1432993Y-5844777D01*
G01X1432284Y-5843220D01*
G01X1431570Y-5841663D01*
G01X1430790Y-5836946D01*
G01X1430008Y-5832224D01*
G01X1430851Y-5829354D01*
G01X1431911Y-5828737D01*
G01X1432975Y-5828120D01*
G01X1446234Y-5828127D01*
G01X1459490Y-5828137D01*
G01X1461039Y-5828927D01*
G01X1462589Y-5829722D01*
G01X1463165Y-5830980D01*
G01X1464143Y-5835285D01*
G01X1465064Y-5841845D01*
G01X1465728Y-5844401D01*
G01X1466692Y-5848758D01*
G01X1467620Y-5855544D01*
G01X1467852Y-5857751D01*
G01X1469304Y-5860891D01*
G01X1469675Y-5864200D01*
G01X1470686Y-5871485D01*
G01X1471834Y-5876687D01*
G01X1473140Y-5884043D01*
G01X1473699Y-5888912D01*
G01X1474296Y-5890210D01*
G01X1475619Y-5895346D01*
G01X1476348Y-5899184D01*
G01X1477455Y-5900919D01*
G01X1479274Y-5904536D01*
G01X1479995Y-5906420D01*
G01X1480849Y-5906928D01*
G01X1483043Y-5908727D01*
G01X1486340Y-5911620D01*
G01X1488309Y-5913217D01*
G01X1490747Y-5914053D01*
G01X1494115Y-5915582D01*
G01X1495040Y-5916273D01*
G01X1529269Y-5916273D01*
G01X1529934Y-5915531D01*
G01X1530592Y-5914784D01*
G01X1530780Y-5872788D01*
G01X1530963Y-5830792D01*
G01X1531616Y-5829672D01*
G01X1532271Y-5828549D01*
G01X1533137Y-5828305D01*
G01X1546556Y-5828209D01*
G01X1559111Y-5828356D01*
G01X1559772Y-5828706D01*
G01X1560976Y-5830233D01*
G01X1561517Y-5831412D01*
G01X1561517Y-6047405D01*
G01X1560953Y-6048630D01*
G01X1560391Y-6049852D01*
G01X1559566Y-6050052D01*
G37*
G36*
G01X1710025Y-6047124D02*
G01X1710023Y-6048134D01*
G01X1708082Y-6050730D01*
G01X1661554Y-6050608D01*
G01X1615032Y-6050492D01*
G01X1612809Y-6049582D01*
G01X1608918Y-6048386D01*
G01X1606642Y-6047725D01*
G01X1605220Y-6046550D01*
G01X1602954Y-6045127D01*
G01X1601247Y-6044424D01*
G01X1600277Y-6043202D01*
G01X1598281Y-6041332D01*
G01X1595588Y-6038597D01*
G01X1592372Y-6034688D01*
G01X1590826Y-6032864D01*
G01X1590358Y-6031109D01*
G01X1589393Y-6029138D01*
G01X1588332Y-6027623D01*
G01X1587442Y-6024231D01*
G01X1586254Y-6019890D01*
G01X1585514Y-6018046D01*
G01X1585194Y-6012801D01*
G01X1584877Y-6007558D01*
G01X1584872Y-5982966D01*
G01X1584869Y-5958373D01*
G01X1585052Y-5955023D01*
G01X1615956Y-5955023D01*
G01X1615956Y-6009384D01*
G01X1617455Y-6012077D01*
G01X1618956Y-6014766D01*
G01X1620328Y-6015831D01*
G01X1623360Y-6017322D01*
G01X1625027Y-6017748D01*
G01X1625027Y-6017748D01*
G01X1678453Y-6017769D01*
G01X1678875Y-6017195D01*
G01X1679299Y-6016618D01*
G01X1679289Y-5981940D01*
G01X1679279Y-5947256D01*
G01X1678898Y-5946456D01*
G01X1678517Y-5945661D01*
G01X1626142Y-5945696D01*
G01X1624658Y-5946336D01*
G01X1621044Y-5947835D01*
G01X1618903Y-5948704D01*
G01X1618179Y-5950411D01*
G01X1616706Y-5953573D01*
G01X1615956Y-5955023D01*
G01X1585052Y-5955023D01*
G01X1585215Y-5952031D01*
G01X1585560Y-5945686D01*
G01X1586271Y-5944109D01*
G01X1587440Y-5940035D01*
G01X1588388Y-5936697D01*
G01X1590049Y-5933229D01*
G01X1592443Y-5929599D01*
G01X1595588Y-5925773D01*
G01X1599667Y-5921362D01*
G01X1601456Y-5920190D01*
G01X1604496Y-5918343D01*
G01X1606297Y-5916979D01*
G01X1607887Y-5916697D01*
G01X1611329Y-5915303D01*
G01X1613178Y-5914190D01*
G01X1645829Y-5914068D01*
G01X1678476Y-5913949D01*
G01X1678890Y-5913390D01*
G01X1679299Y-5912834D01*
G01X1679289Y-5872872D01*
G01X1679279Y-5832913D01*
G01X1679642Y-5831490D01*
G01X1680820Y-5829095D01*
G01X1681636Y-5828120D01*
G01X1708105Y-5828120D01*
G01X1709063Y-5829402D01*
G01X1710023Y-5830685D01*
G01X1710025Y-5831693D01*
G01X1710025Y-6047124D01*
G37*
G36*
G01X1787792Y-6049862D02*
G01X1747371Y-6050184D01*
G01X1746390Y-6050283D01*
G01X1745242Y-6048808D01*
G01X1744094Y-6047334D01*
G01X1744094Y-6021228D01*
G01X1744501Y-6019907D01*
G01X1745590Y-6018178D01*
G01X1746269Y-6017769D01*
G01X1817630Y-6017769D01*
G01X1819509Y-6017223D01*
G01X1821389Y-6016671D01*
G01X1823086Y-6015102D01*
G01X1824788Y-6013537D01*
G01X1825197Y-6012143D01*
G01X1826141Y-6010248D01*
G01X1826677Y-6009747D01*
G01X1826677Y-5969707D01*
G01X1825760Y-5967583D01*
G01X1824220Y-5964675D01*
G01X1822080Y-5962501D01*
G01X1820625Y-5961289D01*
G01X1792824Y-5961084D01*
G01X1765019Y-5960875D01*
G01X1763708Y-5960002D01*
G01X1759700Y-5958389D01*
G01X1756998Y-5957642D01*
G01X1755966Y-5956661D01*
G01X1753307Y-5954889D01*
G01X1750790Y-5953004D01*
G01X1749372Y-5951912D01*
G01X1747382Y-5950130D01*
G01X1742766Y-5944754D01*
G01X1741501Y-5942648D01*
G01X1740378Y-5940352D01*
G01X1738684Y-5936479D01*
G01X1737373Y-5932717D01*
G01X1736629Y-5931112D01*
G01X1736276Y-5928244D01*
G01X1735926Y-5925376D01*
G01X1736027Y-5891856D01*
G01X1736131Y-5858336D01*
G01X1737127Y-5856428D01*
G01X1738562Y-5852562D01*
G01X1738999Y-5850609D01*
G01X1740051Y-5848976D01*
G01X1741638Y-5845890D01*
G01X1742179Y-5844439D01*
G01X1743119Y-5843741D01*
G01X1744272Y-5842300D01*
G01X1746541Y-5839256D01*
G01X1749014Y-5836873D01*
G01X1750714Y-5835580D01*
G01X1754776Y-5832510D01*
G01X1758166Y-5830627D01*
G01X1762611Y-5829473D01*
G01X1766497Y-5828328D01*
G01X1854640Y-5828328D01*
G01X1855682Y-5828656D01*
G01X1856726Y-5828981D01*
G01X1857432Y-5830738D01*
G01X1858143Y-5832494D01*
G01X1858145Y-5844261D01*
G01X1858158Y-5856027D01*
G01X1857556Y-5857716D01*
G01X1856957Y-5859402D01*
G01X1856169Y-5859910D01*
G01X1855379Y-5860421D01*
G01X1814826Y-5860627D01*
G01X1774275Y-5860835D01*
G01X1772608Y-5861810D01*
G01X1770945Y-5862783D01*
G01X1769004Y-5865100D01*
G01X1767069Y-5867413D01*
G01X1766860Y-5868711D01*
G01X1766759Y-5893418D01*
G01X1766868Y-5916829D01*
G01X1767993Y-5918630D01*
G01X1770758Y-5921793D01*
G01X1773683Y-5923804D01*
G01X1802237Y-5924360D01*
G01X1829827Y-5924609D01*
G01X1830945Y-5925508D01*
G01X1832060Y-5926408D01*
G01X1834391Y-5926921D01*
G01X1836723Y-5927439D01*
G01X1837904Y-5928404D01*
G01X1840564Y-5930276D01*
G01X1843490Y-5932545D01*
G01X1847236Y-5936491D01*
G01X1850851Y-5940733D01*
G01X1852232Y-5943159D01*
G01X1853914Y-5946286D01*
G01X1854749Y-5947535D01*
G01X1856118Y-5952745D01*
G01X1857488Y-5957957D01*
G01X1857856Y-5962539D01*
G01X1858222Y-5967126D01*
G01X1858062Y-5991719D01*
G01X1857896Y-6016311D01*
G01X1856766Y-6020060D01*
G01X1855364Y-6025424D01*
G01X1855095Y-6027037D01*
G01X1854099Y-6028343D01*
G01X1852451Y-6031518D01*
G01X1851798Y-6033387D01*
G01X1850442Y-6034924D01*
G01X1847416Y-6038615D01*
G01X1845748Y-6040766D01*
G01X1844269Y-6041609D01*
G01X1841861Y-6043428D01*
G01X1839479Y-6045086D01*
G01X1836888Y-6046743D01*
G01X1835750Y-6047710D01*
G01X1831493Y-6048673D01*
G01X1827234Y-6049638D01*
G01X1787792Y-6049862D01*
G37*
G36*
G01X1242284Y-6049633D02*
G01X1202231Y-6049816D01*
G01X1162729Y-6049864D01*
G01X1161769Y-6048582D01*
G01X1160793Y-6046603D01*
G01X1160763Y-6033717D01*
G01X1160750Y-6021531D01*
G01X1161573Y-6018731D01*
G01X1162396Y-6018251D01*
G01X1163222Y-6017771D01*
G01X1200067Y-6017665D01*
G01X1236917Y-6017560D01*
G01X1238413Y-6016593D01*
G01X1239912Y-6015628D01*
G01X1241748Y-6013077D01*
G01X1243582Y-6010525D01*
G01X1243694Y-5990286D01*
G01X1243806Y-5970042D01*
G01X1243425Y-5968569D01*
G01X1243046Y-5967098D01*
G01X1241200Y-5964942D01*
G01X1238134Y-5962041D01*
G01X1236917Y-5961289D01*
G01X1209142Y-5961084D01*
G01X1181365Y-5960875D01*
G01X1179884Y-5959936D01*
G01X1175858Y-5958414D01*
G01X1173311Y-5957827D01*
G01X1172239Y-5956936D01*
G01X1169523Y-5955249D01*
G01X1167037Y-5953365D01*
G01X1165073Y-5951642D01*
G01X1162477Y-5948942D01*
G01X1159607Y-5945239D01*
G01X1158218Y-5943138D01*
G01X1157077Y-5940878D01*
G01X1155932Y-5939085D01*
G01X1154464Y-5933306D01*
G01X1152655Y-5924609D01*
G01X1152317Y-5921693D01*
G01X1152325Y-5895851D01*
G01X1152330Y-5870007D01*
G01X1152635Y-5865630D01*
G01X1152937Y-5861254D01*
G01X1153882Y-5857919D01*
G01X1155238Y-5852831D01*
G01X1156498Y-5849913D01*
G01X1158002Y-5846875D01*
G01X1158655Y-5844998D01*
G01X1159920Y-5843819D01*
G01X1161180Y-5842118D01*
G01X1162477Y-5840263D01*
G01X1163773Y-5838536D01*
G01X1165627Y-5837081D01*
G01X1167481Y-5835623D01*
G01X1169424Y-5834124D01*
G01X1172315Y-5832034D01*
G01X1173262Y-5831036D01*
G01X1176387Y-5830223D01*
G01X1181180Y-5828869D01*
G01X1182846Y-5828328D01*
G01X1271357Y-5828328D01*
G01X1272368Y-5828648D01*
G01X1273379Y-5828963D01*
G01X1273981Y-5830271D01*
G01X1274580Y-5831579D01*
G01X1274580Y-5857167D01*
G01X1274004Y-5858429D01*
G01X1272762Y-5860058D01*
G01X1272096Y-5860421D01*
G01X1231733Y-5860627D01*
G01X1191365Y-5860835D01*
G01X1189666Y-5861724D01*
G01X1186692Y-5864110D01*
G01X1184421Y-5867787D01*
G01X1183402Y-5870091D01*
G01X1183402Y-5915204D01*
G01X1184753Y-5917970D01*
G01X1186102Y-5920733D01*
G01X1187580Y-5921937D01*
G01X1190400Y-5923652D01*
G01X1191736Y-5924162D01*
G01X1218954Y-5924386D01*
G01X1246176Y-5924609D01*
G01X1247656Y-5925501D01*
G01X1251215Y-5926872D01*
G01X1253295Y-5927355D01*
G01X1254547Y-5928419D01*
G01X1257397Y-5930273D01*
G01X1260217Y-5932422D01*
G01X1263366Y-5935447D01*
G01X1265871Y-5938351D01*
G01X1267301Y-5940329D01*
G01X1268949Y-5942951D01*
G01X1270049Y-5944828D01*
G01X1271101Y-5946838D01*
G01X1271913Y-5949448D01*
G01X1272894Y-5952290D01*
G01X1273877Y-5954622D01*
G01X1274204Y-5958305D01*
G01X1274532Y-5961990D01*
G01X1274428Y-5990609D01*
G01X1274319Y-6019229D01*
G01X1273364Y-6021106D01*
G01X1271967Y-6025287D01*
G01X1271527Y-6027596D01*
G01X1270240Y-6029636D01*
G01X1268949Y-6032262D01*
G01X1267471Y-6034586D01*
G01X1263877Y-6038924D01*
G01X1261296Y-6041528D01*
G01X1259612Y-6042722D01*
G01X1257324Y-6044513D01*
G01X1255467Y-6045280D01*
G01X1253803Y-6046491D01*
G01X1252698Y-6047703D01*
G01X1251657Y-6047934D01*
G01X1246729Y-6048833D01*
G01X1242284Y-6049633D01*
G37*
G36*
G01X1057055Y-6049816D02*
G01X1017558Y-6049864D01*
G01X1016600Y-6048582D01*
G01X1015640Y-6047299D01*
G01X1015640Y-6021228D01*
G01X1016029Y-6019973D01*
G01X1016417Y-6018724D01*
G01X1017230Y-6018246D01*
G01X1018045Y-6017769D01*
G01X1054896Y-6017665D01*
G01X1091744Y-6017560D01*
G01X1093242Y-6016593D01*
G01X1094741Y-6015628D01*
G01X1096577Y-6013077D01*
G01X1098409Y-6010525D01*
G01X1098523Y-5990700D01*
G01X1098401Y-5969052D01*
G01X1098165Y-5967228D01*
G01X1096435Y-5965292D01*
G01X1093410Y-5962323D01*
G01X1092117Y-5961289D01*
G01X1064154Y-5961084D01*
G01X1036191Y-5960875D01*
G01X1034898Y-5959971D01*
G01X1031396Y-5958427D01*
G01X1028246Y-5956928D01*
G01X1025455Y-5955102D01*
G01X1023070Y-5953408D01*
G01X1021048Y-5951828D01*
G01X1019557Y-5950972D01*
G01X1017614Y-5948630D01*
G01X1014360Y-5944741D01*
G01X1013049Y-5942600D01*
G01X1011772Y-5939915D01*
G01X1010494Y-5937825D01*
G01X1009897Y-5935178D01*
G01X1008305Y-5929402D01*
G01X1007304Y-5926278D01*
G01X1007304Y-5859524D01*
G01X1008256Y-5857888D01*
G01X1009811Y-5853817D01*
G01X1011307Y-5850065D01*
G01X1012656Y-5847083D01*
G01X1013120Y-5845415D01*
G01X1014355Y-5843957D01*
G01X1016859Y-5841018D01*
G01X1018561Y-5838628D01*
G01X1020187Y-5837038D01*
G01X1022120Y-5835605D01*
G01X1024710Y-5833766D01*
G01X1027520Y-5831833D01*
G01X1028475Y-5830982D01*
G01X1031406Y-5830210D01*
G01X1035823Y-5828907D01*
G01X1037304Y-5828379D01*
G01X1127326Y-5828084D01*
G01X1128236Y-5829176D01*
G01X1129150Y-5830269D01*
G01X1129150Y-5858478D01*
G01X1127352Y-5860627D01*
G01X1047388Y-5860627D01*
G01X1045866Y-5861122D01*
G01X1042734Y-5862887D01*
G01X1041126Y-5864160D01*
G01X1039773Y-5866667D01*
G01X1038414Y-5869174D01*
G01X1038414Y-5915440D01*
G01X1040451Y-5920174D01*
G01X1042081Y-5921683D01*
G01X1044952Y-5923674D01*
G01X1046191Y-5924165D01*
G01X1073598Y-5924386D01*
G01X1100999Y-5924609D01*
G01X1102485Y-5925491D01*
G01X1106572Y-5927076D01*
G01X1109181Y-5927784D01*
G01X1110788Y-5929219D01*
G01X1112864Y-5930654D01*
G01X1114205Y-5931714D01*
G01X1116463Y-5933601D01*
G01X1117855Y-5934812D01*
G01X1119424Y-5937030D01*
G01X1122799Y-5941121D01*
G01X1123778Y-5942844D01*
G01X1124842Y-5945059D01*
G01X1126557Y-5948993D01*
G01X1128180Y-5953161D01*
G01X1129150Y-5955036D01*
G01X1129150Y-6019646D01*
G01X1128165Y-6021520D01*
G01X1126930Y-6025165D01*
G01X1126676Y-6026933D01*
G01X1125241Y-6029316D01*
G01X1123577Y-6032856D01*
G01X1123354Y-6034015D01*
G01X1122175Y-6034942D01*
G01X1120847Y-6036298D01*
G01X1118304Y-6039421D01*
G01X1115635Y-6041947D01*
G01X1113778Y-6043306D01*
G01X1110997Y-6045226D01*
G01X1108353Y-6046758D01*
G01X1107075Y-6047731D01*
G01X1105152Y-6048173D01*
G01X1099892Y-6049194D01*
G01X1096559Y-6049770D01*
G01X1057055Y-6049816D01*
G37*
G36*
G01X1924853Y-6049808D02*
G01X1885074Y-6049864D01*
G01X1883652Y-6048178D01*
G01X1882230Y-6046496D01*
G01X1882230Y-6034530D01*
G01X1882235Y-6022562D01*
G01X1882618Y-6020997D01*
G01X1883007Y-6019430D01*
G01X1883990Y-6018703D01*
G01X1884970Y-6017977D01*
G01X1959814Y-6017555D01*
G01X1962491Y-6016311D01*
G01X1964396Y-6013956D01*
G01X1966299Y-6011602D01*
G01X1966669Y-6009420D01*
G01X1967038Y-6007235D01*
G01X1967038Y-5962841D01*
G01X1966387Y-5961965D01*
G01X1965740Y-5961086D01*
G01X1930474Y-5960979D01*
G01X1895209Y-5960875D01*
G01X1894366Y-5959923D01*
G01X1893523Y-5958975D01*
G01X1893408Y-5945752D01*
G01X1893291Y-5932531D01*
G01X1893698Y-5930974D01*
G01X1894107Y-5929417D01*
G01X1895748Y-5928361D01*
G01X1930850Y-5928152D01*
G01X1965953Y-5927947D01*
G01X1966304Y-5927319D01*
G01X1966654Y-5926695D01*
G01X1966662Y-5898638D01*
G01X1966669Y-5870583D01*
G01X1966271Y-5868808D01*
G01X1965869Y-5867032D01*
G01X1964140Y-5864917D01*
G01X1961112Y-5862026D01*
G01X1959814Y-5861254D01*
G01X1922024Y-5861046D01*
G01X1884234Y-5860835D01*
G01X1883238Y-5860103D01*
G01X1882240Y-5859369D01*
G01X1881958Y-5858226D01*
G01X1881673Y-5857083D01*
G01X1881673Y-5830792D01*
G01X1882964Y-5828572D01*
G01X1885748Y-5827652D01*
G01X1967221Y-5827911D01*
G01X1968887Y-5828681D01*
G01X1973487Y-5830215D01*
G01X1976415Y-5830982D01*
G01X1977396Y-5831798D01*
G01X1980667Y-5833913D01*
G01X1982961Y-5835623D01*
G01X1984183Y-5836603D01*
G01X1985407Y-5837177D01*
G01X1987238Y-5839374D01*
G01X1990416Y-5843116D01*
G01X1992034Y-5845636D01*
G01X1993378Y-5848262D01*
G01X1994439Y-5850304D01*
G01X1995806Y-5853880D01*
G01X1997167Y-5857068D01*
G01X1997444Y-5860619D01*
G01X1997718Y-5864172D01*
G01X1997744Y-5939199D01*
G01X1997767Y-6014225D01*
G01X1997414Y-6017713D01*
G01X1997055Y-6021200D01*
G01X1996357Y-6022534D01*
G01X1994993Y-6026133D01*
G01X1993925Y-6029048D01*
G01X1992900Y-6030700D01*
G01X1991881Y-6032889D01*
G01X1991132Y-6034863D01*
G01X1990195Y-6035346D01*
G01X1989255Y-6036151D01*
G01X1987381Y-6038899D01*
G01X1985501Y-6041320D01*
G01X1984140Y-6042105D01*
G01X1982509Y-6043395D01*
G01X1979916Y-6045076D01*
G01X1976664Y-6047014D01*
G01X1975740Y-6047781D01*
G01X1972778Y-6048439D01*
G01X1967221Y-6049422D01*
G01X1964627Y-6049750D01*
G01X1924853Y-6049808D01*
G37*
G36*
G01X1344687Y-6049872D02*
G01X1302967Y-6050189D01*
G01X1301987Y-6050283D01*
G01X1300839Y-6048808D01*
G01X1299691Y-6047334D01*
G01X1299691Y-6021078D01*
G01X1300219Y-6019648D01*
G01X1300750Y-6018216D01*
G01X1301606Y-6017990D01*
G01X1339683Y-6017649D01*
G01X1376904Y-6017535D01*
G01X1378202Y-6017032D01*
G01X1379495Y-6016527D01*
G01X1380125Y-6015272D01*
G01X1381667Y-6013552D01*
G01X1382576Y-6013085D01*
G01X1383051Y-6011365D01*
G01X1383524Y-6009641D01*
G01X1383656Y-5986070D01*
G01X1383788Y-5962496D01*
G01X1383102Y-5961800D01*
G01X1382421Y-5961104D01*
G01X1347072Y-5960990D01*
G01X1311725Y-5960875D01*
G01X1311128Y-5960537D01*
G01X1310013Y-5959080D01*
G01X1309503Y-5957957D01*
G01X1309386Y-5945257D01*
G01X1309274Y-5932562D01*
G01X1309871Y-5930812D01*
G01X1310466Y-5929062D01*
G01X1311093Y-5928711D01*
G01X1311725Y-5928361D01*
G01X1346848Y-5928152D01*
G01X1381969Y-5927947D01*
G01X1382678Y-5926959D01*
G01X1383386Y-5925976D01*
G01X1383374Y-5899450D01*
G01X1383364Y-5872923D01*
G01X1383003Y-5869814D01*
G01X1382645Y-5866705D01*
G01X1381365Y-5865305D01*
G01X1379874Y-5863146D01*
G01X1379655Y-5862389D01*
G01X1378093Y-5861843D01*
G01X1376533Y-5861297D01*
G01X1338947Y-5861066D01*
G01X1301357Y-5860835D01*
G01X1300560Y-5860324D01*
G01X1299764Y-5859809D01*
G01X1299170Y-5857853D01*
G01X1298573Y-5855895D01*
G01X1298573Y-5832852D01*
G01X1299170Y-5830891D01*
G01X1299764Y-5828927D01*
G01X1300839Y-5828305D01*
G01X1301916Y-5827678D01*
G01X1342744Y-5827795D01*
G01X1383569Y-5827911D01*
G01X1385235Y-5828668D01*
G01X1390011Y-5830223D01*
G01X1393117Y-5831025D01*
G01X1394265Y-5832011D01*
G01X1396838Y-5833520D01*
G01X1399432Y-5835171D01*
G01X1402363Y-5837436D01*
G01X1404128Y-5838869D01*
G01X1407280Y-5843123D01*
G01X1410427Y-5847083D01*
G01X1410831Y-5848750D01*
G01X1412076Y-5852082D01*
G01X1412911Y-5853751D01*
G01X1413607Y-5857294D01*
G01X1414311Y-5860835D01*
G01X1414311Y-6017560D01*
G01X1413844Y-6019791D01*
G01X1411755Y-6026632D01*
G01X1409490Y-6031942D01*
G01X1408093Y-6034098D01*
G01X1406749Y-6035473D01*
G01X1406025Y-6035732D01*
G01X1405230Y-6037578D01*
G01X1403449Y-6040307D01*
G01X1400976Y-6042198D01*
G01X1399018Y-6043776D01*
G01X1398172Y-6044802D01*
G01X1397105Y-6045069D01*
G01X1394349Y-6046588D01*
G01X1392662Y-6047845D01*
G01X1389599Y-6048439D01*
G01X1385977Y-6049341D01*
G01X1385423Y-6049643D01*
G01X1344687Y-6049872D01*
G37*
G36*
G01X895094Y-6049785D02*
G01X853525Y-6049824D01*
G01X811952Y-6049864D01*
G01X811952Y-6017769D01*
G01X887690Y-6017733D01*
G01X889298Y-6017383D01*
G01X890913Y-6017032D01*
G01X892907Y-6014810D01*
G01X894911Y-6012110D01*
G01X895742Y-6010438D01*
G01X896575Y-6009245D01*
G01X896682Y-5985810D01*
G01X896791Y-5962379D01*
G01X895945Y-5961835D01*
G01X895094Y-5961289D01*
G01X859768Y-5961084D01*
G01X824442Y-5960875D01*
G01X823662Y-5959699D01*
G01X822877Y-5958523D01*
G01X822758Y-5946151D01*
G01X822877Y-5932001D01*
G01X823108Y-5930223D01*
G01X823921Y-5929168D01*
G01X824731Y-5928114D01*
G01X859082Y-5928142D01*
G01X893431Y-5928168D01*
G01X894911Y-5927319D01*
G01X896392Y-5926468D01*
G01X896392Y-5833093D01*
G01X896905Y-5831704D01*
G01X898287Y-5829634D01*
G01X899148Y-5828953D01*
G01X911378Y-5828955D01*
G01X923608Y-5828955D01*
G01X925000Y-5829392D01*
G01X926387Y-5829827D01*
G01X926951Y-5831048D01*
G01X927510Y-5832273D01*
G01X927317Y-6016311D01*
G01X926689Y-6017596D01*
G01X925485Y-6021764D01*
G01X924723Y-6025554D01*
G01X923667Y-6027637D01*
G01X922183Y-6030901D01*
G01X921576Y-6032986D01*
G01X919029Y-6035940D01*
G01X916034Y-6039834D01*
G01X915584Y-6040774D01*
G01X913657Y-6041731D01*
G01X911188Y-6043428D01*
G01X908630Y-6045173D01*
G01X905549Y-6047027D01*
G01X904490Y-6047878D01*
G01X899793Y-6048830D01*
G01X895094Y-6049785D01*
G37*
G36*
G01X2237883Y-6094616D02*
G01X2236273Y-6096318D01*
G01X2236273Y-6097799D01*
G01X2213309Y-6097799D01*
G01X2213309Y-6096250D01*
G01X2210626Y-6095787D01*
G01X2203032Y-6094680D01*
G01X2198119Y-6094032D01*
G01X2195201Y-6092993D01*
G01X2189471Y-6091553D01*
G01X2186666Y-6091152D01*
G01X2184525Y-6089940D01*
G01X2179427Y-6087802D01*
G01X2175877Y-6086290D01*
G01X2172575Y-6084670D01*
G01X2169237Y-6082999D01*
G01X2166268Y-6081330D01*
G01X2163138Y-6079468D01*
G01X2161076Y-6078160D01*
G01X2158686Y-6076750D01*
G01X2155351Y-6074505D01*
G01X2150908Y-6071330D01*
G01X2146837Y-6067990D01*
G01X2141279Y-6063212D01*
G01X2135859Y-6057507D01*
G01X2128182Y-6048949D01*
G01X2124061Y-6043669D01*
G01X2122938Y-6042061D01*
G01X2120809Y-6039120D01*
G01X2117672Y-6034063D01*
G01X2115544Y-6030319D01*
G01X2114210Y-6027962D01*
G01X2112153Y-6024073D01*
G01X2110731Y-6021312D01*
G01X2109257Y-6018119D01*
G01X2107949Y-6015267D01*
G01X2106644Y-6012417D01*
G01X2105005Y-6008391D01*
G01X2103316Y-6003390D01*
G01X2101858Y-5999013D01*
G01X2100947Y-5997032D01*
G01X2100345Y-5993677D01*
G01X2099082Y-5988175D01*
G01X2097714Y-5982022D01*
G01X2097025Y-5976174D01*
G01X2096126Y-5970517D01*
G01X2095232Y-5966291D01*
G01X2094985Y-5961084D01*
G01X2094741Y-5955872D01*
G01X2095719Y-5948368D01*
G01X2096878Y-5940254D01*
G01X2097300Y-5938970D01*
G01X2097891Y-5938249D01*
G01X2100424Y-5936834D01*
G01X2103741Y-5936006D01*
G01X2105089Y-5935894D01*
G01X2105689Y-5936456D01*
G01X2106890Y-5939356D01*
G01X2108371Y-5943413D01*
G01X2109837Y-5947373D01*
G01X2111292Y-5951079D01*
G01X2112615Y-5954622D01*
G01X2114764Y-5960369D01*
G01X2117375Y-5965460D01*
G01X2118500Y-5967959D01*
G01X2120040Y-5971188D01*
G01X2121683Y-5974518D01*
G01X2123118Y-5977332D01*
G01X2124756Y-5980629D01*
G01X2126334Y-5983862D01*
G01X2127926Y-5986247D01*
G01X2132636Y-5993921D01*
G01X2133687Y-5995750D01*
G01X2135077Y-5997952D01*
G01X2137124Y-6000918D01*
G01X2140404Y-6006146D01*
G01X2146649Y-6014035D01*
G01X2150893Y-6019295D01*
G01X2161789Y-6031692D01*
G01X2170774Y-6041137D01*
G01X2173702Y-6044050D01*
G01X2177756Y-6047629D01*
G01X2183847Y-6052458D01*
G01X2185882Y-6053870D01*
G01X2188442Y-6055848D01*
G01X2190385Y-6057367D01*
G01X2192107Y-6058769D01*
G01X2194794Y-6060903D01*
G01X2196773Y-6062315D01*
G01X2204792Y-6067375D01*
G01X2207941Y-6069427D01*
G01X2210497Y-6070941D01*
G01X2213275Y-6072587D01*
G01X2215531Y-6074045D01*
G01X2218495Y-6075744D01*
G01X2222333Y-6077563D01*
G01X2225851Y-6079237D01*
G01X2229377Y-6080906D01*
G01X2233448Y-6082775D01*
G01X2236824Y-6084238D01*
G01X2239087Y-6085089D01*
G01X2239872Y-6085655D01*
G01X2240113Y-6087355D01*
G01X2240357Y-6089051D01*
G01X2239923Y-6090982D01*
G01X2239491Y-6092910D01*
G01X2237883Y-6094616D01*
G37*
G36*
G01X981520Y-6047494D02*
G01X980332Y-6049364D01*
G01X979554Y-6050321D01*
G01X953946Y-6050072D01*
G01X952912Y-6049313D01*
G01X951881Y-6048548D01*
G01X951353Y-6047136D01*
G01X950832Y-6045721D01*
G01X950832Y-5833093D01*
G01X951353Y-5831681D01*
G01X951881Y-5830269D01*
G01X952912Y-5829507D01*
G01X953946Y-5828742D01*
G01X966692Y-5828620D01*
G01X979432Y-5828496D01*
G01X980169Y-5829242D01*
G01X981419Y-5831119D01*
G01X981939Y-5832247D01*
G01X981939Y-6046585D01*
G01X981520Y-6047494D01*
G37*
G36*
G01X2309760Y-5883896D02*
G01X2307179Y-5884302D01*
G01X2304599Y-5884711D01*
G01X2301449Y-5884523D01*
G01X2298302Y-5884332D01*
G01X2294972Y-5882443D01*
G01X2291637Y-5880548D01*
G01X2289844Y-5878612D01*
G01X2287170Y-5875143D01*
G01X2284726Y-5870964D01*
G01X2284111Y-5869732D01*
G01X2283847Y-5865801D01*
G01X2283585Y-5861869D01*
G01X2284007Y-5858686D01*
G01X2284883Y-5854597D01*
G01X2287047Y-5850701D01*
G01X2289328Y-5847365D01*
G01X2291093Y-5845061D01*
G01X2294329Y-5843245D01*
G01X2297563Y-5841429D01*
G01X2300618Y-5840992D01*
G01X2303677Y-5840561D01*
G01X2306328Y-5841020D01*
G01X2308985Y-5841483D01*
G01X2312109Y-5843230D01*
G01X2315239Y-5844973D01*
G01X2317271Y-5847487D01*
G01X2319300Y-5849999D01*
G01X2320778Y-5853334D01*
G01X2322254Y-5856669D01*
G01X2322803Y-5859585D01*
G01X2323351Y-5862504D01*
G01X2322915Y-5865940D01*
G01X2322483Y-5869377D01*
G01X2321833Y-5870319D01*
G01X2320408Y-5873248D01*
G01X2319630Y-5875242D01*
G01X2317484Y-5877774D01*
G01X2315335Y-5880307D01*
G01X2313486Y-5881361D01*
G01X2310700Y-5883154D01*
G01X2309760Y-5883896D01*
G37*
G04 Image End*

G04 Text Start*
G54D10*
G01X3084300Y-4181900D02*
G01X3204442Y-4181900D01*
G01X3084300Y-4181900D02*
G01X3084300Y-4107478D01*
G01X3141450Y-4181900D02*
G01X3141450Y-4136180D01*
G01X3204442Y-4181900D02*
G01X3204442Y-4107478D01*
G01X3101572Y-3979716D02*
G01X3090142Y-3991146D01*
G01X3084300Y-4008164D01*
G01X3084300Y-4031024D01*
G01X3090142Y-4048296D01*
G01X3101572Y-4059726D01*
G01X3113002Y-4059726D01*
G01X3124432Y-4053884D01*
G01X3130020Y-4048296D01*
G01X3135862Y-4036866D01*
G01X3147292Y-4002576D01*
G01X3152880Y-3991146D01*
G01X3158722Y-3985304D01*
G01X3170152Y-3979716D01*
G01X3187170Y-3979716D01*
G01X3198600Y-3991146D01*
G01X3204442Y-4008164D01*
G01X3204442Y-4031024D01*
G01X3198600Y-4048296D01*
G01X3187170Y-4059726D01*
G01X3084300Y-3931964D02*
G01X3204442Y-3931964D01*
G01X3084300Y-3931964D02*
G01X3084300Y-3880402D01*
G01X3090142Y-3863384D01*
G01X3095730Y-3857542D01*
G01X3107160Y-3851954D01*
G01X3124432Y-3851954D01*
G01X3135862Y-3857542D01*
G01X3141450Y-3863384D01*
G01X3147292Y-3880402D01*
G01X3147292Y-3931964D01*
G01X3084300Y-3792772D02*
G01X3084300Y-3729780D01*
G01X3130020Y-3764070D01*
G01X3130020Y-3747052D01*
G01X3135862Y-3735622D01*
G01X3141450Y-3729780D01*
G01X3158722Y-3724192D01*
G01X3170152Y-3724192D01*
G01X3187170Y-3729780D01*
G01X3198600Y-3741210D01*
G01X3204442Y-3758482D01*
G01X3204442Y-3775500D01*
G01X3198600Y-3792772D01*
G01X3193012Y-3798360D01*
G01X3181582Y-3804202D01*
G01X3113002Y-3670598D02*
G01X3107160Y-3670598D01*
G01X3095730Y-3665010D01*
G01X3090142Y-3659168D01*
G01X3084300Y-3647738D01*
G01X3084300Y-3624878D01*
G01X3090142Y-3613448D01*
G01X3095730Y-3607860D01*
G01X3107160Y-3602018D01*
G01X3118590Y-3602018D01*
G01X3130020Y-3607860D01*
G01X3147292Y-3619290D01*
G01X3204442Y-3676440D01*
G01X3204442Y-3596430D01*
G01X3152880Y-3548678D02*
G01X3152880Y-3445808D01*
G01X3101572Y-3318046D02*
G01X3090142Y-3329476D01*
G01X3084300Y-3346494D01*
G01X3084300Y-3369354D01*
G01X3090142Y-3386626D01*
G01X3101572Y-3398056D01*
G01X3113002Y-3398056D01*
G01X3124432Y-3392214D01*
G01X3130020Y-3386626D01*
G01X3135862Y-3375196D01*
G01X3147292Y-3340906D01*
G01X3152880Y-3329476D01*
G01X3158722Y-3323634D01*
G01X3170152Y-3318046D01*
G01X3187170Y-3318046D01*
G01X3198600Y-3329476D01*
G01X3204442Y-3346494D01*
G01X3204442Y-3369354D01*
G01X3198600Y-3386626D01*
G01X3187170Y-3398056D01*
G01X3084300Y-3258864D02*
G01X3084300Y-3195872D01*
G01X3130020Y-3230162D01*
G01X3130020Y-3213144D01*
G01X3135862Y-3201714D01*
G01X3141450Y-3195872D01*
G01X3158722Y-3190284D01*
G01X3170152Y-3190284D01*
G01X3187170Y-3195872D01*
G01X3198600Y-3207302D01*
G01X3204442Y-3224574D01*
G01X3204442Y-3241592D01*
G01X3198600Y-3258864D01*
G01X3193012Y-3264452D01*
G01X3181582Y-3270294D01*
G01X3152880Y-3142532D02*
G01X3152880Y-3039662D01*
G01X3084300Y-2991910D02*
G01X3204442Y-2991910D01*
G01X3084300Y-2991910D02*
G01X3084300Y-2951778D01*
G01X3090142Y-2934760D01*
G01X3101572Y-2923330D01*
G01X3113002Y-2917488D01*
G01X3130020Y-2911900D01*
G01X3158722Y-2911900D01*
G01X3175740Y-2917488D01*
G01X3187170Y-2923330D01*
G01X3198600Y-2934760D01*
G01X3204442Y-2951778D01*
G01X3204442Y-2991910D01*
G01X3158722Y-2864148D02*
G01X3158722Y-2795568D01*
G01X3147292Y-2795568D01*
G01X3135862Y-2801156D01*
G01X3130020Y-2806998D01*
G01X3124432Y-2818428D01*
G01X3124432Y-2835446D01*
G01X3130020Y-2846876D01*
G01X3141450Y-2858306D01*
G01X3158722Y-2864148D01*
G01X3170152Y-2864148D01*
G01X3187170Y-2858306D01*
G01X3198600Y-2846876D01*
G01X3204442Y-2835446D01*
G01X3204442Y-2818428D01*
G01X3198600Y-2806998D01*
G01X3187170Y-2795568D01*
G01X3124432Y-2747816D02*
G01X3204442Y-2713526D01*
G01X3124432Y-2679236D02*
G01X3204442Y-2713526D01*
G01X3084300Y-2631484D02*
G01X3204442Y-2631484D01*
G01X3084300Y-2551474D02*
G01X3164310Y-2631484D01*
G01X3135862Y-2602782D02*
G01X3204442Y-2551474D01*
G01X3084300Y-2503722D02*
G01X3090142Y-2497880D01*
G01X3084300Y-2492292D01*
G01X3078712Y-2497880D01*
G01X3084300Y-2503722D01*
G01X3124432Y-2497880D02*
G01X3204442Y-2497880D01*
G01X3084300Y-2427268D02*
G01X3181582Y-2427268D01*
G01X3198600Y-2421680D01*
G01X3204442Y-2410250D01*
G01X3204442Y-2398820D01*
G01X3124432Y-2444540D02*
G01X3124432Y-2404408D01*
G01X3113002Y-2265216D02*
G01X3101572Y-2271058D01*
G01X3090142Y-2282488D01*
G01X3084300Y-2293918D01*
G01X3084300Y-2316778D01*
G01X3090142Y-2328208D01*
G01X3101572Y-2339638D01*
G01X3113002Y-2345226D01*
G01X3130020Y-2351068D01*
G01X3158722Y-2351068D01*
G01X3175740Y-2345226D01*
G01X3187170Y-2339638D01*
G01X3198600Y-2328208D01*
G01X3204442Y-2316778D01*
G01X3204442Y-2293918D01*
G01X3198600Y-2282488D01*
G01X3187170Y-2271058D01*
G01X3175740Y-2265216D01*
G01X3152880Y-2217464D02*
G01X3152880Y-2114594D01*
G01X3107160Y-2066842D02*
G01X3101572Y-2055412D01*
G01X3084300Y-2038140D01*
G01X3204442Y-2038140D01*
G01X4095220Y-399840D02*
G01X4095220Y-313988D01*
G01X4089378Y-296970D01*
G01X4077948Y-285540D01*
G01X4060930Y-279698D01*
G01X4049500Y-279698D01*
G01X4032228Y-285540D01*
G01X4020798Y-296970D01*
G01X4015210Y-313988D01*
G01X4015210Y-399840D01*
G01X3921738Y-399840D02*
G01X3967458Y-279698D01*
G01X3921738Y-399840D02*
G01X3876018Y-279698D01*
G01X3950186Y-319830D02*
G01X3893036Y-319830D01*
G01X3828266Y-399840D02*
G01X3828266Y-279698D01*
G01X3828266Y-399840D02*
G01X3776704Y-399840D01*
G01X3759686Y-393998D01*
G01X3753844Y-388410D01*
G01X3748256Y-376980D01*
G01X3748256Y-365550D01*
G01X3753844Y-354120D01*
G01X3759686Y-348278D01*
G01X3776704Y-342690D01*
G01X3828266Y-342690D01*
G01X3788134Y-342690D02*
G01X3748256Y-279698D01*
G01X3660372Y-399840D02*
G01X3660372Y-279698D01*
G01X3700504Y-399840D02*
G01X3620494Y-399840D01*
G01X2825220Y-399840D02*
G01X2825220Y-313988D01*
G01X2819378Y-296970D01*
G01X2807948Y-285540D01*
G01X2790930Y-279698D01*
G01X2779500Y-279698D01*
G01X2762228Y-285540D01*
G01X2750798Y-296970D01*
G01X2745210Y-313988D01*
G01X2745210Y-399840D01*
G01X2617448Y-382568D02*
G01X2628878Y-393998D01*
G01X2645896Y-399840D01*
G01X2668756Y-399840D01*
G01X2686028Y-393998D01*
G01X2697458Y-382568D01*
G01X2697458Y-371138D01*
G01X2691616Y-359708D01*
G01X2686028Y-354120D01*
G01X2674598Y-348278D01*
G01X2640308Y-336848D01*
G01X2628878Y-331260D01*
G01X2623036Y-325418D01*
G01X2617448Y-313988D01*
G01X2617448Y-296970D01*
G01X2628878Y-285540D01*
G01X2645896Y-279698D01*
G01X2668756Y-279698D01*
G01X2686028Y-285540D01*
G01X2697458Y-296970D01*
G01X2569696Y-399840D02*
G01X2569696Y-279698D01*
G01X2569696Y-399840D02*
G01X2518134Y-399840D01*
G01X2501116Y-393998D01*
G01X2495274Y-388410D01*
G01X2489686Y-376980D01*
G01X2489686Y-365550D01*
G01X2495274Y-354120D01*
G01X2501116Y-348278D01*
G01X2518134Y-342690D01*
G01X2569696Y-342690D02*
G01X2518134Y-342690D01*
G01X2501116Y-336848D01*
G01X2495274Y-331260D01*
G01X2489686Y-319830D01*
G01X2489686Y-302558D01*
G01X2495274Y-291128D01*
G01X2501116Y-285540D01*
G01X2518134Y-279698D01*
G01X2569696Y-279698D01*
G01X3942820Y-5351316D02*
G01X3942820Y-5299246D01*
G01X3942820Y-5351316D02*
G01X3910562Y-5351316D01*
G01X3942820Y-5326424D02*
G01X3923008Y-5326424D01*
G01X3942820Y-5299246D02*
G01X3910562Y-5299246D01*
G01X3843506Y-5343950D02*
G01X3848332Y-5349030D01*
G01X3855952Y-5351316D01*
G01X3865858Y-5351316D01*
G01X3873224Y-5349030D01*
G01X3878304Y-5343950D01*
G01X3878304Y-5338870D01*
G01X3875764Y-5334044D01*
G01X3873224Y-5331504D01*
G01X3868398Y-5328964D01*
G01X3853412Y-5324138D01*
G01X3848332Y-5321598D01*
G01X3846046Y-5319058D01*
G01X3843506Y-5313978D01*
G01X3843506Y-5306612D01*
G01X3848332Y-5301532D01*
G01X3855952Y-5299246D01*
G01X3865858Y-5299246D01*
G01X3873224Y-5301532D01*
G01X3878304Y-5306612D01*
G01X3811248Y-5351316D02*
G01X3811248Y-5299246D01*
G01X3811248Y-5351316D02*
G01X3788896Y-5351316D01*
G01X3781276Y-5349030D01*
G01X3778990Y-5346490D01*
G01X3776450Y-5341410D01*
G01X3776450Y-5334044D01*
G01X3778990Y-5328964D01*
G01X3781276Y-5326424D01*
G01X3788896Y-5324138D01*
G01X3811248Y-5324138D01*
G01X3739112Y-5351316D02*
G01X3711934Y-5351316D01*
G01X3726666Y-5331504D01*
G01X3719300Y-5331504D01*
G01X3714220Y-5328964D01*
G01X3711934Y-5326424D01*
G01X3709394Y-5319058D01*
G01X3709394Y-5313978D01*
G01X3711934Y-5306612D01*
G01X3716760Y-5301532D01*
G01X3724380Y-5299246D01*
G01X3731746Y-5299246D01*
G01X3739112Y-5301532D01*
G01X3741652Y-5304072D01*
G01X3744192Y-5309152D01*
G01X3674596Y-5338870D02*
G01X3674596Y-5341410D01*
G01X3672056Y-5346490D01*
G01X3669770Y-5349030D01*
G01X3664690Y-5351316D01*
G01X3654784Y-5351316D01*
G01X3649704Y-5349030D01*
G01X3647164Y-5346490D01*
G01X3644878Y-5341410D01*
G01X3644878Y-5336584D01*
G01X3647164Y-5331504D01*
G01X3652244Y-5324138D01*
G01X3677136Y-5299246D01*
G01X3642338Y-5299246D01*
G01X3610080Y-5321598D02*
G01X3565122Y-5321598D01*
G01X3498066Y-5343950D02*
G01X3502892Y-5349030D01*
G01X3510512Y-5351316D01*
G01X3520418Y-5351316D01*
G01X3527784Y-5349030D01*
G01X3532864Y-5343950D01*
G01X3532864Y-5338870D01*
G01X3530324Y-5334044D01*
G01X3527784Y-5331504D01*
G01X3522958Y-5328964D01*
G01X3507972Y-5324138D01*
G01X3502892Y-5321598D01*
G01X3500606Y-5319058D01*
G01X3498066Y-5313978D01*
G01X3498066Y-5306612D01*
G01X3502892Y-5301532D01*
G01X3510512Y-5299246D01*
G01X3520418Y-5299246D01*
G01X3527784Y-5301532D01*
G01X3532864Y-5306612D01*
G01X3460728Y-5351316D02*
G01X3433550Y-5351316D01*
G01X3448282Y-5331504D01*
G01X3440916Y-5331504D01*
G01X3435836Y-5328964D01*
G01X3433550Y-5326424D01*
G01X3431010Y-5319058D01*
G01X3431010Y-5313978D01*
G01X3433550Y-5306612D01*
G01X3438376Y-5301532D01*
G01X3445996Y-5299246D01*
G01X3453362Y-5299246D01*
G01X3460728Y-5301532D01*
G01X3463268Y-5304072D01*
G01X3465808Y-5309152D01*
G01X3398752Y-5321598D02*
G01X3353794Y-5321598D01*
G01X3321536Y-5351316D02*
G01X3309090Y-5299246D01*
G01X3296644Y-5351316D02*
G01X3309090Y-5299246D01*
G01X3296644Y-5351316D02*
G01X3284198Y-5299246D01*
G01X3271752Y-5351316D02*
G01X3284198Y-5299246D01*
G01X3239494Y-5351316D02*
G01X3239494Y-5299246D01*
G01X3239494Y-5351316D02*
G01X3217142Y-5351316D01*
G01X3209522Y-5349030D01*
G01X3207236Y-5346490D01*
G01X3204696Y-5341410D01*
G01X3204696Y-5336584D01*
G01X3207236Y-5331504D01*
G01X3209522Y-5328964D01*
G01X3217142Y-5326424D01*
G01X3239494Y-5326424D01*
G01X3221968Y-5326424D02*
G01X3204696Y-5299246D01*
G01X3157452Y-5351316D02*
G01X3162532Y-5349030D01*
G01X3167358Y-5343950D01*
G01X3169898Y-5338870D01*
G01X3172438Y-5331504D01*
G01X3172438Y-5319058D01*
G01X3169898Y-5311692D01*
G01X3167358Y-5306612D01*
G01X3162532Y-5301532D01*
G01X3157452Y-5299246D01*
G01X3147546Y-5299246D01*
G01X3142466Y-5301532D01*
G01X3137640Y-5306612D01*
G01X3135100Y-5311692D01*
G01X3132560Y-5319058D01*
G01X3132560Y-5331504D01*
G01X3135100Y-5338870D01*
G01X3137640Y-5343950D01*
G01X3142466Y-5349030D01*
G01X3147546Y-5351316D01*
G01X3157452Y-5351316D01*
G01X3085316Y-5351316D02*
G01X3090396Y-5349030D01*
G01X3095222Y-5343950D01*
G01X3097762Y-5338870D01*
G01X3100302Y-5331504D01*
G01X3100302Y-5319058D01*
G01X3097762Y-5311692D01*
G01X3095222Y-5306612D01*
G01X3090396Y-5301532D01*
G01X3085316Y-5299246D01*
G01X3075410Y-5299246D01*
G01X3070330Y-5301532D01*
G01X3065504Y-5306612D01*
G01X3062964Y-5311692D01*
G01X3060424Y-5319058D01*
G01X3060424Y-5331504D01*
G01X3062964Y-5338870D01*
G01X3065504Y-5343950D01*
G01X3070330Y-5349030D01*
G01X3075410Y-5351316D01*
G01X3085316Y-5351316D01*
G01X3028166Y-5351316D02*
G01X3028166Y-5299246D01*
G01X3028166Y-5351316D02*
G01X3008354Y-5299246D01*
G01X2988288Y-5351316D02*
G01X3008354Y-5299246D01*
G01X2988288Y-5351316D02*
G01X2988288Y-5299246D01*
G01X2956030Y-5321598D02*
G01X2911072Y-5321598D01*
G01X2878814Y-5341410D02*
G01X2873734Y-5343950D01*
G01X2866368Y-5351316D01*
G01X2866368Y-5299246D01*
G01X4788640Y-6116364D02*
G01X4759938Y-6116364D01*
G01X4775686Y-6095536D01*
G01X4767812Y-6095536D01*
G01X4762732Y-6092996D01*
G01X4759938Y-6090456D01*
G01X4757398Y-6082582D01*
G01X4757398Y-6077502D01*
G01X4759938Y-6069628D01*
G01X4765272Y-6064548D01*
G01X4772892Y-6061754D01*
G01X4780766Y-6061754D01*
G01X4788640Y-6064548D01*
G01X4791180Y-6067088D01*
G01X4793720Y-6072168D01*
G01X4724632Y-6116364D02*
G01X4703804Y-6061754D01*
G01X4683230Y-6116364D02*
G01X4703804Y-6061754D01*
G01X4645384Y-6116364D02*
G01X4616682Y-6116364D01*
G01X4632430Y-6095536D01*
G01X4624556Y-6095536D01*
G01X4619476Y-6092996D01*
G01X4616682Y-6090456D01*
G01X4614142Y-6082582D01*
G01X4614142Y-6077502D01*
G01X4616682Y-6069628D01*
G01X4622016Y-6064548D01*
G01X4629636Y-6061754D01*
G01X4637510Y-6061754D01*
G01X4645384Y-6064548D01*
G01X4647924Y-6067088D01*
G01X4650464Y-6072168D01*
G01X4788640Y-5862364D02*
G01X4759938Y-5862364D01*
G01X4775686Y-5841536D01*
G01X4767812Y-5841536D01*
G01X4762732Y-5838996D01*
G01X4759938Y-5836456D01*
G01X4757398Y-5828582D01*
G01X4757398Y-5823502D01*
G01X4759938Y-5815628D01*
G01X4765272Y-5810548D01*
G01X4772892Y-5807754D01*
G01X4780766Y-5807754D01*
G01X4788640Y-5810548D01*
G01X4791180Y-5813088D01*
G01X4793720Y-5818168D01*
G01X4724632Y-5862364D02*
G01X4703804Y-5807754D01*
G01X4683230Y-5862364D02*
G01X4703804Y-5807754D01*
G01X4645384Y-5862364D02*
G01X4616682Y-5862364D01*
G01X4632430Y-5841536D01*
G01X4624556Y-5841536D01*
G01X4619476Y-5838996D01*
G01X4616682Y-5836456D01*
G01X4614142Y-5828582D01*
G01X4614142Y-5823502D01*
G01X4616682Y-5815628D01*
G01X4622016Y-5810548D01*
G01X4629636Y-5807754D01*
G01X4637510Y-5807754D01*
G01X4645384Y-5810548D01*
G01X4647924Y-5813088D01*
G01X4650464Y-5818168D01*
G01X4793720Y-5608364D02*
G01X4793720Y-5553754D01*
G01X4793720Y-5608364D02*
G01X4770352Y-5608364D01*
G01X4762732Y-5605570D01*
G01X4759938Y-5603030D01*
G01X4757398Y-5597950D01*
G01X4757398Y-5592616D01*
G01X4759938Y-5587536D01*
G01X4762732Y-5584996D01*
G01X4770352Y-5582456D01*
G01X4793720Y-5582456D01*
G01X4775686Y-5582456D02*
G01X4757398Y-5553754D01*
G01X4688310Y-5600490D02*
G01X4693644Y-5605570D01*
G01X4701264Y-5608364D01*
G01X4711678Y-5608364D01*
G01X4719552Y-5605570D01*
G01X4724632Y-5600490D01*
G01X4724632Y-5595410D01*
G01X4722092Y-5590076D01*
G01X4719552Y-5587536D01*
G01X4714218Y-5584996D01*
G01X4698724Y-5579662D01*
G01X4693644Y-5577122D01*
G01X4690850Y-5574582D01*
G01X4688310Y-5569502D01*
G01X4688310Y-5561628D01*
G01X4693644Y-5556548D01*
G01X4701264Y-5553754D01*
G01X4711678Y-5553754D01*
G01X4719552Y-5556548D01*
G01X4724632Y-5561628D01*
G01X4637510Y-5608364D02*
G01X4637510Y-5553754D01*
G01X4655544Y-5608364D02*
G01X4619222Y-5608364D01*
G01X4678912Y-5354364D02*
G01X4704820Y-5318042D01*
G01X4665958Y-5318042D01*
G01X4678912Y-5354364D02*
G01X4678912Y-5299754D01*
G01X4704820Y-4327950D02*
G01X4699740Y-4330490D01*
G01X4691866Y-4338364D01*
G01X4691866Y-4283754D01*
G01X4628112Y-4338364D02*
G01X4654020Y-4338364D01*
G01X4656560Y-4314996D01*
G01X4654020Y-4317536D01*
G01X4646146Y-4320076D01*
G01X4638272Y-4320076D01*
G01X4630652Y-4317536D01*
G01X4625318Y-4312456D01*
G01X4622778Y-4304582D01*
G01X4622778Y-4299502D01*
G01X4625318Y-4291628D01*
G01X4630652Y-4286548D01*
G01X4638272Y-4283754D01*
G01X4646146Y-4283754D01*
G01X4654020Y-4286548D01*
G01X4656560Y-4289088D01*
G01X4659100Y-4294168D01*
G01X4668498Y-4592364D02*
G01X4694406Y-4537754D01*
G01X4704820Y-4592364D02*
G01X4668498Y-4592364D01*
G01X4673832Y-4838490D02*
G01X4676372Y-4843570D01*
G01X4683992Y-4846364D01*
G01X4689326Y-4846364D01*
G01X4696946Y-4843570D01*
G01X4702280Y-4835950D01*
G01X4704820Y-4822996D01*
G01X4704820Y-4810042D01*
G01X4702280Y-4799628D01*
G01X4696946Y-4794548D01*
G01X4689326Y-4791754D01*
G01X4686786Y-4791754D01*
G01X4678912Y-4794548D01*
G01X4673832Y-4799628D01*
G01X4671038Y-4807502D01*
G01X4671038Y-4810042D01*
G01X4673832Y-4817662D01*
G01X4678912Y-4822996D01*
G01X4686786Y-4825536D01*
G01X4689326Y-4825536D01*
G01X4696946Y-4822996D01*
G01X4702280Y-4817662D01*
G01X4704820Y-4810042D01*
G01X4673832Y-5100364D02*
G01X4699740Y-5100364D01*
G01X4702280Y-5076996D01*
G01X4699740Y-5079536D01*
G01X4691866Y-5082076D01*
G01X4683992Y-5082076D01*
G01X4676372Y-5079536D01*
G01X4671038Y-5074456D01*
G01X4668498Y-5066582D01*
G01X4668498Y-5061502D01*
G01X4671038Y-5053628D01*
G01X4676372Y-5048548D01*
G01X4683992Y-5045754D01*
G01X4691866Y-5045754D01*
G01X4699740Y-5048548D01*
G01X4702280Y-5051088D01*
G01X4704820Y-5056168D01*
G01X4691866Y-3322364D02*
G01X4699740Y-3319570D01*
G01X4702280Y-3314490D01*
G01X4702280Y-3309410D01*
G01X4699740Y-3304076D01*
G01X4694406Y-3301536D01*
G01X4683992Y-3298996D01*
G01X4676372Y-3296456D01*
G01X4671038Y-3291122D01*
G01X4668498Y-3286042D01*
G01X4668498Y-3278168D01*
G01X4671038Y-3273088D01*
G01X4673832Y-3270548D01*
G01X4681452Y-3267754D01*
G01X4691866Y-3267754D01*
G01X4699740Y-3270548D01*
G01X4702280Y-3273088D01*
G01X4704820Y-3278168D01*
G01X4704820Y-3286042D01*
G01X4702280Y-3291122D01*
G01X4696946Y-3296456D01*
G01X4689326Y-3298996D01*
G01X4678912Y-3301536D01*
G01X4673832Y-3304076D01*
G01X4671038Y-3309410D01*
G01X4671038Y-3314490D01*
G01X4673832Y-3319570D01*
G01X4681452Y-3322364D01*
G01X4691866Y-3322364D01*
G01X4704820Y-3565950D02*
G01X4699740Y-3568490D01*
G01X4691866Y-3576364D01*
G01X4691866Y-3521754D01*
G01X4646146Y-3576364D02*
G01X4654020Y-3573570D01*
G01X4656560Y-3568490D01*
G01X4656560Y-3563410D01*
G01X4654020Y-3558076D01*
G01X4648686Y-3555536D01*
G01X4638272Y-3552996D01*
G01X4630652Y-3550456D01*
G01X4625318Y-3545122D01*
G01X4622778Y-3540042D01*
G01X4622778Y-3532168D01*
G01X4625318Y-3527088D01*
G01X4628112Y-3524548D01*
G01X4635732Y-3521754D01*
G01X4646146Y-3521754D01*
G01X4654020Y-3524548D01*
G01X4656560Y-3527088D01*
G01X4659100Y-3532168D01*
G01X4659100Y-3540042D01*
G01X4656560Y-3545122D01*
G01X4651226Y-3550456D01*
G01X4643606Y-3552996D01*
G01X4633192Y-3555536D01*
G01X4628112Y-3558076D01*
G01X4625318Y-3563410D01*
G01X4625318Y-3568490D01*
G01X4628112Y-3573570D01*
G01X4635732Y-3576364D01*
G01X4646146Y-3576364D01*
G01X4704820Y-3819950D02*
G01X4699740Y-3822490D01*
G01X4691866Y-3830364D01*
G01X4691866Y-3775754D01*
G01X4622778Y-3830364D02*
G01X4648686Y-3775754D01*
G01X4659100Y-3830364D02*
G01X4622778Y-3830364D01*
G01X4704820Y-4073950D02*
G01X4699740Y-4076490D01*
G01X4691866Y-4084364D01*
G01X4691866Y-4029754D01*
G01X4628112Y-4076490D02*
G01X4630652Y-4081570D01*
G01X4638272Y-4084364D01*
G01X4643606Y-4084364D01*
G01X4651226Y-4081570D01*
G01X4656560Y-4073950D01*
G01X4659100Y-4060996D01*
G01X4659100Y-4048042D01*
G01X4656560Y-4037628D01*
G01X4651226Y-4032548D01*
G01X4643606Y-4029754D01*
G01X4641066Y-4029754D01*
G01X4633192Y-4032548D01*
G01X4628112Y-4037628D01*
G01X4625318Y-4045502D01*
G01X4625318Y-4048042D01*
G01X4628112Y-4055662D01*
G01X4633192Y-4060996D01*
G01X4641066Y-4063536D01*
G01X4643606Y-4063536D01*
G01X4651226Y-4060996D01*
G01X4656560Y-4055662D01*
G01X4659100Y-4048042D01*
G01X4704820Y-2295950D02*
G01X4699740Y-2298490D01*
G01X4691866Y-2306364D01*
G01X4691866Y-2251754D01*
G01X4643606Y-2306364D02*
G01X4651226Y-2303570D01*
G01X4656560Y-2295950D01*
G01X4659100Y-2282996D01*
G01X4659100Y-2275122D01*
G01X4656560Y-2262168D01*
G01X4651226Y-2254548D01*
G01X4643606Y-2251754D01*
G01X4638272Y-2251754D01*
G01X4630652Y-2254548D01*
G01X4625318Y-2262168D01*
G01X4622778Y-2275122D01*
G01X4622778Y-2282996D01*
G01X4625318Y-2295950D01*
G01X4630652Y-2303570D01*
G01X4638272Y-2306364D01*
G01X4643606Y-2306364D01*
G01X4671038Y-2542076D02*
G01X4673832Y-2534456D01*
G01X4678912Y-2529122D01*
G01X4686786Y-2526582D01*
G01X4689326Y-2526582D01*
G01X4696946Y-2529122D01*
G01X4702280Y-2534456D01*
G01X4704820Y-2542076D01*
G01X4704820Y-2544616D01*
G01X4702280Y-2552490D01*
G01X4696946Y-2557570D01*
G01X4689326Y-2560364D01*
G01X4686786Y-2560364D01*
G01X4678912Y-2557570D01*
G01X4673832Y-2552490D01*
G01X4671038Y-2542076D01*
G01X4671038Y-2529122D01*
G01X4673832Y-2516168D01*
G01X4678912Y-2508548D01*
G01X4686786Y-2505754D01*
G01X4691866Y-2505754D01*
G01X4699740Y-2508548D01*
G01X4702280Y-2513628D01*
G01X4678912Y-2814364D02*
G01X4704820Y-2778042D01*
G01X4665958Y-2778042D01*
G01X4678912Y-2814364D02*
G01X4678912Y-2759754D01*
G01X4602204Y-2806490D02*
G01X4604744Y-2811570D01*
G01X4612364Y-2814364D01*
G01X4617698Y-2814364D01*
G01X4625318Y-2811570D01*
G01X4630652Y-2803950D01*
G01X4633192Y-2790996D01*
G01X4633192Y-2778042D01*
G01X4630652Y-2767628D01*
G01X4625318Y-2762548D01*
G01X4617698Y-2759754D01*
G01X4615158Y-2759754D01*
G01X4607284Y-2762548D01*
G01X4602204Y-2767628D01*
G01X4599410Y-2775502D01*
G01X4599410Y-2778042D01*
G01X4602204Y-2785662D01*
G01X4607284Y-2790996D01*
G01X4615158Y-2793536D01*
G01X4617698Y-2793536D01*
G01X4625318Y-2790996D01*
G01X4630652Y-2785662D01*
G01X4633192Y-2778042D01*
G01X4699740Y-3068364D02*
G01X4671038Y-3068364D01*
G01X4686786Y-3047536D01*
G01X4678912Y-3047536D01*
G01X4673832Y-3044996D01*
G01X4671038Y-3042456D01*
G01X4668498Y-3034582D01*
G01X4668498Y-3029502D01*
G01X4671038Y-3021628D01*
G01X4676372Y-3016548D01*
G01X4683992Y-3013754D01*
G01X4691866Y-3013754D01*
G01X4699740Y-3016548D01*
G01X4702280Y-3019088D01*
G01X4704820Y-3024168D01*
G01X4704820Y-1279950D02*
G01X4699740Y-1282490D01*
G01X4691866Y-1290364D01*
G01X4691866Y-1235754D01*
G01X4633192Y-1290364D02*
G01X4659100Y-1254042D01*
G01X4620238Y-1254042D01*
G01X4633192Y-1290364D02*
G01X4633192Y-1235754D01*
G01X4704820Y-1533950D02*
G01X4699740Y-1536490D01*
G01X4691866Y-1544364D01*
G01X4691866Y-1489754D01*
G01X4654020Y-1544364D02*
G01X4625318Y-1544364D01*
G01X4641066Y-1523536D01*
G01X4633192Y-1523536D01*
G01X4628112Y-1520996D01*
G01X4625318Y-1518456D01*
G01X4622778Y-1510582D01*
G01X4622778Y-1505502D01*
G01X4625318Y-1497628D01*
G01X4630652Y-1492548D01*
G01X4638272Y-1489754D01*
G01X4646146Y-1489754D01*
G01X4654020Y-1492548D01*
G01X4656560Y-1495088D01*
G01X4659100Y-1500168D01*
G01X4704820Y-1787950D02*
G01X4699740Y-1790490D01*
G01X4691866Y-1798364D01*
G01X4691866Y-1743754D01*
G01X4656560Y-1785410D02*
G01X4656560Y-1787950D01*
G01X4654020Y-1793030D01*
G01X4651226Y-1795570D01*
G01X4646146Y-1798364D01*
G01X4635732Y-1798364D01*
G01X4630652Y-1795570D01*
G01X4628112Y-1793030D01*
G01X4625318Y-1787950D01*
G01X4625318Y-1782616D01*
G01X4628112Y-1777536D01*
G01X4633192Y-1769662D01*
G01X4659100Y-1743754D01*
G01X4622778Y-1743754D01*
G01X4704820Y-2041950D02*
G01X4699740Y-2044490D01*
G01X4691866Y-2052364D01*
G01X4691866Y-1997754D01*
G01X4659100Y-2041950D02*
G01X4654020Y-2044490D01*
G01X4646146Y-2052364D01*
G01X4646146Y-1997754D01*
G01X4665958Y-769410D02*
G01X4668498Y-774490D01*
G01X4673832Y-779570D01*
G01X4678912Y-782364D01*
G01X4689326Y-782364D01*
G01X4694406Y-779570D01*
G01X4699740Y-774490D01*
G01X4702280Y-769410D01*
G01X4704820Y-761536D01*
G01X4704820Y-748582D01*
G01X4702280Y-740708D01*
G01X4699740Y-735628D01*
G01X4694406Y-730548D01*
G01X4689326Y-727754D01*
G01X4678912Y-727754D01*
G01X4673832Y-730548D01*
G01X4668498Y-735628D01*
G01X4665958Y-740708D01*
G01X4665958Y-748582D01*
G01X4678912Y-748582D02*
G01X4665958Y-748582D01*
G01X4673832Y-1036364D02*
G01X4699740Y-1036364D01*
G01X4702280Y-1012996D01*
G01X4699740Y-1015536D01*
G01X4691866Y-1018076D01*
G01X4683992Y-1018076D01*
G01X4676372Y-1015536D01*
G01X4671038Y-1010456D01*
G01X4668498Y-1002582D01*
G01X4668498Y-997502D01*
G01X4671038Y-989628D01*
G01X4676372Y-984548D01*
G01X4683992Y-981754D01*
G01X4691866Y-981754D01*
G01X4699740Y-984548D01*
G01X4702280Y-987088D01*
G01X4704820Y-992168D01*
G01X4635732Y-1036364D02*
G01X4614904Y-981754D01*
G01X4594330Y-1036364D02*
G01X4614904Y-981754D01*
G01X1681458Y-1023410D02*
G01X1683998Y-1028490D01*
G01X1689332Y-1033570D01*
G01X1694412Y-1036364D01*
G01X1704826Y-1036364D01*
G01X1709906Y-1033570D01*
G01X1715240Y-1028490D01*
G01X1717780Y-1023410D01*
G01X1720320Y-1015536D01*
G01X1720320Y-1002582D01*
G01X1717780Y-994708D01*
G01X1715240Y-989628D01*
G01X1709906Y-984548D01*
G01X1704826Y-981754D01*
G01X1694412Y-981754D01*
G01X1689332Y-984548D01*
G01X1683998Y-989628D01*
G01X1681458Y-994708D01*
G01X1681458Y-1002582D01*
G01X1694412Y-1002582D02*
G01X1681458Y-1002582D01*
G01X1681458Y-769410D02*
G01X1683998Y-774490D01*
G01X1689332Y-779570D01*
G01X1694412Y-782364D01*
G01X1704826Y-782364D01*
G01X1709906Y-779570D01*
G01X1715240Y-774490D01*
G01X1717780Y-769410D01*
G01X1720320Y-761536D01*
G01X1720320Y-748582D01*
G01X1717780Y-740708D01*
G01X1715240Y-735628D01*
G01X1709906Y-730548D01*
G01X1704826Y-727754D01*
G01X1694412Y-727754D01*
G01X1689332Y-730548D01*
G01X1683998Y-735628D01*
G01X1681458Y-740708D01*
G01X1681458Y-748582D01*
G01X1694412Y-748582D02*
G01X1681458Y-748582D01*
G01X1694412Y-2052364D02*
G01X1720320Y-2016042D01*
G01X1681458Y-2016042D01*
G01X1694412Y-2052364D02*
G01X1694412Y-1997754D01*
G01X1612370Y-2052364D02*
G01X1638278Y-1997754D01*
G01X1648692Y-2052364D02*
G01X1612370Y-2052364D01*
G01X1717780Y-1785410D02*
G01X1717780Y-1787950D01*
G01X1715240Y-1793030D01*
G01X1712446Y-1795570D01*
G01X1707366Y-1798364D01*
G01X1696952Y-1798364D01*
G01X1691872Y-1795570D01*
G01X1689332Y-1793030D01*
G01X1686538Y-1787950D01*
G01X1686538Y-1782616D01*
G01X1689332Y-1777536D01*
G01X1694412Y-1769662D01*
G01X1720320Y-1743754D01*
G01X1683998Y-1743754D01*
G01X1651232Y-1787950D02*
G01X1646152Y-1790490D01*
G01X1638278Y-1798364D01*
G01X1638278Y-1743754D01*
G01X1717780Y-1531410D02*
G01X1717780Y-1533950D01*
G01X1715240Y-1539030D01*
G01X1712446Y-1541570D01*
G01X1707366Y-1544364D01*
G01X1696952Y-1544364D01*
G01X1691872Y-1541570D01*
G01X1689332Y-1539030D01*
G01X1686538Y-1533950D01*
G01X1686538Y-1528616D01*
G01X1689332Y-1523536D01*
G01X1694412Y-1515662D01*
G01X1720320Y-1489754D01*
G01X1683998Y-1489754D01*
G01X1635738Y-1544364D02*
G01X1643358Y-1541570D01*
G01X1648692Y-1533950D01*
G01X1651232Y-1520996D01*
G01X1651232Y-1513122D01*
G01X1648692Y-1500168D01*
G01X1643358Y-1492548D01*
G01X1635738Y-1489754D01*
G01X1630404Y-1489754D01*
G01X1622784Y-1492548D01*
G01X1617450Y-1500168D01*
G01X1614910Y-1513122D01*
G01X1614910Y-1520996D01*
G01X1617450Y-1533950D01*
G01X1622784Y-1541570D01*
G01X1630404Y-1544364D01*
G01X1635738Y-1544364D01*
G01X1720320Y-1279950D02*
G01X1715240Y-1282490D01*
G01X1707366Y-1290364D01*
G01X1707366Y-1235754D01*
G01X1640818Y-1272076D02*
G01X1643612Y-1264456D01*
G01X1648692Y-1259122D01*
G01X1656566Y-1256582D01*
G01X1659106Y-1256582D01*
G01X1666726Y-1259122D01*
G01X1672060Y-1264456D01*
G01X1674600Y-1272076D01*
G01X1674600Y-1274616D01*
G01X1672060Y-1282490D01*
G01X1666726Y-1287570D01*
G01X1659106Y-1290364D01*
G01X1656566Y-1290364D01*
G01X1648692Y-1287570D01*
G01X1643612Y-1282490D01*
G01X1640818Y-1272076D01*
G01X1640818Y-1259122D01*
G01X1643612Y-1246168D01*
G01X1648692Y-1238548D01*
G01X1656566Y-1235754D01*
G01X1661646Y-1235754D01*
G01X1669520Y-1238548D01*
G01X1672060Y-1243628D01*
G01X1715240Y-3068364D02*
G01X1686538Y-3068364D01*
G01X1702286Y-3047536D01*
G01X1694412Y-3047536D01*
G01X1689332Y-3044996D01*
G01X1686538Y-3042456D01*
G01X1683998Y-3034582D01*
G01X1683998Y-3029502D01*
G01X1686538Y-3021628D01*
G01X1691872Y-3016548D01*
G01X1699492Y-3013754D01*
G01X1707366Y-3013754D01*
G01X1715240Y-3016548D01*
G01X1717780Y-3019088D01*
G01X1720320Y-3024168D01*
G01X1620244Y-3068364D02*
G01X1646152Y-3068364D01*
G01X1648692Y-3044996D01*
G01X1646152Y-3047536D01*
G01X1638278Y-3050076D01*
G01X1630404Y-3050076D01*
G01X1622784Y-3047536D01*
G01X1617450Y-3042456D01*
G01X1614910Y-3034582D01*
G01X1614910Y-3029502D01*
G01X1617450Y-3021628D01*
G01X1622784Y-3016548D01*
G01X1630404Y-3013754D01*
G01X1638278Y-3013754D01*
G01X1646152Y-3016548D01*
G01X1648692Y-3019088D01*
G01X1651232Y-3024168D01*
G01X1704826Y-2814364D02*
G01X1712446Y-2811570D01*
G01X1717780Y-2803950D01*
G01X1720320Y-2790996D01*
G01X1720320Y-2783122D01*
G01X1717780Y-2770168D01*
G01X1712446Y-2762548D01*
G01X1704826Y-2759754D01*
G01X1699492Y-2759754D01*
G01X1691872Y-2762548D01*
G01X1686538Y-2770168D01*
G01X1683998Y-2783122D01*
G01X1683998Y-2790996D01*
G01X1686538Y-2803950D01*
G01X1691872Y-2811570D01*
G01X1699492Y-2814364D01*
G01X1704826Y-2814364D01*
G01X1694412Y-2560364D02*
G01X1720320Y-2524042D01*
G01X1681458Y-2524042D01*
G01X1694412Y-2560364D02*
G01X1694412Y-2505754D01*
G01X1617704Y-2560364D02*
G01X1643612Y-2560364D01*
G01X1646152Y-2536996D01*
G01X1643612Y-2539536D01*
G01X1635738Y-2542076D01*
G01X1627864Y-2542076D01*
G01X1620244Y-2539536D01*
G01X1614910Y-2534456D01*
G01X1612370Y-2526582D01*
G01X1612370Y-2521502D01*
G01X1614910Y-2513628D01*
G01X1620244Y-2508548D01*
G01X1627864Y-2505754D01*
G01X1635738Y-2505754D01*
G01X1643612Y-2508548D01*
G01X1646152Y-2511088D01*
G01X1648692Y-2516168D01*
G01X1694412Y-2306364D02*
G01X1720320Y-2270042D01*
G01X1681458Y-2270042D01*
G01X1694412Y-2306364D02*
G01X1694412Y-2251754D01*
G01X1635738Y-2306364D02*
G01X1643612Y-2303570D01*
G01X1646152Y-2298490D01*
G01X1646152Y-2293410D01*
G01X1643612Y-2288076D01*
G01X1638278Y-2285536D01*
G01X1627864Y-2282996D01*
G01X1620244Y-2280456D01*
G01X1614910Y-2275122D01*
G01X1612370Y-2270042D01*
G01X1612370Y-2262168D01*
G01X1614910Y-2257088D01*
G01X1617704Y-2254548D01*
G01X1625324Y-2251754D01*
G01X1635738Y-2251754D01*
G01X1643612Y-2254548D01*
G01X1646152Y-2257088D01*
G01X1648692Y-2262168D01*
G01X1648692Y-2270042D01*
G01X1646152Y-2275122D01*
G01X1640818Y-2280456D01*
G01X1633198Y-2282996D01*
G01X1622784Y-2285536D01*
G01X1617704Y-2288076D01*
G01X1614910Y-2293410D01*
G01X1614910Y-2298490D01*
G01X1617704Y-2303570D01*
G01X1625324Y-2306364D01*
G01X1635738Y-2306364D01*
G01X1715240Y-4084364D02*
G01X1686538Y-4084364D01*
G01X1702286Y-4063536D01*
G01X1694412Y-4063536D01*
G01X1689332Y-4060996D01*
G01X1686538Y-4058456D01*
G01X1683998Y-4050582D01*
G01X1683998Y-4045502D01*
G01X1686538Y-4037628D01*
G01X1691872Y-4032548D01*
G01X1699492Y-4029754D01*
G01X1707366Y-4029754D01*
G01X1715240Y-4032548D01*
G01X1717780Y-4035088D01*
G01X1720320Y-4040168D01*
G01X1617450Y-4066076D02*
G01X1620244Y-4058456D01*
G01X1625324Y-4053122D01*
G01X1633198Y-4050582D01*
G01X1635738Y-4050582D01*
G01X1643358Y-4053122D01*
G01X1648692Y-4058456D01*
G01X1651232Y-4066076D01*
G01X1651232Y-4068616D01*
G01X1648692Y-4076490D01*
G01X1643358Y-4081570D01*
G01X1635738Y-4084364D01*
G01X1633198Y-4084364D01*
G01X1625324Y-4081570D01*
G01X1620244Y-4076490D01*
G01X1617450Y-4066076D01*
G01X1617450Y-4053122D01*
G01X1620244Y-4040168D01*
G01X1625324Y-4032548D01*
G01X1633198Y-4029754D01*
G01X1638278Y-4029754D01*
G01X1646152Y-4032548D01*
G01X1648692Y-4037628D01*
G01X1715240Y-3830364D02*
G01X1686538Y-3830364D01*
G01X1702286Y-3809536D01*
G01X1694412Y-3809536D01*
G01X1689332Y-3806996D01*
G01X1686538Y-3804456D01*
G01X1683998Y-3796582D01*
G01X1683998Y-3791502D01*
G01X1686538Y-3783628D01*
G01X1691872Y-3778548D01*
G01X1699492Y-3775754D01*
G01X1707366Y-3775754D01*
G01X1715240Y-3778548D01*
G01X1717780Y-3781088D01*
G01X1720320Y-3786168D01*
G01X1638278Y-3830364D02*
G01X1646152Y-3827570D01*
G01X1648692Y-3822490D01*
G01X1648692Y-3817410D01*
G01X1646152Y-3812076D01*
G01X1640818Y-3809536D01*
G01X1630404Y-3806996D01*
G01X1622784Y-3804456D01*
G01X1617450Y-3799122D01*
G01X1614910Y-3794042D01*
G01X1614910Y-3786168D01*
G01X1617450Y-3781088D01*
G01X1620244Y-3778548D01*
G01X1627864Y-3775754D01*
G01X1638278Y-3775754D01*
G01X1646152Y-3778548D01*
G01X1648692Y-3781088D01*
G01X1651232Y-3786168D01*
G01X1651232Y-3794042D01*
G01X1648692Y-3799122D01*
G01X1643358Y-3804456D01*
G01X1635738Y-3806996D01*
G01X1625324Y-3809536D01*
G01X1620244Y-3812076D01*
G01X1617450Y-3817410D01*
G01X1617450Y-3822490D01*
G01X1620244Y-3827570D01*
G01X1627864Y-3830364D01*
G01X1638278Y-3830364D01*
G01X1715240Y-3576364D02*
G01X1686538Y-3576364D01*
G01X1702286Y-3555536D01*
G01X1694412Y-3555536D01*
G01X1689332Y-3552996D01*
G01X1686538Y-3550456D01*
G01X1683998Y-3542582D01*
G01X1683998Y-3537502D01*
G01X1686538Y-3529628D01*
G01X1691872Y-3524548D01*
G01X1699492Y-3521754D01*
G01X1707366Y-3521754D01*
G01X1715240Y-3524548D01*
G01X1717780Y-3527088D01*
G01X1720320Y-3532168D01*
G01X1614910Y-3576364D02*
G01X1640818Y-3521754D01*
G01X1651232Y-3576364D02*
G01X1614910Y-3576364D01*
G01X1715240Y-3322364D02*
G01X1686538Y-3322364D01*
G01X1702286Y-3301536D01*
G01X1694412Y-3301536D01*
G01X1689332Y-3298996D01*
G01X1686538Y-3296456D01*
G01X1683998Y-3288582D01*
G01X1683998Y-3283502D01*
G01X1686538Y-3275628D01*
G01X1691872Y-3270548D01*
G01X1699492Y-3267754D01*
G01X1707366Y-3267754D01*
G01X1715240Y-3270548D01*
G01X1717780Y-3273088D01*
G01X1720320Y-3278168D01*
G01X1620244Y-3314490D02*
G01X1622784Y-3319570D01*
G01X1630404Y-3322364D01*
G01X1635738Y-3322364D01*
G01X1643358Y-3319570D01*
G01X1648692Y-3311950D01*
G01X1651232Y-3298996D01*
G01X1651232Y-3286042D01*
G01X1648692Y-3275628D01*
G01X1643358Y-3270548D01*
G01X1635738Y-3267754D01*
G01X1633198Y-3267754D01*
G01X1625324Y-3270548D01*
G01X1620244Y-3275628D01*
G01X1617450Y-3283502D01*
G01X1617450Y-3286042D01*
G01X1620244Y-3293662D01*
G01X1625324Y-3298996D01*
G01X1633198Y-3301536D01*
G01X1635738Y-3301536D01*
G01X1643358Y-3298996D01*
G01X1648692Y-3293662D01*
G01X1651232Y-3286042D01*
G01X1717780Y-5087410D02*
G01X1717780Y-5089950D01*
G01X1715240Y-5095030D01*
G01X1712446Y-5097570D01*
G01X1707366Y-5100364D01*
G01X1696952Y-5100364D01*
G01X1691872Y-5097570D01*
G01X1689332Y-5095030D01*
G01X1686538Y-5089950D01*
G01X1686538Y-5084616D01*
G01X1689332Y-5079536D01*
G01X1694412Y-5071662D01*
G01X1720320Y-5045754D01*
G01X1683998Y-5045754D01*
G01X1694412Y-4846364D02*
G01X1720320Y-4810042D01*
G01X1681458Y-4810042D01*
G01X1694412Y-4846364D02*
G01X1694412Y-4791754D01*
G01X1646152Y-4833410D02*
G01X1646152Y-4835950D01*
G01X1643612Y-4841030D01*
G01X1640818Y-4843570D01*
G01X1635738Y-4846364D01*
G01X1625324Y-4846364D01*
G01X1620244Y-4843570D01*
G01X1617704Y-4841030D01*
G01X1614910Y-4835950D01*
G01X1614910Y-4830616D01*
G01X1617704Y-4825536D01*
G01X1622784Y-4817662D01*
G01X1648692Y-4791754D01*
G01X1612370Y-4791754D01*
G01X1694412Y-4592364D02*
G01X1720320Y-4556042D01*
G01X1681458Y-4556042D01*
G01X1694412Y-4592364D02*
G01X1694412Y-4537754D01*
G01X1648692Y-4581950D02*
G01X1643612Y-4584490D01*
G01X1635738Y-4592364D01*
G01X1635738Y-4537754D01*
G01X1694412Y-4338364D02*
G01X1720320Y-4302042D01*
G01X1681458Y-4302042D01*
G01X1694412Y-4338364D02*
G01X1694412Y-4283754D01*
G01X1633198Y-4338364D02*
G01X1640818Y-4335570D01*
G01X1646152Y-4327950D01*
G01X1648692Y-4314996D01*
G01X1648692Y-4307122D01*
G01X1646152Y-4294168D01*
G01X1640818Y-4286548D01*
G01X1633198Y-4283754D01*
G01X1627864Y-4283754D01*
G01X1620244Y-4286548D01*
G01X1614910Y-4294168D01*
G01X1612370Y-4307122D01*
G01X1612370Y-4314996D01*
G01X1614910Y-4327950D01*
G01X1620244Y-4335570D01*
G01X1627864Y-4338364D01*
G01X1633198Y-4338364D01*
G01X1720320Y-5343950D02*
G01X1715240Y-5346490D01*
G01X1707366Y-5354364D01*
G01X1707366Y-5299754D01*
G01X1809220Y-5608364D02*
G01X1809220Y-5553754D01*
G01X1809220Y-5608364D02*
G01X1785852Y-5608364D01*
G01X1778232Y-5605570D01*
G01X1775438Y-5603030D01*
G01X1772898Y-5597950D01*
G01X1772898Y-5592616D01*
G01X1775438Y-5587536D01*
G01X1778232Y-5584996D01*
G01X1785852Y-5582456D01*
G01X1809220Y-5582456D01*
G01X1791186Y-5582456D02*
G01X1772898Y-5553754D01*
G01X1740132Y-5608364D02*
G01X1703810Y-5553754D01*
G01X1703810Y-5608364D02*
G01X1740132Y-5553754D01*
G01X1791186Y-5862364D02*
G01X1791186Y-5807754D01*
G01X1809220Y-5862364D02*
G01X1772898Y-5862364D01*
G01X1740132Y-5862364D02*
G01X1703810Y-5807754D01*
G01X1703810Y-5862364D02*
G01X1740132Y-5807754D01*
G01X1770358Y-6103410D02*
G01X1772898Y-6108490D01*
G01X1778232Y-6113570D01*
G01X1783312Y-6116364D01*
G01X1793726Y-6116364D01*
G01X1798806Y-6113570D01*
G01X1804140Y-6108490D01*
G01X1806680Y-6103410D01*
G01X1809220Y-6095536D01*
G01X1809220Y-6082582D01*
G01X1806680Y-6074708D01*
G01X1804140Y-6069628D01*
G01X1798806Y-6064548D01*
G01X1793726Y-6061754D01*
G01X1783312Y-6061754D01*
G01X1778232Y-6064548D01*
G01X1772898Y-6069628D01*
G01X1770358Y-6074708D01*
G01X1770358Y-6082582D01*
G01X1783312Y-6082582D02*
G01X1770358Y-6082582D01*
G54D11*
G01X679801Y-5019726D02*
G01X679801Y-5084750D01*
G01X679801Y-5084750D02*
G01X716885Y-5084750D01*
G01X747111Y-5019726D02*
G01X750159Y-5022774D01*
G01X753207Y-5019726D01*
G01X750159Y-5016678D01*
G01X747111Y-5019726D01*
G01X750159Y-5041316D02*
G01X750159Y-5084750D01*
G01X783433Y-5041316D02*
G01X783433Y-5106340D01*
G01X783433Y-5050714D02*
G01X789529Y-5044364D01*
G01X795625Y-5041316D01*
G01X805023Y-5041316D01*
G01X811119Y-5044364D01*
G01X817469Y-5050714D01*
G01X820517Y-5059858D01*
G01X820517Y-5066208D01*
G01X817469Y-5075352D01*
G01X811119Y-5081702D01*
G01X805023Y-5084750D01*
G01X795625Y-5084750D01*
G01X789529Y-5081702D01*
G01X783433Y-5075352D01*
G01X865983Y-5041316D02*
G01X859887Y-5044364D01*
G01X853791Y-5050714D01*
G01X850743Y-5059858D01*
G01X850743Y-5066208D01*
G01X853791Y-5075352D01*
G01X859887Y-5081702D01*
G01X865983Y-5084750D01*
G01X875381Y-5084750D01*
G01X881477Y-5081702D01*
G01X887827Y-5075352D01*
G01X890875Y-5066208D01*
G01X890875Y-5059858D01*
G01X887827Y-5050714D01*
G01X881477Y-5044364D01*
G01X875381Y-5041316D01*
G01X865983Y-5041316D01*
G01X921101Y-5019726D02*
G01X921101Y-5084750D01*
G01X964281Y-5019726D02*
G01X964281Y-5084750D01*
G01X921101Y-5050714D02*
G01X964281Y-5050714D01*
G01X994507Y-5059858D02*
G01X1031591Y-5059858D01*
G01X1031591Y-5053762D01*
G01X1028543Y-5047412D01*
G01X1025241Y-5044364D01*
G01X1019145Y-5041316D01*
G01X1009747Y-5041316D01*
G01X1003651Y-5044364D01*
G01X997555Y-5050714D01*
G01X994507Y-5059858D01*
G01X994507Y-5066208D01*
G01X997555Y-5075352D01*
G01X1003651Y-5081702D01*
G01X1009747Y-5084750D01*
G01X1019145Y-5084750D01*
G01X1025241Y-5081702D01*
G01X1031591Y-5075352D01*
G01X1098901Y-5041316D02*
G01X1098901Y-5084750D01*
G01X1098901Y-5050714D02*
G01X1092551Y-5044364D01*
G01X1086455Y-5041316D01*
G01X1077057Y-5041316D01*
G01X1070961Y-5044364D01*
G01X1064865Y-5050714D01*
G01X1061817Y-5059858D01*
G01X1061817Y-5066208D01*
G01X1064865Y-5075352D01*
G01X1070961Y-5081702D01*
G01X1077057Y-5084750D01*
G01X1086455Y-5084750D01*
G01X1092551Y-5081702D01*
G01X1098901Y-5075352D01*
G01X1166211Y-5019726D02*
G01X1166211Y-5084750D01*
G01X1166211Y-5050714D02*
G01X1159861Y-5044364D01*
G01X1153765Y-5041316D01*
G01X1144367Y-5041316D01*
G01X1138271Y-5044364D01*
G01X1132175Y-5050714D01*
G01X1129127Y-5059858D01*
G01X1129127Y-5066208D01*
G01X1132175Y-5075352D01*
G01X1138271Y-5081702D01*
G01X1144367Y-5084750D01*
G01X1153765Y-5084750D01*
G01X1159861Y-5081702D01*
G01X1166211Y-5075352D01*
G01X1196437Y-5059858D02*
G01X1233521Y-5059858D01*
G01X1233521Y-5053762D01*
G01X1230473Y-5047412D01*
G01X1227171Y-5044364D01*
G01X1221075Y-5041316D01*
G01X1211677Y-5041316D01*
G01X1205581Y-5044364D01*
G01X1199485Y-5050714D01*
G01X1196437Y-5059858D01*
G01X1196437Y-5066208D01*
G01X1199485Y-5075352D01*
G01X1205581Y-5081702D01*
G01X1211677Y-5084750D01*
G01X1221075Y-5084750D01*
G01X1227171Y-5081702D01*
G01X1233521Y-5075352D01*
G01X1263747Y-5041316D02*
G01X1263747Y-5084750D01*
G01X1263747Y-5059858D02*
G01X1266795Y-5050714D01*
G01X1272891Y-5044364D01*
G01X1278987Y-5041316D01*
G01X1288385Y-5041316D01*
G01X7879790Y-5467441D02*
G01X7885886Y-5461091D01*
G01X7888934Y-5451947D01*
G01X7888934Y-5439501D01*
G01X7885886Y-5430103D01*
G01X7879790Y-5424007D01*
G01X7873440Y-5424007D01*
G01X7867344Y-5427055D01*
G01X7864296Y-5430103D01*
G01X7861248Y-5436453D01*
G01X7854898Y-5454995D01*
G01X7851850Y-5461091D01*
G01X7848802Y-5464139D01*
G01X7842452Y-5467441D01*
G01X7833308Y-5467441D01*
G01X7826958Y-5461091D01*
G01X7823910Y-5451947D01*
G01X7823910Y-5439501D01*
G01X7826958Y-5430103D01*
G01X7833308Y-5424007D01*
G01X7888934Y-5497667D02*
G01X7823910Y-5512907D01*
G01X7888934Y-5528401D02*
G01X7823910Y-5512907D01*
G01X7888934Y-5528401D02*
G01X7823910Y-5543895D01*
G01X7888934Y-5559389D02*
G01X7823910Y-5543895D01*
G01X7802320Y-5589615D02*
G01X7802320Y-5645241D01*
G01X7888934Y-5675467D02*
G01X7823910Y-5675467D01*
G01X7888934Y-5675467D02*
G01X7823910Y-5718647D01*
G01X7888934Y-5718647D02*
G01X7823910Y-5718647D01*
G01X7888934Y-5748873D02*
G01X7823910Y-5748873D01*
G01X7888934Y-5748873D02*
G01X7888934Y-5789005D01*
G01X7857946Y-5748873D02*
G01X7857946Y-5773511D01*
G01X7823910Y-5748873D02*
G01X7823910Y-5789005D01*
G01X7888934Y-5819231D02*
G01X7823910Y-5862411D01*
G01X7888934Y-5862411D02*
G01X7823910Y-5819231D01*
G01X7888934Y-5914227D02*
G01X7823910Y-5914227D01*
G01X7888934Y-5892637D02*
G01X7888934Y-5935817D01*
G01X7879790Y-4467441D02*
G01X7885886Y-4461091D01*
G01X7888934Y-4451947D01*
G01X7888934Y-4439501D01*
G01X7885886Y-4430103D01*
G01X7879790Y-4424007D01*
G01X7873440Y-4424007D01*
G01X7867344Y-4427055D01*
G01X7864296Y-4430103D01*
G01X7861248Y-4436453D01*
G01X7854898Y-4454995D01*
G01X7851850Y-4461091D01*
G01X7848802Y-4464139D01*
G01X7842452Y-4467441D01*
G01X7833308Y-4467441D01*
G01X7826958Y-4461091D01*
G01X7823910Y-4451947D01*
G01X7823910Y-4439501D01*
G01X7826958Y-4430103D01*
G01X7833308Y-4424007D01*
G01X7888934Y-4497667D02*
G01X7823910Y-4512907D01*
G01X7888934Y-4528401D02*
G01X7823910Y-4512907D01*
G01X7888934Y-4528401D02*
G01X7823910Y-4543895D01*
G01X7888934Y-4559389D02*
G01X7823910Y-4543895D01*
G01X7802320Y-4589615D02*
G01X7802320Y-4645241D01*
G01X7888934Y-4675467D02*
G01X7823910Y-4675467D01*
G01X7888934Y-4675467D02*
G01X7888934Y-4703153D01*
G01X7885886Y-4712551D01*
G01X7882838Y-4715599D01*
G01X7876488Y-4718647D01*
G01X7867344Y-4718647D01*
G01X7861248Y-4715599D01*
G01X7857946Y-4712551D01*
G01X7854898Y-4703153D01*
G01X7854898Y-4675467D01*
G01X7888934Y-4748873D02*
G01X7823910Y-4748873D01*
G01X7888934Y-4748873D02*
G01X7888934Y-4776559D01*
G01X7885886Y-4785957D01*
G01X7882838Y-4789005D01*
G01X7876488Y-4792053D01*
G01X7870392Y-4792053D01*
G01X7864296Y-4789005D01*
G01X7861248Y-4785957D01*
G01X7857946Y-4776559D01*
G01X7857946Y-4748873D01*
G01X7857946Y-4770463D02*
G01X7823910Y-4792053D01*
G01X7888934Y-4822279D02*
G01X7823910Y-4822279D01*
G01X7888934Y-4822279D02*
G01X7888934Y-4862411D01*
G01X7857946Y-4822279D02*
G01X7857946Y-4846917D01*
G01X7823910Y-4822279D02*
G01X7823910Y-4862411D01*
G01X7888934Y-4892637D02*
G01X7823910Y-4917275D01*
G01X7888934Y-4942167D02*
G01X7823910Y-4917275D01*
G01X7010159Y-3885547D02*
G01X7075183Y-3885547D01*
G01X7010159Y-3885547D02*
G01X7010159Y-3857607D01*
G01X7013207Y-3848463D01*
G01X7016255Y-3845415D01*
G01X7022605Y-3842113D01*
G01X7031749Y-3842113D01*
G01X7037845Y-3845415D01*
G01X7041147Y-3848463D01*
G01X7044195Y-3857607D01*
G01X7044195Y-3885547D01*
G01X7010159Y-3811887D02*
G01X7075183Y-3811887D01*
G01X7010159Y-3781661D02*
G01X7075183Y-3781661D01*
G01X7010159Y-3781661D02*
G01X7075183Y-3738481D01*
G01X7010159Y-3738481D02*
G01X7075183Y-3738481D01*
G01X7010159Y-3708255D02*
G01X7075183Y-3708255D01*
G01X7075183Y-3708255D02*
G01X7075183Y-3671171D01*
G01X7010159Y-3640945D02*
G01X7075183Y-3640945D01*
G01X7010159Y-3640945D02*
G01X7010159Y-3600813D01*
G01X7041147Y-3640945D02*
G01X7041147Y-3616307D01*
G01X7075183Y-3640945D02*
G01X7075183Y-3600813D01*
G01X7010159Y-3570587D02*
G01X7075183Y-3570587D01*
G01X7010159Y-3570587D02*
G01X7010159Y-3548997D01*
G01X7013207Y-3539853D01*
G01X7019303Y-3533503D01*
G01X7025653Y-3530455D01*
G01X7034797Y-3527407D01*
G01X7050291Y-3527407D01*
G01X7059689Y-3530455D01*
G01X7065785Y-3533503D01*
G01X7072135Y-3539853D01*
G01X7075183Y-3548997D01*
G01X7075183Y-3570587D01*
G01X6879787Y-3467419D02*
G01X6885883Y-3461069D01*
G01X6888931Y-3451925D01*
G01X6888931Y-3439479D01*
G01X6885883Y-3430081D01*
G01X6879787Y-3423985D01*
G01X6873437Y-3423985D01*
G01X6867341Y-3427033D01*
G01X6864293Y-3430081D01*
G01X6861245Y-3436431D01*
G01X6854895Y-3454973D01*
G01X6851847Y-3461069D01*
G01X6848799Y-3464117D01*
G01X6842449Y-3467419D01*
G01X6833305Y-3467419D01*
G01X6826955Y-3461069D01*
G01X6823907Y-3451925D01*
G01X6823907Y-3439479D01*
G01X6826955Y-3430081D01*
G01X6833305Y-3423985D01*
G01X6888931Y-3497645D02*
G01X6823907Y-3512885D01*
G01X6888931Y-3528379D02*
G01X6823907Y-3512885D01*
G01X6888931Y-3528379D02*
G01X6823907Y-3543873D01*
G01X6888931Y-3559367D02*
G01X6823907Y-3543873D01*
G01X6888931Y-3595689D02*
G01X6888931Y-3629725D01*
G01X6864293Y-3611183D01*
G01X6864293Y-3620327D01*
G01X6861245Y-3626677D01*
G01X6857943Y-3629725D01*
G01X6848799Y-3632773D01*
G01X6842449Y-3632773D01*
G01X6833305Y-3629725D01*
G01X6826955Y-3623629D01*
G01X6823907Y-3614231D01*
G01X6823907Y-3604833D01*
G01X6826955Y-3595689D01*
G01X6830257Y-3592641D01*
G01X6836353Y-3589593D01*
G01X6879787Y-4467419D02*
G01X6885883Y-4461069D01*
G01X6888931Y-4451925D01*
G01X6888931Y-4439479D01*
G01X6885883Y-4430081D01*
G01X6879787Y-4423985D01*
G01X6873437Y-4423985D01*
G01X6867341Y-4427033D01*
G01X6864293Y-4430081D01*
G01X6861245Y-4436431D01*
G01X6854895Y-4454973D01*
G01X6851847Y-4461069D01*
G01X6848799Y-4464117D01*
G01X6842449Y-4467419D01*
G01X6833305Y-4467419D01*
G01X6826955Y-4461069D01*
G01X6823907Y-4451925D01*
G01X6823907Y-4439479D01*
G01X6826955Y-4430081D01*
G01X6833305Y-4423985D01*
G01X6888931Y-4497645D02*
G01X6823907Y-4512885D01*
G01X6888931Y-4528379D02*
G01X6823907Y-4512885D01*
G01X6888931Y-4528379D02*
G01X6823907Y-4543873D01*
G01X6888931Y-4559367D02*
G01X6823907Y-4543873D01*
G01X6873437Y-4592641D02*
G01X6876485Y-4592641D01*
G01X6882835Y-4595689D01*
G01X6885883Y-4598737D01*
G01X6888931Y-4604833D01*
G01X6888931Y-4617279D01*
G01X6885883Y-4623629D01*
G01X6882835Y-4626677D01*
G01X6876485Y-4629725D01*
G01X6870389Y-4629725D01*
G01X6864293Y-4626677D01*
G01X6854895Y-4620327D01*
G01X6823907Y-4589593D01*
G01X6823907Y-4632773D01*
G01X6879787Y-2467418D02*
G01X6885883Y-2461068D01*
G01X6888931Y-2451924D01*
G01X6888931Y-2439478D01*
G01X6885883Y-2430080D01*
G01X6879787Y-2423984D01*
G01X6873437Y-2423984D01*
G01X6867341Y-2427032D01*
G01X6864293Y-2430080D01*
G01X6861245Y-2436430D01*
G01X6854895Y-2454972D01*
G01X6851847Y-2461068D01*
G01X6848799Y-2464116D01*
G01X6842449Y-2467418D01*
G01X6833305Y-2467418D01*
G01X6826955Y-2461068D01*
G01X6823907Y-2451924D01*
G01X6823907Y-2439478D01*
G01X6826955Y-2430080D01*
G01X6833305Y-2423984D01*
G01X6888931Y-2497644D02*
G01X6823907Y-2512884D01*
G01X6888931Y-2528378D02*
G01X6823907Y-2512884D01*
G01X6888931Y-2528378D02*
G01X6823907Y-2543872D01*
G01X6888931Y-2559366D02*
G01X6823907Y-2543872D01*
G01X6888931Y-2620326D02*
G01X6845751Y-2589592D01*
G01X6845751Y-2635820D01*
G01X6888931Y-2620326D02*
G01X6823907Y-2620326D01*
G01X6879787Y-5467419D02*
G01X6885883Y-5461069D01*
G01X6888931Y-5451925D01*
G01X6888931Y-5439479D01*
G01X6885883Y-5430081D01*
G01X6879787Y-5423985D01*
G01X6873437Y-5423985D01*
G01X6867341Y-5427033D01*
G01X6864293Y-5430081D01*
G01X6861245Y-5436431D01*
G01X6854895Y-5454973D01*
G01X6851847Y-5461069D01*
G01X6848799Y-5464117D01*
G01X6842449Y-5467419D01*
G01X6833305Y-5467419D01*
G01X6826955Y-5461069D01*
G01X6823907Y-5451925D01*
G01X6823907Y-5439479D01*
G01X6826955Y-5430081D01*
G01X6833305Y-5423985D01*
G01X6888931Y-5497645D02*
G01X6823907Y-5512885D01*
G01X6888931Y-5528379D02*
G01X6823907Y-5512885D01*
G01X6888931Y-5528379D02*
G01X6823907Y-5543873D01*
G01X6888931Y-5559367D02*
G01X6823907Y-5543873D01*
G01X6876485Y-5589593D02*
G01X6879787Y-5595689D01*
G01X6888931Y-5604833D01*
G01X6823907Y-5604833D01*
G01X5879787Y-5467419D02*
G01X5885883Y-5461069D01*
G01X5888931Y-5451925D01*
G01X5888931Y-5439479D01*
G01X5885883Y-5430081D01*
G01X5879787Y-5423985D01*
G01X5873437Y-5423985D01*
G01X5867341Y-5427033D01*
G01X5864293Y-5430081D01*
G01X5861245Y-5436431D01*
G01X5854895Y-5454973D01*
G01X5851847Y-5461069D01*
G01X5848799Y-5464117D01*
G01X5842449Y-5467419D01*
G01X5833305Y-5467419D01*
G01X5826955Y-5461069D01*
G01X5823907Y-5451925D01*
G01X5823907Y-5439479D01*
G01X5826955Y-5430081D01*
G01X5833305Y-5423985D01*
G01X5888931Y-5497645D02*
G01X5823907Y-5512885D01*
G01X5888931Y-5528379D02*
G01X5823907Y-5512885D01*
G01X5888931Y-5528379D02*
G01X5823907Y-5543873D01*
G01X5888931Y-5559367D02*
G01X5823907Y-5543873D01*
G01X5888931Y-5626677D02*
G01X5888931Y-5595689D01*
G01X5861245Y-5592641D01*
G01X5864293Y-5595689D01*
G01X5867341Y-5604833D01*
G01X5867341Y-5614231D01*
G01X5864293Y-5623629D01*
G01X5857943Y-5629725D01*
G01X5848799Y-5632773D01*
G01X5842449Y-5632773D01*
G01X5833305Y-5629725D01*
G01X5826955Y-5623629D01*
G01X5823907Y-5614231D01*
G01X5823907Y-5604833D01*
G01X5826955Y-5595689D01*
G01X5830257Y-5592641D01*
G01X5836353Y-5589593D01*
G01X5879787Y-4467419D02*
G01X5885883Y-4461069D01*
G01X5888931Y-4451925D01*
G01X5888931Y-4439479D01*
G01X5885883Y-4430081D01*
G01X5879787Y-4423985D01*
G01X5873437Y-4423985D01*
G01X5867341Y-4427033D01*
G01X5864293Y-4430081D01*
G01X5861245Y-4436431D01*
G01X5854895Y-4454973D01*
G01X5851847Y-4461069D01*
G01X5848799Y-4464117D01*
G01X5842449Y-4467419D01*
G01X5833305Y-4467419D01*
G01X5826955Y-4461069D01*
G01X5823907Y-4451925D01*
G01X5823907Y-4439479D01*
G01X5826955Y-4430081D01*
G01X5833305Y-4423985D01*
G01X5888931Y-4497645D02*
G01X5823907Y-4512885D01*
G01X5888931Y-4528379D02*
G01X5823907Y-4512885D01*
G01X5888931Y-4528379D02*
G01X5823907Y-4543873D01*
G01X5888931Y-4559367D02*
G01X5823907Y-4543873D01*
G01X5879787Y-4626677D02*
G01X5885883Y-4623629D01*
G01X5888931Y-4614231D01*
G01X5888931Y-4608135D01*
G01X5885883Y-4598737D01*
G01X5876485Y-4592641D01*
G01X5861245Y-4589593D01*
G01X5845751Y-4589593D01*
G01X5833305Y-4592641D01*
G01X5826955Y-4598737D01*
G01X5823907Y-4608135D01*
G01X5823907Y-4611183D01*
G01X5826955Y-4620327D01*
G01X5833305Y-4626677D01*
G01X5842449Y-4629725D01*
G01X5845751Y-4629725D01*
G01X5854895Y-4626677D01*
G01X5861245Y-4620327D01*
G01X5864293Y-4611183D01*
G01X5864293Y-4608135D01*
G01X5861245Y-4598737D01*
G01X5854895Y-4592641D01*
G01X5845751Y-4589593D01*
G01X5879787Y-3467419D02*
G01X5885883Y-3461069D01*
G01X5888931Y-3451925D01*
G01X5888931Y-3439479D01*
G01X5885883Y-3430081D01*
G01X5879787Y-3423985D01*
G01X5873437Y-3423985D01*
G01X5867341Y-3427033D01*
G01X5864293Y-3430081D01*
G01X5861245Y-3436431D01*
G01X5854895Y-3454973D01*
G01X5851847Y-3461069D01*
G01X5848799Y-3464117D01*
G01X5842449Y-3467419D01*
G01X5833305Y-3467419D01*
G01X5826955Y-3461069D01*
G01X5823907Y-3451925D01*
G01X5823907Y-3439479D01*
G01X5826955Y-3430081D01*
G01X5833305Y-3423985D01*
G01X5888931Y-3497645D02*
G01X5823907Y-3512885D01*
G01X5888931Y-3528379D02*
G01X5823907Y-3512885D01*
G01X5888931Y-3528379D02*
G01X5823907Y-3543873D01*
G01X5888931Y-3559367D02*
G01X5823907Y-3543873D01*
G01X5888931Y-3632773D02*
G01X5823907Y-3601785D01*
G01X5888931Y-3589593D02*
G01X5888931Y-3632773D01*
G01X5879787Y-2467418D02*
G01X5885883Y-2461068D01*
G01X5888931Y-2451924D01*
G01X5888931Y-2439478D01*
G01X5885883Y-2430080D01*
G01X5879787Y-2423984D01*
G01X5873437Y-2423984D01*
G01X5867341Y-2427032D01*
G01X5864293Y-2430080D01*
G01X5861245Y-2436430D01*
G01X5854895Y-2454972D01*
G01X5851847Y-2461068D01*
G01X5848799Y-2464116D01*
G01X5842449Y-2467418D01*
G01X5833305Y-2467418D01*
G01X5826955Y-2461068D01*
G01X5823907Y-2451924D01*
G01X5823907Y-2439478D01*
G01X5826955Y-2430080D01*
G01X5833305Y-2423984D01*
G01X5888931Y-2497644D02*
G01X5823907Y-2512884D01*
G01X5888931Y-2528378D02*
G01X5823907Y-2512884D01*
G01X5888931Y-2528378D02*
G01X5823907Y-2543872D01*
G01X5888931Y-2559366D02*
G01X5823907Y-2543872D01*
G01X5888931Y-2604832D02*
G01X5885883Y-2595688D01*
G01X5879787Y-2592640D01*
G01X5873437Y-2592640D01*
G01X5867341Y-2595688D01*
G01X5864293Y-2601784D01*
G01X5861245Y-2614230D01*
G01X5857943Y-2623628D01*
G01X5851847Y-2629724D01*
G01X5845751Y-2632772D01*
G01X5836353Y-2632772D01*
G01X5830257Y-2629724D01*
G01X5826955Y-2626676D01*
G01X5823907Y-2617278D01*
G01X5823907Y-2604832D01*
G01X5826955Y-2595688D01*
G01X5830257Y-2592640D01*
G01X5836353Y-2589592D01*
G01X5845751Y-2589592D01*
G01X5851847Y-2592640D01*
G01X5857943Y-2598736D01*
G01X5861245Y-2608134D01*
G01X5864293Y-2620326D01*
G01X5867341Y-2626676D01*
G01X5873437Y-2629724D01*
G01X5879787Y-2629724D01*
G01X5885883Y-2626676D01*
G01X5888931Y-2617278D01*
G01X5888931Y-2604832D01*
G01X642935Y-694270D02*
G01X636585Y-688174D01*
G01X627441Y-685126D01*
G01X614995Y-685126D01*
G01X605597Y-688174D01*
G01X599501Y-694270D01*
G01X599501Y-700620D01*
G01X602549Y-706716D01*
G01X605597Y-709764D01*
G01X611947Y-712812D01*
G01X630489Y-719162D01*
G01X636585Y-722210D01*
G01X639633Y-725258D01*
G01X642935Y-731608D01*
G01X642935Y-740752D01*
G01X636585Y-747102D01*
G01X627441Y-750150D01*
G01X614995Y-750150D01*
G01X605597Y-747102D01*
G01X599501Y-740752D01*
G01X710245Y-706716D02*
G01X710245Y-750150D01*
G01X710245Y-716114D02*
G01X703895Y-709764D01*
G01X697799Y-706716D01*
G01X688401Y-706716D01*
G01X682305Y-709764D01*
G01X676209Y-716114D01*
G01X673161Y-725258D01*
G01X673161Y-731608D01*
G01X676209Y-740752D01*
G01X682305Y-747102D01*
G01X688401Y-750150D01*
G01X697799Y-750150D01*
G01X703895Y-747102D01*
G01X710245Y-740752D01*
G01X740471Y-685126D02*
G01X740471Y-750150D01*
G01X771205Y-706716D02*
G01X740471Y-737704D01*
G01X752663Y-725258D02*
G01X774507Y-750150D01*
G01X804733Y-685126D02*
G01X804733Y-750150D01*
G01X872043Y-706716D02*
G01X872043Y-750150D01*
G01X872043Y-716114D02*
G01X865693Y-709764D01*
G01X859597Y-706716D01*
G01X850199Y-706716D01*
G01X844103Y-709764D01*
G01X838007Y-716114D01*
G01X834959Y-725258D01*
G01X834959Y-731608D01*
G01X838007Y-740752D01*
G01X844103Y-747102D01*
G01X850199Y-750150D01*
G01X859597Y-750150D01*
G01X865693Y-747102D01*
G01X872043Y-740752D01*
G01X902269Y-706716D02*
G01X902269Y-750150D01*
G01X902269Y-725258D02*
G01X905317Y-716114D01*
G01X911413Y-709764D01*
G01X917509Y-706716D01*
G01X926907Y-706716D01*
G01X975675Y-685126D02*
G01X969325Y-688174D01*
G01X963229Y-694270D01*
G01X960181Y-700620D01*
G01X957133Y-709764D01*
G01X957133Y-725258D01*
G01X960181Y-734656D01*
G01X963229Y-740752D01*
G01X969325Y-747102D01*
G01X975675Y-750150D01*
G01X987867Y-750150D01*
G01X994217Y-747102D01*
G01X1000313Y-740752D01*
G01X1003361Y-734656D01*
G01X1006663Y-725258D01*
G01X1006663Y-709764D01*
G01X1003361Y-700620D01*
G01X1000313Y-694270D01*
G01X994217Y-688174D01*
G01X987867Y-685126D01*
G01X975675Y-685126D01*
G01X1036889Y-706716D02*
G01X1036889Y-750150D01*
G01X1036889Y-719162D02*
G01X1046033Y-709764D01*
G01X1052129Y-706716D01*
G01X1061527Y-706716D01*
G01X1067623Y-709764D01*
G01X1070925Y-719162D01*
G01X1070925Y-750150D01*
G01X1156777Y-672680D02*
G01X1101151Y-771740D01*
G01X1205545Y-685126D02*
G01X1199195Y-688174D01*
G01X1193099Y-694270D01*
G01X1190051Y-700620D01*
G01X1187003Y-709764D01*
G01X1187003Y-725258D01*
G01X1190051Y-734656D01*
G01X1193099Y-740752D01*
G01X1199195Y-747102D01*
G01X1205545Y-750150D01*
G01X1217737Y-750150D01*
G01X1224087Y-747102D01*
G01X1230183Y-740752D01*
G01X1233231Y-734656D01*
G01X1236533Y-725258D01*
G01X1236533Y-709764D01*
G01X1233231Y-700620D01*
G01X1230183Y-694270D01*
G01X1224087Y-688174D01*
G01X1217737Y-685126D01*
G01X1205545Y-685126D01*
G01X1291397Y-685126D02*
G01X1285301Y-685126D01*
G01X1278951Y-688174D01*
G01X1275903Y-697572D01*
G01X1275903Y-750150D01*
G01X1266759Y-706716D02*
G01X1288349Y-706716D01*
G01X1346261Y-685126D02*
G01X1340165Y-685126D01*
G01X1333815Y-688174D01*
G01X1330767Y-697572D01*
G01X1330767Y-750150D01*
G01X1321623Y-706716D02*
G01X1343213Y-706716D01*
G01X8251767Y-1493094D02*
G01X8251767Y-1428070D01*
G01X8273357Y-1493094D02*
G01X8229923Y-1493094D01*
G01X8199697Y-1493094D02*
G01X8199697Y-1428070D01*
G01X8199697Y-1493094D02*
G01X8159565Y-1493094D01*
G01X8199697Y-1462106D02*
G01X8175059Y-1462106D01*
G01X8107749Y-1493094D02*
G01X8107749Y-1428070D01*
G01X8129339Y-1493094D02*
G01X8086159Y-1493094D01*
G01X8055933Y-1406480D02*
G01X8000307Y-1406480D01*
G01X7970081Y-1493094D02*
G01X7970081Y-1428070D01*
G01X7970081Y-1493094D02*
G01X7948491Y-1493094D01*
G01X7939347Y-1490046D01*
G01X7932997Y-1483950D01*
G01X7929949Y-1477600D01*
G01X7926901Y-1468456D01*
G01X7926901Y-1452962D01*
G01X7929949Y-1443564D01*
G01X7932997Y-1437468D01*
G01X7939347Y-1431118D01*
G01X7948491Y-1428070D01*
G01X7970081Y-1428070D01*
G01X7896675Y-1493094D02*
G01X7896675Y-1428070D01*
G01X7823269Y-1483950D02*
G01X7829365Y-1490046D01*
G01X7838763Y-1493094D01*
G01X7851209Y-1493094D01*
G01X7860353Y-1490046D01*
G01X7866449Y-1483950D01*
G01X7866449Y-1477600D01*
G01X7863401Y-1471504D01*
G01X7860353Y-1468456D01*
G01X7854257Y-1465408D01*
G01X7835715Y-1459058D01*
G01X7829365Y-1456010D01*
G01X7826317Y-1452962D01*
G01X7823269Y-1446612D01*
G01X7823269Y-1437468D01*
G01X7829365Y-1431118D01*
G01X7838763Y-1428070D01*
G01X7851209Y-1428070D01*
G01X7860353Y-1431118D01*
G01X7866449Y-1437468D01*
G01X7793043Y-1493094D02*
G01X7793043Y-1428070D01*
G01X7793043Y-1493094D02*
G01X7765357Y-1493094D01*
G01X7755959Y-1490046D01*
G01X7752911Y-1486998D01*
G01X7749863Y-1480648D01*
G01X7749863Y-1471504D01*
G01X7752911Y-1465408D01*
G01X7755959Y-1462106D01*
G01X7765357Y-1459058D01*
G01X7793043Y-1459058D01*
G01X7719637Y-1493094D02*
G01X7719637Y-1428070D01*
G01X7719637Y-1428070D02*
G01X7682553Y-1428070D01*
G01X7627689Y-1493094D02*
G01X7652327Y-1428070D01*
G01X7627689Y-1493094D02*
G01X7602797Y-1428070D01*
G01X7643183Y-1449914D02*
G01X7612195Y-1449914D01*
G01X7572571Y-1493094D02*
G01X7547933Y-1462106D01*
G01X7547933Y-1428070D01*
G01X7523041Y-1493094D02*
G01X7547933Y-1462106D01*
G01X1268914Y-2025718D02*
G01X1333938Y-2025718D01*
G01X1333938Y-2025718D02*
G01X1333938Y-1988634D01*
G01X1281360Y-1958408D02*
G01X1278058Y-1952312D01*
G01X1268914Y-1943168D01*
G01X1333938Y-1943168D01*
G01X1122240Y-1580258D02*
G01X1115890Y-1583306D01*
G01X1109794Y-1589656D01*
G01X1106746Y-1595752D01*
G01X1106746Y-1608198D01*
G01X1109794Y-1614294D01*
G01X1115890Y-1620644D01*
G01X1122240Y-1623692D01*
G01X1131384Y-1626740D01*
G01X1146878Y-1626740D01*
G01X1156276Y-1623692D01*
G01X1162372Y-1620644D01*
G01X1168722Y-1614294D01*
G01X1171770Y-1608198D01*
G01X1171770Y-1595752D01*
G01X1168722Y-1589656D01*
G01X1162372Y-1583306D01*
G01X1156276Y-1580258D01*
G01X1119192Y-1550032D02*
G01X1115890Y-1543936D01*
G01X1106746Y-1534792D01*
G01X1171770Y-1534792D01*
G01X1481820Y-2782662D02*
G01X1488170Y-2779614D01*
G01X1494266Y-2773264D01*
G01X1497314Y-2767168D01*
G01X1497314Y-2754722D01*
G01X1494266Y-2748626D01*
G01X1488170Y-2742276D01*
G01X1481820Y-2739228D01*
G01X1472676Y-2736180D01*
G01X1457182Y-2736180D01*
G01X1447784Y-2739228D01*
G01X1441688Y-2742276D01*
G01X1435338Y-2748626D01*
G01X1432290Y-2754722D01*
G01X1432290Y-2767168D01*
G01X1435338Y-2773264D01*
G01X1441688Y-2779614D01*
G01X1447784Y-2782662D01*
G01X1497314Y-2849972D02*
G01X1497314Y-2818984D01*
G01X1469628Y-2815936D01*
G01X1472676Y-2818984D01*
G01X1475724Y-2828128D01*
G01X1475724Y-2837526D01*
G01X1472676Y-2846924D01*
G01X1466326Y-2853020D01*
G01X1457182Y-2856068D01*
G01X1450832Y-2856068D01*
G01X1441688Y-2853020D01*
G01X1435338Y-2846924D01*
G01X1432290Y-2837526D01*
G01X1432290Y-2828128D01*
G01X1435338Y-2818984D01*
G01X1438640Y-2815936D01*
G01X1444736Y-2812888D01*
G01X441846Y-4282148D02*
G01X506870Y-4307040D01*
G01X441846Y-4282148D02*
G01X506870Y-4257510D01*
G01X485026Y-4297642D02*
G01X485026Y-4266908D01*
G01X441846Y-4227284D02*
G01X506870Y-4227284D01*
G01X441846Y-4227284D02*
G01X506870Y-4202646D01*
G01X441846Y-4177754D02*
G01X506870Y-4202646D01*
G01X441846Y-4177754D02*
G01X506870Y-4177754D01*
G01X450990Y-4104348D02*
G01X444894Y-4110444D01*
G01X441846Y-4119842D01*
G01X441846Y-4132288D01*
G01X444894Y-4141432D01*
G01X450990Y-4147528D01*
G01X457340Y-4147528D01*
G01X463436Y-4144480D01*
G01X466484Y-4141432D01*
G01X469532Y-4135336D01*
G01X475882Y-4116794D01*
G01X478930Y-4110444D01*
G01X481978Y-4107396D01*
G01X488328Y-4104348D01*
G01X497472Y-4104348D01*
G01X503822Y-4110444D01*
G01X506870Y-4119842D01*
G01X506870Y-4132288D01*
G01X503822Y-4141432D01*
G01X497472Y-4147528D01*
G01X454292Y-4074122D02*
G01X450990Y-4068026D01*
G01X441846Y-4058882D01*
G01X506870Y-4058882D01*
G01X454292Y-4028656D02*
G01X450990Y-4022560D01*
G01X441846Y-4013416D01*
G01X506870Y-4013416D01*
G01X454292Y-3983190D02*
G01X450990Y-3977094D01*
G01X441846Y-3967950D01*
G01X506870Y-3967950D01*
G01X441846Y-3894544D02*
G01X506870Y-3925532D01*
G01X441846Y-3937724D02*
G01X441846Y-3894544D01*
G01X478930Y-3864318D02*
G01X478930Y-3808692D01*
G01X441846Y-3772370D02*
G01X441846Y-3738334D01*
G01X466484Y-3756876D01*
G01X466484Y-3747732D01*
G01X469532Y-3741382D01*
G01X472834Y-3738334D01*
G01X481978Y-3735286D01*
G01X488328Y-3735286D01*
G01X497472Y-3738334D01*
G01X503822Y-3744430D01*
G01X506870Y-3753828D01*
G01X506870Y-3763226D01*
G01X503822Y-3772370D01*
G01X500520Y-3775418D01*
G01X494424Y-3778466D01*
G01X491376Y-3702012D02*
G01X494424Y-3705060D01*
G01X497472Y-3702012D01*
G01X494424Y-3698964D01*
G01X491376Y-3702012D01*
G01X441846Y-3662642D02*
G01X441846Y-3628606D01*
G01X466484Y-3647148D01*
G01X466484Y-3638004D01*
G01X469532Y-3631654D01*
G01X472834Y-3628606D01*
G01X481978Y-3625558D01*
G01X488328Y-3625558D01*
G01X497472Y-3628606D01*
G01X503822Y-3634702D01*
G01X506870Y-3644100D01*
G01X506870Y-3653498D01*
G01X503822Y-3662642D01*
G01X500520Y-3665690D01*
G01X494424Y-3668738D01*
G01X528460Y-3595332D02*
G01X528460Y-3539706D01*
G01X457340Y-3463252D02*
G01X450990Y-3466300D01*
G01X444894Y-3472396D01*
G01X441846Y-3478746D01*
G01X441846Y-3490938D01*
G01X444894Y-3497288D01*
G01X450990Y-3503384D01*
G01X457340Y-3506432D01*
G01X466484Y-3509480D01*
G01X481978Y-3509480D01*
G01X491376Y-3506432D01*
G01X497472Y-3503384D01*
G01X503822Y-3497288D01*
G01X506870Y-3490938D01*
G01X506870Y-3478746D01*
G01X503822Y-3472396D01*
G01X497472Y-3466300D01*
G01X491376Y-3463252D01*
G01X450990Y-3395942D02*
G01X444894Y-3398990D01*
G01X441846Y-3408388D01*
G01X441846Y-3414484D01*
G01X444894Y-3423882D01*
G01X454292Y-3429978D01*
G01X469532Y-3433026D01*
G01X485026Y-3433026D01*
G01X497472Y-3429978D01*
G01X503822Y-3423882D01*
G01X506870Y-3414484D01*
G01X506870Y-3411436D01*
G01X503822Y-3402292D01*
G01X497472Y-3395942D01*
G01X488328Y-3392894D01*
G01X485026Y-3392894D01*
G01X475882Y-3395942D01*
G01X469532Y-3402292D01*
G01X466484Y-3411436D01*
G01X466484Y-3414484D01*
G01X469532Y-3423882D01*
G01X475882Y-3429978D01*
G01X485026Y-3433026D01*
G01X454292Y-3362668D02*
G01X450990Y-3356572D01*
G01X441846Y-3347428D01*
G01X506870Y-3347428D01*
G01X441846Y-3301962D02*
G01X444894Y-3311106D01*
G01X450990Y-3314154D01*
G01X457340Y-3314154D01*
G01X463436Y-3311106D01*
G01X466484Y-3305010D01*
G01X469532Y-3292564D01*
G01X472834Y-3283166D01*
G01X478930Y-3277070D01*
G01X485026Y-3274022D01*
G01X494424Y-3274022D01*
G01X500520Y-3277070D01*
G01X503822Y-3280118D01*
G01X506870Y-3289516D01*
G01X506870Y-3301962D01*
G01X503822Y-3311106D01*
G01X500520Y-3314154D01*
G01X494424Y-3317202D01*
G01X485026Y-3317202D01*
G01X478930Y-3314154D01*
G01X472834Y-3308058D01*
G01X469532Y-3298660D01*
G01X466484Y-3286468D01*
G01X463436Y-3280118D01*
G01X457340Y-3277070D01*
G01X450990Y-3277070D01*
G01X444894Y-3280118D01*
G01X441846Y-3289516D01*
G01X441846Y-3301962D01*
G01X450990Y-3206712D02*
G01X444894Y-3209760D01*
G01X441846Y-3219158D01*
G01X441846Y-3225254D01*
G01X444894Y-3234652D01*
G01X454292Y-3240748D01*
G01X469532Y-3243796D01*
G01X485026Y-3243796D01*
G01X497472Y-3240748D01*
G01X503822Y-3234652D01*
G01X506870Y-3225254D01*
G01X506870Y-3222206D01*
G01X503822Y-3213062D01*
G01X497472Y-3206712D01*
G01X488328Y-3203664D01*
G01X485026Y-3203664D01*
G01X475882Y-3206712D01*
G01X469532Y-3213062D01*
G01X466484Y-3222206D01*
G01X466484Y-3225254D01*
G01X469532Y-3234652D01*
G01X475882Y-3240748D01*
G01X485026Y-3243796D01*
G01X1084020Y-2777562D02*
G01X1090370Y-2774514D01*
G01X1096466Y-2768164D01*
G01X1099514Y-2762068D01*
G01X1099514Y-2749622D01*
G01X1096466Y-2743526D01*
G01X1090370Y-2737176D01*
G01X1084020Y-2734128D01*
G01X1074876Y-2731080D01*
G01X1059382Y-2731080D01*
G01X1049984Y-2734128D01*
G01X1043888Y-2737176D01*
G01X1037538Y-2743526D01*
G01X1034490Y-2749622D01*
G01X1034490Y-2762068D01*
G01X1037538Y-2768164D01*
G01X1043888Y-2774514D01*
G01X1049984Y-2777562D01*
G01X1099514Y-2838522D02*
G01X1056334Y-2807788D01*
G01X1056334Y-2854016D01*
G01X1099514Y-2838522D02*
G01X1034490Y-2838522D01*
G01X725140Y-1595558D02*
G01X718790Y-1598606D01*
G01X712694Y-1604956D01*
G01X709646Y-1611052D01*
G01X709646Y-1623498D01*
G01X712694Y-1629594D01*
G01X718790Y-1635944D01*
G01X725140Y-1638992D01*
G01X734284Y-1642040D01*
G01X749778Y-1642040D01*
G01X759176Y-1638992D01*
G01X765272Y-1635944D01*
G01X771622Y-1629594D01*
G01X774670Y-1623498D01*
G01X774670Y-1611052D01*
G01X771622Y-1604956D01*
G01X765272Y-1598606D01*
G01X759176Y-1595558D01*
G01X709646Y-1559236D02*
G01X709646Y-1525200D01*
G01X734284Y-1543742D01*
G01X734284Y-1534598D01*
G01X737332Y-1528248D01*
G01X740634Y-1525200D01*
G01X749778Y-1522152D01*
G01X756128Y-1522152D01*
G01X765272Y-1525200D01*
G01X771622Y-1531296D01*
G01X774670Y-1540694D01*
G01X774670Y-1550092D01*
G01X771622Y-1559236D01*
G01X768320Y-1562284D01*
G01X762224Y-1565332D01*
G01X100146Y-2542440D02*
G01X165170Y-2542440D01*
G01X100146Y-2512214D02*
G01X165170Y-2512214D01*
G01X100146Y-2512214D02*
G01X100146Y-2484528D01*
G01X103194Y-2475130D01*
G01X106242Y-2472082D01*
G01X112592Y-2469034D01*
G01X121736Y-2469034D01*
G01X127832Y-2472082D01*
G01X131134Y-2475130D01*
G01X134182Y-2484528D01*
G01X134182Y-2512214D01*
G01X100146Y-2401724D02*
G01X100146Y-2432712D01*
G01X127832Y-2435760D01*
G01X124784Y-2432712D01*
G01X121736Y-2423568D01*
G01X121736Y-2414170D01*
G01X124784Y-2404772D01*
G01X131134Y-2398676D01*
G01X140278Y-2395628D01*
G01X146628Y-2395628D01*
G01X155772Y-2398676D01*
G01X162122Y-2404772D01*
G01X165170Y-2414170D01*
G01X165170Y-2423568D01*
G01X162122Y-2432712D01*
G01X158820Y-2435760D01*
G01X152724Y-2438808D01*
G01X100146Y-2359306D02*
G01X100146Y-2325270D01*
G01X124784Y-2343812D01*
G01X124784Y-2334668D01*
G01X127832Y-2328318D01*
G01X131134Y-2325270D01*
G01X140278Y-2322222D01*
G01X146628Y-2322222D01*
G01X155772Y-2325270D01*
G01X162122Y-2331366D01*
G01X165170Y-2340764D01*
G01X165170Y-2350162D01*
G01X162122Y-2359306D01*
G01X158820Y-2362354D01*
G01X152724Y-2365402D01*
G01X100146Y-2273454D02*
G01X103194Y-2282852D01*
G01X112592Y-2288948D01*
G01X127832Y-2291996D01*
G01X137230Y-2291996D01*
G01X152724Y-2288948D01*
G01X162122Y-2282852D01*
G01X165170Y-2273454D01*
G01X165170Y-2267358D01*
G01X162122Y-2257960D01*
G01X152724Y-2251864D01*
G01X137230Y-2248816D01*
G01X127832Y-2248816D01*
G01X112592Y-2251864D01*
G01X103194Y-2257960D01*
G01X100146Y-2267358D01*
G01X100146Y-2273454D01*
G01X109290Y-2181506D02*
G01X103194Y-2184554D01*
G01X100146Y-2193952D01*
G01X100146Y-2200048D01*
G01X103194Y-2209446D01*
G01X112592Y-2215542D01*
G01X127832Y-2218590D01*
G01X143326Y-2218590D01*
G01X155772Y-2215542D01*
G01X162122Y-2209446D01*
G01X165170Y-2200048D01*
G01X165170Y-2197000D01*
G01X162122Y-2187856D01*
G01X155772Y-2181506D01*
G01X146628Y-2178458D01*
G01X143326Y-2178458D01*
G01X134182Y-2181506D01*
G01X127832Y-2187856D01*
G01X124784Y-2197000D01*
G01X124784Y-2200048D01*
G01X127832Y-2209446D01*
G01X134182Y-2215542D01*
G01X143326Y-2218590D01*
G01X100146Y-2148232D02*
G01X165170Y-2148232D01*
G01X100146Y-2105052D02*
G01X165170Y-2105052D01*
G01X131134Y-2148232D02*
G01X131134Y-2105052D01*
G01X667008Y-2693340D02*
G01X601984Y-2693340D01*
G01X667008Y-2693340D02*
G01X667008Y-2714930D01*
G01X663960Y-2724328D01*
G01X657864Y-2730424D01*
G01X651514Y-2733472D01*
G01X642370Y-2736774D01*
G01X626876Y-2736774D01*
G01X617478Y-2733472D01*
G01X611382Y-2730424D01*
G01X605032Y-2724328D01*
G01X601984Y-2714930D01*
G01X601984Y-2693340D01*
G01X654562Y-2767000D02*
G01X657864Y-2773096D01*
G01X667008Y-2782240D01*
G01X601984Y-2782240D01*
G01X328040Y-1585358D02*
G01X321690Y-1588406D01*
G01X315594Y-1594756D01*
G01X312546Y-1600852D01*
G01X312546Y-1613298D01*
G01X315594Y-1619394D01*
G01X321690Y-1625744D01*
G01X328040Y-1628792D01*
G01X337184Y-1631840D01*
G01X352678Y-1631840D01*
G01X362076Y-1628792D01*
G01X368172Y-1625744D01*
G01X374522Y-1619394D01*
G01X377570Y-1613298D01*
G01X377570Y-1600852D01*
G01X374522Y-1594756D01*
G01X368172Y-1588406D01*
G01X362076Y-1585358D01*
G01X328040Y-1552084D02*
G01X324992Y-1552084D01*
G01X318642Y-1549036D01*
G01X315594Y-1545988D01*
G01X312546Y-1539892D01*
G01X312546Y-1527446D01*
G01X315594Y-1521096D01*
G01X318642Y-1518048D01*
G01X324992Y-1515000D01*
G01X331088Y-1515000D01*
G01X337184Y-1518048D01*
G01X346582Y-1524398D01*
G01X377570Y-1555132D01*
G01X377570Y-1511952D01*
G01X253442Y-6304598D02*
G01X247092Y-6298502D01*
G01X237948Y-6295454D01*
G01X225502Y-6295454D01*
G01X216104Y-6298502D01*
G01X210008Y-6304598D01*
G01X210008Y-6310948D01*
G01X213056Y-6317044D01*
G01X216104Y-6320092D01*
G01X222454Y-6323140D01*
G01X240996Y-6329490D01*
G01X247092Y-6332538D01*
G01X250140Y-6335586D01*
G01X253442Y-6341936D01*
G01X253442Y-6351080D01*
G01X247092Y-6357430D01*
G01X237948Y-6360478D01*
G01X225502Y-6360478D01*
G01X216104Y-6357430D01*
G01X210008Y-6351080D01*
G01X329896Y-6310948D02*
G01X326848Y-6304598D01*
G01X320752Y-6298502D01*
G01X314402Y-6295454D01*
G01X302210Y-6295454D01*
G01X295860Y-6298502D01*
G01X289764Y-6304598D01*
G01X286716Y-6310948D01*
G01X283668Y-6320092D01*
G01X283668Y-6335586D01*
G01X286716Y-6344984D01*
G01X289764Y-6351080D01*
G01X295860Y-6357430D01*
G01X302210Y-6360478D01*
G01X314402Y-6360478D01*
G01X320752Y-6357430D01*
G01X326848Y-6351080D01*
G01X329896Y-6344984D01*
G01X360122Y-6295454D02*
G01X360122Y-6360478D01*
G01X360122Y-6295454D02*
G01X387808Y-6295454D01*
G01X397206Y-6298502D01*
G01X400254Y-6301550D01*
G01X403302Y-6307900D01*
G01X403302Y-6313996D01*
G01X400254Y-6320092D01*
G01X397206Y-6323140D01*
G01X387808Y-6326442D01*
G01X360122Y-6326442D01*
G01X381712Y-6326442D02*
G01X403302Y-6360478D01*
G01X433528Y-6295454D02*
G01X433528Y-6360478D01*
G01X433528Y-6295454D02*
G01X473660Y-6295454D01*
G01X433528Y-6326442D02*
G01X458166Y-6326442D01*
G01X433528Y-6360478D02*
G01X473660Y-6360478D01*
G01X503886Y-6295454D02*
G01X519126Y-6360478D01*
G01X534620Y-6295454D02*
G01X519126Y-6360478D01*
G01X534620Y-6295454D02*
G01X550114Y-6360478D01*
G01X565608Y-6295454D02*
G01X550114Y-6360478D01*
G01X595834Y-6307900D02*
G01X601930Y-6304598D01*
G01X611074Y-6295454D01*
G01X611074Y-6360478D01*
G01X7953442Y-6304598D02*
G01X7947092Y-6298502D01*
G01X7937948Y-6295454D01*
G01X7925502Y-6295454D01*
G01X7916104Y-6298502D01*
G01X7910008Y-6304598D01*
G01X7910008Y-6310948D01*
G01X7913056Y-6317044D01*
G01X7916104Y-6320092D01*
G01X7922454Y-6323140D01*
G01X7940996Y-6329490D01*
G01X7947092Y-6332538D01*
G01X7950140Y-6335586D01*
G01X7953442Y-6341936D01*
G01X7953442Y-6351080D01*
G01X7947092Y-6357430D01*
G01X7937948Y-6360478D01*
G01X7925502Y-6360478D01*
G01X7916104Y-6357430D01*
G01X7910008Y-6351080D01*
G01X8029896Y-6310948D02*
G01X8026848Y-6304598D01*
G01X8020752Y-6298502D01*
G01X8014402Y-6295454D01*
G01X8002210Y-6295454D01*
G01X7995860Y-6298502D01*
G01X7989764Y-6304598D01*
G01X7986716Y-6310948D01*
G01X7983668Y-6320092D01*
G01X7983668Y-6335586D01*
G01X7986716Y-6344984D01*
G01X7989764Y-6351080D01*
G01X7995860Y-6357430D01*
G01X8002210Y-6360478D01*
G01X8014402Y-6360478D01*
G01X8020752Y-6357430D01*
G01X8026848Y-6351080D01*
G01X8029896Y-6344984D01*
G01X8060122Y-6295454D02*
G01X8060122Y-6360478D01*
G01X8060122Y-6295454D02*
G01X8087808Y-6295454D01*
G01X8097206Y-6298502D01*
G01X8100254Y-6301550D01*
G01X8103302Y-6307900D01*
G01X8103302Y-6313996D01*
G01X8100254Y-6320092D01*
G01X8097206Y-6323140D01*
G01X8087808Y-6326442D01*
G01X8060122Y-6326442D01*
G01X8081712Y-6326442D02*
G01X8103302Y-6360478D01*
G01X8133528Y-6295454D02*
G01X8133528Y-6360478D01*
G01X8133528Y-6295454D02*
G01X8173660Y-6295454D01*
G01X8133528Y-6326442D02*
G01X8158166Y-6326442D01*
G01X8133528Y-6360478D02*
G01X8173660Y-6360478D01*
G01X8203886Y-6295454D02*
G01X8219126Y-6360478D01*
G01X8234620Y-6295454D02*
G01X8219126Y-6360478D01*
G01X8234620Y-6295454D02*
G01X8250114Y-6360478D01*
G01X8265608Y-6295454D02*
G01X8250114Y-6360478D01*
G01X8298882Y-6310948D02*
G01X8298882Y-6307900D01*
G01X8301930Y-6301550D01*
G01X8304978Y-6298502D01*
G01X8311074Y-6295454D01*
G01X8323520Y-6295454D01*
G01X8329870Y-6298502D01*
G01X8332918Y-6301550D01*
G01X8335966Y-6307900D01*
G01X8335966Y-6313996D01*
G01X8332918Y-6320092D01*
G01X8326568Y-6329490D01*
G01X8295834Y-6360478D01*
G01X8339014Y-6360478D01*
G01X7953442Y-104598D02*
G01X7947092Y-98502D01*
G01X7937948Y-95454D01*
G01X7925502Y-95454D01*
G01X7916104Y-98502D01*
G01X7910008Y-104598D01*
G01X7910008Y-110948D01*
G01X7913056Y-117044D01*
G01X7916104Y-120092D01*
G01X7922454Y-123140D01*
G01X7940996Y-129490D01*
G01X7947092Y-132538D01*
G01X7950140Y-135586D01*
G01X7953442Y-141936D01*
G01X7953442Y-151080D01*
G01X7947092Y-157430D01*
G01X7937948Y-160478D01*
G01X7925502Y-160478D01*
G01X7916104Y-157430D01*
G01X7910008Y-151080D01*
G01X8029896Y-110948D02*
G01X8026848Y-104598D01*
G01X8020752Y-98502D01*
G01X8014402Y-95454D01*
G01X8002210Y-95454D01*
G01X7995860Y-98502D01*
G01X7989764Y-104598D01*
G01X7986716Y-110948D01*
G01X7983668Y-120092D01*
G01X7983668Y-135586D01*
G01X7986716Y-144984D01*
G01X7989764Y-151080D01*
G01X7995860Y-157430D01*
G01X8002210Y-160478D01*
G01X8014402Y-160478D01*
G01X8020752Y-157430D01*
G01X8026848Y-151080D01*
G01X8029896Y-144984D01*
G01X8060122Y-95454D02*
G01X8060122Y-160478D01*
G01X8060122Y-95454D02*
G01X8087808Y-95454D01*
G01X8097206Y-98502D01*
G01X8100254Y-101550D01*
G01X8103302Y-107900D01*
G01X8103302Y-113996D01*
G01X8100254Y-120092D01*
G01X8097206Y-123140D01*
G01X8087808Y-126442D01*
G01X8060122Y-126442D01*
G01X8081712Y-126442D02*
G01X8103302Y-160478D01*
G01X8133528Y-95454D02*
G01X8133528Y-160478D01*
G01X8133528Y-95454D02*
G01X8173660Y-95454D01*
G01X8133528Y-126442D02*
G01X8158166Y-126442D01*
G01X8133528Y-160478D02*
G01X8173660Y-160478D01*
G01X8203886Y-95454D02*
G01X8219126Y-160478D01*
G01X8234620Y-95454D02*
G01X8219126Y-160478D01*
G01X8234620Y-95454D02*
G01X8250114Y-160478D01*
G01X8265608Y-95454D02*
G01X8250114Y-160478D01*
G01X8326568Y-95454D02*
G01X8295834Y-138634D01*
G01X8342062Y-138634D01*
G01X8326568Y-95454D02*
G01X8326568Y-160478D01*
G01X253442Y-104598D02*
G01X247092Y-98502D01*
G01X237948Y-95454D01*
G01X225502Y-95454D01*
G01X216104Y-98502D01*
G01X210008Y-104598D01*
G01X210008Y-110948D01*
G01X213056Y-117044D01*
G01X216104Y-120092D01*
G01X222454Y-123140D01*
G01X240996Y-129490D01*
G01X247092Y-132538D01*
G01X250140Y-135586D01*
G01X253442Y-141936D01*
G01X253442Y-151080D01*
G01X247092Y-157430D01*
G01X237948Y-160478D01*
G01X225502Y-160478D01*
G01X216104Y-157430D01*
G01X210008Y-151080D01*
G01X329896Y-110948D02*
G01X326848Y-104598D01*
G01X320752Y-98502D01*
G01X314402Y-95454D01*
G01X302210Y-95454D01*
G01X295860Y-98502D01*
G01X289764Y-104598D01*
G01X286716Y-110948D01*
G01X283668Y-120092D01*
G01X283668Y-135586D01*
G01X286716Y-144984D01*
G01X289764Y-151080D01*
G01X295860Y-157430D01*
G01X302210Y-160478D01*
G01X314402Y-160478D01*
G01X320752Y-157430D01*
G01X326848Y-151080D01*
G01X329896Y-144984D01*
G01X360122Y-95454D02*
G01X360122Y-160478D01*
G01X360122Y-95454D02*
G01X387808Y-95454D01*
G01X397206Y-98502D01*
G01X400254Y-101550D01*
G01X403302Y-107900D01*
G01X403302Y-113996D01*
G01X400254Y-120092D01*
G01X397206Y-123140D01*
G01X387808Y-126442D01*
G01X360122Y-126442D01*
G01X381712Y-126442D02*
G01X403302Y-160478D01*
G01X433528Y-95454D02*
G01X433528Y-160478D01*
G01X433528Y-95454D02*
G01X473660Y-95454D01*
G01X433528Y-126442D02*
G01X458166Y-126442D01*
G01X433528Y-160478D02*
G01X473660Y-160478D01*
G01X503886Y-95454D02*
G01X519126Y-160478D01*
G01X534620Y-95454D02*
G01X519126Y-160478D01*
G01X534620Y-95454D02*
G01X550114Y-160478D01*
G01X565608Y-95454D02*
G01X550114Y-160478D01*
G01X601930Y-95454D02*
G01X635966Y-95454D01*
G01X617424Y-120092D01*
G01X626568Y-120092D01*
G01X632918Y-123140D01*
G01X635966Y-126442D01*
G01X639014Y-135586D01*
G01X639014Y-141936D01*
G01X635966Y-151080D01*
G01X629870Y-157430D01*
G01X620472Y-160478D01*
G01X611074Y-160478D01*
G01X601930Y-157430D01*
G01X598882Y-154128D01*
G01X595834Y-148032D01*
G04 Text End*

G04 PolygonModel Start*
G01X1394941Y-1765880D02*
G01X1394941Y-1624879D01*
G01X1214220Y-1624879D02*
G01X1214220Y-1765880D01*
G01X1229460Y-1781120D02*
G01X1379701Y-1781120D01*
G01X1394941Y-1403640D02*
G01X1394941Y-1544641D01*
G01X1214220Y-1544641D02*
G01X1214220Y-1403640D01*
G01X1229460Y-1388400D02*
G01X1379701Y-1388400D01*
G01X1214220Y-1765880D02*
G03X1229460Y-1781120I15240J0D01*
G01X1379701Y-1781120D02*
G03X1394941Y-1765880I0J15240D01*
G01X1214220Y-1403640D02*
G02X1229460Y-1388400I15240J0D01*
G01X1379701Y-1388400D02*
G02X1394941Y-1403640I0J-15240D01*
G01X414219Y-1403640D02*
G01X414219Y-1544641D01*
G01X594940Y-1544641D02*
G01X594940Y-1403640D01*
G01X579700Y-1388400D02*
G01X429459Y-1388400D01*
G01X414219Y-1765880D02*
G01X414219Y-1624879D01*
G01X594940Y-1624879D02*
G01X594940Y-1765880D01*
G01X579700Y-1781120D02*
G01X429459Y-1781120D01*
G01X594940Y-1403640D02*
G03X579700Y-1388400I-15240J0D01*
G01X429459Y-1388400D02*
G03X414219Y-1403640I0J-15240D01*
G01X594940Y-1765880D02*
G02X579700Y-1781120I-15240J0D01*
G01X429459Y-1781120D02*
G02X414219Y-1765880I0J15240D01*
G01X814220Y-1403640D02*
G01X814220Y-1544641D01*
G01X994941Y-1544641D02*
G01X994941Y-1403640D01*
G01X979701Y-1388400D02*
G01X829460Y-1388400D01*
G01X814220Y-1765880D02*
G01X814220Y-1624879D01*
G01X994941Y-1624879D02*
G01X994941Y-1765880D01*
G01X979701Y-1781120D02*
G01X829460Y-1781120D01*
G01X994941Y-1403640D02*
G03X979701Y-1388400I-15240J0D01*
G01X829460Y-1388400D02*
G03X814220Y-1403640I0J-15240D01*
G01X994941Y-1765880D02*
G02X979701Y-1781120I-15240J0D01*
G01X829460Y-1781120D02*
G02X814220Y-1765880I0J15240D01*
G01X994941Y-2965880D02*
G01X994941Y-2824879D01*
G01X814220Y-2824879D02*
G01X814220Y-2965880D01*
G01X829460Y-2981120D02*
G01X979701Y-2981120D01*
G01X994941Y-2603640D02*
G01X994941Y-2744640D01*
G01X814220Y-2744640D02*
G01X814220Y-2603640D01*
G01X829460Y-2588400D02*
G01X979701Y-2588400D01*
G01X814220Y-2965880D02*
G03X829460Y-2981120I15240J0D01*
G01X979701Y-2981120D02*
G03X994941Y-2965880I0J15240D01*
G01X814220Y-2603640D02*
G02X829460Y-2588400I15240J0D01*
G01X979701Y-2588400D02*
G02X994941Y-2603640I0J-15240D01*
G01X1214220Y-2603640D02*
G01X1214220Y-2744640D01*
G01X1394941Y-2744640D02*
G01X1394941Y-2603640D01*
G01X1379701Y-2588400D02*
G01X1229460Y-2588400D01*
G01X1214220Y-2965880D02*
G01X1214220Y-2824879D01*
G01X1394941Y-2824879D02*
G01X1394941Y-2965880D01*
G01X1379701Y-2981120D02*
G01X1229460Y-2981120D01*
G01X1394941Y-2603640D02*
G03X1379701Y-2588400I-15240J0D01*
G01X1229460Y-2588400D02*
G03X1214220Y-2603640I0J-15240D01*
G01X1394941Y-2965880D02*
G02X1379701Y-2981120I-15240J0D01*
G01X1229460Y-2981120D02*
G02X1214220Y-2965880I0J15240D01*
G54D12*
G01X6223197Y-5644977D02*
G01X6223197Y-5657677D01*
G01X6223197Y-5657677D02*
G01X6172397Y-5657677D01*
G01X6223197Y-5644977D02*
G01X6223197Y-5479877D01*
G01X6223197Y-5479877D02*
G01X6718497Y-5479877D01*
G01X6718497Y-5479877D02*
G01X6718497Y-6127577D01*
G01X6718497Y-6127577D02*
G01X6235897Y-6127577D01*
G01X6235897Y-6127577D02*
G01X6235897Y-5975177D01*
G01X6235897Y-5975177D02*
G01X6185097Y-5975177D01*
G01X6769297Y-5429065D02*
G01X6769297Y-6178365D01*
G01X6172397Y-6178365D01*
G01X6172397Y-5429065D01*
G01X6769297Y-5429065D01*
G01X6223197Y-4644977D02*
G01X6223197Y-4657677D01*
G01X6223197Y-4657677D02*
G01X6172397Y-4657677D01*
G01X6223197Y-4644977D02*
G01X6223197Y-4479877D01*
G01X6223197Y-4479877D02*
G01X6718497Y-4479877D01*
G01X6718497Y-4479877D02*
G01X6718497Y-5127577D01*
G01X6718497Y-5127577D02*
G01X6235897Y-5127577D01*
G01X6235897Y-5127577D02*
G01X6235897Y-4975177D01*
G01X6235897Y-4975177D02*
G01X6185097Y-4975177D01*
G01X6769297Y-4429065D02*
G01X6769297Y-5178365D01*
G01X6172397Y-5178365D01*
G01X6172397Y-4429065D01*
G01X6769297Y-4429065D01*
G01X6223197Y-3644977D02*
G01X6223197Y-3657677D01*
G01X6223197Y-3657677D02*
G01X6172397Y-3657677D01*
G01X6223197Y-3644977D02*
G01X6223197Y-3479877D01*
G01X6223197Y-3479877D02*
G01X6718497Y-3479877D01*
G01X6718497Y-3479877D02*
G01X6718497Y-4127577D01*
G01X6718497Y-4127577D02*
G01X6235897Y-4127577D01*
G01X6235897Y-4127577D02*
G01X6235897Y-3975177D01*
G01X6235897Y-3975177D02*
G01X6185097Y-3975177D01*
G01X6769297Y-3429065D02*
G01X6769297Y-4178365D01*
G01X6172397Y-4178365D01*
G01X6172397Y-3429065D01*
G01X6769297Y-3429065D01*
G01X6223197Y-2644977D02*
G01X6223197Y-2657677D01*
G01X6223197Y-2657677D02*
G01X6172397Y-2657677D01*
G01X6223197Y-2644977D02*
G01X6223197Y-2479877D01*
G01X6223197Y-2479877D02*
G01X6718497Y-2479877D01*
G01X6718497Y-2479877D02*
G01X6718497Y-3127577D01*
G01X6718497Y-3127577D02*
G01X6235897Y-3127577D01*
G01X6235897Y-3127577D02*
G01X6235897Y-2975177D01*
G01X6235897Y-2975177D02*
G01X6185097Y-2975177D01*
G01X6769297Y-2429064D02*
G01X6769297Y-3178364D01*
G01X6172397Y-3178364D01*
G01X6172397Y-2429064D01*
G01X6769297Y-2429064D01*
G01X5223197Y-5644977D02*
G01X5223197Y-5657677D01*
G01X5223197Y-5657677D02*
G01X5172397Y-5657677D01*
G01X5223197Y-5644977D02*
G01X5223197Y-5479877D01*
G01X5223197Y-5479877D02*
G01X5718497Y-5479877D01*
G01X5718497Y-5479877D02*
G01X5718497Y-6127577D01*
G01X5718497Y-6127577D02*
G01X5235897Y-6127577D01*
G01X5235897Y-6127577D02*
G01X5235897Y-5975177D01*
G01X5235897Y-5975177D02*
G01X5185097Y-5975177D01*
G01X5769297Y-5429065D02*
G01X5769297Y-6178365D01*
G01X5172397Y-6178365D01*
G01X5172397Y-5429065D01*
G01X5769297Y-5429065D01*
G01X5223197Y-4644977D02*
G01X5223197Y-4657677D01*
G01X5223197Y-4657677D02*
G01X5172397Y-4657677D01*
G01X5223197Y-4644977D02*
G01X5223197Y-4479877D01*
G01X5223197Y-4479877D02*
G01X5718497Y-4479877D01*
G01X5718497Y-4479877D02*
G01X5718497Y-5127577D01*
G01X5718497Y-5127577D02*
G01X5235897Y-5127577D01*
G01X5235897Y-5127577D02*
G01X5235897Y-4975177D01*
G01X5235897Y-4975177D02*
G01X5185097Y-4975177D01*
G01X5769297Y-4429065D02*
G01X5769297Y-5178365D01*
G01X5172397Y-5178365D01*
G01X5172397Y-4429065D01*
G01X5769297Y-4429065D01*
G01X5223197Y-3644977D02*
G01X5223197Y-3657677D01*
G01X5223197Y-3657677D02*
G01X5172397Y-3657677D01*
G01X5223197Y-3644977D02*
G01X5223197Y-3479877D01*
G01X5223197Y-3479877D02*
G01X5718497Y-3479877D01*
G01X5718497Y-3479877D02*
G01X5718497Y-4127577D01*
G01X5718497Y-4127577D02*
G01X5235897Y-4127577D01*
G01X5235897Y-4127577D02*
G01X5235897Y-3975177D01*
G01X5235897Y-3975177D02*
G01X5185097Y-3975177D01*
G01X5769297Y-3429065D02*
G01X5769297Y-4178365D01*
G01X5172397Y-4178365D01*
G01X5172397Y-3429065D01*
G01X5769297Y-3429065D01*
G01X5223197Y-2644977D02*
G01X5223197Y-2657677D01*
G01X5223197Y-2657677D02*
G01X5172397Y-2657677D01*
G01X5223197Y-2644977D02*
G01X5223197Y-2479877D01*
G01X5223197Y-2479877D02*
G01X5718497Y-2479877D01*
G01X5718497Y-2479877D02*
G01X5718497Y-3127577D01*
G01X5718497Y-3127577D02*
G01X5235897Y-3127577D01*
G01X5235897Y-3127577D02*
G01X5235897Y-2975177D01*
G01X5235897Y-2975177D02*
G01X5185097Y-2975177D01*
G01X5769297Y-2429064D02*
G01X5769297Y-3178364D01*
G01X5172397Y-3178364D01*
G01X5172397Y-2429064D01*
G01X5769297Y-2429064D01*
G01X7223200Y-4645000D02*
G01X7223200Y-4657700D01*
G01X7223200Y-4657700D02*
G01X7172400Y-4657700D01*
G01X7223200Y-4645000D02*
G01X7223200Y-4479900D01*
G01X7223200Y-4479900D02*
G01X7718500Y-4479900D01*
G01X7718500Y-4479900D02*
G01X7718500Y-5127600D01*
G01X7718500Y-5127600D02*
G01X7235900Y-5127600D01*
G01X7235900Y-5127600D02*
G01X7235900Y-4975200D01*
G01X7235900Y-4975200D02*
G01X7185100Y-4975200D01*
G01X7769300Y-4429087D02*
G01X7769300Y-5178387D01*
G01X7172400Y-5178387D01*
G01X7172400Y-4429087D01*
G01X7769300Y-4429087D01*
G01X7223200Y-5645000D02*
G01X7223200Y-5657700D01*
G01X7223200Y-5657700D02*
G01X7172400Y-5657700D01*
G01X7223200Y-5645000D02*
G01X7223200Y-5479900D01*
G01X7223200Y-5479900D02*
G01X7718500Y-5479900D01*
G01X7718500Y-5479900D02*
G01X7718500Y-6127600D01*
G01X7718500Y-6127600D02*
G01X7235900Y-6127600D01*
G01X7235900Y-6127600D02*
G01X7235900Y-5975200D01*
G01X7235900Y-5975200D02*
G01X7185100Y-5975200D01*
G01X7769300Y-5429087D02*
G01X7769300Y-6178387D01*
G01X7172400Y-6178387D01*
G01X7172400Y-5429087D01*
G01X7769300Y-5429087D01*
G54D13*
G01X1417346Y-2102311D02*
G01X1417346Y-2302311D01*
G01X1217347Y-2102311D02*
G01X1217347Y-2302311D01*
G54D12*
G01X1111979Y-5205060D02*
G01X1111979Y-5139360D01*
G01X857880Y-5205060D02*
G01X857880Y-5139360D01*
G01X1211979Y-5205060D02*
G01X1111979Y-5205060D01*
G01X757781Y-5205060D02*
G01X857781Y-5205060D01*
G01X757781Y-5560660D02*
G01X1211979Y-5560660D01*
G01X684881Y-5139360D02*
G01X1284879Y-5139360D01*
G01X1211979Y-5367927D02*
G01X1284879Y-5367927D01*
G01X1211979Y-5269957D02*
G01X1284879Y-5269957D01*
G01X1211979Y-5560660D02*
G01X1211979Y-5205060D01*
G01X1284879Y-5139360D02*
G01X1284879Y-5609357D01*
G01X684881Y-5268143D02*
G01X757781Y-5268143D01*
G01X684881Y-5366114D02*
G01X757781Y-5366114D01*
G01X757781Y-5205060D02*
G01X757781Y-5560660D01*
G01X684881Y-5609357D02*
G01X1284879Y-5609357D01*
G01X684881Y-5139360D02*
G01X684881Y-5609357D01*
G54D11*
G01X1237201Y-3666002D02*
G01X571959Y-3666002D01*
G01X571959Y-3666002D02*
G01X571959Y-3371723D01*
G01X571959Y-3371723D02*
G01X1237201Y-3371723D01*
G01X1237201Y-3371723D02*
G01X1237201Y-3666002D01*
G54D14*
G01X7159470Y-3851323D02*
G01X7159470Y-2843286D01*
G01X7159470Y-3023283D02*
G01X7234469Y-3023283D01*
G01X7234469Y-3023283D02*
G01X7234469Y-2843286D01*
G01X7234469Y-2843286D02*
G01X7159470Y-2843286D01*
G01X7159470Y-2843286D02*
G01X7159470Y-3023283D01*
G01X7159470Y-3851323D02*
G01X7234469Y-3851323D01*
G01X7234469Y-3851323D02*
G01X7234469Y-3671326D01*
G01X7234469Y-3671326D02*
G01X7159470Y-3671326D01*
G01X7159470Y-3671326D02*
G01X7159470Y-3851323D01*
G01X7129582Y-3630671D02*
G01X7129582Y-3880670D01*
G01X7129582Y-3880670D02*
G01X7379581Y-3880670D01*
G01X7384590Y-3850663D02*
G01X7384590Y-3775682D01*
G01X7384590Y-3775682D02*
G01X7679586Y-3775682D01*
G01X7679586Y-3775682D02*
G01X7679586Y-2917873D01*
G01X7679586Y-2917873D02*
G01X7384590Y-2917873D01*
G01X7384590Y-2917873D02*
G01X7384260Y-2842943D01*
G01X7159572Y-3520666D02*
G01X7234578Y-3520666D01*
G01X7234578Y-3520666D02*
G01X7234578Y-3171873D01*
G01X7234578Y-3171873D02*
G01X7159572Y-3171873D01*
G01X7159572Y-3171873D02*
G01X7159572Y-3520666D01*
G01X7159470Y-2843286D02*
G01X7760180Y-2843286D01*
G01X7760180Y-2843286D02*
G01X7760180Y-3857673D01*
G01X7760180Y-3857673D02*
G01X7159470Y-3857673D01*
G54D12*
G01X1031679Y-870460D02*
G01X1031679Y-804760D01*
G01X777580Y-870460D02*
G01X777580Y-804760D01*
G01X1131679Y-870460D02*
G01X1031679Y-870460D01*
G01X677481Y-870460D02*
G01X777481Y-870460D01*
G01X677481Y-1226060D02*
G01X1131679Y-1226060D01*
G01X604581Y-804760D02*
G01X1204580Y-804760D01*
G01X1131679Y-1033327D02*
G01X1204580Y-1033327D01*
G01X1131679Y-935357D02*
G01X1204580Y-935357D01*
G01X1131679Y-1226060D02*
G01X1131679Y-870460D01*
G01X1204580Y-804760D02*
G01X1204580Y-1274757D01*
G01X604581Y-933543D02*
G01X677481Y-933543D01*
G01X604581Y-1031514D02*
G01X677481Y-1031514D01*
G01X677481Y-870460D02*
G01X677481Y-1226060D01*
G01X604581Y-1274757D02*
G01X1204580Y-1274757D01*
G01X604581Y-804760D02*
G01X604581Y-1274757D01*
G01X4448280Y-6287560D02*
G01X1908280Y-6287560D01*
G01X1908280Y-13582D01*
G01X4448280Y-13582D01*
G01X4448280Y-6287560D01*
G01X4067280Y-6236760D02*
G01X2263880Y-6236760D01*
G01X2263880Y-4471460D01*
G01X4067280Y-4471460D01*
G01X4067280Y-6236760D01*
G01X3927580Y-6897160D02*
G01X2403580Y-6897160D01*
G01X2403580Y-6287560D01*
G01X3927580Y-6287560D01*
G01X3927580Y-6897160D01*
G01X4194280Y-674160D02*
G01X3305280Y-674160D01*
G01X3305280Y-13760D01*
G01X4194280Y-13760D01*
G01X4194280Y-674160D01*
G01X3025880Y-674160D02*
G01X2136880Y-674160D01*
G01X2136880Y-13760D01*
G01X3025880Y-13760D01*
G01X3025880Y-674160D01*
G36*
G01X2479780Y-6846360D02*
G01X2530580Y-6846360D01*
G01X2530580Y-6300260D01*
G01X2479780Y-6300260D01*
G01X2479780Y-6846360D01*
G37*
G36*
G01X2695680Y-6795560D02*
G01X2746480Y-6795560D01*
G01X2746480Y-6300260D01*
G01X2695680Y-6300260D01*
G01X2695680Y-6795560D01*
G37*
G36*
G01X2962380Y-6541560D02*
G01X2911580Y-6541560D01*
G01X2911580Y-6846360D01*
G01X2962380Y-6846360D01*
G01X2962380Y-6541560D01*
G37*
G36*
G01X3165580Y-6541560D02*
G01X2936980Y-6541560D01*
G01X2936980Y-6592360D01*
G01X3165580Y-6592360D01*
G01X3165580Y-6541560D01*
G37*
G36*
G01X2936980Y-6846360D02*
G01X2479780Y-6846360D01*
G01X2479780Y-6795560D01*
G01X2936980Y-6795560D01*
G01X2936980Y-6846360D01*
G37*
G36*
G01X3190980Y-6846360D02*
G01X3140180Y-6846360D01*
G01X3140180Y-6541560D01*
G01X3190980Y-6541560D01*
G01X3190980Y-6846360D01*
G37*
G36*
G01X3394180Y-6846360D02*
G01X3165580Y-6846360D01*
G01X3165580Y-6795560D01*
G01X3394180Y-6795560D01*
G01X3394180Y-6846360D01*
G37*
G36*
G01X3419580Y-6541560D02*
G01X3368780Y-6541560D01*
G01X3368780Y-6846360D01*
G01X3419580Y-6846360D01*
G01X3419580Y-6541560D01*
G37*
G36*
G01X3622780Y-6541560D02*
G01X3394180Y-6541560D01*
G01X3394180Y-6592360D01*
G01X3622780Y-6592360D01*
G01X3622780Y-6541560D01*
G37*
G36*
G01X3648180Y-6846360D02*
G01X3597380Y-6846360D01*
G01X3597380Y-6541560D01*
G01X3648180Y-6541560D01*
G01X3648180Y-6846360D01*
G37*
G36*
G01X3825980Y-6846360D02*
G01X3597380Y-6846360D01*
G01X3597380Y-6795560D01*
G01X3825980Y-6795560D01*
G01X3825980Y-6846360D01*
G37*
G36*
G01X3851380Y-6465360D02*
G01X3851380Y-6846360D01*
G01X3800580Y-6846360D01*
G01X3800580Y-6465360D01*
G01X3851380Y-6465360D01*
G37*
G54D16*
G01X468278Y-2693361D02*
G01X456993Y-2693361D01*
G01X456993Y-2693361D02*
G01X456993Y-2717183D01*
G01X552200Y-2717143D02*
G01X552200Y-2693320D01*
G01X552200Y-2693320D02*
G01X540140Y-2693320D01*
G54D11*
G01X552200Y-2717143D02*
G01X552200Y-2852377D01*
G01X456960Y-2717143D02*
G01X456960Y-2852377D01*
G36*
G01X559820Y-2724760D02*
G01X537821Y-2724760D01*
G01X537821Y-2694280D01*
G01X559820Y-2694280D01*
G01X559820Y-2724760D01*
G37*
G36*
G01X449378Y-2728801D02*
G01X471377Y-2728801D01*
G01X471377Y-2698321D01*
G01X449378Y-2698321D01*
G01X449378Y-2728801D01*
G37*
G54D12*
G01X929784Y-1938069D02*
G01X929784Y-2448076D01*
G01X929784Y-2448050D02*
G01X519777Y-2448050D01*
G01X519777Y-2448050D02*
G01X519777Y-1938044D01*
G01X804790Y-1938069D02*
G01X929784Y-1938069D01*
G01X644770Y-1938069D02*
G01X519777Y-1938069D01*
G01X804790Y-1943073D02*
G02X644770Y-1943073I-80010J37529D01*
G54D11*
G01X400000Y-6600000D02*
G01X532080Y-6467920D01*
G01X537160Y-6467920D01*
G01X400000Y-6600000D02*
G01X267920Y-6732080D01*
G01X262840Y-6732080D01*
G01X400000Y-6600000D02*
G01X535692Y-6735692D01*
G01X400000Y-6591258D02*
G01X273000Y-6464258D01*
G01X273000Y-6462840D01*
G01X8100000Y-6600000D02*
G01X8232080Y-6467920D01*
G01X8237160Y-6467920D01*
G01X8100000Y-6600000D02*
G01X7967920Y-6732080D01*
G01X7962840Y-6732080D01*
G01X8100000Y-6600000D02*
G01X8235692Y-6735692D01*
G01X8100000Y-6591258D02*
G01X7973000Y-6464258D01*
G01X7973000Y-6462840D01*
G01X400000Y-400000D02*
G01X532080Y-267920D01*
G01X537160Y-267920D01*
G01X400000Y-400000D02*
G01X267920Y-532080D01*
G01X262840Y-532080D01*
G01X400000Y-400000D02*
G01X535692Y-535692D01*
G01X400000Y-391258D02*
G01X273000Y-264258D01*
G01X273000Y-262840D01*
G01X8100000Y-400000D02*
G01X8232080Y-267920D01*
G01X8237160Y-267920D01*
G01X8100000Y-400000D02*
G01X7967920Y-532080D01*
G01X7962840Y-532080D01*
G01X8100000Y-400000D02*
G01X8235692Y-535692D01*
G01X8100000Y-391258D02*
G01X7973000Y-264258D01*
G01X7973000Y-262840D01*

G04 Circle Start*
G54D12*
G01X4181580Y-6211360D02*
G03X4206980Y-6211360I12700J0D01*
G03X4181580Y-6211360I-12700J0D01*
G01X457750Y-1890063D02*
G03X491786Y-1890063I17018J0D01*
G03X457750Y-1890063I-17018J0D01*
G54D11*
G01X210008Y-6600000D02*
G03X589992Y-6600000I189992J0D01*
G03X210008Y-6600000I-189992J0D01*
G01X7910008Y-6600000D02*
G03X8289992Y-6600000I189992J0D01*
G03X7910008Y-6600000I-189992J0D01*
G01X210008Y-400000D02*
G03X589992Y-400000I189992J0D01*
G03X210008Y-400000I-189992J0D01*
G01X7910008Y-400000D02*
G03X8289992Y-400000I189992J0D01*
G03X7910008Y-400000I-189992J0D01*
G04 Circle End*

M02*

