G04 Layer: BottomSolderMaskLayer*
G04 EasyEDA Pro v2.2.45.4, 2026-05-28 03:39:25*
G04 Gerber Generator version 0.3*
G04 Scale: 100 percent, Rotated: No, Reflected: No*
G04 Dimensions in millimeters*
G04 Leading zeros omitted, absolute positions, 4 integers and 5 decimals*
G04 Generated by one-click*
%FSLAX45Y45*%
%MOMM*%
%AMRoundRect*1,1,$1,$2,$3*1,1,$1,$4,$5*1,1,$1,0-$2,0-$3*1,1,$1,0-$4,0-$5*20,1,$1,$2,$3,$4,$5,0*20,1,$1,$4,$5,0-$2,0-$3,0*20,1,$1,0-$2,0-$3,0-$4,0-$5,0*20,1,$1,0-$4,0-$5,$2,$3,0*4,1,4,$2,$3,$4,$5,0-$2,0-$3,0-$4,0-$5,$2,$3,0*%
%ADD10RoundRect,0.09422X-0.7649X-0.7649X-0.7649X0.7649*%
%ADD11RoundRect,0.09412X-0.75294X0.75294X0.75294X0.75294*%
%ADD12C,1.6*%
%ADD13RoundRect,0.18736X-1.40792X-1.10792X-1.40792X1.10792*%
%ADD14O,3.00319X2.1032*%
%ADD15C,1.508*%
%ADD16C,1.6354*%
%ADD17C,1.6256*%
%ADD18C,5.1016*%
G75*


G04 Pad Start*
G54D10*
G01X6400997Y-5685071D03*
G01X6400997Y-5935083D03*
G01X6400997Y-4685071D03*
G01X6400997Y-4935083D03*
G01X6400997Y-3685071D03*
G01X6400997Y-3935083D03*
G01X6400997Y-2685071D03*
G01X6400997Y-2935083D03*
G01X5400997Y-5685071D03*
G01X5400997Y-5935083D03*
G01X5400997Y-4685071D03*
G01X5400997Y-4935083D03*
G01X5400997Y-3685071D03*
G01X5400997Y-3935083D03*
G01X5400997Y-2685071D03*
G01X5400997Y-2935083D03*
G01X7401000Y-4685094D03*
G01X7401000Y-4935106D03*
G01X7401000Y-5685094D03*
G01X7401000Y-5935106D03*
G54D11*
G01X884880Y-5319360D03*
G54D12*
G01X1084880Y-5319360D03*
G54D13*
G01X7404580Y-3595665D03*
G54D14*
G01X7404580Y-3345652D03*
G01X7404580Y-3095666D03*
G54D11*
G01X804580Y-984760D03*
G54D12*
G01X1004580Y-984760D03*
G54D15*
G01X8205577Y-1310760D03*
G01X7951577Y-1310760D03*
G01X7697578Y-1310760D03*
G01X7443578Y-1310760D03*
G01X7189579Y-1310760D03*
G01X6935579Y-1310760D03*
G01X6681580Y-1310760D03*
G01X6427580Y-1310760D03*
G01X6173581Y-1310760D03*
G01X5919582Y-1310760D03*
G01X5665582Y-1310760D03*
G01X5411583Y-1310760D03*
G01X5157583Y-1310760D03*
G01X4903584Y-1310760D03*
G54D17*
G01X4333980Y-6135160D03*
G01X4333980Y-5881160D03*
G01X4333980Y-5627160D03*
G01X4333980Y-5373160D03*
G01X4333980Y-5119160D03*
G01X4333980Y-4865160D03*
G01X4333980Y-4611160D03*
G01X4333980Y-4357160D03*
G01X4333980Y-4103160D03*
G01X4333980Y-3849160D03*
G01X4333980Y-3595160D03*
G01X4333980Y-801160D03*
G01X4333980Y-1055160D03*
G01X4333980Y-1309160D03*
G01X4333980Y-1563160D03*
G01X4333980Y-1817160D03*
G01X4333980Y-2071160D03*
G01X4333980Y-2325160D03*
G01X4333980Y-2579160D03*
G01X4333980Y-2833160D03*
G01X4333980Y-3087160D03*
G01X4333980Y-3341160D03*
G01X2022580Y-3341160D03*
G01X2022580Y-3087160D03*
G01X2022580Y-2833160D03*
G01X2022580Y-2579160D03*
G01X2022580Y-2325160D03*
G01X2022580Y-2071160D03*
G01X2022580Y-1817160D03*
G01X2022580Y-1563160D03*
G01X2022580Y-1309160D03*
G01X2022580Y-1055160D03*
G01X2022580Y-801160D03*
G01X2022580Y-3595160D03*
G01X2022580Y-3849160D03*
G01X2022580Y-4103160D03*
G01X2022580Y-4357160D03*
G01X2022580Y-4611160D03*
G01X2022580Y-4865160D03*
G01X2022580Y-5119160D03*
G01X2022580Y-5373160D03*
G01X2022580Y-5627160D03*
G01X2022580Y-5881160D03*
G01X2022580Y-6135160D03*
G54D18*
G01X400000Y-6600000D03*
G01X8100000Y-6600000D03*
G01X400000Y-400000D03*
G01X8100000Y-400000D03*
G04 Pad End*

M02*

